<?xml version="1.0" encoding="UTF-8"?>
<svg xmlns="http://www.w3.org/2000/svg" xmlns:xlink="http://www.w3.org/1999/xlink" width="504pt" height="504pt" viewBox="0 0 504 504" version="1.1">
<g id="surface107">
<rect x="0" y="0" width="504" height="504" style="fill:rgb(100%,100%,100%);fill-opacity:1;stroke:none;"/>
<path style=" stroke:none;fill-rule:nonzero;fill:rgb(74.509804%,74.509804%,74.509804%);fill-opacity:1;" d="M 109.800781 252 C 109.800781 256.96875 105.769531 261 100.800781 261 C 95.828125 261 91.800781 256.96875 91.800781 252 C 91.800781 247.03125 95.828125 243 100.800781 243 C 105.769531 243 109.800781 247.03125 109.800781 252 "/>
<path style=" stroke:none;fill-rule:nonzero;fill:rgb(74.509804%,74.509804%,74.509804%);fill-opacity:1;" d="M 210.601562 201.601562 C 210.601562 206.570312 206.570312 210.601562 201.601562 210.601562 C 196.628906 210.601562 192.601562 206.570312 192.601562 201.601562 C 192.601562 196.628906 196.628906 192.601562 201.601562 192.601562 C 206.570312 192.601562 210.601562 196.628906 210.601562 201.601562 "/>
<path style=" stroke:none;fill-rule:nonzero;fill:rgb(74.509804%,74.509804%,74.509804%);fill-opacity:1;" d="M 311.398438 302.398438 C 311.398438 307.371094 307.371094 311.398438 302.398438 311.398438 C 297.429688 311.398438 293.398438 307.371094 293.398438 302.398438 C 293.398438 297.429688 297.429688 293.398438 302.398438 293.398438 C 307.371094 293.398438 311.398438 297.429688 311.398438 302.398438 "/>
<path style=" stroke:none;fill-rule:nonzero;fill:rgb(74.509804%,74.509804%,74.509804%);fill-opacity:1;" d="M 412.199219 252 C 412.199219 256.96875 408.171875 261 403.199219 261 C 398.230469 261 394.199219 256.96875 394.199219 252 C 394.199219 247.03125 398.230469 243 403.199219 243 C 408.171875 243 412.199219 247.03125 412.199219 252 "/>
<path style="fill-rule:nonzero;fill:rgb(0%,0%,0%);fill-opacity:1;stroke-width:0.75;stroke-linecap:round;stroke-linejoin:round;stroke:rgb(0%,0%,0%);stroke-opacity:1;stroke-miterlimit:10;" d="M 100.800781 252 L 100.824219 251.984375 L 100.988281 251.882812 L 101.453125 251.59375 L 102.367188 251.019531 L 103.867188 250.082031 L 106.035156 248.730469 L 108.921875 246.925781 L 112.5625 244.652344 L 117.035156 241.855469 L 117.976562 241.269531 L 120.554688 239.664062 L 123.398438 237.914062 L 126.535156 236.03125 L 129.972656 234.03125 L 133.714844 231.945312 L 137.757812 229.800781 L 142.078125 227.640625 L 146.65625 225.5 L 151.449219 223.425781 L 156.414062 221.464844 L 161.503906 219.660156 L 166.671875 218.058594 L 171.867188 216.691406 L 177.050781 215.59375 L 182.191406 214.792969 L 187.261719 214.304688 L 192.25 214.148438 L 197.167969 214.339844 L 202.03125 214.898438 L 203.492188 215.140625 L 207.808594 216.066406 L 212.160156 217.292969 L 216.578125 218.8125 L 221.082031 220.617188 L 225.683594 222.679688 L 230.382812 224.992188 L 235.179688 227.523438 L 240.054688 230.246094 L 245 233.121094 L 249.988281 236.105469 L 254.992188 239.164062 L 259.988281 242.246094 L 264.945312 245.304688 L 269.84375 248.296875 L 274.660156 251.179688 L 279.378906 253.921875 L 283.992188 256.492188 L 288.496094 258.855469 L 292.898438 261.003906 L 297.214844 262.910156 L 301.464844 264.570312 L 304.292969 265.542969 L 309.214844 266.957031 L 314.175781 268.050781 L 319.203125 268.839844 L 324.304688 269.34375 L 329.46875 269.574219 L 334.675781 269.542969 L 339.890625 269.273438 L 345.070312 268.785156 L 350.160156 268.105469 L 355.113281 267.261719 L 359.878906 266.285156 L 364.40625 265.214844 L 368.664062 264.085938 L 372.621094 262.929688 L 376.265625 261.777344 L 379.59375 260.660156 L 382.609375 259.59375 L 385.332031 258.601562 L 386.777344 258.066406 L 391.523438 256.316406 L 395.324219 254.910156 L 398.289062 253.8125 L 400.464844 253.011719 L 401.90625 252.476562 L 402.730469 252.171875 L 403.097656 252.039062 L 403.195312 252 L 403.199219 252 L 403.175781 252.015625 L 403.011719 252.117188 L 402.546875 252.40625 L 401.632812 252.980469 L 400.132812 253.917969 L 397.964844 255.269531 L 395.078125 257.074219 L 391.4375 259.347656 L 386.964844 262.144531 L 386.023438 262.730469 L 383.445312 264.335938 L 380.601562 266.085938 L 377.464844 267.96875 L 374.027344 269.96875 L 370.285156 272.054688 L 366.242188 274.199219 L 361.921875 276.359375 L 357.34375 278.5 L 352.550781 280.574219 L 347.585938 282.535156 L 342.496094 284.339844 L 337.328125 285.941406 L 332.132812 287.308594 L 326.949219 288.40625 L 321.808594 289.207031 L 316.738281 289.695312 L 311.75 289.851562 L 306.832031 289.660156 L 301.96875 289.101562 L 300.507812 288.859375 L 296.191406 287.933594 L 291.839844 286.707031 L 287.421875 285.1875 L 282.917969 283.382812 L 278.316406 281.320312 L 273.617188 279.007812 L 268.820312 276.476562 L 263.945312 273.753906 L 259 270.878906 L 254.011719 267.894531 L 249.007812 264.835938 L 244.011719 261.753906 L 239.054688 258.695312 L 234.15625 255.703125 L 229.339844 252.820312 L 224.621094 250.078125 L 220.007812 247.507812 L 215.503906 245.144531 L 211.101562 242.996094 L 206.785156 241.089844 L 202.535156 239.429688 L 199.707031 238.457031 L 194.785156 237.042969 L 189.824219 235.949219 L 184.796875 235.160156 L 179.695312 234.65625 L 174.53125 234.425781 L 169.324219 234.457031 L 164.109375 234.726562 L 158.929688 235.214844 L 153.839844 235.894531 L 148.886719 236.738281 L 144.121094 237.714844 L 139.59375 238.785156 L 135.335938 239.914062 L 131.378906 241.070312 L 127.734375 242.222656 L 124.40625 243.339844 L 121.390625 244.40625 L 118.667969 245.398438 L 117.222656 245.933594 L 112.476562 247.683594 L 108.675781 249.089844 L 105.710938 250.1875 L 103.535156 250.988281 L 102.09375 251.523438 L 101.269531 251.828125 L 100.902344 251.960938 L 100.804688 252 Z M 100.800781 252 "/>
</g>
</svg>
