<?xml version="1.0" encoding="UTF-8"?>
<svg xmlns="http://www.w3.org/2000/svg" xmlns:xlink="http://www.w3.org/1999/xlink" width="504pt" height="504pt" viewBox="0 0 504 504" version="1.1">
<g id="surface142">
<rect x="0" y="0" width="504" height="504" style="fill:rgb(100%,100%,100%);fill-opacity:1;stroke:none;"/>
<path style=" stroke:none;fill-rule:nonzero;fill:rgb(74.509804%,74.509804%,74.509804%);fill-opacity:1;" d="M 109.800781 252 C 109.800781 256.96875 105.769531 261 100.800781 261 C 95.828125 261 91.800781 256.96875 91.800781 252 C 91.800781 247.03125 95.828125 243 100.800781 243 C 105.769531 243 109.800781 247.03125 109.800781 252 "/>
<path style=" stroke:none;fill-rule:nonzero;fill:rgb(74.509804%,74.509804%,74.509804%);fill-opacity:1;" d="M 210.601562 201.601562 C 210.601562 206.570312 206.570312 210.601562 201.601562 210.601562 C 196.628906 210.601562 192.601562 206.570312 192.601562 201.601562 C 192.601562 196.628906 196.628906 192.601562 201.601562 192.601562 C 206.570312 192.601562 210.601562 196.628906 210.601562 201.601562 "/>
<path style=" stroke:none;fill-rule:nonzero;fill:rgb(74.509804%,74.509804%,74.509804%);fill-opacity:1;" d="M 311.398438 302.398438 C 311.398438 307.371094 307.371094 311.398438 302.398438 311.398438 C 297.429688 311.398438 293.398438 307.371094 293.398438 302.398438 C 293.398438 297.429688 297.429688 293.398438 302.398438 293.398438 C 307.371094 293.398438 311.398438 297.429688 311.398438 302.398438 "/>
<path style=" stroke:none;fill-rule:nonzero;fill:rgb(74.509804%,74.509804%,74.509804%);fill-opacity:1;" d="M 412.199219 252 C 412.199219 256.96875 408.171875 261 403.199219 261 C 398.230469 261 394.199219 256.96875 394.199219 252 C 394.199219 247.03125 398.230469 243 403.199219 243 C 408.171875 243 412.199219 247.03125 412.199219 252 "/>
<path style="fill-rule:nonzero;fill:rgb(0%,0%,0%);fill-opacity:1;stroke-width:0.75;stroke-linecap:round;stroke-linejoin:round;stroke:rgb(0%,0%,0%);stroke-opacity:1;stroke-miterlimit:10;" d="M 402.652344 252.128906 L 401.261719 252.449219 L 399.996094 252.738281 L 398.679688 253.042969 L 397.75 253.25 L 394.761719 253.925781 L 391.277344 254.703125 L 389.554688 255.089844 L 387.171875 255.609375 L 383.257812 256.476562 L 377.574219 257.707031 L 376.175781 258.011719 L 372.257812 258.835938 L 368.671875 259.609375 L 366.660156 260.011719 L 361.082031 261.175781 L 354.480469 262.484375 L 353.691406 262.640625 L 347.953125 263.695312 L 346.691406 263.925781 L 341.035156 264.855469 L 340.207031 264.980469 L 334.304688 265.765625 L 329 266.269531 L 326.363281 266.375 L 324.253906 266.480469 L 320.011719 266.402344 L 318.996094 266.28125 L 316.183594 266.078125 L 312.632812 265.496094 L 311.539062 265.203125 L 309.214844 264.6875 L 305.714844 263.605469 L 303.617188 262.816406 L 302.25 262.246094 L 300.085938 261.382812 L 296.480469 259.714844 L 294.453125 258.664062 L 292.703125 257.785156 L 288.738281 255.605469 L 287.289062 254.746094 L 284.585938 253.183594 L 280.253906 250.539062 L 275.757812 247.699219 L 271.117188 244.703125 L 267.730469 242.488281 L 266.351562 241.589844 L 265.253906 240.867188 L 263.414062 239.667969 L 261.472656 238.421875 L 260.054688 237.546875 L 260.027344 237.53125 L 258.910156 236.871094 L 257.429688 236.015625 L 256.375 235.40625 L 255.324219 234.8125 L 252.488281 233.210938 L 251.214844 232.492188 L 248.5625 231.027344 L 246.035156 229.640625 L 243.433594 228.253906 L 240.859375 226.890625 L 236.984375 224.925781 L 235.699219 224.277344 L 230.5625 221.835938 L 228.765625 221.039062 L 225.449219 219.597656 L 220.351562 217.585938 L 218.980469 217.097656 L 215.25 215.839844 L 210.132812 214.367188 L 207.855469 213.839844 L 205 213.21875 L 200.511719 212.496094 L 195.007812 212.019531 L 189.378906 211.972656 L 183.675781 212.421875 L 177.890625 213.328125 L 171.980469 214.714844 L 168.722656 215.679688 L 165.894531 216.550781 L 160.636719 218.460938 L 159.582031 218.839844 L 153.019531 221.578125 L 146.21875 224.75 L 140.671875 227.570312 L 139.257812 228.296875 L 135.039062 230.589844 L 132.273438 232.121094 L 129.785156 233.546875 L 125.46875 236.070312 L 120.359375 239.179688 L 119.101562 239.949219 L 116.164062 241.800781 L 113.445312 243.53125 L 112.402344 244.207031 L 108.75 246.59375 L 106.402344 248.164062 L 105.179688 248.984375 L 104.238281 249.621094 L 102.769531 250.625 L 101.417969 251.5625 L 100.882812 251.941406 L 100.800781 252 L 100.898438 251.976562 L 101.535156 251.828125 L 103.136719 251.457031 L 104.871094 251.0625 L 105.972656 250.808594 L 107.402344 250.488281 L 110.144531 249.867188 L 114.394531 248.925781 L 115.585938 248.65625 L 118.710938 247.976562 L 122.0625 247.234375 L 123.46875 246.941406 L 129.25 245.683594 L 134.085938 244.667969 L 136.796875 244.082031 L 139.800781 243.480469 L 144.367188 242.527344 L 145.789062 242.269531 L 151.699219 241.097656 L 158.605469 239.855469 L 164.976562 238.84375 L 165.714844 238.777344 L 170.761719 238.109375 L 173.214844 237.917969 L 175.960938 237.664062 L 180.601562 237.523438 L 184.753906 237.632812 L 188.519531 238.023438 L 192.035156 238.636719 L 195.488281 239.515625 L 198.171875 240.375 L 200.144531 241.117188 L 201.582031 241.640625 L 205.085938 243.136719 L 207.988281 244.535156 L 208.746094 244.898438 L 212.585938 246.902344 L 215.277344 248.425781 L 216.613281 249.167969 L 220.824219 251.667969 L 221.746094 252.246094 L 225.214844 254.378906 L 227.4375 255.800781 L 229.757812 257.273438 L 232.007812 258.738281 L 234.445312 260.3125 L 235.558594 261.046875 L 238.285156 262.828125 L 239.246094 263.457031 L 240.214844 264.089844 L 241.648438 265.019531 L 242.746094 265.71875 L 242.773438 265.734375 L 244.207031 266.609375 L 246.207031 267.777344 L 248.117188 268.871094 L 249.328125 269.558594 L 250.832031 270.40625 L 254.496094 272.460938 L 259.675781 275.28125 L 264.847656 277.992188 L 270.003906 280.550781 L 273.175781 282.027344 L 275.128906 282.925781 L 280.238281 285.09375 L 282.585938 285.992188 L 285.332031 287.019531 L 290.4375 288.679688 L 293.402344 289.484375 L 295.496094 290.035156 L 299.113281 290.804688 L 304.507812 291.617188 L 307.898438 291.882812 L 310.074219 292.03125 L 315.71875 291.96875 L 319.523438 291.628906 L 321.433594 291.441406 L 327.238281 290.433594 L 330.03125 289.769531 L 333.179688 288.964844 L 339.308594 287.046875 L 345.664062 284.664062 L 346.777344 284.214844 L 352.277344 281.835938 L 353.683594 281.191406 L 359.113281 278.589844 L 360.007812 278.152344 L 366.09375 274.984375 L 371.195312 272.164062 L 373.0625 271.121094 L 376.308594 269.234375 L 379.804688 267.164062 L 381.074219 266.398438 L 386.054688 263.328125 L 389.46875 261.160156 L 391.542969 259.832031 L 393.035156 258.859375 L 396.03125 256.890625 L 398.578125 255.175781 L 399.375 254.640625 L 400.496094 253.875 L 401.566406 253.140625 L 402.738281 252.324219 L 403.15625 252.03125 L 403.199219 252 L 403.148438 252.011719 Z M 402.652344 252.128906 "/>
</g>
</svg>
