<?xml version="1.0" encoding="UTF-8"?>
<svg xmlns="http://www.w3.org/2000/svg" xmlns:xlink="http://www.w3.org/1999/xlink" width="504pt" height="504pt" viewBox="0 0 504 504" version="1.1">
<g id="surface101">
<rect x="0" y="0" width="504" height="504" style="fill:rgb(100%,100%,100%);fill-opacity:1;stroke:none;"/>
<path style=" stroke:none;fill-rule:nonzero;fill:rgb(74.509804%,74.509804%,74.509804%);fill-opacity:1;" d="M 109.800781 252 C 109.800781 256.96875 105.769531 261 100.800781 261 C 95.828125 261 91.800781 256.96875 91.800781 252 C 91.800781 247.03125 95.828125 243 100.800781 243 C 105.769531 243 109.800781 247.03125 109.800781 252 "/>
<path style=" stroke:none;fill-rule:nonzero;fill:rgb(74.509804%,74.509804%,74.509804%);fill-opacity:1;" d="M 210.601562 201.601562 C 210.601562 206.570312 206.570312 210.601562 201.601562 210.601562 C 196.628906 210.601562 192.601562 206.570312 192.601562 201.601562 C 192.601562 196.628906 196.628906 192.601562 201.601562 192.601562 C 206.570312 192.601562 210.601562 196.628906 210.601562 201.601562 "/>
<path style=" stroke:none;fill-rule:nonzero;fill:rgb(74.509804%,74.509804%,74.509804%);fill-opacity:1;" d="M 311.398438 302.398438 C 311.398438 307.371094 307.371094 311.398438 302.398438 311.398438 C 297.429688 311.398438 293.398438 307.371094 293.398438 302.398438 C 293.398438 297.429688 297.429688 293.398438 302.398438 293.398438 C 307.371094 293.398438 311.398438 297.429688 311.398438 302.398438 "/>
<path style=" stroke:none;fill-rule:nonzero;fill:rgb(74.509804%,74.509804%,74.509804%);fill-opacity:1;" d="M 412.199219 252 C 412.199219 256.96875 408.171875 261 403.199219 261 C 398.230469 261 394.199219 256.96875 394.199219 252 C 394.199219 247.03125 398.230469 243 403.199219 243 C 408.171875 243 412.199219 247.03125 412.199219 252 "/>
<path style="fill:none;stroke-width:22.5;stroke-linecap:round;stroke-linejoin:round;stroke:rgb(0%,0%,0%);stroke-opacity:1;stroke-miterlimit:10;" d="M 100.800781 252 L 100.890625 251.960938 L 101.476562 251.695312 L 102.953125 251.042969 L 105.578125 249.894531 L 109.449219 248.230469 L 114.519531 246.09375 L 120.585938 243.589844 L 127.363281 240.875 L 134.539062 238.101562 L 141.820312 235.410156 L 148.96875 232.921875 L 155.820312 230.714844 L 162.289062 228.839844 L 168.339844 227.328125 L 173.980469 226.1875 L 179.257812 225.421875 L 184.226562 225.027344 L 188.964844 225 L 193.535156 225.328125 L 198.011719 226.007812 L 201.601562 226.800781 L 205.871094 228.007812 L 210.183594 229.492188 L 214.5625 231.246094 L 219.03125 233.257812 L 223.601562 235.507812 L 228.277344 237.980469 L 233.050781 240.640625 L 237.910156 243.464844 L 242.84375 246.410156 L 247.824219 249.441406 L 252.828125 252.507812 L 257.824219 255.566406 L 262.792969 258.574219 L 267.703125 261.484375 L 272.539062 264.257812 L 277.28125 266.859375 L 281.917969 269.261719 L 286.457031 271.433594 L 290.894531 273.359375 L 295.25 275.027344 L 299.542969 276.421875 L 302.398438 277.199219 L 306.847656 278.148438 L 311.339844 278.761719 L 315.9375 279.023438 L 320.710938 278.925781 L 325.734375 278.457031 L 331.078125 277.621094 L 336.796875 276.410156 L 342.925781 274.824219 L 349.472656 272.882812 L 356.394531 270.617188 L 363.582031 268.082031 L 370.863281 265.367188 L 377.984375 262.589844 L 384.652344 259.902344 L 390.546875 257.460938 L 395.394531 255.410156 L 399.027344 253.84375 L 401.414062 252.796875 L 402.695312 252.226562 L 403.152344 252.023438 L 403.199219 252 "/>
</g>
</svg>
