<?xml version="1.0" encoding="UTF-8"?>
<svg xmlns="http://www.w3.org/2000/svg" xmlns:xlink="http://www.w3.org/1999/xlink" width="504pt" height="504pt" viewBox="0 0 504 504" version="1.1">
<g id="surface155">
<path style=" stroke:none;fill-rule:nonzero;fill:rgb(74.509804%,74.509804%,74.509804%);fill-opacity:1;" d="M 160.199219 352.800781 C 160.199219 357.769531 156.171875 361.800781 151.199219 361.800781 C 146.230469 361.800781 142.199219 357.769531 142.199219 352.800781 C 142.199219 347.828125 146.230469 343.800781 151.199219 343.800781 C 156.171875 343.800781 160.199219 347.828125 160.199219 352.800781 "/>
<path style=" stroke:none;fill-rule:nonzero;fill:rgb(74.509804%,74.509804%,74.509804%);fill-opacity:1;" d="M 160.199219 151.199219 C 160.199219 156.171875 156.171875 160.199219 151.199219 160.199219 C 146.230469 160.199219 142.199219 156.171875 142.199219 151.199219 C 142.199219 146.230469 146.230469 142.199219 151.199219 142.199219 C 156.171875 142.199219 160.199219 146.230469 160.199219 151.199219 "/>
<path style=" stroke:none;fill-rule:nonzero;fill:rgb(74.509804%,74.509804%,74.509804%);fill-opacity:1;" d="M 261 151.199219 C 261 156.171875 256.96875 160.199219 252 160.199219 C 247.03125 160.199219 243 156.171875 243 151.199219 C 243 146.230469 247.03125 142.199219 252 142.199219 C 256.96875 142.199219 261 146.230469 261 151.199219 "/>
<path style=" stroke:none;fill-rule:nonzero;fill:rgb(74.509804%,74.509804%,74.509804%);fill-opacity:1;" d="M 261 352.800781 C 261 357.769531 256.96875 361.800781 252 361.800781 C 247.03125 361.800781 243 357.769531 243 352.800781 C 243 347.828125 247.03125 343.800781 252 343.800781 C 256.96875 343.800781 261 347.828125 261 352.800781 "/>
<path style=" stroke:none;fill-rule:nonzero;fill:rgb(0%,0%,0%);fill-opacity:1;" d="M 152.261719 352.800781 C 152.261719 354.21875 150.136719 354.21875 150.136719 352.800781 C 150.136719 351.382812 152.261719 351.382812 152.261719 352.800781 "/>
<path style=" stroke:none;fill-rule:nonzero;fill:rgb(0%,0%,0%);fill-opacity:1;" d="M 152.265625 352.714844 C 152.265625 354.132812 150.136719 354.132812 150.136719 352.714844 C 150.136719 351.296875 152.265625 351.296875 152.265625 352.714844 "/>
<path style=" stroke:none;fill-rule:nonzero;fill:rgb(0%,0%,0%);fill-opacity:1;" d="M 152.273438 352.152344 C 152.273438 353.570312 150.148438 353.570312 150.148438 352.152344 C 150.148438 350.734375 152.273438 350.734375 152.273438 352.152344 "/>
<path style=" stroke:none;fill-rule:nonzero;fill:rgb(0%,0%,0%);fill-opacity:1;" d="M 152.300781 350.710938 C 152.300781 352.128906 150.175781 352.128906 150.175781 350.710938 C 150.175781 349.296875 152.300781 349.296875 152.300781 350.710938 "/>
<path style=" stroke:none;fill-rule:nonzero;fill:rgb(0%,0%,0%);fill-opacity:1;" d="M 152.355469 348.09375 C 152.355469 349.511719 150.226562 349.511719 150.226562 348.09375 C 150.226562 346.675781 152.355469 346.675781 152.355469 348.09375 "/>
<path style=" stroke:none;fill-rule:nonzero;fill:rgb(0%,0%,0%);fill-opacity:1;" d="M 152.441406 344.101562 C 152.441406 345.515625 150.316406 345.515625 150.316406 344.101562 C 150.316406 342.683594 152.441406 342.683594 152.441406 344.101562 "/>
<path style=" stroke:none;fill-rule:nonzero;fill:rgb(0%,0%,0%);fill-opacity:1;" d="M 152.570312 338.648438 C 152.570312 340.066406 150.445312 340.066406 150.445312 338.648438 C 150.445312 337.230469 152.570312 337.230469 152.570312 338.648438 "/>
<path style=" stroke:none;fill-rule:nonzero;fill:rgb(0%,0%,0%);fill-opacity:1;" d="M 152.75 331.777344 C 152.75 333.195312 150.625 333.195312 150.625 331.777344 C 150.625 330.359375 152.75 330.359375 152.75 331.777344 "/>
<path style=" stroke:none;fill-rule:nonzero;fill:rgb(0%,0%,0%);fill-opacity:1;" d="M 152.984375 323.640625 C 152.984375 325.058594 150.859375 325.058594 150.859375 323.640625 C 150.859375 322.222656 152.984375 322.222656 152.984375 323.640625 "/>
<path style=" stroke:none;fill-rule:nonzero;fill:rgb(0%,0%,0%);fill-opacity:1;" d="M 153.277344 314.476562 C 153.277344 315.894531 151.152344 315.894531 151.152344 314.476562 C 151.152344 313.058594 153.277344 313.058594 153.277344 314.476562 "/>
<path style=" stroke:none;fill-rule:nonzero;fill:rgb(0%,0%,0%);fill-opacity:1;" d="M 153.625 304.570312 C 153.625 305.988281 151.5 305.988281 151.5 304.570312 C 151.5 303.152344 153.625 303.152344 153.625 304.570312 "/>
<path style=" stroke:none;fill-rule:nonzero;fill:rgb(0%,0%,0%);fill-opacity:1;" d="M 154.03125 294.230469 C 154.03125 295.648438 151.90625 295.648438 151.90625 294.230469 C 151.90625 292.8125 154.03125 292.8125 154.03125 294.230469 "/>
<path style=" stroke:none;fill-rule:nonzero;fill:rgb(0%,0%,0%);fill-opacity:1;" d="M 154.496094 283.753906 C 154.496094 285.171875 152.367188 285.171875 152.367188 283.753906 C 152.367188 282.335938 154.496094 282.335938 154.496094 283.753906 "/>
<path style=" stroke:none;fill-rule:nonzero;fill:rgb(0%,0%,0%);fill-opacity:1;" d="M 155.011719 273.394531 C 155.011719 274.8125 152.886719 274.8125 152.886719 273.394531 C 152.886719 271.976562 155.011719 271.976562 155.011719 273.394531 "/>
<path style=" stroke:none;fill-rule:nonzero;fill:rgb(0%,0%,0%);fill-opacity:1;" d="M 155.585938 263.355469 C 155.585938 264.773438 153.460938 264.773438 153.460938 263.355469 C 153.460938 261.9375 155.585938 261.9375 155.585938 263.355469 "/>
<path style=" stroke:none;fill-rule:nonzero;fill:rgb(0%,0%,0%);fill-opacity:1;" d="M 156.214844 253.789062 C 156.214844 255.207031 154.089844 255.207031 154.089844 253.789062 C 154.089844 252.375 156.214844 252.375 156.214844 253.789062 "/>
<path style=" stroke:none;fill-rule:nonzero;fill:rgb(0%,0%,0%);fill-opacity:1;" d="M 156.902344 244.796875 C 156.902344 246.214844 154.773438 246.214844 154.773438 244.796875 C 154.773438 243.378906 156.902344 243.378906 156.902344 244.796875 "/>
<path style=" stroke:none;fill-rule:nonzero;fill:rgb(0%,0%,0%);fill-opacity:1;" d="M 157.648438 236.429688 C 157.648438 237.847656 155.519531 237.847656 155.519531 236.429688 C 155.519531 235.011719 157.648438 235.011719 157.648438 236.429688 "/>
<path style=" stroke:none;fill-rule:nonzero;fill:rgb(0%,0%,0%);fill-opacity:1;" d="M 158.457031 228.707031 C 158.457031 230.125 156.332031 230.125 156.332031 228.707031 C 156.332031 227.289062 158.457031 227.289062 158.457031 228.707031 "/>
<path style=" stroke:none;fill-rule:nonzero;fill:rgb(0%,0%,0%);fill-opacity:1;" d="M 159.335938 221.625 C 159.335938 223.042969 157.210938 223.042969 157.210938 221.625 C 157.210938 220.207031 159.335938 220.207031 159.335938 221.625 "/>
<path style=" stroke:none;fill-rule:nonzero;fill:rgb(0%,0%,0%);fill-opacity:1;" d="M 160.296875 215.152344 C 160.296875 216.570312 158.167969 216.570312 158.167969 215.152344 C 158.167969 213.738281 160.296875 213.738281 160.296875 215.152344 "/>
<path style=" stroke:none;fill-rule:nonzero;fill:rgb(0%,0%,0%);fill-opacity:1;" d="M 161.339844 209.257812 C 161.339844 210.675781 159.210938 210.675781 159.210938 209.257812 C 159.210938 207.839844 161.339844 207.839844 161.339844 209.257812 "/>
<path style=" stroke:none;fill-rule:nonzero;fill:rgb(0%,0%,0%);fill-opacity:1;" d="M 162.476562 203.886719 C 162.476562 205.304688 160.351562 205.304688 160.351562 203.886719 C 160.351562 202.46875 162.476562 202.46875 162.476562 203.886719 "/>
<path style=" stroke:none;fill-rule:nonzero;fill:rgb(0%,0%,0%);fill-opacity:1;" d="M 163.722656 198.992188 C 163.722656 200.410156 161.59375 200.410156 161.59375 198.992188 C 161.59375 197.574219 163.722656 197.574219 163.722656 198.992188 "/>
<path style=" stroke:none;fill-rule:nonzero;fill:rgb(0%,0%,0%);fill-opacity:1;" d="M 165.078125 194.523438 C 165.078125 195.941406 162.953125 195.941406 162.953125 194.523438 C 162.953125 193.105469 165.078125 193.105469 165.078125 194.523438 "/>
<path style=" stroke:none;fill-rule:nonzero;fill:rgb(0%,0%,0%);fill-opacity:1;" d="M 166.558594 190.429688 C 166.558594 191.847656 164.433594 191.847656 164.433594 190.429688 C 164.433594 189.011719 166.558594 189.011719 166.558594 190.429688 "/>
<path style=" stroke:none;fill-rule:nonzero;fill:rgb(0%,0%,0%);fill-opacity:1;" d="M 168.167969 186.660156 C 168.167969 188.078125 166.042969 188.078125 166.042969 186.660156 C 166.042969 185.242188 168.167969 185.242188 168.167969 186.660156 "/>
<path style=" stroke:none;fill-rule:nonzero;fill:rgb(0%,0%,0%);fill-opacity:1;" d="M 169.0625 184.800781 C 169.0625 186.21875 166.9375 186.21875 166.9375 184.800781 C 166.9375 183.382812 169.0625 183.382812 169.0625 184.800781 "/>
<path style=" stroke:none;fill-rule:nonzero;fill:rgb(0%,0%,0%);fill-opacity:1;" d="M 171.183594 180.90625 C 171.183594 182.320312 169.058594 182.320312 169.058594 180.90625 C 169.058594 179.488281 171.183594 179.488281 171.183594 180.90625 "/>
<path style=" stroke:none;fill-rule:nonzero;fill:rgb(0%,0%,0%);fill-opacity:1;" d="M 173.484375 177.335938 C 173.484375 178.753906 171.359375 178.753906 171.359375 177.335938 C 171.359375 175.917969 173.484375 175.917969 173.484375 177.335938 "/>
<path style=" stroke:none;fill-rule:nonzero;fill:rgb(0%,0%,0%);fill-opacity:1;" d="M 175.96875 174.085938 C 175.96875 175.503906 173.839844 175.503906 173.839844 174.085938 C 173.839844 172.667969 175.96875 172.667969 175.96875 174.085938 "/>
<path style=" stroke:none;fill-rule:nonzero;fill:rgb(0%,0%,0%);fill-opacity:1;" d="M 178.632812 171.152344 C 178.632812 172.570312 176.507812 172.570312 176.507812 171.152344 C 176.507812 169.734375 178.632812 169.734375 178.632812 171.152344 "/>
<path style=" stroke:none;fill-rule:nonzero;fill:rgb(0%,0%,0%);fill-opacity:1;" d="M 181.480469 168.546875 C 181.480469 169.964844 179.351562 169.964844 179.351562 168.546875 C 179.351562 167.128906 181.480469 167.128906 181.480469 168.546875 "/>
<path style=" stroke:none;fill-rule:nonzero;fill:rgb(0%,0%,0%);fill-opacity:1;" d="M 184.492188 166.277344 C 184.492188 167.695312 182.363281 167.695312 182.363281 166.277344 C 182.363281 164.859375 184.492188 164.859375 184.492188 166.277344 "/>
<path style=" stroke:none;fill-rule:nonzero;fill:rgb(0%,0%,0%);fill-opacity:1;" d="M 187.65625 164.363281 C 187.65625 165.78125 185.527344 165.78125 185.527344 164.363281 C 185.527344 162.945312 187.65625 162.945312 187.65625 164.363281 "/>
<path style=" stroke:none;fill-rule:nonzero;fill:rgb(0%,0%,0%);fill-opacity:1;" d="M 190.953125 162.820312 C 190.953125 164.234375 188.824219 164.234375 188.824219 162.820312 C 188.824219 161.402344 190.953125 161.402344 190.953125 162.820312 "/>
<path style=" stroke:none;fill-rule:nonzero;fill:rgb(0%,0%,0%);fill-opacity:1;" d="M 194.355469 161.660156 C 194.355469 163.074219 192.230469 163.074219 192.230469 161.660156 C 192.230469 160.242188 194.355469 160.242188 194.355469 161.660156 "/>
<path style=" stroke:none;fill-rule:nonzero;fill:rgb(0%,0%,0%);fill-opacity:1;" d="M 197.835938 160.898438 C 197.835938 162.3125 195.710938 162.3125 195.710938 160.898438 C 195.710938 159.480469 197.835938 159.480469 197.835938 160.898438 "/>
<path style=" stroke:none;fill-rule:nonzero;fill:rgb(0%,0%,0%);fill-opacity:1;" d="M 201.363281 160.539062 C 201.363281 161.957031 199.238281 161.957031 199.238281 160.539062 C 199.238281 159.125 201.363281 159.125 201.363281 160.539062 "/>
<path style=" stroke:none;fill-rule:nonzero;fill:rgb(0%,0%,0%);fill-opacity:1;" d="M 204.90625 160.59375 C 204.90625 162.011719 202.78125 162.011719 202.78125 160.59375 C 202.78125 159.179688 204.90625 159.179688 204.90625 160.59375 "/>
<path style=" stroke:none;fill-rule:nonzero;fill:rgb(0%,0%,0%);fill-opacity:1;" d="M 208.425781 161.058594 C 208.425781 162.476562 206.296875 162.476562 206.296875 161.058594 C 206.296875 159.644531 208.425781 159.644531 208.425781 161.058594 "/>
<path style=" stroke:none;fill-rule:nonzero;fill:rgb(0%,0%,0%);fill-opacity:1;" d="M 211.886719 161.929688 C 211.886719 163.347656 209.761719 163.347656 209.761719 161.929688 C 209.761719 160.511719 211.886719 160.511719 211.886719 161.929688 "/>
<path style=" stroke:none;fill-rule:nonzero;fill:rgb(0%,0%,0%);fill-opacity:1;" d="M 215.265625 163.195312 C 215.265625 164.609375 213.140625 164.609375 213.140625 163.195312 C 213.140625 161.777344 215.265625 161.777344 215.265625 163.195312 "/>
<path style=" stroke:none;fill-rule:nonzero;fill:rgb(0%,0%,0%);fill-opacity:1;" d="M 218.527344 164.839844 C 218.527344 166.253906 216.402344 166.253906 216.402344 164.839844 C 216.402344 163.421875 218.527344 163.421875 218.527344 164.839844 "/>
<path style=" stroke:none;fill-rule:nonzero;fill:rgb(0%,0%,0%);fill-opacity:1;" d="M 221.65625 166.847656 C 221.65625 168.265625 219.527344 168.265625 219.527344 166.847656 C 219.527344 165.429688 221.65625 165.429688 221.65625 166.847656 "/>
<path style=" stroke:none;fill-rule:nonzero;fill:rgb(0%,0%,0%);fill-opacity:1;" d="M 224.625 169.207031 C 224.625 170.625 222.496094 170.625 222.496094 169.207031 C 222.496094 167.792969 224.625 167.792969 224.625 169.207031 "/>
<path style=" stroke:none;fill-rule:nonzero;fill:rgb(0%,0%,0%);fill-opacity:1;" d="M 227.421875 171.902344 C 227.421875 173.320312 225.296875 173.320312 225.296875 171.902344 C 225.296875 170.484375 227.421875 170.484375 227.421875 171.902344 "/>
<path style=" stroke:none;fill-rule:nonzero;fill:rgb(0%,0%,0%);fill-opacity:1;" d="M 230.039062 174.921875 C 230.039062 176.339844 227.914062 176.339844 227.914062 174.921875 C 227.914062 173.503906 230.039062 173.503906 230.039062 174.921875 "/>
<path style=" stroke:none;fill-rule:nonzero;fill:rgb(0%,0%,0%);fill-opacity:1;" d="M 232.472656 178.257812 C 232.472656 179.675781 230.347656 179.675781 230.347656 178.257812 C 230.347656 176.839844 232.472656 176.839844 232.472656 178.257812 "/>
<path style=" stroke:none;fill-rule:nonzero;fill:rgb(0%,0%,0%);fill-opacity:1;" d="M 234.726562 181.910156 C 234.726562 183.328125 232.601562 183.328125 232.601562 181.910156 C 232.601562 180.492188 234.726562 180.492188 234.726562 181.910156 "/>
<path style=" stroke:none;fill-rule:nonzero;fill:rgb(0%,0%,0%);fill-opacity:1;" d="M 236.261719 184.800781 C 236.261719 186.21875 234.136719 186.21875 234.136719 184.800781 C 234.136719 183.382812 236.261719 183.382812 236.261719 184.800781 "/>
<path style=" stroke:none;fill-rule:nonzero;fill:rgb(0%,0%,0%);fill-opacity:1;" d="M 237.941406 188.417969 C 237.941406 189.835938 235.8125 189.835938 235.8125 188.417969 C 235.8125 187 237.941406 187 237.941406 188.417969 "/>
<path style=" stroke:none;fill-rule:nonzero;fill:rgb(0%,0%,0%);fill-opacity:1;" d="M 239.488281 192.335938 C 239.488281 193.753906 237.363281 193.753906 237.363281 192.335938 C 237.363281 190.917969 239.488281 190.917969 239.488281 192.335938 "/>
<path style=" stroke:none;fill-rule:nonzero;fill:rgb(0%,0%,0%);fill-opacity:1;" d="M 240.910156 196.601562 C 240.910156 198.019531 238.785156 198.019531 238.785156 196.601562 C 238.785156 195.1875 240.910156 195.1875 240.910156 196.601562 "/>
<path style=" stroke:none;fill-rule:nonzero;fill:rgb(0%,0%,0%);fill-opacity:1;" d="M 242.210938 201.269531 C 242.210938 202.6875 240.085938 202.6875 240.085938 201.269531 C 240.085938 199.851562 242.210938 199.851562 242.210938 201.269531 "/>
<path style=" stroke:none;fill-rule:nonzero;fill:rgb(0%,0%,0%);fill-opacity:1;" d="M 243.402344 206.382812 C 243.402344 207.800781 241.277344 207.800781 241.277344 206.382812 C 241.277344 204.964844 243.402344 204.964844 243.402344 206.382812 "/>
<path style=" stroke:none;fill-rule:nonzero;fill:rgb(0%,0%,0%);fill-opacity:1;" d="M 244.496094 212 C 244.496094 213.414062 242.371094 213.414062 242.371094 212 C 242.371094 210.582031 244.496094 210.582031 244.496094 212 "/>
<path style=" stroke:none;fill-rule:nonzero;fill:rgb(0%,0%,0%);fill-opacity:1;" d="M 245.496094 218.164062 C 245.496094 219.582031 243.371094 219.582031 243.371094 218.164062 C 243.371094 216.746094 245.496094 216.746094 245.496094 218.164062 "/>
<path style=" stroke:none;fill-rule:nonzero;fill:rgb(0%,0%,0%);fill-opacity:1;" d="M 246.417969 224.921875 C 246.417969 226.339844 244.292969 226.339844 244.292969 224.921875 C 244.292969 223.503906 246.417969 223.503906 246.417969 224.921875 "/>
<path style=" stroke:none;fill-rule:nonzero;fill:rgb(0%,0%,0%);fill-opacity:1;" d="M 247.261719 232.308594 C 247.261719 233.722656 245.136719 233.722656 245.136719 232.308594 C 245.136719 230.890625 247.261719 230.890625 247.261719 232.308594 "/>
<path style=" stroke:none;fill-rule:nonzero;fill:rgb(0%,0%,0%);fill-opacity:1;" d="M 248.042969 240.335938 C 248.042969 241.753906 245.917969 241.753906 245.917969 240.335938 C 245.917969 238.917969 248.042969 238.917969 248.042969 240.335938 "/>
<path style=" stroke:none;fill-rule:nonzero;fill:rgb(0%,0%,0%);fill-opacity:1;" d="M 248.757812 249.007812 C 248.757812 250.425781 246.632812 250.425781 246.632812 249.007812 C 246.632812 247.589844 248.757812 247.589844 248.757812 249.007812 "/>
<path style=" stroke:none;fill-rule:nonzero;fill:rgb(0%,0%,0%);fill-opacity:1;" d="M 249.417969 258.285156 C 249.417969 259.699219 247.292969 259.699219 247.292969 258.285156 C 247.292969 256.867188 249.417969 256.867188 249.417969 258.285156 "/>
<path style=" stroke:none;fill-rule:nonzero;fill:rgb(0%,0%,0%);fill-opacity:1;" d="M 250.019531 268.089844 C 250.019531 269.507812 247.894531 269.507812 247.894531 268.089844 C 247.894531 266.671875 250.019531 266.671875 250.019531 268.089844 "/>
<path style=" stroke:none;fill-rule:nonzero;fill:rgb(0%,0%,0%);fill-opacity:1;" d="M 250.566406 278.304688 C 250.566406 279.722656 248.441406 279.722656 248.441406 278.304688 C 248.441406 276.886719 250.566406 276.886719 250.566406 278.304688 "/>
<path style=" stroke:none;fill-rule:nonzero;fill:rgb(0%,0%,0%);fill-opacity:1;" d="M 251.058594 288.75 C 251.058594 290.164062 248.933594 290.164062 248.933594 288.75 C 248.933594 287.332031 251.058594 287.332031 251.058594 288.75 "/>
<path style=" stroke:none;fill-rule:nonzero;fill:rgb(0%,0%,0%);fill-opacity:1;" d="M 251.496094 299.191406 C 251.496094 300.609375 249.371094 300.609375 249.371094 299.191406 C 249.371094 297.777344 251.496094 297.777344 251.496094 299.191406 "/>
<path style=" stroke:none;fill-rule:nonzero;fill:rgb(0%,0%,0%);fill-opacity:1;" d="M 251.875 309.363281 C 251.875 310.78125 249.75 310.78125 249.75 309.363281 C 249.75 307.945312 251.875 307.945312 251.875 309.363281 "/>
<path style=" stroke:none;fill-rule:nonzero;fill:rgb(0%,0%,0%);fill-opacity:1;" d="M 252.195312 318.953125 C 252.195312 320.371094 250.070312 320.371094 250.070312 318.953125 C 250.070312 317.539062 252.195312 317.539062 252.195312 318.953125 "/>
<path style=" stroke:none;fill-rule:nonzero;fill:rgb(0%,0%,0%);fill-opacity:1;" d="M 252.457031 327.664062 C 252.457031 329.082031 250.332031 329.082031 250.332031 327.664062 C 250.332031 326.246094 252.457031 326.246094 252.457031 327.664062 "/>
<path style=" stroke:none;fill-rule:nonzero;fill:rgb(0%,0%,0%);fill-opacity:1;" d="M 252.667969 335.222656 C 252.667969 336.640625 250.539062 336.640625 250.539062 335.222656 C 250.539062 333.804688 252.667969 333.804688 252.667969 335.222656 "/>
<path style=" stroke:none;fill-rule:nonzero;fill:rgb(0%,0%,0%);fill-opacity:1;" d="M 252.820312 341.429688 C 252.820312 342.84375 250.695312 342.84375 250.695312 341.429688 C 250.695312 340.011719 252.820312 340.011719 252.820312 341.429688 "/>
<path style=" stroke:none;fill-rule:nonzero;fill:rgb(0%,0%,0%);fill-opacity:1;" d="M 252.929688 346.183594 C 252.929688 347.601562 250.804688 347.601562 250.804688 346.183594 C 250.804688 344.765625 252.929688 344.765625 252.929688 346.183594 "/>
<path style=" stroke:none;fill-rule:nonzero;fill:rgb(0%,0%,0%);fill-opacity:1;" d="M 253 349.503906 C 253 350.921875 250.875 350.921875 250.875 349.503906 C 250.875 348.085938 253 348.085938 253 349.503906 "/>
<path style=" stroke:none;fill-rule:nonzero;fill:rgb(0%,0%,0%);fill-opacity:1;" d="M 253.039062 351.527344 C 253.039062 352.945312 250.914062 352.945312 250.914062 351.527344 C 250.914062 350.113281 253.039062 350.113281 253.039062 351.527344 "/>
<path style=" stroke:none;fill-rule:nonzero;fill:rgb(0%,0%,0%);fill-opacity:1;" d="M 253.058594 352.507812 C 253.058594 353.925781 250.933594 353.925781 250.933594 352.507812 C 250.933594 351.089844 253.058594 351.089844 253.058594 352.507812 "/>
<path style=" stroke:none;fill-rule:nonzero;fill:rgb(0%,0%,0%);fill-opacity:1;" d="M 253.0625 352.789062 C 253.0625 354.203125 250.9375 354.203125 250.9375 352.789062 C 250.9375 351.371094 253.0625 351.371094 253.0625 352.789062 "/>
<path style=" stroke:none;fill-rule:nonzero;fill:rgb(0%,0%,0%);fill-opacity:1;" d="M 253.0625 352.800781 C 253.0625 354.21875 250.9375 354.21875 250.9375 352.800781 C 250.9375 351.382812 253.0625 351.382812 253.0625 352.800781 "/>
<path style=" stroke:none;fill-rule:nonzero;fill:rgb(100%,0%,0%);fill-opacity:0.501961;" d="M 151.199219 352.800781 L 151.152344 352.714844 L 151.25 352.714844 Z M 151.199219 352.800781 "/>
<path style=" stroke:none;fill-rule:nonzero;fill:rgb(100%,0%,0%);fill-opacity:0.501961;" d="M 151.25 352.714844 L 151.152344 352.714844 L 150.828125 352.144531 L 151.59375 352.15625 L 151.59375 352.160156 Z M 151.25 352.714844 "/>
<path style=" stroke:none;fill-rule:nonzero;fill:rgb(100%,0%,0%);fill-opacity:0.501961;" d="M 151.59375 352.160156 L 150.828125 352.144531 L 150.011719 350.691406 L 150.011719 350.6875 L 152.464844 350.734375 L 152.464844 350.738281 Z M 151.59375 352.160156 "/>
<path style=" stroke:none;fill-rule:nonzero;fill:rgb(100%,0%,0%);fill-opacity:0.501961;" d="M 152.464844 350.738281 L 150.011719 350.691406 L 148.546875 348.039062 L 148.546875 348.035156 L 154.035156 348.148438 L 154.035156 348.15625 Z M 152.464844 350.738281 "/>
<path style=" stroke:none;fill-rule:nonzero;fill:rgb(100%,0%,0%);fill-opacity:0.501961;" d="M 154.035156 348.15625 L 148.546875 348.039062 L 146.355469 343.988281 L 146.355469 343.980469 L 156.402344 344.210938 L 156.402344 344.21875 Z M 154.035156 348.15625 "/>
<path style=" stroke:none;fill-rule:nonzero;fill:rgb(100%,0%,0%);fill-opacity:0.501961;" d="M 156.402344 344.21875 L 146.355469 343.988281 L 143.421875 338.453125 L 143.421875 338.4375 L 159.59375 338.84375 L 159.59375 338.859375 Z M 156.402344 344.21875 "/>
<path style=" stroke:none;fill-rule:nonzero;fill:rgb(100%,0%,0%);fill-opacity:0.501961;" d="M 159.59375 338.859375 L 143.421875 338.453125 L 141.824219 335.371094 L 141.824219 335.351562 L 161.351562 335.859375 L 161.351562 335.878906 Z M 159.59375 338.859375 "/>
<path style=" stroke:none;fill-rule:nonzero;fill:rgb(100%,0%,0%);fill-opacity:0.501961;" d="M 161.351562 335.878906 L 141.824219 335.371094 L 139.832031 331.464844 L 139.835938 331.441406 L 163.542969 332.089844 L 163.542969 332.117188 Z M 161.351562 335.878906 "/>
<path style=" stroke:none;fill-rule:nonzero;fill:rgb(100%,0%,0%);fill-opacity:0.501961;" d="M 163.542969 332.117188 L 139.832031 331.464844 L 137.144531 326.070312 L 137.144531 326.039062 L 166.535156 326.886719 L 166.535156 326.914062 Z M 163.542969 332.117188 "/>
<path style=" stroke:none;fill-rule:nonzero;fill:rgb(100%,0%,0%);fill-opacity:0.501961;" d="M 166.535156 326.914062 L 137.144531 326.070312 L 135.742188 323.167969 L 135.746094 323.136719 L 168.101562 324.113281 L 168.101562 324.148438 Z M 166.535156 326.914062 "/>
<path style=" stroke:none;fill-rule:nonzero;fill:rgb(100%,0%,0%);fill-opacity:0.501961;" d="M 168.101562 324.148438 L 135.742188 323.167969 L 134.625 320.832031 L 134.625 320.796875 L 169.363281 321.902344 L 169.363281 321.933594 Z M 168.101562 324.148438 "/>
<path style=" stroke:none;fill-rule:nonzero;fill:rgb(100%,0%,0%);fill-opacity:0.501961;" d="M 169.363281 321.933594 L 134.625 320.832031 L 131.347656 313.796875 L 131.347656 313.757812 L 173.078125 315.152344 L 173.078125 315.195312 Z M 169.363281 321.933594 "/>
<path style=" stroke:none;fill-rule:nonzero;fill:rgb(100%,0%,0%);fill-opacity:0.501961;" d="M 173.078125 315.195312 L 131.347656 313.796875 L 129.414062 309.488281 L 129.414062 309.441406 L 175.308594 311.058594 L 175.308594 311.105469 Z M 173.078125 315.195312 "/>
<path style=" stroke:none;fill-rule:nonzero;fill:rgb(100%,0%,0%);fill-opacity:0.501961;" d="M 175.308594 311.105469 L 129.414062 309.488281 L 126.878906 303.636719 L 126.882812 303.585938 L 178.242188 305.5 L 178.242188 305.550781 Z M 175.308594 311.105469 "/>
<path style=" stroke:none;fill-rule:nonzero;fill:rgb(100%,0%,0%);fill-opacity:0.501961;" d="M 178.242188 305.550781 L 126.878906 303.636719 L 124.167969 297.058594 L 124.171875 297 L 181.460938 299.25 L 181.457031 299.308594 Z M 178.242188 305.550781 "/>
<path style=" stroke:none;fill-rule:nonzero;fill:rgb(100%,0%,0%);fill-opacity:0.501961;" d="M 181.457031 299.308594 L 124.167969 297.058594 L 122.59375 292.992188 L 122.59375 292.933594 L 183.34375 295.46875 L 183.34375 295.53125 Z M 181.457031 299.308594 "/>
<path style=" stroke:none;fill-rule:nonzero;fill:rgb(100%,0%,0%);fill-opacity:0.501961;" d="M 184.570312 293.066406 L 184.566406 293.128906 L 183.34375 295.53125 L 122.59375 292.992188 L 121.589844 290.347656 L 121.59375 290.285156 Z M 184.570312 293.066406 "/>
<path style=" stroke:none;fill-rule:nonzero;fill:rgb(100%,0%,0%);fill-opacity:0.501961;" d="M 184.566406 293.128906 L 121.589844 290.347656 L 118.628906 282.148438 L 118.628906 282.082031 L 188.234375 285.359375 L 188.230469 285.429688 Z M 184.566406 293.128906 "/>
<path style=" stroke:none;fill-rule:nonzero;fill:rgb(100%,0%,0%);fill-opacity:0.501961;" d="M 188.230469 285.429688 L 118.628906 282.148438 L 116.59375 276.089844 L 116.597656 276.015625 L 190.851562 279.730469 L 190.847656 279.804688 Z M 188.230469 285.429688 "/>
<path style=" stroke:none;fill-rule:nonzero;fill:rgb(100%,0%,0%);fill-opacity:0.501961;" d="M 192.769531 275.4375 L 192.765625 275.515625 L 190.847656 279.804688 L 116.59375 276.089844 L 115.132812 271.355469 L 115.136719 271.277344 Z M 192.769531 275.4375 "/>
<path style=" stroke:none;fill-rule:nonzero;fill:rgb(100%,0%,0%);fill-opacity:0.501961;" d="M 194.023438 272.71875 L 194.019531 272.796875 L 192.765625 275.515625 L 115.132812 271.355469 L 114.210938 268.238281 L 114.214844 268.15625 Z M 194.023438 272.71875 "/>
<path style=" stroke:none;fill-rule:nonzero;fill:rgb(100%,0%,0%);fill-opacity:0.501961;" d="M 196.925781 265.917969 L 196.917969 266.003906 L 194.019531 272.796875 L 114.210938 268.238281 L 112.121094 260.792969 L 112.128906 260.710938 Z M 196.925781 265.917969 "/>
<path style=" stroke:none;fill-rule:nonzero;fill:rgb(100%,0%,0%);fill-opacity:0.501961;" d="M 200.65625 257.066406 L 196.917969 266.003906 L 112.121094 260.792969 L 109.640625 250.605469 L 109.648438 250.515625 L 200.664062 256.976562 Z M 200.65625 257.066406 "/>
<path style=" stroke:none;fill-rule:nonzero;fill:rgb(100%,0%,0%);fill-opacity:0.501961;" d="M 204.019531 248.730469 L 204.011719 248.828125 L 200.65625 257.066406 L 109.640625 250.605469 L 107.65625 240.859375 L 107.664062 240.765625 Z M 204.019531 248.730469 "/>
<path style=" stroke:none;fill-rule:nonzero;fill:rgb(100%,0%,0%);fill-opacity:0.501961;" d="M 207.03125 241.273438 L 207.023438 241.375 L 204.011719 248.828125 L 107.65625 240.859375 L 106.136719 231.585938 L 106.144531 231.484375 Z M 207.03125 241.273438 "/>
<path style=" stroke:none;fill-rule:nonzero;fill:rgb(100%,0%,0%);fill-opacity:0.501961;" d="M 209.714844 234.652344 L 209.703125 234.753906 L 207.023438 241.375 L 106.136719 231.585938 L 105.074219 222.765625 L 105.085938 222.660156 Z M 209.714844 234.652344 "/>
<path style=" stroke:none;fill-rule:nonzero;fill:rgb(100%,0%,0%);fill-opacity:0.501961;" d="M 210.523438 232.925781 L 210.507812 233.03125 L 209.703125 234.753906 L 105.074219 222.765625 L 104.835938 219.894531 L 104.851562 219.789062 Z M 210.523438 232.925781 "/>
<path style=" stroke:none;fill-rule:nonzero;fill:rgb(100%,0%,0%);fill-opacity:0.501961;" d="M 212.125 228.902344 L 212.109375 229.007812 L 210.507812 233.03125 L 104.835938 219.894531 L 104.421875 214.347656 L 104.4375 214.242188 Z M 212.125 228.902344 "/>
<path style=" stroke:none;fill-rule:nonzero;fill:rgb(100%,0%,0%);fill-opacity:0.501961;" d="M 214.324219 224.046875 L 214.304688 224.15625 L 212.109375 229.007812 L 104.421875 214.347656 L 104.140625 206.261719 L 104.160156 206.152344 Z M 214.324219 224.046875 "/>
<path style=" stroke:none;fill-rule:nonzero;fill:rgb(100%,0%,0%);fill-opacity:0.501961;" d="M 216.246094 220.078125 L 216.222656 220.191406 L 214.304688 224.15625 L 104.140625 206.261719 L 104.304688 198.433594 L 104.328125 198.320312 Z M 216.246094 220.078125 "/>
<path style=" stroke:none;fill-rule:nonzero;fill:rgb(100%,0%,0%);fill-opacity:0.501961;" d="M 217.9375 216.992188 L 217.910156 217.105469 L 216.222656 220.191406 L 104.304688 198.433594 L 104.890625 190.777344 L 104.917969 190.664062 Z M 217.9375 216.992188 "/>
<path style=" stroke:none;fill-rule:nonzero;fill:rgb(100%,0%,0%);fill-opacity:0.501961;" d="M 219.441406 214.761719 L 219.410156 214.878906 L 217.910156 217.105469 L 104.890625 190.777344 L 105.875 183.222656 L 105.90625 183.105469 Z M 219.441406 214.761719 "/>
<path style=" stroke:none;fill-rule:nonzero;fill:rgb(100%,0%,0%);fill-opacity:0.501961;" d="M 220.675781 213.300781 L 220.640625 213.414062 L 219.410156 214.878906 L 105.875 183.222656 L 107.355469 175.746094 L 107.390625 175.632812 Z M 220.675781 213.300781 "/>
<path style=" stroke:none;fill-rule:nonzero;fill:rgb(100%,0%,0%);fill-opacity:0.501961;" d="M 221.714844 212.511719 L 221.671875 212.621094 L 220.640625 213.414062 L 107.355469 175.746094 L 109.277344 168.347656 L 109.324219 168.234375 Z M 221.714844 212.511719 "/>
<path style=" stroke:none;fill-rule:nonzero;fill:rgb(100%,0%,0%);fill-opacity:0.501961;" d="M 222.683594 211.804688 L 222.632812 211.914062 L 221.671875 212.621094 L 109.277344 168.347656 L 111.527344 161.515625 L 111.578125 161.402344 Z M 222.683594 211.804688 "/>
<path style=" stroke:none;fill-rule:nonzero;fill:rgb(100%,0%,0%);fill-opacity:0.501961;" d="M 222.683594 211.804688 L 222.589844 212.691406 L 222.53125 212.800781 L 111.527344 161.515625 L 113.410156 156.910156 L 113.46875 156.800781 Z M 222.683594 211.804688 "/>
<path style=" stroke:none;fill-rule:nonzero;fill:rgb(100%,0%,0%);fill-opacity:0.501961;" d="M 223.417969 212.457031 L 223.355469 212.566406 L 222.53125 212.800781 L 113.410156 156.910156 L 116.820312 149.351562 L 116.882812 149.246094 Z M 223.417969 212.457031 "/>
<path style=" stroke:none;fill-rule:nonzero;fill:rgb(100%,0%,0%);fill-opacity:0.501961;" d="M 223.417969 212.457031 L 223.59375 213.214844 L 223.523438 213.316406 L 116.820312 149.351562 L 121.246094 141.457031 L 121.320312 141.355469 Z M 223.417969 212.457031 "/>
<path style=" stroke:none;fill-rule:nonzero;fill:rgb(100%,0%,0%);fill-opacity:0.501961;" d="M 223.59375 213.214844 L 223.351562 214.414062 L 223.269531 214.507812 L 121.246094 141.457031 L 126.457031 133.757812 L 126.539062 133.660156 Z M 223.59375 213.214844 "/>
<path style=" stroke:none;fill-rule:nonzero;fill:rgb(100%,0%,0%);fill-opacity:0.501961;" d="M 223.351562 214.414062 L 222.617188 215.933594 L 222.527344 216.023438 L 126.457031 133.757812 L 132.527344 126.371094 L 132.617188 126.28125 Z M 223.351562 214.414062 "/>
<path style=" stroke:none;fill-rule:nonzero;fill:rgb(100%,0%,0%);fill-opacity:0.501961;" d="M 222.617188 215.933594 L 221.367188 217.699219 L 221.269531 217.78125 L 132.527344 126.371094 L 139.464844 119.390625 L 139.5625 119.308594 Z M 222.617188 215.933594 "/>
<path style=" stroke:none;fill-rule:nonzero;fill:rgb(100%,0%,0%);fill-opacity:0.501961;" d="M 221.367188 217.699219 L 219.566406 219.585938 L 219.460938 219.65625 L 139.464844 119.390625 L 139.5625 119.308594 L 147.289062 112.96875 L 147.394531 112.898438 Z M 221.367188 217.699219 "/>
<path style=" stroke:none;fill-rule:nonzero;fill:rgb(100%,0%,0%);fill-opacity:0.501961;" d="M 219.566406 219.585938 L 217.214844 221.480469 L 217.101562 221.539062 L 147.289062 112.96875 L 147.394531 112.898438 L 155.96875 107.246094 L 156.082031 107.1875 Z M 219.566406 219.585938 "/>
<path style=" stroke:none;fill-rule:nonzero;fill:rgb(100%,0%,0%);fill-opacity:0.501961;" d="M 217.214844 221.480469 L 214.328125 223.25 L 214.207031 223.300781 L 155.96875 107.246094 L 156.082031 107.1875 L 165.449219 102.386719 L 165.570312 102.335938 Z M 217.214844 221.480469 "/>
<path style=" stroke:none;fill-rule:nonzero;fill:rgb(100%,0%,0%);fill-opacity:0.501961;" d="M 214.328125 223.25 L 210.960938 224.777344 L 210.835938 224.8125 L 165.449219 102.386719 L 165.570312 102.335938 L 175.621094 98.542969 L 175.746094 98.507812 Z M 214.328125 223.25 "/>
<path style=" stroke:none;fill-rule:nonzero;fill:rgb(100%,0%,0%);fill-opacity:0.501961;" d="M 210.960938 224.777344 L 207.203125 225.933594 L 207.074219 225.953125 L 175.621094 98.542969 L 175.746094 98.507812 L 186.34375 95.859375 L 186.472656 95.839844 Z M 210.960938 224.777344 "/>
<path style=" stroke:none;fill-rule:nonzero;fill:rgb(100%,0%,0%);fill-opacity:0.501961;" d="M 207.203125 225.933594 L 203.175781 226.585938 L 203.046875 226.59375 L 186.34375 95.859375 L 186.472656 95.839844 L 197.425781 94.492188 L 197.558594 94.488281 Z M 207.203125 225.933594 "/>
<path style=" stroke:none;fill-rule:nonzero;fill:rgb(100%,0%,0%);fill-opacity:0.501961;" d="M 203.175781 226.585938 L 203.046875 226.59375 L 199.0625 226.484375 L 198.929688 226.476562 L 197.425781 94.492188 L 197.558594 94.488281 L 208.621094 94.707031 L 208.753906 94.714844 Z M 203.175781 226.585938 "/>
<path style=" stroke:none;fill-rule:nonzero;fill:rgb(100%,0%,0%);fill-opacity:0.501961;" d="M 199.0625 226.484375 L 198.929688 226.476562 L 194.960938 225.667969 L 208.621094 94.707031 L 208.753906 94.714844 L 219.632812 96.425781 L 219.761719 96.453125 Z M 199.0625 226.484375 "/>
<path style=" stroke:none;fill-rule:nonzero;fill:rgb(100%,0%,0%);fill-opacity:0.501961;" d="M 195.089844 225.691406 L 194.960938 225.667969 L 191.296875 224.398438 L 219.632812 96.425781 L 219.761719 96.453125 L 230.226562 99.421875 L 230.351562 99.460938 Z M 195.089844 225.691406 "/>
<path style=" stroke:none;fill-rule:nonzero;fill:rgb(100%,0%,0%);fill-opacity:0.501961;" d="M 191.421875 224.4375 L 191.296875 224.398438 L 188.050781 222.796875 L 230.226562 99.421875 L 230.351562 99.460938 L 240.234375 103.539062 L 240.351562 103.589844 Z M 191.421875 224.4375 "/>
<path style=" stroke:none;fill-rule:nonzero;fill:rgb(100%,0%,0%);fill-opacity:0.501961;" d="M 188.171875 222.847656 L 188.050781 222.796875 L 185.304688 220.980469 L 240.234375 103.539062 L 240.351562 103.589844 L 249.515625 108.628906 L 249.628906 108.695312 Z M 188.171875 222.847656 "/>
<path style=" stroke:none;fill-rule:nonzero;fill:rgb(100%,0%,0%);fill-opacity:0.501961;" d="M 185.414062 221.046875 L 185.304688 220.980469 L 183.097656 219.078125 L 249.515625 108.628906 L 249.628906 108.695312 L 257.980469 114.546875 L 258.085938 114.621094 Z M 185.414062 221.046875 "/>
<path style=" stroke:none;fill-rule:nonzero;fill:rgb(100%,0%,0%);fill-opacity:0.501961;" d="M 183.203125 219.152344 L 183.097656 219.078125 L 181.449219 217.210938 L 257.980469 114.546875 L 258.085938 114.621094 L 265.574219 121.125 L 265.671875 121.207031 Z M 183.203125 219.152344 "/>
<path style=" stroke:none;fill-rule:nonzero;fill:rgb(100%,0%,0%);fill-opacity:0.501961;" d="M 181.542969 217.292969 L 181.449219 217.210938 L 180.335938 215.503906 L 265.574219 121.125 L 265.671875 121.207031 L 272.378906 128.304688 Z M 181.542969 217.292969 "/>
<path style=" stroke:none;fill-rule:nonzero;fill:rgb(100%,0%,0%);fill-opacity:0.501961;" d="M 180.421875 215.59375 L 180.335938 215.503906 L 179.742188 214.050781 L 272.292969 128.210938 L 272.378906 128.304688 L 278.210938 135.789062 Z M 180.421875 215.59375 "/>
<path style=" stroke:none;fill-rule:nonzero;fill:rgb(100%,0%,0%);fill-opacity:0.501961;" d="M 179.820312 214.152344 L 179.742188 214.050781 L 179.605469 212.972656 L 278.128906 135.691406 L 278.210938 135.789062 L 283.214844 143.542969 Z M 179.820312 214.152344 "/>
<path style=" stroke:none;fill-rule:nonzero;fill:rgb(100%,0%,0%);fill-opacity:0.501961;" d="M 179.675781 213.074219 L 179.605469 212.972656 L 180.050781 212.582031 L 283.144531 143.4375 L 283.214844 143.542969 L 287.277344 151.242188 Z M 179.675781 213.074219 "/>
<path style=" stroke:none;fill-rule:nonzero;fill:rgb(100%,0%,0%);fill-opacity:0.501961;" d="M 180.113281 212.6875 L 180.050781 212.582031 L 180.28125 212.046875 L 287.214844 151.132812 L 287.277344 151.242188 L 290.121094 157.550781 Z M 180.113281 212.6875 "/>
<path style=" stroke:none;fill-rule:nonzero;fill:rgb(100%,0%,0%);fill-opacity:0.501961;" d="M 181.097656 212.40625 L 180.335938 212.15625 L 180.28125 212.046875 L 290.066406 157.441406 L 290.121094 157.550781 L 292.707031 164.542969 Z M 181.097656 212.40625 "/>
<path style=" stroke:none;fill-rule:nonzero;fill:rgb(100%,0%,0%);fill-opacity:0.501961;" d="M 182 212.925781 L 181.097656 212.40625 L 181.046875 212.292969 L 292.660156 164.429688 L 292.707031 164.542969 L 294.890625 171.863281 Z M 182 212.925781 "/>
<path style=" stroke:none;fill-rule:nonzero;fill:rgb(100%,0%,0%);fill-opacity:0.501961;" d="M 183.101562 214.027344 L 182 212.925781 L 181.957031 212.8125 L 294.851562 171.75 L 294.890625 171.863281 L 296.625 179.292969 Z M 183.101562 214.027344 "/>
<path style=" stroke:none;fill-rule:nonzero;fill:rgb(100%,0%,0%);fill-opacity:0.501961;" d="M 184.484375 215.835938 L 183.101562 214.027344 L 183.066406 213.914062 L 296.589844 179.179688 L 296.625 179.292969 L 297.839844 186.816406 Z M 184.484375 215.835938 "/>
<path style=" stroke:none;fill-rule:nonzero;fill:rgb(100%,0%,0%);fill-opacity:0.501961;" d="M 186.046875 218.472656 L 184.484375 215.835938 L 184.457031 215.722656 L 297.8125 186.703125 L 297.839844 186.816406 L 298.660156 194.40625 Z M 186.046875 218.472656 "/>
<path style=" stroke:none;fill-rule:nonzero;fill:rgb(100%,0%,0%);fill-opacity:0.501961;" d="M 187.859375 221.972656 L 186.046875 218.472656 L 186.023438 218.359375 L 298.636719 194.292969 L 298.660156 194.40625 L 299.023438 202.136719 Z M 187.859375 221.972656 "/>
<path style=" stroke:none;fill-rule:nonzero;fill:rgb(100%,0%,0%);fill-opacity:0.501961;" d="M 189.917969 226.355469 L 187.859375 221.972656 L 187.839844 221.859375 L 299.003906 202.027344 L 299.023438 202.136719 L 298.964844 210.082031 Z M 189.917969 226.355469 "/>
<path style=" stroke:none;fill-rule:nonzero;fill:rgb(100%,0%,0%);fill-opacity:0.501961;" d="M 190.835938 228.484375 L 189.917969 226.355469 L 189.902344 226.246094 L 298.949219 209.972656 L 298.964844 210.082031 L 298.839844 213.785156 Z M 190.835938 228.484375 "/>
<path style=" stroke:none;fill-rule:nonzero;fill:rgb(100%,0%,0%);fill-opacity:0.501961;" d="M 192.207031 231.636719 L 190.835938 228.484375 L 190.824219 228.378906 L 298.824219 213.675781 L 298.839844 213.785156 L 298.515625 218.3125 Z M 192.207031 231.636719 "/>
<path style=" stroke:none;fill-rule:nonzero;fill:rgb(100%,0%,0%);fill-opacity:0.501961;" d="M 194.738281 237.800781 L 192.207031 231.636719 L 192.195312 231.53125 L 298.5 218.207031 L 298.515625 218.3125 L 297.671875 226.914062 Z M 194.738281 237.800781 "/>
<path style=" stroke:none;fill-rule:nonzero;fill:rgb(100%,0%,0%);fill-opacity:0.501961;" d="M 296.398438 235.949219 L 197.570312 244.824219 L 194.738281 237.800781 L 194.726562 237.699219 L 297.660156 226.8125 L 297.671875 226.914062 Z M 296.398438 235.949219 "/>
<path style=" stroke:none;fill-rule:nonzero;fill:rgb(100%,0%,0%);fill-opacity:0.501961;" d="M 294.65625 245.445312 L 200.742188 252.660156 L 197.570312 244.824219 L 197.558594 244.726562 L 296.390625 235.847656 L 296.398438 235.949219 Z M 294.65625 245.445312 "/>
<path style=" stroke:none;fill-rule:nonzero;fill:rgb(100%,0%,0%);fill-opacity:0.501961;" d="M 292.445312 255.410156 L 204.269531 261.246094 L 200.742188 252.660156 L 200.734375 252.566406 L 294.648438 245.351562 L 294.65625 245.445312 Z M 292.445312 255.410156 "/>
<path style=" stroke:none;fill-rule:nonzero;fill:rgb(100%,0%,0%);fill-opacity:0.501961;" d="M 289.707031 265.789062 L 208.210938 270.472656 L 204.269531 261.246094 L 204.261719 261.160156 L 292.441406 255.320312 L 292.445312 255.410156 Z M 289.707031 265.789062 "/>
<path style=" stroke:none;fill-rule:nonzero;fill:rgb(100%,0%,0%);fill-opacity:0.501961;" d="M 287.882812 271.980469 L 210.667969 276.117188 L 208.210938 270.472656 L 208.207031 270.390625 L 289.703125 265.707031 L 289.707031 265.789062 Z M 287.882812 271.980469 "/>
<path style=" stroke:none;fill-rule:nonzero;fill:rgb(100%,0%,0%);fill-opacity:0.501961;" d="M 286.460938 276.480469 L 212.550781 280.203125 L 210.667969 276.117188 L 210.664062 276.039062 L 287.878906 271.902344 L 287.882812 271.980469 Z M 286.460938 276.480469 "/>
<path style=" stroke:none;fill-rule:nonzero;fill:rgb(100%,0%,0%);fill-opacity:0.501961;" d="M 285.460938 279.609375 L 213.828125 282.988281 L 212.550781 280.203125 L 212.546875 280.128906 L 286.457031 276.40625 L 286.460938 276.480469 Z M 285.460938 279.609375 "/>
<path style=" stroke:none;fill-rule:nonzero;fill:rgb(100%,0%,0%);fill-opacity:0.501961;" d="M 282.742188 287.324219 L 217.253906 290.234375 L 213.828125 282.988281 L 213.824219 282.914062 L 285.457031 279.539062 L 285.460938 279.609375 Z M 282.742188 287.324219 "/>
<path style=" stroke:none;fill-rule:nonzero;fill:rgb(100%,0%,0%);fill-opacity:0.501961;" d="M 280.40625 293.535156 L 220.09375 296.050781 L 217.253906 290.234375 L 217.25 290.171875 L 282.738281 287.261719 L 282.742188 287.324219 Z M 280.40625 293.535156 "/>
<path style=" stroke:none;fill-rule:nonzero;fill:rgb(100%,0%,0%);fill-opacity:0.501961;" d="M 278.59375 298.109375 L 222.273438 300.332031 L 220.09375 296.050781 L 220.089844 295.992188 L 280.402344 293.472656 L 280.40625 293.535156 Z M 278.59375 298.109375 "/>
<path style=" stroke:none;fill-rule:nonzero;fill:rgb(100%,0%,0%);fill-opacity:0.501961;" d="M 275.183594 306.265625 L 226.273438 308.085938 L 222.273438 300.332031 L 222.273438 300.277344 L 278.589844 298.050781 L 278.59375 298.109375 Z M 275.183594 306.265625 "/>
<path style=" stroke:none;fill-rule:nonzero;fill:rgb(100%,0%,0%);fill-opacity:0.501961;" d="M 274.191406 308.558594 L 227.433594 310.214844 L 226.273438 308.085938 L 226.273438 308.039062 L 275.183594 306.214844 L 275.183594 306.265625 Z M 274.191406 308.558594 "/>
<path style=" stroke:none;fill-rule:nonzero;fill:rgb(100%,0%,0%);fill-opacity:0.501961;" d="M 272.554688 312.265625 L 229.308594 313.714844 L 227.433594 310.214844 L 227.433594 310.167969 L 274.1875 308.511719 L 274.191406 308.558594 Z M 272.554688 312.265625 "/>
<path style=" stroke:none;fill-rule:nonzero;fill:rgb(100%,0%,0%);fill-opacity:0.501961;" d="M 269.738281 318.378906 L 232.527344 319.566406 L 229.308594 313.714844 L 229.308594 313.671875 L 272.554688 312.222656 L 272.554688 312.265625 Z M 269.738281 318.378906 "/>
<path style=" stroke:none;fill-rule:nonzero;fill:rgb(100%,0%,0%);fill-opacity:0.501961;" d="M 267.382812 323.332031 L 235.175781 324.304688 L 232.527344 319.566406 L 232.523438 319.527344 L 269.738281 318.34375 L 269.738281 318.378906 Z M 267.382812 323.332031 "/>
<path style=" stroke:none;fill-rule:nonzero;fill:rgb(100%,0%,0%);fill-opacity:0.501961;" d="M 265.457031 327.273438 L 237.335938 328.082031 L 235.175781 324.304688 L 235.175781 324.273438 L 267.382812 323.296875 L 267.382812 323.332031 Z M 265.457031 327.273438 "/>
<path style=" stroke:none;fill-rule:nonzero;fill:rgb(100%,0%,0%);fill-opacity:0.501961;" d="M 261.578125 334.96875 L 241.628906 335.492188 L 237.335938 328.082031 L 237.335938 328.054688 L 265.457031 327.242188 L 265.457031 327.273438 Z M 261.578125 334.96875 "/>
<path style=" stroke:none;fill-rule:nonzero;fill:rgb(100%,0%,0%);fill-opacity:0.501961;" d="M 260.378906 337.304688 L 242.945312 337.742188 L 241.628906 335.492188 L 241.628906 335.472656 L 261.578125 334.949219 L 261.578125 334.96875 Z M 260.378906 337.304688 "/>
<path style=" stroke:none;fill-rule:nonzero;fill:rgb(100%,0%,0%);fill-opacity:0.501961;" d="M 258.292969 341.277344 L 245.226562 341.589844 L 242.945312 337.742188 L 242.945312 337.722656 L 260.378906 337.285156 L 260.378906 337.304688 Z M 258.292969 341.277344 "/>
<path style=" stroke:none;fill-rule:nonzero;fill:rgb(100%,0%,0%);fill-opacity:0.501961;" d="M 255.707031 346.101562 L 248.03125 346.273438 L 245.226562 341.589844 L 245.226562 341.578125 L 258.292969 341.265625 L 258.292969 341.277344 Z M 255.707031 346.101562 "/>
<path style=" stroke:none;fill-rule:nonzero;fill:rgb(100%,0%,0%);fill-opacity:0.501961;" d="M 253.867188 349.46875 L 250.011719 349.546875 L 248.03125 346.273438 L 248.03125 346.265625 L 255.707031 346.09375 L 255.707031 346.101562 Z M 253.867188 349.46875 "/>
<path style=" stroke:none;fill-rule:nonzero;fill:rgb(100%,0%,0%);fill-opacity:0.501961;" d="M 252.726562 351.515625 L 251.230469 351.542969 L 250.011719 349.546875 L 250.011719 349.542969 L 253.867188 349.464844 L 253.867188 349.46875 Z M 252.726562 351.515625 "/>
<path style=" stroke:none;fill-rule:nonzero;fill:rgb(100%,0%,0%);fill-opacity:0.501961;" d="M 252.167969 352.503906 L 251.820312 352.511719 L 251.230469 351.542969 L 252.726562 351.515625 Z M 252.167969 352.503906 "/>
<path style=" stroke:none;fill-rule:nonzero;fill:rgb(100%,0%,0%);fill-opacity:0.501961;" d="M 252.007812 352.789062 L 251.992188 352.789062 L 251.820312 352.511719 L 252.167969 352.503906 Z M 252.007812 352.789062 "/>
<path style=" stroke:none;fill-rule:nonzero;fill:rgb(100%,0%,0%);fill-opacity:0.501961;" d="M 252 352.800781 L 251.992188 352.789062 L 252.007812 352.789062 Z M 252 352.800781 "/>
<path style="fill:none;stroke-width:0.75;stroke-linecap:round;stroke-linejoin:round;stroke:rgb(74.509804%,74.509804%,74.509804%);stroke-opacity:1;stroke-miterlimit:10;" d="M 151.199219 352.800781 Z M 151.199219 352.800781 "/>
<path style="fill:none;stroke-width:0.75;stroke-linecap:round;stroke-linejoin:round;stroke:rgb(74.509804%,74.509804%,74.509804%);stroke-opacity:1;stroke-miterlimit:10;" d="M 151.25 352.714844 L 151.152344 352.714844 Z M 151.25 352.714844 "/>
<path style="fill-rule:nonzero;fill:rgb(0%,0%,0%);fill-opacity:1;stroke-width:0.75;stroke-linecap:round;stroke-linejoin:round;stroke:rgb(74.509804%,74.509804%,74.509804%);stroke-opacity:1;stroke-miterlimit:10;" d="M 151.59375 352.160156 L 150.828125 352.144531 L 151.59375 352.15625 Z M 151.59375 352.160156 "/>
<path style="fill-rule:nonzero;fill:rgb(0%,0%,0%);fill-opacity:1;stroke-width:0.75;stroke-linecap:round;stroke-linejoin:round;stroke:rgb(74.509804%,74.509804%,74.509804%);stroke-opacity:1;stroke-miterlimit:10;" d="M 152.464844 350.738281 L 150.011719 350.691406 L 150.011719 350.6875 L 152.464844 350.734375 Z M 152.464844 350.738281 "/>
<path style="fill-rule:nonzero;fill:rgb(0%,0%,0%);fill-opacity:1;stroke-width:0.75;stroke-linecap:round;stroke-linejoin:round;stroke:rgb(74.509804%,74.509804%,74.509804%);stroke-opacity:1;stroke-miterlimit:10;" d="M 154.035156 348.15625 L 148.546875 348.039062 L 148.546875 348.035156 L 154.035156 348.148438 Z M 154.035156 348.15625 "/>
<path style="fill-rule:nonzero;fill:rgb(0%,0%,0%);fill-opacity:1;stroke-width:0.75;stroke-linecap:round;stroke-linejoin:round;stroke:rgb(74.509804%,74.509804%,74.509804%);stroke-opacity:1;stroke-miterlimit:10;" d="M 156.402344 344.21875 L 146.355469 343.988281 L 146.355469 343.980469 L 156.402344 344.210938 Z M 156.402344 344.21875 "/>
<path style="fill-rule:nonzero;fill:rgb(0%,0%,0%);fill-opacity:1;stroke-width:0.75;stroke-linecap:round;stroke-linejoin:round;stroke:rgb(74.509804%,74.509804%,74.509804%);stroke-opacity:1;stroke-miterlimit:10;" d="M 159.59375 338.859375 L 143.421875 338.453125 L 143.421875 338.4375 L 159.59375 338.84375 Z M 159.59375 338.859375 "/>
<path style="fill-rule:nonzero;fill:rgb(0%,0%,0%);fill-opacity:1;stroke-width:0.75;stroke-linecap:round;stroke-linejoin:round;stroke:rgb(74.509804%,74.509804%,74.509804%);stroke-opacity:1;stroke-miterlimit:10;" d="M 161.351562 335.878906 L 141.824219 335.371094 L 141.824219 335.351562 L 161.351562 335.859375 Z M 161.351562 335.878906 "/>
<path style="fill-rule:nonzero;fill:rgb(0%,0%,0%);fill-opacity:1;stroke-width:0.75;stroke-linecap:round;stroke-linejoin:round;stroke:rgb(74.509804%,74.509804%,74.509804%);stroke-opacity:1;stroke-miterlimit:10;" d="M 163.542969 332.117188 L 139.832031 331.464844 L 139.835938 331.441406 L 163.542969 332.089844 Z M 163.542969 332.117188 "/>
<path style="fill-rule:nonzero;fill:rgb(0%,0%,0%);fill-opacity:1;stroke-width:0.75;stroke-linecap:round;stroke-linejoin:round;stroke:rgb(74.509804%,74.509804%,74.509804%);stroke-opacity:1;stroke-miterlimit:10;" d="M 166.535156 326.914062 L 137.144531 326.070312 L 137.144531 326.039062 L 166.535156 326.886719 Z M 166.535156 326.914062 "/>
<path style="fill-rule:nonzero;fill:rgb(0%,0%,0%);fill-opacity:1;stroke-width:0.75;stroke-linecap:round;stroke-linejoin:round;stroke:rgb(74.509804%,74.509804%,74.509804%);stroke-opacity:1;stroke-miterlimit:10;" d="M 168.101562 324.148438 L 135.742188 323.167969 L 135.746094 323.136719 L 168.101562 324.113281 Z M 168.101562 324.148438 "/>
<path style="fill-rule:nonzero;fill:rgb(0%,0%,0%);fill-opacity:1;stroke-width:0.75;stroke-linecap:round;stroke-linejoin:round;stroke:rgb(74.509804%,74.509804%,74.509804%);stroke-opacity:1;stroke-miterlimit:10;" d="M 169.363281 321.933594 L 134.625 320.832031 L 134.625 320.796875 L 169.363281 321.902344 Z M 169.363281 321.933594 "/>
<path style="fill-rule:nonzero;fill:rgb(0%,0%,0%);fill-opacity:1;stroke-width:0.75;stroke-linecap:round;stroke-linejoin:round;stroke:rgb(74.509804%,74.509804%,74.509804%);stroke-opacity:1;stroke-miterlimit:10;" d="M 173.078125 315.195312 L 131.347656 313.796875 L 131.347656 313.757812 L 173.078125 315.152344 Z M 173.078125 315.195312 "/>
<path style="fill-rule:nonzero;fill:rgb(0%,0%,0%);fill-opacity:1;stroke-width:0.75;stroke-linecap:round;stroke-linejoin:round;stroke:rgb(74.509804%,74.509804%,74.509804%);stroke-opacity:1;stroke-miterlimit:10;" d="M 175.308594 311.105469 L 129.414062 309.488281 L 129.414062 309.441406 L 175.308594 311.058594 Z M 175.308594 311.105469 "/>
<path style="fill-rule:nonzero;fill:rgb(0%,0%,0%);fill-opacity:1;stroke-width:0.75;stroke-linecap:round;stroke-linejoin:round;stroke:rgb(74.509804%,74.509804%,74.509804%);stroke-opacity:1;stroke-miterlimit:10;" d="M 178.242188 305.550781 L 126.878906 303.636719 L 126.882812 303.585938 L 178.242188 305.5 Z M 178.242188 305.550781 "/>
<path style="fill-rule:nonzero;fill:rgb(0%,0%,0%);fill-opacity:1;stroke-width:0.75;stroke-linecap:round;stroke-linejoin:round;stroke:rgb(74.509804%,74.509804%,74.509804%);stroke-opacity:1;stroke-miterlimit:10;" d="M 181.457031 299.308594 L 124.167969 297.058594 L 124.171875 297 L 181.460938 299.25 Z M 181.457031 299.308594 "/>
<path style="fill-rule:nonzero;fill:rgb(0%,0%,0%);fill-opacity:1;stroke-width:0.75;stroke-linecap:round;stroke-linejoin:round;stroke:rgb(74.509804%,74.509804%,74.509804%);stroke-opacity:1;stroke-miterlimit:10;" d="M 183.34375 295.53125 L 122.59375 292.992188 L 122.59375 292.933594 L 183.34375 295.46875 Z M 183.34375 295.53125 "/>
<path style="fill-rule:nonzero;fill:rgb(0%,0%,0%);fill-opacity:1;stroke-width:0.75;stroke-linecap:round;stroke-linejoin:round;stroke:rgb(74.509804%,74.509804%,74.509804%);stroke-opacity:1;stroke-miterlimit:10;" d="M 184.566406 293.128906 L 121.589844 290.347656 L 121.59375 290.285156 L 184.570312 293.066406 Z M 184.566406 293.128906 "/>
<path style="fill-rule:nonzero;fill:rgb(0%,0%,0%);fill-opacity:1;stroke-width:0.75;stroke-linecap:round;stroke-linejoin:round;stroke:rgb(74.509804%,74.509804%,74.509804%);stroke-opacity:1;stroke-miterlimit:10;" d="M 188.230469 285.429688 L 118.628906 282.148438 L 118.628906 282.082031 L 188.234375 285.359375 Z M 188.230469 285.429688 "/>
<path style="fill-rule:nonzero;fill:rgb(0%,0%,0%);fill-opacity:1;stroke-width:0.75;stroke-linecap:round;stroke-linejoin:round;stroke:rgb(74.509804%,74.509804%,74.509804%);stroke-opacity:1;stroke-miterlimit:10;" d="M 190.847656 279.804688 L 116.59375 276.089844 L 116.597656 276.015625 L 190.851562 279.730469 Z M 190.847656 279.804688 "/>
<path style="fill-rule:nonzero;fill:rgb(0%,0%,0%);fill-opacity:1;stroke-width:0.75;stroke-linecap:round;stroke-linejoin:round;stroke:rgb(74.509804%,74.509804%,74.509804%);stroke-opacity:1;stroke-miterlimit:10;" d="M 192.765625 275.515625 L 115.132812 271.355469 L 115.136719 271.277344 L 192.769531 275.4375 Z M 192.765625 275.515625 "/>
<path style="fill-rule:nonzero;fill:rgb(0%,0%,0%);fill-opacity:1;stroke-width:0.75;stroke-linecap:round;stroke-linejoin:round;stroke:rgb(74.509804%,74.509804%,74.509804%);stroke-opacity:1;stroke-miterlimit:10;" d="M 194.019531 272.796875 L 114.210938 268.238281 L 114.214844 268.15625 L 194.023438 272.71875 Z M 194.019531 272.796875 "/>
<path style="fill-rule:nonzero;fill:rgb(0%,0%,0%);fill-opacity:1;stroke-width:0.75;stroke-linecap:round;stroke-linejoin:round;stroke:rgb(74.509804%,74.509804%,74.509804%);stroke-opacity:1;stroke-miterlimit:10;" d="M 196.917969 266.003906 L 112.121094 260.792969 L 112.128906 260.710938 L 196.925781 265.917969 Z M 196.917969 266.003906 "/>
<path style="fill-rule:nonzero;fill:rgb(0%,0%,0%);fill-opacity:1;stroke-width:0.75;stroke-linecap:round;stroke-linejoin:round;stroke:rgb(74.509804%,74.509804%,74.509804%);stroke-opacity:1;stroke-miterlimit:10;" d="M 200.65625 257.066406 L 109.640625 250.605469 L 109.648438 250.515625 L 200.664062 256.976562 Z M 200.65625 257.066406 "/>
<path style="fill-rule:nonzero;fill:rgb(0%,0%,0%);fill-opacity:1;stroke-width:0.75;stroke-linecap:round;stroke-linejoin:round;stroke:rgb(74.509804%,74.509804%,74.509804%);stroke-opacity:1;stroke-miterlimit:10;" d="M 204.011719 248.828125 L 107.65625 240.859375 L 107.664062 240.765625 L 204.019531 248.730469 Z M 204.011719 248.828125 "/>
<path style="fill-rule:nonzero;fill:rgb(0%,0%,0%);fill-opacity:1;stroke-width:0.75;stroke-linecap:round;stroke-linejoin:round;stroke:rgb(74.509804%,74.509804%,74.509804%);stroke-opacity:1;stroke-miterlimit:10;" d="M 207.023438 241.375 L 106.136719 231.585938 L 106.144531 231.484375 L 207.03125 241.273438 Z M 207.023438 241.375 "/>
<path style="fill-rule:nonzero;fill:rgb(0%,0%,0%);fill-opacity:1;stroke-width:0.75;stroke-linecap:round;stroke-linejoin:round;stroke:rgb(74.509804%,74.509804%,74.509804%);stroke-opacity:1;stroke-miterlimit:10;" d="M 209.703125 234.753906 L 105.074219 222.765625 L 105.085938 222.660156 L 209.714844 234.652344 Z M 209.703125 234.753906 "/>
<path style="fill-rule:nonzero;fill:rgb(0%,0%,0%);fill-opacity:1;stroke-width:0.75;stroke-linecap:round;stroke-linejoin:round;stroke:rgb(74.509804%,74.509804%,74.509804%);stroke-opacity:1;stroke-miterlimit:10;" d="M 210.507812 233.03125 L 104.835938 219.894531 L 104.851562 219.789062 L 210.523438 232.925781 Z M 210.507812 233.03125 "/>
<path style="fill-rule:nonzero;fill:rgb(0%,0%,0%);fill-opacity:1;stroke-width:0.75;stroke-linecap:round;stroke-linejoin:round;stroke:rgb(74.509804%,74.509804%,74.509804%);stroke-opacity:1;stroke-miterlimit:10;" d="M 212.109375 229.007812 L 104.421875 214.347656 L 104.4375 214.242188 L 212.125 228.902344 Z M 212.109375 229.007812 "/>
<path style="fill-rule:nonzero;fill:rgb(0%,0%,0%);fill-opacity:1;stroke-width:0.75;stroke-linecap:round;stroke-linejoin:round;stroke:rgb(74.509804%,74.509804%,74.509804%);stroke-opacity:1;stroke-miterlimit:10;" d="M 214.304688 224.15625 L 104.140625 206.261719 L 104.160156 206.152344 L 214.324219 224.046875 Z M 214.304688 224.15625 "/>
<path style="fill-rule:nonzero;fill:rgb(0%,0%,0%);fill-opacity:1;stroke-width:0.75;stroke-linecap:round;stroke-linejoin:round;stroke:rgb(74.509804%,74.509804%,74.509804%);stroke-opacity:1;stroke-miterlimit:10;" d="M 216.222656 220.191406 L 104.304688 198.433594 L 104.328125 198.320312 L 216.246094 220.078125 Z M 216.222656 220.191406 "/>
<path style="fill-rule:nonzero;fill:rgb(0%,0%,0%);fill-opacity:1;stroke-width:0.75;stroke-linecap:round;stroke-linejoin:round;stroke:rgb(74.509804%,74.509804%,74.509804%);stroke-opacity:1;stroke-miterlimit:10;" d="M 217.910156 217.105469 L 104.890625 190.777344 L 104.917969 190.664062 L 217.9375 216.992188 Z M 217.910156 217.105469 "/>
<path style="fill-rule:nonzero;fill:rgb(0%,0%,0%);fill-opacity:1;stroke-width:0.75;stroke-linecap:round;stroke-linejoin:round;stroke:rgb(74.509804%,74.509804%,74.509804%);stroke-opacity:1;stroke-miterlimit:10;" d="M 219.410156 214.878906 L 105.875 183.222656 L 105.90625 183.105469 L 219.441406 214.761719 Z M 219.410156 214.878906 "/>
<path style="fill-rule:nonzero;fill:rgb(0%,0%,0%);fill-opacity:1;stroke-width:0.75;stroke-linecap:round;stroke-linejoin:round;stroke:rgb(74.509804%,74.509804%,74.509804%);stroke-opacity:1;stroke-miterlimit:10;" d="M 220.640625 213.414062 L 107.355469 175.746094 L 107.390625 175.632812 L 220.675781 213.300781 Z M 220.640625 213.414062 "/>
<path style="fill-rule:nonzero;fill:rgb(0%,0%,0%);fill-opacity:1;stroke-width:0.75;stroke-linecap:round;stroke-linejoin:round;stroke:rgb(74.509804%,74.509804%,74.509804%);stroke-opacity:1;stroke-miterlimit:10;" d="M 221.671875 212.621094 L 109.277344 168.347656 L 109.324219 168.234375 L 221.714844 212.511719 Z M 221.671875 212.621094 "/>
<path style="fill-rule:nonzero;fill:rgb(0%,0%,0%);fill-opacity:1;stroke-width:0.75;stroke-linecap:round;stroke-linejoin:round;stroke:rgb(74.509804%,74.509804%,74.509804%);stroke-opacity:1;stroke-miterlimit:10;" d="M 222.632812 211.914062 L 111.527344 161.515625 L 111.578125 161.402344 L 222.683594 211.804688 Z M 222.632812 211.914062 "/>
<path style="fill-rule:nonzero;fill:rgb(0%,0%,0%);fill-opacity:1;stroke-width:0.75;stroke-linecap:round;stroke-linejoin:round;stroke:rgb(74.509804%,74.509804%,74.509804%);stroke-opacity:1;stroke-miterlimit:10;" d="M 222.53125 212.800781 L 113.410156 156.910156 L 113.46875 156.800781 L 222.589844 212.691406 Z M 222.53125 212.800781 "/>
<path style="fill-rule:nonzero;fill:rgb(0%,0%,0%);fill-opacity:1;stroke-width:0.75;stroke-linecap:round;stroke-linejoin:round;stroke:rgb(74.509804%,74.509804%,74.509804%);stroke-opacity:1;stroke-miterlimit:10;" d="M 223.355469 212.566406 L 116.820312 149.351562 L 116.882812 149.246094 L 223.417969 212.457031 Z M 223.355469 212.566406 "/>
<path style="fill-rule:nonzero;fill:rgb(0%,0%,0%);fill-opacity:1;stroke-width:0.75;stroke-linecap:round;stroke-linejoin:round;stroke:rgb(74.509804%,74.509804%,74.509804%);stroke-opacity:1;stroke-miterlimit:10;" d="M 223.523438 213.316406 L 121.246094 141.457031 L 121.320312 141.355469 L 223.59375 213.214844 Z M 223.523438 213.316406 "/>
<path style="fill-rule:nonzero;fill:rgb(0%,0%,0%);fill-opacity:1;stroke-width:0.75;stroke-linecap:round;stroke-linejoin:round;stroke:rgb(74.509804%,74.509804%,74.509804%);stroke-opacity:1;stroke-miterlimit:10;" d="M 223.269531 214.507812 L 126.457031 133.757812 L 126.539062 133.660156 L 223.351562 214.414062 Z M 223.269531 214.507812 "/>
<path style="fill-rule:nonzero;fill:rgb(0%,0%,0%);fill-opacity:1;stroke-width:0.75;stroke-linecap:round;stroke-linejoin:round;stroke:rgb(74.509804%,74.509804%,74.509804%);stroke-opacity:1;stroke-miterlimit:10;" d="M 222.527344 216.023438 L 132.527344 126.371094 L 132.617188 126.28125 L 222.617188 215.933594 Z M 222.527344 216.023438 "/>
<path style="fill-rule:nonzero;fill:rgb(0%,0%,0%);fill-opacity:1;stroke-width:0.75;stroke-linecap:round;stroke-linejoin:round;stroke:rgb(74.509804%,74.509804%,74.509804%);stroke-opacity:1;stroke-miterlimit:10;" d="M 221.269531 217.78125 L 139.464844 119.390625 L 139.5625 119.308594 L 221.367188 217.699219 Z M 221.269531 217.78125 "/>
<path style="fill-rule:nonzero;fill:rgb(0%,0%,0%);fill-opacity:1;stroke-width:0.75;stroke-linecap:round;stroke-linejoin:round;stroke:rgb(74.509804%,74.509804%,74.509804%);stroke-opacity:1;stroke-miterlimit:10;" d="M 219.460938 219.65625 L 147.289062 112.96875 L 147.394531 112.898438 L 219.566406 219.585938 Z M 219.460938 219.65625 "/>
<path style="fill-rule:nonzero;fill:rgb(0%,0%,0%);fill-opacity:1;stroke-width:0.75;stroke-linecap:round;stroke-linejoin:round;stroke:rgb(74.509804%,74.509804%,74.509804%);stroke-opacity:1;stroke-miterlimit:10;" d="M 217.101562 221.539062 L 155.96875 107.246094 L 156.082031 107.1875 L 217.214844 221.480469 Z M 217.101562 221.539062 "/>
<path style="fill-rule:nonzero;fill:rgb(0%,0%,0%);fill-opacity:1;stroke-width:0.75;stroke-linecap:round;stroke-linejoin:round;stroke:rgb(74.509804%,74.509804%,74.509804%);stroke-opacity:1;stroke-miterlimit:10;" d="M 214.207031 223.300781 L 165.449219 102.386719 L 165.570312 102.335938 L 214.328125 223.25 Z M 214.207031 223.300781 "/>
<path style="fill-rule:nonzero;fill:rgb(0%,0%,0%);fill-opacity:1;stroke-width:0.75;stroke-linecap:round;stroke-linejoin:round;stroke:rgb(74.509804%,74.509804%,74.509804%);stroke-opacity:1;stroke-miterlimit:10;" d="M 210.835938 224.8125 L 175.621094 98.542969 L 175.746094 98.507812 L 210.960938 224.777344 Z M 210.835938 224.8125 "/>
<path style="fill-rule:nonzero;fill:rgb(0%,0%,0%);fill-opacity:1;stroke-width:0.75;stroke-linecap:round;stroke-linejoin:round;stroke:rgb(74.509804%,74.509804%,74.509804%);stroke-opacity:1;stroke-miterlimit:10;" d="M 207.074219 225.953125 L 186.34375 95.859375 L 186.472656 95.839844 L 207.203125 225.933594 Z M 207.074219 225.953125 "/>
<path style="fill-rule:nonzero;fill:rgb(0%,0%,0%);fill-opacity:1;stroke-width:0.75;stroke-linecap:round;stroke-linejoin:round;stroke:rgb(74.509804%,74.509804%,74.509804%);stroke-opacity:1;stroke-miterlimit:10;" d="M 203.046875 226.59375 L 197.425781 94.492188 L 197.558594 94.488281 L 203.175781 226.585938 Z M 203.046875 226.59375 "/>
<path style="fill-rule:nonzero;fill:rgb(0%,0%,0%);fill-opacity:1;stroke-width:0.75;stroke-linecap:round;stroke-linejoin:round;stroke:rgb(74.509804%,74.509804%,74.509804%);stroke-opacity:1;stroke-miterlimit:10;" d="M 198.929688 226.476562 L 208.621094 94.707031 L 208.753906 94.714844 L 199.0625 226.484375 Z M 198.929688 226.476562 "/>
<path style="fill-rule:nonzero;fill:rgb(0%,0%,0%);fill-opacity:1;stroke-width:0.75;stroke-linecap:round;stroke-linejoin:round;stroke:rgb(74.509804%,74.509804%,74.509804%);stroke-opacity:1;stroke-miterlimit:10;" d="M 194.960938 225.667969 L 219.632812 96.425781 L 219.761719 96.453125 L 195.089844 225.691406 Z M 194.960938 225.667969 "/>
<path style="fill-rule:nonzero;fill:rgb(0%,0%,0%);fill-opacity:1;stroke-width:0.75;stroke-linecap:round;stroke-linejoin:round;stroke:rgb(74.509804%,74.509804%,74.509804%);stroke-opacity:1;stroke-miterlimit:10;" d="M 191.296875 224.398438 L 230.226562 99.421875 L 230.351562 99.460938 L 191.421875 224.4375 Z M 191.296875 224.398438 "/>
<path style="fill-rule:nonzero;fill:rgb(0%,0%,0%);fill-opacity:1;stroke-width:0.75;stroke-linecap:round;stroke-linejoin:round;stroke:rgb(74.509804%,74.509804%,74.509804%);stroke-opacity:1;stroke-miterlimit:10;" d="M 188.050781 222.796875 L 240.234375 103.539062 L 240.351562 103.589844 L 188.171875 222.847656 Z M 188.050781 222.796875 "/>
<path style="fill-rule:nonzero;fill:rgb(0%,0%,0%);fill-opacity:1;stroke-width:0.75;stroke-linecap:round;stroke-linejoin:round;stroke:rgb(74.509804%,74.509804%,74.509804%);stroke-opacity:1;stroke-miterlimit:10;" d="M 185.304688 220.980469 L 249.515625 108.628906 L 249.628906 108.695312 L 185.414062 221.046875 Z M 185.304688 220.980469 "/>
<path style="fill-rule:nonzero;fill:rgb(0%,0%,0%);fill-opacity:1;stroke-width:0.75;stroke-linecap:round;stroke-linejoin:round;stroke:rgb(74.509804%,74.509804%,74.509804%);stroke-opacity:1;stroke-miterlimit:10;" d="M 183.097656 219.078125 L 257.980469 114.546875 L 258.085938 114.621094 L 183.203125 219.152344 Z M 183.097656 219.078125 "/>
<path style="fill-rule:nonzero;fill:rgb(0%,0%,0%);fill-opacity:1;stroke-width:0.75;stroke-linecap:round;stroke-linejoin:round;stroke:rgb(74.509804%,74.509804%,74.509804%);stroke-opacity:1;stroke-miterlimit:10;" d="M 181.449219 217.210938 L 265.574219 121.125 L 265.671875 121.207031 L 181.542969 217.292969 Z M 181.449219 217.210938 "/>
<path style="fill-rule:nonzero;fill:rgb(0%,0%,0%);fill-opacity:1;stroke-width:0.75;stroke-linecap:round;stroke-linejoin:round;stroke:rgb(74.509804%,74.509804%,74.509804%);stroke-opacity:1;stroke-miterlimit:10;" d="M 180.335938 215.503906 L 272.292969 128.210938 L 272.378906 128.304688 L 180.421875 215.59375 Z M 180.335938 215.503906 "/>
<path style="fill-rule:nonzero;fill:rgb(0%,0%,0%);fill-opacity:1;stroke-width:0.75;stroke-linecap:round;stroke-linejoin:round;stroke:rgb(74.509804%,74.509804%,74.509804%);stroke-opacity:1;stroke-miterlimit:10;" d="M 179.742188 214.050781 L 278.128906 135.691406 L 278.210938 135.789062 L 179.820312 214.152344 Z M 179.742188 214.050781 "/>
<path style="fill-rule:nonzero;fill:rgb(0%,0%,0%);fill-opacity:1;stroke-width:0.75;stroke-linecap:round;stroke-linejoin:round;stroke:rgb(74.509804%,74.509804%,74.509804%);stroke-opacity:1;stroke-miterlimit:10;" d="M 179.605469 212.972656 L 283.144531 143.4375 L 283.214844 143.542969 L 179.675781 213.074219 Z M 179.605469 212.972656 "/>
<path style="fill-rule:nonzero;fill:rgb(0%,0%,0%);fill-opacity:1;stroke-width:0.75;stroke-linecap:round;stroke-linejoin:round;stroke:rgb(74.509804%,74.509804%,74.509804%);stroke-opacity:1;stroke-miterlimit:10;" d="M 180.050781 212.582031 L 287.214844 151.132812 L 287.277344 151.242188 L 180.113281 212.6875 Z M 180.050781 212.582031 "/>
<path style="fill-rule:nonzero;fill:rgb(0%,0%,0%);fill-opacity:1;stroke-width:0.75;stroke-linecap:round;stroke-linejoin:round;stroke:rgb(74.509804%,74.509804%,74.509804%);stroke-opacity:1;stroke-miterlimit:10;" d="M 180.28125 212.046875 L 290.066406 157.441406 L 290.121094 157.550781 L 180.335938 212.15625 Z M 180.28125 212.046875 "/>
<path style="fill-rule:nonzero;fill:rgb(0%,0%,0%);fill-opacity:1;stroke-width:0.75;stroke-linecap:round;stroke-linejoin:round;stroke:rgb(74.509804%,74.509804%,74.509804%);stroke-opacity:1;stroke-miterlimit:10;" d="M 181.046875 212.292969 L 292.660156 164.429688 L 292.707031 164.542969 L 181.097656 212.40625 Z M 181.046875 212.292969 "/>
<path style="fill-rule:nonzero;fill:rgb(0%,0%,0%);fill-opacity:1;stroke-width:0.75;stroke-linecap:round;stroke-linejoin:round;stroke:rgb(74.509804%,74.509804%,74.509804%);stroke-opacity:1;stroke-miterlimit:10;" d="M 181.957031 212.8125 L 294.851562 171.75 L 294.890625 171.863281 L 182 212.925781 Z M 181.957031 212.8125 "/>
<path style="fill-rule:nonzero;fill:rgb(0%,0%,0%);fill-opacity:1;stroke-width:0.75;stroke-linecap:round;stroke-linejoin:round;stroke:rgb(74.509804%,74.509804%,74.509804%);stroke-opacity:1;stroke-miterlimit:10;" d="M 183.066406 213.914062 L 296.589844 179.179688 L 296.625 179.292969 L 183.101562 214.027344 Z M 183.066406 213.914062 "/>
<path style="fill-rule:nonzero;fill:rgb(0%,0%,0%);fill-opacity:1;stroke-width:0.75;stroke-linecap:round;stroke-linejoin:round;stroke:rgb(74.509804%,74.509804%,74.509804%);stroke-opacity:1;stroke-miterlimit:10;" d="M 184.457031 215.722656 L 297.8125 186.703125 L 297.839844 186.816406 L 184.484375 215.835938 Z M 184.457031 215.722656 "/>
<path style="fill-rule:nonzero;fill:rgb(0%,0%,0%);fill-opacity:1;stroke-width:0.75;stroke-linecap:round;stroke-linejoin:round;stroke:rgb(74.509804%,74.509804%,74.509804%);stroke-opacity:1;stroke-miterlimit:10;" d="M 186.023438 218.359375 L 298.636719 194.292969 L 298.660156 194.40625 L 186.046875 218.472656 Z M 186.023438 218.359375 "/>
<path style="fill-rule:nonzero;fill:rgb(0%,0%,0%);fill-opacity:1;stroke-width:0.75;stroke-linecap:round;stroke-linejoin:round;stroke:rgb(74.509804%,74.509804%,74.509804%);stroke-opacity:1;stroke-miterlimit:10;" d="M 187.839844 221.859375 L 299.003906 202.027344 L 299.023438 202.136719 L 187.859375 221.972656 Z M 187.839844 221.859375 "/>
<path style="fill-rule:nonzero;fill:rgb(0%,0%,0%);fill-opacity:1;stroke-width:0.75;stroke-linecap:round;stroke-linejoin:round;stroke:rgb(74.509804%,74.509804%,74.509804%);stroke-opacity:1;stroke-miterlimit:10;" d="M 189.902344 226.246094 L 298.949219 209.972656 L 298.964844 210.082031 L 189.917969 226.355469 Z M 189.902344 226.246094 "/>
<path style="fill-rule:nonzero;fill:rgb(0%,0%,0%);fill-opacity:1;stroke-width:0.75;stroke-linecap:round;stroke-linejoin:round;stroke:rgb(74.509804%,74.509804%,74.509804%);stroke-opacity:1;stroke-miterlimit:10;" d="M 190.824219 228.378906 L 298.824219 213.675781 L 298.839844 213.785156 L 190.835938 228.484375 Z M 190.824219 228.378906 "/>
<path style="fill-rule:nonzero;fill:rgb(0%,0%,0%);fill-opacity:1;stroke-width:0.75;stroke-linecap:round;stroke-linejoin:round;stroke:rgb(74.509804%,74.509804%,74.509804%);stroke-opacity:1;stroke-miterlimit:10;" d="M 192.195312 231.53125 L 298.5 218.207031 L 298.515625 218.3125 L 192.207031 231.636719 Z M 192.195312 231.53125 "/>
<path style="fill-rule:nonzero;fill:rgb(0%,0%,0%);fill-opacity:1;stroke-width:0.75;stroke-linecap:round;stroke-linejoin:round;stroke:rgb(74.509804%,74.509804%,74.509804%);stroke-opacity:1;stroke-miterlimit:10;" d="M 194.726562 237.699219 L 297.660156 226.8125 L 297.671875 226.914062 L 194.738281 237.800781 Z M 194.726562 237.699219 "/>
<path style="fill-rule:nonzero;fill:rgb(0%,0%,0%);fill-opacity:1;stroke-width:0.75;stroke-linecap:round;stroke-linejoin:round;stroke:rgb(74.509804%,74.509804%,74.509804%);stroke-opacity:1;stroke-miterlimit:10;" d="M 197.558594 244.726562 L 296.390625 235.847656 L 296.398438 235.949219 L 197.570312 244.824219 Z M 197.558594 244.726562 "/>
<path style="fill-rule:nonzero;fill:rgb(0%,0%,0%);fill-opacity:1;stroke-width:0.75;stroke-linecap:round;stroke-linejoin:round;stroke:rgb(74.509804%,74.509804%,74.509804%);stroke-opacity:1;stroke-miterlimit:10;" d="M 200.734375 252.566406 L 294.648438 245.351562 L 294.65625 245.445312 L 200.742188 252.660156 Z M 200.734375 252.566406 "/>
<path style="fill-rule:nonzero;fill:rgb(0%,0%,0%);fill-opacity:1;stroke-width:0.75;stroke-linecap:round;stroke-linejoin:round;stroke:rgb(74.509804%,74.509804%,74.509804%);stroke-opacity:1;stroke-miterlimit:10;" d="M 204.261719 261.160156 L 292.441406 255.320312 L 292.445312 255.410156 L 204.269531 261.246094 Z M 204.261719 261.160156 "/>
<path style="fill-rule:nonzero;fill:rgb(0%,0%,0%);fill-opacity:1;stroke-width:0.75;stroke-linecap:round;stroke-linejoin:round;stroke:rgb(74.509804%,74.509804%,74.509804%);stroke-opacity:1;stroke-miterlimit:10;" d="M 208.207031 270.390625 L 289.703125 265.707031 L 289.707031 265.789062 L 208.210938 270.472656 Z M 208.207031 270.390625 "/>
<path style="fill-rule:nonzero;fill:rgb(0%,0%,0%);fill-opacity:1;stroke-width:0.75;stroke-linecap:round;stroke-linejoin:round;stroke:rgb(74.509804%,74.509804%,74.509804%);stroke-opacity:1;stroke-miterlimit:10;" d="M 210.664062 276.039062 L 287.878906 271.902344 L 287.882812 271.980469 L 210.667969 276.117188 Z M 210.664062 276.039062 "/>
<path style="fill-rule:nonzero;fill:rgb(0%,0%,0%);fill-opacity:1;stroke-width:0.75;stroke-linecap:round;stroke-linejoin:round;stroke:rgb(74.509804%,74.509804%,74.509804%);stroke-opacity:1;stroke-miterlimit:10;" d="M 212.546875 280.128906 L 286.457031 276.40625 L 286.460938 276.480469 L 212.550781 280.203125 Z M 212.546875 280.128906 "/>
<path style="fill-rule:nonzero;fill:rgb(0%,0%,0%);fill-opacity:1;stroke-width:0.75;stroke-linecap:round;stroke-linejoin:round;stroke:rgb(74.509804%,74.509804%,74.509804%);stroke-opacity:1;stroke-miterlimit:10;" d="M 213.824219 282.914062 L 285.457031 279.539062 L 285.460938 279.609375 L 213.828125 282.988281 Z M 213.824219 282.914062 "/>
<path style="fill-rule:nonzero;fill:rgb(0%,0%,0%);fill-opacity:1;stroke-width:0.75;stroke-linecap:round;stroke-linejoin:round;stroke:rgb(74.509804%,74.509804%,74.509804%);stroke-opacity:1;stroke-miterlimit:10;" d="M 217.25 290.171875 L 282.738281 287.261719 L 282.742188 287.324219 L 217.253906 290.234375 Z M 217.25 290.171875 "/>
<path style="fill-rule:nonzero;fill:rgb(0%,0%,0%);fill-opacity:1;stroke-width:0.75;stroke-linecap:round;stroke-linejoin:round;stroke:rgb(74.509804%,74.509804%,74.509804%);stroke-opacity:1;stroke-miterlimit:10;" d="M 220.089844 295.992188 L 280.402344 293.472656 L 280.40625 293.535156 L 220.09375 296.050781 Z M 220.089844 295.992188 "/>
<path style="fill-rule:nonzero;fill:rgb(0%,0%,0%);fill-opacity:1;stroke-width:0.75;stroke-linecap:round;stroke-linejoin:round;stroke:rgb(74.509804%,74.509804%,74.509804%);stroke-opacity:1;stroke-miterlimit:10;" d="M 222.273438 300.277344 L 278.589844 298.050781 L 278.59375 298.109375 L 222.273438 300.332031 Z M 222.273438 300.277344 "/>
<path style="fill-rule:nonzero;fill:rgb(0%,0%,0%);fill-opacity:1;stroke-width:0.75;stroke-linecap:round;stroke-linejoin:round;stroke:rgb(74.509804%,74.509804%,74.509804%);stroke-opacity:1;stroke-miterlimit:10;" d="M 226.273438 308.039062 L 275.183594 306.214844 L 275.183594 306.265625 L 226.273438 308.085938 Z M 226.273438 308.039062 "/>
<path style="fill-rule:nonzero;fill:rgb(0%,0%,0%);fill-opacity:1;stroke-width:0.75;stroke-linecap:round;stroke-linejoin:round;stroke:rgb(74.509804%,74.509804%,74.509804%);stroke-opacity:1;stroke-miterlimit:10;" d="M 227.433594 310.167969 L 274.1875 308.511719 L 274.191406 308.558594 L 227.433594 310.214844 Z M 227.433594 310.167969 "/>
<path style="fill-rule:nonzero;fill:rgb(0%,0%,0%);fill-opacity:1;stroke-width:0.75;stroke-linecap:round;stroke-linejoin:round;stroke:rgb(74.509804%,74.509804%,74.509804%);stroke-opacity:1;stroke-miterlimit:10;" d="M 229.308594 313.671875 L 272.554688 312.222656 L 272.554688 312.265625 L 229.308594 313.714844 Z M 229.308594 313.671875 "/>
<path style="fill-rule:nonzero;fill:rgb(0%,0%,0%);fill-opacity:1;stroke-width:0.75;stroke-linecap:round;stroke-linejoin:round;stroke:rgb(74.509804%,74.509804%,74.509804%);stroke-opacity:1;stroke-miterlimit:10;" d="M 232.523438 319.527344 L 269.738281 318.34375 L 269.738281 318.378906 L 232.527344 319.566406 Z M 232.523438 319.527344 "/>
<path style="fill-rule:nonzero;fill:rgb(0%,0%,0%);fill-opacity:1;stroke-width:0.75;stroke-linecap:round;stroke-linejoin:round;stroke:rgb(74.509804%,74.509804%,74.509804%);stroke-opacity:1;stroke-miterlimit:10;" d="M 235.175781 324.273438 L 267.382812 323.296875 L 267.382812 323.332031 L 235.175781 324.304688 Z M 235.175781 324.273438 "/>
<path style="fill-rule:nonzero;fill:rgb(0%,0%,0%);fill-opacity:1;stroke-width:0.75;stroke-linecap:round;stroke-linejoin:round;stroke:rgb(74.509804%,74.509804%,74.509804%);stroke-opacity:1;stroke-miterlimit:10;" d="M 237.335938 328.054688 L 265.457031 327.242188 L 265.457031 327.273438 L 237.335938 328.082031 Z M 237.335938 328.054688 "/>
<path style="fill-rule:nonzero;fill:rgb(0%,0%,0%);fill-opacity:1;stroke-width:0.75;stroke-linecap:round;stroke-linejoin:round;stroke:rgb(74.509804%,74.509804%,74.509804%);stroke-opacity:1;stroke-miterlimit:10;" d="M 241.628906 335.472656 L 261.578125 334.949219 L 261.578125 334.96875 L 241.628906 335.492188 Z M 241.628906 335.472656 "/>
<path style="fill-rule:nonzero;fill:rgb(0%,0%,0%);fill-opacity:1;stroke-width:0.75;stroke-linecap:round;stroke-linejoin:round;stroke:rgb(74.509804%,74.509804%,74.509804%);stroke-opacity:1;stroke-miterlimit:10;" d="M 242.945312 337.722656 L 260.378906 337.285156 L 260.378906 337.304688 L 242.945312 337.742188 Z M 242.945312 337.722656 "/>
<path style="fill-rule:nonzero;fill:rgb(0%,0%,0%);fill-opacity:1;stroke-width:0.75;stroke-linecap:round;stroke-linejoin:round;stroke:rgb(74.509804%,74.509804%,74.509804%);stroke-opacity:1;stroke-miterlimit:10;" d="M 245.226562 341.578125 L 258.292969 341.265625 L 258.292969 341.277344 L 245.226562 341.589844 Z M 245.226562 341.578125 "/>
<path style="fill-rule:nonzero;fill:rgb(0%,0%,0%);fill-opacity:1;stroke-width:0.75;stroke-linecap:round;stroke-linejoin:round;stroke:rgb(74.509804%,74.509804%,74.509804%);stroke-opacity:1;stroke-miterlimit:10;" d="M 248.03125 346.265625 L 255.707031 346.09375 L 255.707031 346.101562 L 248.03125 346.273438 Z M 248.03125 346.265625 "/>
<path style="fill-rule:nonzero;fill:rgb(0%,0%,0%);fill-opacity:1;stroke-width:0.75;stroke-linecap:round;stroke-linejoin:round;stroke:rgb(74.509804%,74.509804%,74.509804%);stroke-opacity:1;stroke-miterlimit:10;" d="M 250.011719 349.542969 L 253.867188 349.464844 L 253.867188 349.46875 L 250.011719 349.546875 Z M 250.011719 349.542969 "/>
<path style="fill-rule:nonzero;fill:rgb(0%,0%,0%);fill-opacity:1;stroke-width:0.75;stroke-linecap:round;stroke-linejoin:round;stroke:rgb(74.509804%,74.509804%,74.509804%);stroke-opacity:1;stroke-miterlimit:10;" d="M 251.230469 351.542969 L 252.726562 351.515625 Z M 251.230469 351.542969 "/>
<path style="fill-rule:nonzero;fill:rgb(0%,0%,0%);fill-opacity:1;stroke-width:0.75;stroke-linecap:round;stroke-linejoin:round;stroke:rgb(74.509804%,74.509804%,74.509804%);stroke-opacity:1;stroke-miterlimit:10;" d="M 251.820312 352.511719 L 252.167969 352.503906 Z M 251.820312 352.511719 "/>
<path style="fill:none;stroke-width:0.75;stroke-linecap:round;stroke-linejoin:round;stroke:rgb(74.509804%,74.509804%,74.509804%);stroke-opacity:1;stroke-miterlimit:10;" d="M 251.992188 352.789062 L 252.007812 352.789062 Z M 251.992188 352.789062 "/>
<path style="fill:none;stroke-width:0.75;stroke-linecap:round;stroke-linejoin:round;stroke:rgb(74.509804%,74.509804%,74.509804%);stroke-opacity:1;stroke-miterlimit:10;" d="M 252 352.800781 Z M 252 352.800781 "/>
<path style="fill-rule:nonzero;fill:rgb(0%,0%,0%);fill-opacity:1;stroke-width:0.75;stroke-linecap:round;stroke-linejoin:round;stroke:rgb(0%,0%,0%);stroke-opacity:1;stroke-miterlimit:10;" d="M 252.007812 352.789062 L 252.167969 352.503906 L 252.726562 351.515625 L 253.867188 349.46875 L 255.707031 346.101562 L 258.292969 341.277344 L 260.378906 337.304688 L 261.578125 334.96875 L 265.457031 327.273438 L 267.382812 323.332031 L 269.738281 318.378906 L 272.554688 312.265625 L 274.191406 308.558594 L 275.183594 306.265625 L 278.59375 298.109375 L 280.40625 293.535156 L 282.742188 287.324219 L 285.460938 279.609375 L 286.460938 276.480469 L 287.882812 271.980469 L 289.707031 265.789062 L 292.445312 255.410156 L 294.65625 245.445312 L 296.398438 235.949219 L 297.671875 226.914062 L 298.515625 218.3125 L 298.839844 213.785156 L 298.964844 210.082031 L 299.023438 202.136719 L 298.660156 194.40625 L 297.839844 186.816406 L 296.625 179.292969 L 294.890625 171.863281 L 292.707031 164.542969 L 290.121094 157.550781 L 287.277344 151.242188 L 283.214844 143.542969 L 278.210938 135.789062 L 272.378906 128.304688 L 265.671875 121.207031 L 265.574219 121.125 L 258.085938 114.621094 L 257.980469 114.546875 L 249.628906 108.695312 L 249.515625 108.628906 L 240.351562 103.589844 L 240.234375 103.539062 L 230.351562 99.460938 L 230.226562 99.421875 L 219.761719 96.453125 L 219.632812 96.425781 L 208.753906 94.714844 L 208.621094 94.707031 L 197.558594 94.488281 L 197.550781 94.488281 L 197.425781 94.492188 L 186.472656 95.839844 L 186.453125 95.839844 L 186.34375 95.859375 L 175.746094 98.507812 L 175.621094 98.542969 L 165.570312 102.335938 L 165.449219 102.386719 L 156.082031 107.1875 L 155.96875 107.246094 L 147.394531 112.898438 L 147.289062 112.96875 L 139.5625 119.308594 L 139.464844 119.390625 L 132.527344 126.371094 L 126.457031 133.757812 L 121.246094 141.457031 L 116.820312 149.351562 L 113.410156 156.910156 L 111.527344 161.515625 L 109.277344 168.347656 L 107.355469 175.746094 L 105.875 183.222656 L 104.890625 190.777344 L 104.304688 198.433594 L 104.140625 206.261719 L 104.421875 214.347656 L 104.835938 219.894531 L 105.074219 222.765625 L 106.136719 231.585938 L 107.65625 240.859375 L 109.640625 250.605469 L 112.121094 260.792969 L 114.210938 268.238281 L 115.132812 271.355469 L 116.59375 276.089844 L 118.628906 282.148438 L 121.589844 290.347656 L 122.59375 292.992188 L 124.167969 297.058594 L 126.878906 303.636719 L 129.414062 309.488281 L 131.347656 313.796875 L 134.625 320.832031 L 135.742188 323.167969 L 137.144531 326.070312 L 139.832031 331.464844 L 141.824219 335.371094 L 143.421875 338.453125 L 146.355469 343.988281 L 148.546875 348.039062 L 150.011719 350.691406 L 150.828125 352.144531 L 151.152344 352.714844 L 151.199219 352.800781 L 151.25 352.714844 L 151.59375 352.160156 L 152.464844 350.738281 L 154.035156 348.15625 L 156.402344 344.21875 L 159.59375 338.859375 L 161.351562 335.878906 L 163.542969 332.117188 L 166.535156 326.914062 L 168.101562 324.148438 L 169.363281 321.933594 L 173.078125 315.195312 L 175.308594 311.105469 L 178.242188 305.550781 L 181.457031 299.308594 L 183.339844 295.53125 L 184.566406 293.128906 L 188.230469 285.429688 L 190.847656 279.804688 L 192.765625 275.515625 L 194.019531 272.796875 L 196.917969 266.003906 L 200.65625 257.066406 L 201.601562 254.75 L 204.269531 261.246094 L 208.210938 270.472656 L 210.667969 276.117188 L 212.550781 280.203125 L 213.828125 282.988281 L 217.253906 290.234375 L 220.09375 296.050781 L 222.273438 300.332031 L 226.273438 308.085938 L 227.433594 310.214844 L 229.308594 313.714844 L 232.527344 319.566406 L 235.175781 324.304688 L 237.335938 328.082031 L 241.628906 335.492188 L 242.945312 337.742188 L 245.226562 341.589844 L 248.03125 346.273438 L 250.011719 349.546875 L 251.230469 351.542969 L 251.820312 352.511719 L 251.992188 352.789062 L 252 352.800781 Z M 252.007812 352.789062 "/>
</g>
</svg>
