<?xml version="1.0" encoding="UTF-8"?>
<svg xmlns="http://www.w3.org/2000/svg" xmlns:xlink="http://www.w3.org/1999/xlink" width="504pt" height="504pt" viewBox="0 0 504 504" version="1.1">
<g id="surface120">
<rect x="0" y="0" width="504" height="504" style="fill:rgb(100%,100%,100%);fill-opacity:1;stroke:none;"/>
<path style=" stroke:none;fill-rule:nonzero;fill:rgb(0%,0%,0%);fill-opacity:1;" d="M 153.449219 352.800781 C 153.449219 355.800781 148.949219 355.800781 148.949219 352.800781 C 148.949219 349.800781 153.449219 349.800781 153.449219 352.800781 "/>
<path style=" stroke:none;fill-rule:nonzero;fill:rgb(0%,0%,0%);fill-opacity:1;" d="M 153.449219 151.199219 C 153.449219 154.199219 148.949219 154.199219 148.949219 151.199219 C 148.949219 148.199219 153.449219 148.199219 153.449219 151.199219 "/>
<path style=" stroke:none;fill-rule:nonzero;fill:rgb(0%,0%,0%);fill-opacity:1;" d="M 254.25 151.199219 C 254.25 154.199219 249.75 154.199219 249.75 151.199219 C 249.75 148.199219 254.25 148.199219 254.25 151.199219 "/>
<path style=" stroke:none;fill-rule:nonzero;fill:rgb(0%,0%,0%);fill-opacity:1;" d="M 254.25 352.800781 C 254.25 355.800781 249.75 355.800781 249.75 352.800781 C 249.75 349.800781 254.25 349.800781 254.25 352.800781 "/>
<path style="fill:none;stroke-width:0.75;stroke-linecap:round;stroke-linejoin:round;stroke:rgb(100%,0%,0%);stroke-opacity:1;stroke-miterlimit:10;" d="M 151.199219 352.800781 L 151.199219 352.800781 "/>
<path style="fill:none;stroke-width:0.75;stroke-linecap:round;stroke-linejoin:round;stroke:rgb(100%,0%,0%);stroke-opacity:1;stroke-miterlimit:10;" d="M 151.199219 151.199219 L 221.355469 221.355469 "/>
<path style="fill:none;stroke-width:0.75;stroke-linecap:round;stroke-linejoin:round;stroke:rgb(100%,0%,0%);stroke-opacity:1;stroke-miterlimit:10;" d="M 252 151.199219 L 181.847656 221.355469 "/>
<path style="fill:none;stroke-width:0.75;stroke-linecap:round;stroke-linejoin:round;stroke:rgb(100%,0%,0%);stroke-opacity:1;stroke-miterlimit:10;" d="M 252 352.800781 L 252 352.800781 "/>
<path style=" stroke:none;fill-rule:nonzero;fill:rgb(100%,0%,0%);fill-opacity:1;" d="M 155.699219 352.800781 C 155.699219 358.800781 146.699219 358.800781 146.699219 352.800781 C 146.699219 346.800781 155.699219 346.800781 155.699219 352.800781 "/>
<path style=" stroke:none;fill-rule:nonzero;fill:rgb(100%,0%,0%);fill-opacity:1;" d="M 225.855469 221.355469 C 225.855469 227.355469 216.855469 227.355469 216.855469 221.355469 C 216.855469 215.355469 225.855469 215.355469 225.855469 221.355469 "/>
<path style=" stroke:none;fill-rule:nonzero;fill:rgb(100%,0%,0%);fill-opacity:1;" d="M 186.347656 221.355469 C 186.347656 227.355469 177.347656 227.355469 177.347656 221.355469 C 177.347656 215.355469 186.347656 215.355469 186.347656 221.355469 "/>
<path style=" stroke:none;fill-rule:nonzero;fill:rgb(100%,0%,0%);fill-opacity:1;" d="M 256.5 352.800781 C 256.5 358.800781 247.5 358.800781 247.5 352.800781 C 247.5 346.800781 256.5 346.800781 256.5 352.800781 "/>
<path style="fill:none;stroke-width:0.75;stroke-linecap:round;stroke-linejoin:round;stroke:rgb(0%,0%,100%);stroke-opacity:1;stroke-miterlimit:10;" d="M 151.199219 352.800781 L 151.199219 352.800781 "/>
<path style="fill:none;stroke-width:0.75;stroke-linecap:round;stroke-linejoin:round;stroke:rgb(0%,0%,100%);stroke-opacity:1;stroke-miterlimit:10;" d="M 81.046875 81.046875 L 151.199219 151.199219 "/>
<path style="fill:none;stroke-width:0.75;stroke-linecap:round;stroke-linejoin:round;stroke:rgb(0%,0%,100%);stroke-opacity:1;stroke-miterlimit:10;" d="M 322.152344 81.046875 L 252 151.199219 "/>
<path style="fill:none;stroke-width:0.75;stroke-linecap:round;stroke-linejoin:round;stroke:rgb(0%,0%,100%);stroke-opacity:1;stroke-miterlimit:10;" d="M 252 352.800781 L 252 352.800781 "/>
<path style=" stroke:none;fill-rule:nonzero;fill:rgb(0%,0%,100%);fill-opacity:1;" d="M 155.699219 352.800781 C 155.699219 358.800781 146.699219 358.800781 146.699219 352.800781 C 146.699219 346.800781 155.699219 346.800781 155.699219 352.800781 "/>
<path style=" stroke:none;fill-rule:nonzero;fill:rgb(0%,0%,100%);fill-opacity:1;" d="M 85.546875 81.046875 C 85.546875 87.046875 76.546875 87.046875 76.546875 81.046875 C 76.546875 75.046875 85.546875 75.046875 85.546875 81.046875 "/>
<path style=" stroke:none;fill-rule:nonzero;fill:rgb(0%,0%,100%);fill-opacity:1;" d="M 326.652344 81.046875 C 326.652344 87.046875 317.652344 87.046875 317.652344 81.046875 C 317.652344 75.046875 326.652344 75.046875 326.652344 81.046875 "/>
<path style=" stroke:none;fill-rule:nonzero;fill:rgb(0%,0%,100%);fill-opacity:1;" d="M 256.5 352.800781 C 256.5 358.800781 247.5 358.800781 247.5 352.800781 C 247.5 346.800781 256.5 346.800781 256.5 352.800781 "/>
<path style="fill:none;stroke-width:0.75;stroke-linecap:round;stroke-linejoin:round;stroke:rgb(100%,0%,0%);stroke-opacity:1;stroke-miterlimit:10;" d="M 151.199219 352.800781 L 151.210938 352.777344 L 151.292969 352.625 L 151.523438 352.191406 L 151.984375 351.332031 L 152.738281 349.914062 L 153.847656 347.839844 L 155.34375 345.039062 L 157.242188 341.480469 L 159.5625 337.128906 L 162.359375 331.894531 L 162.890625 330.890625 L 164.574219 327.738281 L 166.414062 324.28125 L 168.40625 320.515625 L 170.546875 316.445312 L 172.820312 312.089844 L 175.203125 307.464844 L 177.679688 302.613281 L 180.210938 297.578125 L 182.769531 292.414062 L 185.3125 287.1875 L 187.804688 281.957031 L 190.207031 276.792969 L 192.488281 271.75 L 194.617188 266.890625 L 196.5625 262.253906 L 198.3125 257.886719 L 199.839844 253.804688 L 201.144531 250.023438 L 202.214844 246.554688 L 203.046875 243.386719 L 203.078125 243.261719 L 203.609375 240.699219 L 203.964844 238.351562 L 204.160156 236.214844 L 204.207031 234.292969 L 204.125 232.585938 L 203.921875 231.101562 L 203.621094 229.859375 L 203.230469 228.859375 L 202.773438 228.117188 L 202.269531 227.640625 L 201.738281 227.433594 L 201.199219 227.503906 L 200.679688 227.84375 L 200.195312 228.449219 L 199.769531 229.320312 L 199.417969 230.441406 L 199.164062 231.804688 L 199.019531 233.394531 L 199 235.210938 L 199.117188 237.238281 L 199.390625 239.476562 L 199.832031 241.929688 L 200.125 243.261719 L 200.945312 246.414062 L 202.003906 249.871094 L 203.300781 253.636719 L 204.820312 257.707031 L 206.558594 262.066406 L 208.496094 266.691406 L 210.617188 271.542969 L 212.894531 276.578125 L 215.292969 281.738281 L 217.78125 286.964844 L 220.324219 292.195312 L 222.882812 297.363281 L 225.414062 302.402344 L 227.894531 307.265625 L 230.28125 311.898438 L 232.558594 316.269531 L 234.707031 320.351562 L 236.707031 324.128906 L 238.550781 327.597656 L 240.238281 330.765625 L 240.308594 330.890625 L 243.191406 336.296875 L 245.589844 340.792969 L 247.5625 344.480469 L 249.125 347.410156 L 250.296875 349.605469 L 251.109375 351.132812 L 251.613281 352.078125 L 251.878906 352.574219 L 251.980469 352.765625 L 252 352.800781 "/>
<path style="fill:none;stroke-width:0.75;stroke-linecap:round;stroke-linejoin:round;stroke:rgb(0%,0%,100%);stroke-opacity:1;stroke-miterlimit:10;" d="M 151.199219 352.800781 L 151.195312 352.78125 L 151.164062 352.660156 L 151.078125 352.324219 L 150.902344 351.648438 L 150.609375 350.519531 L 150.175781 348.824219 L 149.566406 346.46875 L 148.769531 343.378906 L 147.769531 339.503906 L 146.558594 334.8125 L 145.128906 329.28125 L 143.476562 322.878906 L 141.582031 315.542969 L 139.507812 307.507812 L 138.296875 302.8125 L 137.015625 297.789062 L 135.667969 292.429688 L 134.273438 286.726562 L 132.839844 280.691406 L 131.386719 274.328125 L 129.933594 267.65625 L 128.496094 260.695312 L 127.097656 253.476562 L 125.761719 246.03125 L 124.507812 238.40625 L 123.363281 230.636719 L 122.347656 222.78125 L 121.484375 214.886719 L 120.796875 207.003906 L 120.300781 199.1875 L 120.015625 191.484375 L 119.957031 183.945312 L 120.140625 176.613281 L 120.574219 169.523438 L 121.277344 162.710938 L 122.25 156.195312 L 123.507812 150 L 125.058594 144.136719 L 126.910156 138.609375 L 129.082031 133.421875 L 131.585938 128.570312 L 132.921875 126.339844 L 136.023438 121.875 L 139.503906 117.726562 L 143.363281 113.886719 L 147.589844 110.351562 L 152.171875 107.125 L 157.097656 104.210938 L 162.34375 101.625 L 167.882812 99.375 L 173.683594 97.480469 L 179.703125 95.949219 L 185.898438 94.792969 L 192.226562 94.023438 L 198.632812 93.640625 L 205.0625 93.65625 L 211.464844 94.066406 L 217.78125 94.867188 L 223.96875 96.054688 L 229.972656 97.613281 L 235.753906 99.539062 L 241.269531 101.8125 L 246.492188 104.425781 L 251.394531 107.359375 L 255.949219 110.613281 L 260.148438 114.171875 L 263.976562 118.035156 L 267.429688 122.207031 L 270.277344 126.339844 L 272.949219 131.03125 L 275.277344 136.054688 L 277.285156 141.417969 L 278.980469 147.117188 L 280.378906 153.15625 L 281.488281 159.515625 L 282.320312 166.191406 L 282.882812 173.148438 L 283.183594 180.371094 L 283.242188 187.8125 L 283.066406 195.441406 L 282.667969 203.207031 L 282.070312 211.066406 L 281.289062 218.960938 L 280.347656 226.84375 L 279.261719 234.660156 L 278.058594 242.359375 L 276.757812 249.898438 L 275.386719 257.230469 L 273.964844 264.320312 L 272.519531 271.136719 L 271.0625 277.652344 L 269.617188 283.847656 L 268.203125 289.710938 L 266.828125 295.238281 L 265.515625 300.425781 L 264.269531 305.277344 L 263.691406 307.507812 L 261.539062 315.847656 L 259.65625 323.144531 L 258.011719 329.515625 L 256.589844 335.011719 L 255.390625 339.671875 L 254.398438 343.515625 L 253.605469 346.574219 L 253.007812 348.902344 L 252.574219 350.574219 L 252.289062 351.683594 L 252.117188 352.339844 L 252.035156 352.667969 L 252.003906 352.785156 L 252 352.800781 "/>
</g>
</svg>
