<?xml version="1.0" encoding="UTF-8"?>
<svg xmlns="http://www.w3.org/2000/svg" xmlns:xlink="http://www.w3.org/1999/xlink" width="504pt" height="504pt" viewBox="0 0 504 504" version="1.1">
<g id="surface5">
<rect x="0" y="0" width="504" height="504" style="fill:rgb(100%,100%,100%);fill-opacity:1;stroke:none;"/>
<path style=" stroke:none;fill-rule:nonzero;fill:rgb(74.509804%,74.509804%,74.509804%);fill-opacity:1;" d="M 54.898438 453.601562 C 54.898438 459.601562 45.898438 459.601562 45.898438 453.601562 C 45.898438 447.601562 54.898438 447.601562 54.898438 453.601562 "/>
<path style=" stroke:none;fill-rule:nonzero;fill:rgb(74.509804%,74.509804%,74.509804%);fill-opacity:1;" d="M 155.699219 50.398438 C 155.699219 56.398438 146.699219 56.398438 146.699219 50.398438 C 146.699219 44.398438 155.699219 44.398438 155.699219 50.398438 "/>
<path style=" stroke:none;fill-rule:nonzero;fill:rgb(74.509804%,74.509804%,74.509804%);fill-opacity:1;" d="M 256.5 352.800781 C 256.5 358.800781 247.5 358.800781 247.5 352.800781 C 247.5 346.800781 256.5 346.800781 256.5 352.800781 "/>
<path style=" stroke:none;fill-rule:nonzero;fill:rgb(74.509804%,74.509804%,74.509804%);fill-opacity:1;" d="M 357.300781 151.199219 C 357.300781 157.199219 348.300781 157.199219 348.300781 151.199219 C 348.300781 145.199219 357.300781 145.199219 357.300781 151.199219 "/>
<path style=" stroke:none;fill-rule:nonzero;fill:rgb(74.509804%,74.509804%,74.509804%);fill-opacity:1;" d="M 458.101562 453.601562 C 458.101562 459.601562 449.101562 459.601562 449.101562 453.601562 C 449.101562 447.601562 458.101562 447.601562 458.101562 453.601562 "/>
<path style="fill:none;stroke-width:3.75;stroke-linecap:round;stroke-linejoin:round;stroke:rgb(0%,0%,0%);stroke-opacity:1;stroke-miterlimit:10;" d="M 50.398438 453.601562 L 50.417969 453.53125 L 50.542969 453.0625 L 50.867188 451.84375 L 51.46875 449.589844 L 52.414062 446.0625 L 53.75 441.097656 L 55.507812 434.597656 L 57.699219 426.542969 L 60.3125 416.976562 L 63.328125 406.027344 L 66.695312 393.871094 L 70.371094 380.726562 L 74.285156 366.835938 L 78.378906 352.460938 L 82.585938 337.855469 L 86.847656 323.25 L 91.109375 308.855469 L 95.328125 294.851562 L 99.46875 281.382812 L 103.5 268.558594 L 107.40625 256.464844 L 111.171875 245.152344 L 114.792969 234.65625 L 118.273438 224.992188 L 121.613281 216.160156 L 124.816406 208.144531 L 127.902344 200.933594 L 130.878906 194.5 L 133.757812 188.8125 L 136.558594 183.847656 L 139.289062 179.578125 L 141.972656 175.960938 L 144.613281 172.976562 L 147.230469 170.585938 L 149.835938 168.75 L 151.199219 168 L 154.996094 166.621094 L 158.820312 166.238281 L 162.695312 166.800781 L 166.636719 168.261719 L 170.65625 170.566406 L 174.753906 173.671875 L 178.9375 177.511719 L 183.195312 182.019531 L 187.523438 187.117188 L 191.90625 192.722656 L 196.328125 198.738281 L 200.773438 205.058594 L 205.222656 211.578125 L 209.65625 218.1875 L 214.054688 224.773438 L 218.40625 231.234375 L 222.691406 237.46875 L 226.902344 243.382812 L 231.03125 248.890625 L 235.078125 253.917969 L 239.046875 258.398438 L 242.945312 262.277344 L 246.789062 265.507812 L 250.589844 268.042969 L 252 268.800781 L 256.398438 270.503906 L 260.839844 271.285156 L 265.359375 271.21875 L 269.972656 270.378906 L 274.691406 268.84375 L 279.523438 266.691406 L 284.460938 264.015625 L 289.484375 260.917969 L 294.578125 257.507812 L 299.71875 253.90625 L 304.871094 250.242188 L 310.011719 246.636719 L 315.109375 243.21875 L 320.136719 240.105469 L 325.074219 237.410156 L 329.910156 235.234375 L 334.636719 233.671875 L 339.253906 232.800781 L 343.777344 232.699219 L 348.21875 233.445312 L 352.621094 235.109375 L 352.800781 235.199219 L 355.71875 236.890625 L 358.652344 239.070312 L 361.609375 241.78125 L 364.613281 245.058594 L 367.679688 248.933594 L 370.835938 253.449219 L 374.09375 258.628906 L 377.480469 264.511719 L 381.011719 271.125 L 384.703125 278.492188 L 388.566406 286.628906 L 392.613281 295.539062 L 396.839844 305.210938 L 401.238281 315.609375 L 405.796875 326.671875 L 410.476562 338.308594 L 415.242188 350.378906 L 420.03125 362.722656 L 424.773438 375.121094 L 429.386719 387.335938 L 433.785156 399.105469 L 437.871094 410.152344 L 441.570312 420.222656 L 444.800781 429.085938 L 447.515625 436.582031 L 449.6875 442.617188 L 451.320312 447.179688 L 452.449219 450.351562 L 453.140625 452.300781 L 453.484375 453.273438 L 453.59375 453.578125 L 453.601562 453.601562 "/>
</g>
</svg>
