<?xml version="1.0" encoding="UTF-8"?>
<svg xmlns="http://www.w3.org/2000/svg" xmlns:xlink="http://www.w3.org/1999/xlink" width="504pt" height="504pt" viewBox="0 0 504 504" version="1.1">
<g id="surface162">
<path style=" stroke:none;fill-rule:nonzero;fill:rgb(74.509804%,74.509804%,74.509804%);fill-opacity:1;" d="M 109.800781 352.800781 C 109.800781 357.769531 105.769531 361.800781 100.800781 361.800781 C 95.828125 361.800781 91.800781 357.769531 91.800781 352.800781 C 91.800781 347.828125 95.828125 343.800781 100.800781 343.800781 C 105.769531 343.800781 109.800781 347.828125 109.800781 352.800781 "/>
<path style=" stroke:none;fill-rule:nonzero;fill:rgb(74.509804%,74.509804%,74.509804%);fill-opacity:1;" d="M 261 151.199219 C 261 156.171875 256.96875 160.199219 252 160.199219 C 247.03125 160.199219 243 156.171875 243 151.199219 C 243 146.230469 247.03125 142.199219 252 142.199219 C 256.96875 142.199219 261 146.230469 261 151.199219 "/>
<path style=" stroke:none;fill-rule:nonzero;fill:rgb(74.509804%,74.509804%,74.509804%);fill-opacity:1;" d="M 412.199219 352.800781 C 412.199219 357.769531 408.171875 361.800781 403.199219 361.800781 C 398.230469 361.800781 394.199219 357.769531 394.199219 352.800781 C 394.199219 347.828125 398.230469 343.800781 403.199219 343.800781 C 408.171875 343.800781 412.199219 347.828125 412.199219 352.800781 "/>
<path style=" stroke:none;fill-rule:nonzero;fill:rgb(0%,0%,0%);fill-opacity:1;" d="M 101.863281 352.800781 C 101.863281 354.21875 99.738281 354.21875 99.738281 352.800781 C 99.738281 351.382812 101.863281 351.382812 101.863281 352.800781 "/>
<path style=" stroke:none;fill-rule:nonzero;fill:rgb(0%,0%,0%);fill-opacity:1;" d="M 101.914062 352.738281 C 101.914062 354.15625 99.789062 354.15625 99.789062 352.738281 C 99.789062 351.320312 101.914062 351.320312 101.914062 352.738281 "/>
<path style=" stroke:none;fill-rule:nonzero;fill:rgb(0%,0%,0%);fill-opacity:1;" d="M 102.25 352.316406 C 102.25 353.734375 100.125 353.734375 100.125 352.316406 C 100.125 350.902344 102.25 350.902344 102.25 352.316406 "/>
<path style=" stroke:none;fill-rule:nonzero;fill:rgb(0%,0%,0%);fill-opacity:1;" d="M 103.113281 351.246094 C 103.113281 352.664062 100.988281 352.664062 100.988281 351.246094 C 100.988281 349.828125 103.113281 349.828125 103.113281 351.246094 "/>
<path style=" stroke:none;fill-rule:nonzero;fill:rgb(0%,0%,0%);fill-opacity:1;" d="M 104.707031 349.285156 C 104.707031 350.703125 102.578125 350.703125 102.578125 349.285156 C 102.578125 347.867188 104.707031 347.867188 104.707031 349.285156 "/>
<path style=" stroke:none;fill-rule:nonzero;fill:rgb(0%,0%,0%);fill-opacity:1;" d="M 107.164062 346.273438 C 107.164062 347.691406 105.039062 347.691406 105.039062 346.273438 C 105.039062 344.859375 107.164062 344.859375 107.164062 346.273438 "/>
<path style=" stroke:none;fill-rule:nonzero;fill:rgb(0%,0%,0%);fill-opacity:1;" d="M 110.574219 342.128906 C 110.574219 343.546875 108.445312 343.546875 108.445312 342.128906 C 108.445312 340.710938 110.574219 340.710938 110.574219 342.128906 "/>
<path style=" stroke:none;fill-rule:nonzero;fill:rgb(0%,0%,0%);fill-opacity:1;" d="M 114.949219 336.84375 C 114.949219 338.261719 112.824219 338.261719 112.824219 336.84375 C 112.824219 335.429688 114.949219 335.429688 114.949219 336.84375 "/>
<path style=" stroke:none;fill-rule:nonzero;fill:rgb(0%,0%,0%);fill-opacity:1;" d="M 120.25 330.503906 C 120.25 331.921875 118.125 331.921875 118.125 330.503906 C 118.125 329.085938 120.25 329.085938 120.25 330.503906 "/>
<path style=" stroke:none;fill-rule:nonzero;fill:rgb(0%,0%,0%);fill-opacity:1;" d="M 126.371094 323.25 C 126.371094 324.667969 124.246094 324.667969 124.246094 323.25 C 124.246094 321.832031 126.371094 321.832031 126.371094 323.25 "/>
<path style=" stroke:none;fill-rule:nonzero;fill:rgb(0%,0%,0%);fill-opacity:1;" d="M 133.171875 315.28125 C 133.171875 316.699219 131.046875 316.699219 131.046875 315.28125 C 131.046875 313.867188 133.171875 313.867188 133.171875 315.28125 "/>
<path style=" stroke:none;fill-rule:nonzero;fill:rgb(0%,0%,0%);fill-opacity:1;" d="M 140.484375 306.832031 C 140.484375 308.246094 138.355469 308.246094 138.355469 306.832031 C 138.355469 305.414062 140.484375 305.414062 140.484375 306.832031 "/>
<path style=" stroke:none;fill-rule:nonzero;fill:rgb(0%,0%,0%);fill-opacity:1;" d="M 148.125 298.125 C 148.125 299.542969 146 299.542969 146 298.125 C 146 296.707031 148.125 296.707031 148.125 298.125 "/>
<path style=" stroke:none;fill-rule:nonzero;fill:rgb(0%,0%,0%);fill-opacity:1;" d="M 155.933594 289.390625 C 155.933594 290.808594 153.808594 290.808594 153.808594 289.390625 C 153.808594 287.972656 155.933594 287.972656 155.933594 289.390625 "/>
<path style=" stroke:none;fill-rule:nonzero;fill:rgb(0%,0%,0%);fill-opacity:1;" d="M 163.753906 280.824219 C 163.753906 282.242188 161.628906 282.242188 161.628906 280.824219 C 161.628906 279.40625 163.753906 279.40625 163.753906 280.824219 "/>
<path style=" stroke:none;fill-rule:nonzero;fill:rgb(0%,0%,0%);fill-opacity:1;" d="M 171.464844 272.585938 C 171.464844 274.003906 169.339844 274.003906 169.339844 272.585938 C 169.339844 271.167969 171.464844 271.167969 171.464844 272.585938 "/>
<path style=" stroke:none;fill-rule:nonzero;fill:rgb(0%,0%,0%);fill-opacity:1;" d="M 178.976562 264.800781 C 178.976562 266.21875 176.851562 266.21875 176.851562 264.800781 C 176.851562 263.382812 178.976562 263.382812 178.976562 264.800781 "/>
<path style=" stroke:none;fill-rule:nonzero;fill:rgb(0%,0%,0%);fill-opacity:1;" d="M 186.21875 257.5625 C 186.21875 258.976562 184.09375 258.976562 184.09375 257.5625 C 184.09375 256.144531 186.21875 256.144531 186.21875 257.5625 "/>
<path style=" stroke:none;fill-rule:nonzero;fill:rgb(0%,0%,0%);fill-opacity:1;" d="M 193.15625 250.925781 C 193.15625 252.34375 191.027344 252.34375 191.027344 250.925781 C 191.027344 249.507812 193.15625 249.507812 193.15625 250.925781 "/>
<path style=" stroke:none;fill-rule:nonzero;fill:rgb(0%,0%,0%);fill-opacity:1;" d="M 199.765625 244.925781 C 199.765625 246.34375 197.640625 246.34375 197.640625 244.925781 C 197.640625 243.507812 199.765625 243.507812 199.765625 244.925781 "/>
<path style=" stroke:none;fill-rule:nonzero;fill:rgb(0%,0%,0%);fill-opacity:1;" d="M 206.058594 239.574219 C 206.058594 240.992188 203.933594 240.992188 203.933594 239.574219 C 203.933594 238.160156 206.058594 238.160156 206.058594 239.574219 "/>
<path style=" stroke:none;fill-rule:nonzero;fill:rgb(0%,0%,0%);fill-opacity:1;" d="M 212.042969 234.875 C 212.042969 236.292969 209.917969 236.292969 209.917969 234.875 C 209.917969 233.457031 212.042969 233.457031 212.042969 234.875 "/>
<path style=" stroke:none;fill-rule:nonzero;fill:rgb(0%,0%,0%);fill-opacity:1;" d="M 217.746094 230.8125 C 217.746094 232.226562 215.621094 232.226562 215.621094 230.8125 C 215.621094 229.394531 217.746094 229.394531 217.746094 230.8125 "/>
<path style=" stroke:none;fill-rule:nonzero;fill:rgb(0%,0%,0%);fill-opacity:1;" d="M 223.203125 227.367188 C 223.203125 228.785156 221.078125 228.785156 221.078125 227.367188 C 221.078125 225.949219 223.203125 225.949219 223.203125 227.367188 "/>
<path style=" stroke:none;fill-rule:nonzero;fill:rgb(0%,0%,0%);fill-opacity:1;" d="M 228.449219 224.519531 C 228.449219 225.9375 226.324219 225.9375 226.324219 224.519531 C 226.324219 223.105469 228.449219 223.105469 228.449219 224.519531 "/>
<path style=" stroke:none;fill-rule:nonzero;fill:rgb(0%,0%,0%);fill-opacity:1;" d="M 233.527344 222.25 C 233.527344 223.667969 231.398438 223.667969 231.398438 222.25 C 231.398438 220.832031 233.527344 220.832031 233.527344 222.25 "/>
<path style=" stroke:none;fill-rule:nonzero;fill:rgb(0%,0%,0%);fill-opacity:1;" d="M 238.472656 220.53125 C 238.472656 221.945312 236.347656 221.945312 236.347656 220.53125 C 236.347656 219.113281 238.472656 219.113281 238.472656 220.53125 "/>
<path style=" stroke:none;fill-rule:nonzero;fill:rgb(0%,0%,0%);fill-opacity:1;" d="M 243.328125 219.332031 C 243.328125 220.75 241.203125 220.75 241.203125 219.332031 C 241.203125 217.917969 243.328125 217.917969 243.328125 219.332031 "/>
<path style=" stroke:none;fill-rule:nonzero;fill:rgb(0%,0%,0%);fill-opacity:1;" d="M 248.128906 218.632812 C 248.128906 220.050781 246.003906 220.050781 246.003906 218.632812 C 246.003906 217.21875 248.128906 217.21875 248.128906 218.632812 "/>
<path style=" stroke:none;fill-rule:nonzero;fill:rgb(0%,0%,0%);fill-opacity:1;" d="M 252.90625 218.398438 C 252.90625 219.816406 250.78125 219.816406 250.78125 218.398438 C 250.78125 216.984375 252.90625 216.984375 252.90625 218.398438 "/>
<path style=" stroke:none;fill-rule:nonzero;fill:rgb(0%,0%,0%);fill-opacity:1;" d="M 253.0625 218.398438 C 253.0625 219.816406 250.9375 219.816406 250.9375 218.398438 C 250.9375 216.984375 253.0625 216.984375 253.0625 218.398438 "/>
<path style=" stroke:none;fill-rule:nonzero;fill:rgb(0%,0%,0%);fill-opacity:1;" d="M 257.839844 218.621094 C 257.839844 220.035156 255.714844 220.035156 255.714844 218.621094 C 255.714844 217.203125 257.839844 217.203125 257.839844 218.621094 "/>
<path style=" stroke:none;fill-rule:nonzero;fill:rgb(0%,0%,0%);fill-opacity:1;" d="M 262.640625 219.300781 C 262.640625 220.71875 260.515625 220.71875 260.515625 219.300781 C 260.515625 217.886719 262.640625 217.886719 262.640625 219.300781 "/>
<path style=" stroke:none;fill-rule:nonzero;fill:rgb(0%,0%,0%);fill-opacity:1;" d="M 267.492188 220.480469 C 267.492188 221.898438 265.367188 221.898438 265.367188 220.480469 C 265.367188 219.066406 267.492188 219.066406 267.492188 220.480469 "/>
<path style=" stroke:none;fill-rule:nonzero;fill:rgb(0%,0%,0%);fill-opacity:1;" d="M 272.433594 222.183594 C 272.433594 223.601562 270.308594 223.601562 270.308594 222.183594 C 270.308594 220.765625 272.433594 220.765625 272.433594 222.183594 "/>
<path style=" stroke:none;fill-rule:nonzero;fill:rgb(0%,0%,0%);fill-opacity:1;" d="M 277.507812 224.4375 C 277.507812 225.855469 275.378906 225.855469 275.378906 224.4375 C 275.378906 223.019531 277.507812 223.019531 277.507812 224.4375 "/>
<path style=" stroke:none;fill-rule:nonzero;fill:rgb(0%,0%,0%);fill-opacity:1;" d="M 282.746094 227.265625 C 282.746094 228.679688 280.621094 228.679688 280.621094 227.265625 C 280.621094 225.847656 282.746094 225.847656 282.746094 227.265625 "/>
<path style=" stroke:none;fill-rule:nonzero;fill:rgb(0%,0%,0%);fill-opacity:1;" d="M 288.195312 230.6875 C 288.195312 232.105469 286.070312 232.105469 286.070312 230.6875 C 286.070312 229.269531 288.195312 229.269531 288.195312 230.6875 "/>
<path style=" stroke:none;fill-rule:nonzero;fill:rgb(0%,0%,0%);fill-opacity:1;" d="M 293.890625 234.730469 C 293.890625 236.148438 291.765625 236.148438 291.765625 234.730469 C 291.765625 233.3125 293.890625 233.3125 293.890625 234.730469 "/>
<path style=" stroke:none;fill-rule:nonzero;fill:rgb(0%,0%,0%);fill-opacity:1;" d="M 299.867188 239.410156 C 299.867188 240.828125 297.738281 240.828125 297.738281 239.410156 C 297.738281 237.992188 299.867188 237.992188 299.867188 239.410156 "/>
<path style=" stroke:none;fill-rule:nonzero;fill:rgb(0%,0%,0%);fill-opacity:1;" d="M 306.144531 244.738281 C 306.144531 246.15625 304.019531 246.15625 304.019531 244.738281 C 304.019531 243.320312 306.144531 243.320312 306.144531 244.738281 "/>
<path style=" stroke:none;fill-rule:nonzero;fill:rgb(0%,0%,0%);fill-opacity:1;" d="M 312.75 250.71875 C 312.75 252.132812 310.621094 252.132812 310.621094 250.71875 C 310.621094 249.300781 312.75 249.300781 312.75 250.71875 "/>
<path style=" stroke:none;fill-rule:nonzero;fill:rgb(0%,0%,0%);fill-opacity:1;" d="M 319.671875 257.332031 C 319.671875 258.75 317.546875 258.75 317.546875 257.332031 C 317.546875 255.914062 319.671875 255.914062 319.671875 257.332031 "/>
<path style=" stroke:none;fill-rule:nonzero;fill:rgb(0%,0%,0%);fill-opacity:1;" d="M 326.90625 264.554688 C 326.90625 265.96875 324.78125 265.96875 324.78125 264.554688 C 324.78125 263.136719 326.90625 263.136719 326.90625 264.554688 "/>
<path style=" stroke:none;fill-rule:nonzero;fill:rgb(0%,0%,0%);fill-opacity:1;" d="M 334.410156 272.320312 C 334.410156 273.738281 332.28125 273.738281 332.28125 272.320312 C 332.28125 270.902344 334.410156 270.902344 334.410156 272.320312 "/>
<path style=" stroke:none;fill-rule:nonzero;fill:rgb(0%,0%,0%);fill-opacity:1;" d="M 342.117188 280.546875 C 342.117188 281.964844 339.988281 281.964844 339.988281 280.546875 C 339.988281 279.128906 342.117188 279.128906 342.117188 280.546875 "/>
<path style=" stroke:none;fill-rule:nonzero;fill:rgb(0%,0%,0%);fill-opacity:1;" d="M 349.933594 289.105469 C 349.933594 290.523438 347.808594 290.523438 347.808594 289.105469 C 347.808594 287.6875 349.933594 287.6875 349.933594 289.105469 "/>
<path style=" stroke:none;fill-rule:nonzero;fill:rgb(0%,0%,0%);fill-opacity:1;" d="M 357.746094 297.835938 C 357.746094 299.253906 355.617188 299.253906 355.617188 297.835938 C 355.617188 296.417969 357.746094 296.417969 357.746094 297.835938 "/>
<path style=" stroke:none;fill-rule:nonzero;fill:rgb(0%,0%,0%);fill-opacity:1;" d="M 365.394531 306.546875 C 365.394531 307.964844 363.269531 307.964844 363.269531 306.546875 C 363.269531 305.128906 365.394531 305.128906 365.394531 306.546875 "/>
<path style=" stroke:none;fill-rule:nonzero;fill:rgb(0%,0%,0%);fill-opacity:1;" d="M 372.71875 315.011719 C 372.71875 316.429688 370.59375 316.429688 370.59375 315.011719 C 370.59375 313.59375 372.71875 313.59375 372.71875 315.011719 "/>
<path style=" stroke:none;fill-rule:nonzero;fill:rgb(0%,0%,0%);fill-opacity:1;" d="M 379.539062 322.996094 C 379.539062 324.414062 377.414062 324.414062 377.414062 322.996094 C 377.414062 321.582031 379.539062 321.582031 379.539062 322.996094 "/>
<path style=" stroke:none;fill-rule:nonzero;fill:rgb(0%,0%,0%);fill-opacity:1;" d="M 385.6875 330.277344 C 385.6875 331.695312 383.558594 331.695312 383.558594 330.277344 C 383.558594 328.859375 385.6875 328.859375 385.6875 330.277344 "/>
<path style=" stroke:none;fill-rule:nonzero;fill:rgb(0%,0%,0%);fill-opacity:1;" d="M 391.015625 336.652344 C 391.015625 338.070312 388.890625 338.070312 388.890625 336.652344 C 388.890625 335.234375 391.015625 335.234375 391.015625 336.652344 "/>
<path style=" stroke:none;fill-rule:nonzero;fill:rgb(0%,0%,0%);fill-opacity:1;" d="M 395.425781 341.972656 C 395.425781 343.390625 393.296875 343.390625 393.296875 341.972656 C 393.296875 340.554688 395.425781 340.554688 395.425781 341.972656 "/>
<path style=" stroke:none;fill-rule:nonzero;fill:rgb(0%,0%,0%);fill-opacity:1;" d="M 398.863281 346.15625 C 398.863281 347.574219 396.738281 347.574219 396.738281 346.15625 C 396.738281 344.738281 398.863281 344.738281 398.863281 346.15625 "/>
<path style=" stroke:none;fill-rule:nonzero;fill:rgb(0%,0%,0%);fill-opacity:1;" d="M 401.355469 349.203125 C 401.355469 350.621094 399.226562 350.621094 399.226562 349.203125 C 399.226562 347.785156 401.355469 347.785156 401.355469 349.203125 "/>
<path style=" stroke:none;fill-rule:nonzero;fill:rgb(0%,0%,0%);fill-opacity:1;" d="M 402.972656 351.195312 C 402.972656 352.613281 400.84375 352.613281 400.84375 351.195312 C 400.84375 349.777344 402.972656 349.777344 402.972656 351.195312 "/>
<path style=" stroke:none;fill-rule:nonzero;fill:rgb(0%,0%,0%);fill-opacity:1;" d="M 403.859375 352.292969 C 403.859375 353.710938 401.730469 353.710938 401.730469 352.292969 C 401.730469 350.878906 403.859375 350.878906 403.859375 352.292969 "/>
<path style=" stroke:none;fill-rule:nonzero;fill:rgb(0%,0%,0%);fill-opacity:1;" d="M 404.207031 352.730469 C 404.207031 354.148438 402.082031 354.148438 402.082031 352.730469 C 402.082031 351.3125 404.207031 351.3125 404.207031 352.730469 "/>
<path style=" stroke:none;fill-rule:nonzero;fill:rgb(0%,0%,0%);fill-opacity:1;" d="M 404.261719 352.800781 C 404.261719 354.21875 402.136719 354.21875 402.136719 352.800781 C 402.136719 351.382812 404.261719 351.382812 404.261719 352.800781 "/>
<path style=" stroke:none;fill-rule:nonzero;fill:rgb(0%,0%,0%);fill-opacity:1;" d="M 404.261719 352.800781 C 404.261719 354.21875 402.136719 354.21875 402.136719 352.800781 C 402.136719 351.382812 404.261719 351.382812 404.261719 352.800781 "/>
<path style=" stroke:none;fill-rule:nonzero;fill:rgb(100%,0%,0%);fill-opacity:0.501961;" d="M 100.800781 352.800781 L 100.851562 352.738281 Z M 100.800781 352.800781 "/>
<path style=" stroke:none;fill-rule:nonzero;fill:rgb(100%,0%,0%);fill-opacity:0.501961;" d="M 100.851562 352.738281 L 101.1875 352.316406 Z M 100.851562 352.738281 "/>
<path style=" stroke:none;fill-rule:nonzero;fill:rgb(100%,0%,0%);fill-opacity:0.501961;" d="M 101.1875 352.316406 L 102.050781 351.246094 Z M 101.1875 352.316406 "/>
<path style=" stroke:none;fill-rule:nonzero;fill:rgb(100%,0%,0%);fill-opacity:0.501961;" d="M 102.050781 351.246094 L 103.640625 349.285156 Z M 102.050781 351.246094 "/>
<path style=" stroke:none;fill-rule:nonzero;fill:rgb(100%,0%,0%);fill-opacity:0.501961;" d="M 103.640625 349.285156 L 106.101562 346.273438 Z M 103.640625 349.285156 "/>
<path style=" stroke:none;fill-rule:nonzero;fill:rgb(100%,0%,0%);fill-opacity:0.501961;" d="M 106.101562 346.273438 L 109.511719 342.128906 Z M 106.101562 346.273438 "/>
<path style=" stroke:none;fill-rule:nonzero;fill:rgb(100%,0%,0%);fill-opacity:0.501961;" d="M 109.511719 342.128906 L 113.886719 336.84375 Z M 109.511719 342.128906 "/>
<path style=" stroke:none;fill-rule:nonzero;fill:rgb(100%,0%,0%);fill-opacity:0.501961;" d="M 113.886719 336.84375 L 119.1875 330.503906 Z M 113.886719 336.84375 "/>
<path style=" stroke:none;fill-rule:nonzero;fill:rgb(100%,0%,0%);fill-opacity:0.501961;" d="M 119.1875 330.503906 L 125.308594 323.25 Z M 119.1875 330.503906 "/>
<path style=" stroke:none;fill-rule:nonzero;fill:rgb(100%,0%,0%);fill-opacity:0.501961;" d="M 125.308594 323.25 L 132.109375 315.28125 Z M 125.308594 323.25 "/>
<path style=" stroke:none;fill-rule:nonzero;fill:rgb(100%,0%,0%);fill-opacity:0.501961;" d="M 132.109375 315.28125 L 139.417969 306.832031 Z M 132.109375 315.28125 "/>
<path style=" stroke:none;fill-rule:nonzero;fill:rgb(100%,0%,0%);fill-opacity:0.501961;" d="M 139.417969 306.832031 L 147.0625 298.125 Z M 139.417969 306.832031 "/>
<path style=" stroke:none;fill-rule:nonzero;fill:rgb(100%,0%,0%);fill-opacity:0.501961;" d="M 147.0625 298.125 L 154.871094 289.390625 Z M 147.0625 298.125 "/>
<path style=" stroke:none;fill-rule:nonzero;fill:rgb(100%,0%,0%);fill-opacity:0.501961;" d="M 154.871094 289.390625 L 162.691406 280.824219 Z M 154.871094 289.390625 "/>
<path style=" stroke:none;fill-rule:nonzero;fill:rgb(100%,0%,0%);fill-opacity:0.501961;" d="M 162.691406 280.824219 L 168.4375 274.6875 Z M 162.691406 280.824219 "/>
<path style=" stroke:none;fill-rule:nonzero;fill:rgb(100%,0%,0%);fill-opacity:0.501961;" d="M 168.46875 274.695312 L 168.4375 274.6875 L 168.425781 274.65625 Z M 168.46875 274.695312 "/>
<path style=" stroke:none;fill-rule:nonzero;fill:rgb(100%,0%,0%);fill-opacity:0.501961;" d="M 168.675781 274.734375 L 168.675781 274.738281 L 168.46875 274.695312 L 168.425781 274.65625 L 168.371094 274.453125 Z M 168.675781 274.734375 "/>
<path style=" stroke:none;fill-rule:nonzero;fill:rgb(100%,0%,0%);fill-opacity:0.501961;" d="M 169.210938 274.84375 L 168.675781 274.738281 L 168.371094 274.453125 L 168.226562 273.925781 L 168.230469 273.925781 Z M 169.210938 274.84375 "/>
<path style=" stroke:none;fill-rule:nonzero;fill:rgb(100%,0%,0%);fill-opacity:0.501961;" d="M 173.726562 275.734375 L 173.71875 275.742188 L 169.210938 274.84375 L 168.226562 273.925781 L 167.082031 269.433594 L 167.089844 269.429688 Z M 173.726562 275.734375 "/>
<path style=" stroke:none;fill-rule:nonzero;fill:rgb(100%,0%,0%);fill-opacity:0.501961;" d="M 179.972656 276.972656 L 179.957031 276.988281 L 173.71875 275.742188 L 167.082031 269.433594 L 165.660156 263.195312 L 165.675781 263.179688 Z M 179.972656 276.972656 "/>
<path style=" stroke:none;fill-rule:nonzero;fill:rgb(100%,0%,0%);fill-opacity:0.501961;" d="M 183.972656 277.703125 L 183.953125 277.722656 L 179.957031 276.988281 L 165.660156 263.195312 L 164.785156 259.226562 L 164.800781 259.207031 Z M 183.972656 277.703125 "/>
<path style=" stroke:none;fill-rule:nonzero;fill:rgb(100%,0%,0%);fill-opacity:0.501961;" d="M 188.523438 278.492188 L 188.5 278.515625 L 183.953125 277.722656 L 164.785156 259.226562 L 163.828125 254.714844 L 163.851562 254.6875 Z M 188.523438 278.492188 "/>
<path style=" stroke:none;fill-rule:nonzero;fill:rgb(100%,0%,0%);fill-opacity:0.501961;" d="M 192.738281 279.335938 L 192.707031 279.363281 L 188.5 278.515625 L 163.828125 254.714844 L 163.089844 250.265625 L 163.117188 250.238281 Z M 192.738281 279.335938 "/>
<path style=" stroke:none;fill-rule:nonzero;fill:rgb(100%,0%,0%);fill-opacity:0.501961;" d="M 198.703125 280.507812 L 198.667969 280.542969 L 192.707031 279.363281 L 163.089844 250.265625 L 162.179688 244.042969 L 162.214844 244.007812 Z M 198.703125 280.507812 "/>
<path style=" stroke:none;fill-rule:nonzero;fill:rgb(100%,0%,0%);fill-opacity:0.501961;" d="M 204.433594 281.390625 L 204.390625 281.433594 L 198.667969 280.542969 L 162.179688 244.042969 L 161.292969 238.320312 L 161.335938 238.277344 Z M 204.433594 281.390625 "/>
<path style=" stroke:none;fill-rule:nonzero;fill:rgb(100%,0%,0%);fill-opacity:0.501961;" d="M 209.480469 282.382812 L 209.433594 282.433594 L 204.390625 281.433594 L 161.292969 238.320312 L 160.832031 232.738281 L 160.878906 232.691406 Z M 209.480469 282.382812 "/>
<path style=" stroke:none;fill-rule:nonzero;fill:rgb(100%,0%,0%);fill-opacity:0.501961;" d="M 215.976562 283.597656 L 215.917969 283.65625 L 209.433594 282.433594 L 160.832031 232.738281 L 160.445312 225.675781 L 160.503906 225.621094 Z M 215.976562 283.597656 "/>
<path style=" stroke:none;fill-rule:nonzero;fill:rgb(100%,0%,0%);fill-opacity:0.501961;" d="M 223.824219 284.914062 L 223.757812 284.976562 L 215.917969 283.65625 L 160.445312 225.675781 L 160.359375 216.9375 L 160.425781 216.871094 Z M 223.824219 284.914062 "/>
<path style=" stroke:none;fill-rule:nonzero;fill:rgb(100%,0%,0%);fill-opacity:0.501961;" d="M 227.597656 285.808594 L 227.523438 285.875 L 223.757812 284.976562 L 160.359375 216.9375 L 160.742188 212.269531 L 160.816406 212.203125 Z M 227.597656 285.808594 "/>
<path style=" stroke:none;fill-rule:nonzero;fill:rgb(100%,0%,0%);fill-opacity:0.501961;" d="M 235.753906 287.015625 L 235.667969 287.089844 L 227.523438 285.875 L 160.742188 212.269531 L 161.65625 202.832031 L 161.742188 202.761719 Z M 235.753906 287.015625 "/>
<path style=" stroke:none;fill-rule:nonzero;fill:rgb(100%,0%,0%);fill-opacity:0.501961;" d="M 238.90625 287.886719 L 238.816406 287.964844 L 235.667969 287.089844 L 161.65625 202.832031 L 162.671875 198.417969 L 162.761719 198.34375 Z M 238.90625 287.886719 "/>
<path style=" stroke:none;fill-rule:nonzero;fill:rgb(100%,0%,0%);fill-opacity:0.501961;" d="M 245.347656 288.84375 L 245.25 288.921875 L 238.816406 287.964844 L 162.671875 198.417969 L 164.644531 190.308594 L 164.742188 190.226562 Z M 245.347656 288.84375 "/>
<path style=" stroke:none;fill-rule:nonzero;fill:rgb(100%,0%,0%);fill-opacity:0.501961;" d="M 249.703125 289.707031 L 249.597656 289.792969 L 245.25 288.921875 L 164.644531 190.308594 L 166.773438 184.34375 L 166.878906 184.261719 Z M 249.703125 289.707031 "/>
<path style=" stroke:none;fill-rule:nonzero;fill:rgb(100%,0%,0%);fill-opacity:0.501961;" d="M 252.710938 290.527344 L 252.597656 290.609375 L 249.597656 289.792969 L 166.773438 184.34375 L 169.25 179.222656 L 169.359375 179.140625 Z M 252.710938 290.527344 "/>
<path style=" stroke:none;fill-rule:nonzero;fill:rgb(100%,0%,0%);fill-opacity:0.501961;" d="M 258.046875 292.320312 L 257.921875 292.402344 L 252.597656 290.609375 L 169.25 179.222656 L 175.324219 169.304688 L 175.445312 169.222656 Z M 258.046875 292.320312 "/>
<path style=" stroke:none;fill-rule:nonzero;fill:rgb(100%,0%,0%);fill-opacity:0.501961;" d="M 261.402344 294.21875 L 261.269531 294.296875 L 257.921875 292.402344 L 175.324219 169.304688 L 182.878906 160.515625 L 183.011719 160.4375 Z M 261.402344 294.21875 "/>
<path style=" stroke:none;fill-rule:nonzero;fill:rgb(100%,0%,0%);fill-opacity:0.501961;" d="M 262.9375 296.300781 L 262.796875 296.371094 L 261.269531 294.296875 L 182.878906 160.515625 L 191.835938 152.742188 L 191.980469 152.671875 Z M 262.9375 296.300781 "/>
<path style=" stroke:none;fill-rule:nonzero;fill:rgb(100%,0%,0%);fill-opacity:0.501961;" d="M 262.9375 296.300781 L 262.78125 298.429688 L 262.628906 298.488281 L 191.835938 152.742188 L 202.144531 146.070312 L 202.296875 146.011719 Z M 262.9375 296.300781 "/>
<path style=" stroke:none;fill-rule:nonzero;fill:rgb(100%,0%,0%);fill-opacity:0.501961;" d="M 262.78125 298.429688 L 261.164062 300.375 L 261.003906 300.425781 L 202.144531 146.070312 L 213.65625 140.683594 L 213.816406 140.632812 Z M 262.78125 298.429688 "/>
<path style=" stroke:none;fill-rule:nonzero;fill:rgb(100%,0%,0%);fill-opacity:0.501961;" d="M 261.164062 300.375 L 258.503906 301.96875 L 258.335938 302 L 213.65625 140.683594 L 226.023438 136.699219 L 226.191406 136.667969 Z M 261.164062 300.375 "/>
<path style=" stroke:none;fill-rule:nonzero;fill:rgb(100%,0%,0%);fill-opacity:0.501961;" d="M 258.503906 301.96875 L 255.347656 303.050781 L 255.175781 303.066406 L 226.023438 136.699219 L 226.191406 136.667969 L 238.785156 134.21875 L 238.953125 134.203125 Z M 258.503906 301.96875 "/>
<path style=" stroke:none;fill-rule:nonzero;fill:rgb(100%,0%,0%);fill-opacity:0.501961;" d="M 255.347656 303.050781 L 254.074219 303.402344 L 253.902344 303.40625 L 238.785156 134.21875 L 238.953125 134.203125 L 249.613281 133.398438 L 249.78125 133.394531 Z M 255.347656 303.050781 "/>
<path style=" stroke:none;fill-rule:nonzero;fill:rgb(100%,0%,0%);fill-opacity:0.501961;" d="M 254.074219 303.402344 L 253.902344 303.40625 L 250.195312 303.421875 L 250.023438 303.417969 L 249.613281 133.398438 L 249.78125 133.394531 L 253.804688 133.378906 L 253.976562 133.382812 Z M 254.074219 303.402344 "/>
<path style=" stroke:none;fill-rule:nonzero;fill:rgb(100%,0%,0%);fill-opacity:0.501961;" d="M 250.195312 303.421875 L 250.023438 303.417969 L 248.765625 303.015625 L 253.804688 133.378906 L 253.976562 133.382812 L 264.621094 134.207031 L 264.789062 134.222656 Z M 250.195312 303.421875 "/>
<path style=" stroke:none;fill-rule:nonzero;fill:rgb(100%,0%,0%);fill-opacity:0.501961;" d="M 248.933594 303.03125 L 248.765625 303.015625 L 247.105469 302.738281 L 264.621094 134.207031 L 264.789062 134.222656 L 271.128906 135.164062 Z M 248.933594 303.03125 "/>
<path style=" stroke:none;fill-rule:nonzero;fill:rgb(100%,0%,0%);fill-opacity:0.501961;" d="M 247.273438 302.765625 L 247.105469 302.738281 L 245.59375 302.015625 L 270.960938 135.140625 L 271.128906 135.164062 L 277.558594 136.585938 Z M 247.273438 302.765625 "/>
<path style=" stroke:none;fill-rule:nonzero;fill:rgb(100%,0%,0%);fill-opacity:0.501961;" d="M 245.761719 302.050781 L 245.59375 302.015625 L 242.898438 300.484375 L 277.394531 136.554688 L 277.558594 136.585938 L 289.964844 140.480469 Z M 245.761719 302.050781 "/>
<path style=" stroke:none;fill-rule:nonzero;fill:rgb(100%,0%,0%);fill-opacity:0.501961;" d="M 243.058594 300.53125 L 242.898438 300.484375 L 241.257812 298.480469 L 289.804688 140.433594 L 289.964844 140.480469 L 301.488281 145.886719 Z M 243.058594 300.53125 "/>
<path style=" stroke:none;fill-rule:nonzero;fill:rgb(100%,0%,0%);fill-opacity:0.501961;" d="M 241.410156 298.542969 L 241.257812 298.480469 L 241.0625 296.328125 L 301.332031 145.828125 L 301.488281 145.886719 L 311.824219 152.546875 Z M 241.410156 298.542969 "/>
<path style=" stroke:none;fill-rule:nonzero;fill:rgb(100%,0%,0%);fill-opacity:0.501961;" d="M 242.671875 294.328125 L 241.203125 296.398438 L 241.0625 296.328125 L 311.683594 152.476562 L 311.824219 152.546875 L 320.828125 160.277344 Z M 242.671875 294.328125 "/>
<path style=" stroke:none;fill-rule:nonzero;fill:rgb(100%,0%,0%);fill-opacity:0.501961;" d="M 245.957031 292.429688 L 242.671875 294.328125 L 242.539062 294.25 L 320.695312 160.199219 L 320.828125 160.277344 L 328.429688 169.027344 Z M 245.957031 292.429688 "/>
<path style=" stroke:none;fill-rule:nonzero;fill:rgb(100%,0%,0%);fill-opacity:0.501961;" d="M 251.171875 290.695312 L 245.957031 292.429688 L 245.832031 292.347656 L 328.308594 168.945312 L 328.429688 169.027344 L 334.59375 178.847656 Z M 251.171875 290.695312 "/>
<path style=" stroke:none;fill-rule:nonzero;fill:rgb(100%,0%,0%);fill-opacity:0.501961;" d="M 255.773438 289.851562 L 251.171875 290.695312 L 251.058594 290.613281 L 334.484375 178.765625 L 334.59375 178.847656 L 337.464844 185.546875 Z M 255.773438 289.851562 "/>
<path style=" stroke:none;fill-rule:nonzero;fill:rgb(100%,0%,0%);fill-opacity:0.501961;" d="M 258.488281 288.960938 L 255.773438 289.851562 L 255.667969 289.773438 L 337.359375 185.464844 L 337.464844 185.546875 L 339.214844 189.9375 Z M 258.488281 288.960938 "/>
<path style=" stroke:none;fill-rule:nonzero;fill:rgb(100%,0%,0%);fill-opacity:0.501961;" d="M 267.976562 287.15625 L 258.488281 288.960938 L 258.390625 288.882812 L 339.117188 189.859375 L 339.214844 189.9375 L 342.273438 202.394531 Z M 267.976562 287.15625 "/>
<path style=" stroke:none;fill-rule:nonzero;fill:rgb(100%,0%,0%);fill-opacity:0.501961;" d="M 271.484375 286.335938 L 267.976562 287.15625 L 267.894531 287.082031 L 342.1875 202.320312 L 342.273438 202.394531 L 343.152344 207.191406 Z M 271.484375 286.335938 "/>
<path style=" stroke:none;fill-rule:nonzero;fill:rgb(100%,0%,0%);fill-opacity:0.501961;" d="M 279.8125 285.050781 L 271.484375 286.335938 L 271.40625 286.265625 L 343.074219 207.117188 L 343.152344 207.191406 L 343.625 216.445312 Z M 279.8125 285.050781 "/>
<path style=" stroke:none;fill-rule:nonzero;fill:rgb(100%,0%,0%);fill-opacity:0.501961;" d="M 283.152344 284.265625 L 279.8125 285.050781 L 279.746094 284.988281 L 343.558594 216.382812 L 343.625 216.445312 L 343.894531 220.683594 Z M 283.152344 284.265625 "/>
<path style=" stroke:none;fill-rule:nonzero;fill:rgb(100%,0%,0%);fill-opacity:0.501961;" d="M 289.359375 283.511719 L 283.152344 284.265625 L 283.089844 284.207031 L 343.832031 220.621094 L 343.894531 220.683594 L 343.425781 226.917969 Z M 289.359375 283.511719 "/>
<path style=" stroke:none;fill-rule:nonzero;fill:rgb(100%,0%,0%);fill-opacity:0.501961;" d="M 294.0625 282.519531 L 289.359375 283.511719 L 289.304688 283.457031 L 343.367188 226.863281 L 343.425781 226.917969 L 343.210938 232.195312 Z M 294.0625 282.519531 "/>
<path style=" stroke:none;fill-rule:nonzero;fill:rgb(100%,0%,0%);fill-opacity:0.501961;" d="M 300.808594 281.269531 L 294.0625 282.519531 L 294.011719 282.472656 L 343.160156 232.144531 L 343.210938 232.195312 L 342.519531 239.492188 Z M 300.808594 281.269531 "/>
<path style=" stroke:none;fill-rule:nonzero;fill:rgb(100%,0%,0%);fill-opacity:0.501961;" d="M 306.476562 280.367188 L 300.808594 281.269531 L 300.769531 281.226562 L 342.476562 239.449219 L 342.519531 239.492188 L 341.625 245.160156 Z M 306.476562 280.367188 "/>
<path style=" stroke:none;fill-rule:nonzero;fill:rgb(100%,0%,0%);fill-opacity:0.501961;" d="M 310.707031 279.472656 L 306.476562 280.367188 L 306.441406 280.332031 L 341.589844 245.125 L 341.625 245.160156 L 341.011719 249.664062 Z M 310.707031 279.472656 "/>
<path style=" stroke:none;fill-rule:nonzero;fill:rgb(100%,0%,0%);fill-opacity:0.501961;" d="M 316.472656 278.359375 L 310.707031 279.472656 L 310.675781 279.441406 L 340.980469 249.636719 L 341.011719 249.664062 L 339.96875 255.667969 Z M 316.472656 278.359375 "/>
<path style=" stroke:none;fill-rule:nonzero;fill:rgb(100%,0%,0%);fill-opacity:0.501961;" d="M 320.910156 277.574219 L 316.472656 278.359375 L 316.449219 278.335938 L 339.945312 255.644531 L 339.96875 255.667969 L 339.027344 260.078125 Z M 320.910156 277.574219 "/>
<path style=" stroke:none;fill-rule:nonzero;fill:rgb(100%,0%,0%);fill-opacity:0.501961;" d="M 324.789062 276.851562 L 320.910156 277.574219 L 320.894531 277.554688 L 339.007812 260.058594 L 339.027344 260.078125 L 338.167969 263.925781 Z M 324.789062 276.851562 "/>
<path style=" stroke:none;fill-rule:nonzero;fill:rgb(100%,0%,0%);fill-opacity:0.501961;" d="M 329.621094 275.871094 L 324.789062 276.851562 L 324.773438 276.835938 L 338.15625 263.910156 L 338.167969 263.925781 L 337.074219 268.777344 Z M 329.621094 275.871094 "/>
<path style=" stroke:none;fill-rule:nonzero;fill:rgb(100%,0%,0%);fill-opacity:0.501961;" d="M 335.96875 273.195312 L 334.046875 274.992188 L 329.621094 275.871094 L 329.613281 275.863281 L 337.070312 268.773438 L 337.074219 268.777344 Z M 335.96875 273.195312 "/>
<path style=" stroke:none;fill-rule:nonzero;fill:rgb(100%,0%,0%);fill-opacity:0.501961;" d="M 334.929688 274.816406 L 334.046875 274.992188 L 335.964844 273.191406 L 335.96875 273.195312 L 335.734375 274.066406 Z M 334.929688 274.816406 "/>
<path style=" stroke:none;fill-rule:nonzero;fill:rgb(100%,0%,0%);fill-opacity:0.501961;" d="M 335.609375 274.515625 L 335.390625 274.722656 L 334.929688 274.816406 L 335.734375 274.066406 Z M 335.609375 274.515625 "/>
<path style=" stroke:none;fill-rule:nonzero;fill:rgb(100%,0%,0%);fill-opacity:0.501961;" d="M 335.566406 274.671875 L 335.546875 274.691406 L 335.390625 274.722656 L 335.386719 274.722656 L 335.609375 274.515625 Z M 335.566406 274.671875 "/>
<path style=" stroke:none;fill-rule:nonzero;fill:rgb(100%,0%,0%);fill-opacity:0.501961;" d="M 335.5625 274.6875 L 335.546875 274.691406 L 335.566406 274.671875 Z M 335.5625 274.6875 "/>
<path style=" stroke:none;fill-rule:nonzero;fill:rgb(100%,0%,0%);fill-opacity:0.501961;" d="M 341.050781 280.546875 L 335.5625 274.6875 Z M 341.050781 280.546875 "/>
<path style=" stroke:none;fill-rule:nonzero;fill:rgb(100%,0%,0%);fill-opacity:0.501961;" d="M 348.871094 289.105469 L 341.050781 280.546875 Z M 348.871094 289.105469 "/>
<path style=" stroke:none;fill-rule:nonzero;fill:rgb(100%,0%,0%);fill-opacity:0.501961;" d="M 356.683594 297.835938 L 348.871094 289.105469 Z M 356.683594 297.835938 "/>
<path style=" stroke:none;fill-rule:nonzero;fill:rgb(100%,0%,0%);fill-opacity:0.501961;" d="M 364.332031 306.546875 L 356.683594 297.835938 Z M 364.332031 306.546875 "/>
<path style=" stroke:none;fill-rule:nonzero;fill:rgb(100%,0%,0%);fill-opacity:0.501961;" d="M 371.65625 315.011719 L 364.332031 306.546875 Z M 371.65625 315.011719 "/>
<path style=" stroke:none;fill-rule:nonzero;fill:rgb(100%,0%,0%);fill-opacity:0.501961;" d="M 378.476562 322.996094 L 371.65625 315.011719 Z M 378.476562 322.996094 "/>
<path style=" stroke:none;fill-rule:nonzero;fill:rgb(100%,0%,0%);fill-opacity:0.501961;" d="M 384.625 330.277344 L 378.476562 322.996094 Z M 384.625 330.277344 "/>
<path style=" stroke:none;fill-rule:nonzero;fill:rgb(100%,0%,0%);fill-opacity:0.501961;" d="M 389.953125 336.652344 L 384.625 330.277344 Z M 389.953125 336.652344 "/>
<path style=" stroke:none;fill-rule:nonzero;fill:rgb(100%,0%,0%);fill-opacity:0.501961;" d="M 394.359375 341.972656 L 389.953125 336.652344 Z M 394.359375 341.972656 "/>
<path style=" stroke:none;fill-rule:nonzero;fill:rgb(100%,0%,0%);fill-opacity:0.501961;" d="M 397.800781 346.15625 L 394.359375 341.972656 Z M 397.800781 346.15625 "/>
<path style=" stroke:none;fill-rule:nonzero;fill:rgb(100%,0%,0%);fill-opacity:0.501961;" d="M 400.289062 349.203125 L 397.800781 346.15625 Z M 400.289062 349.203125 "/>
<path style=" stroke:none;fill-rule:nonzero;fill:rgb(100%,0%,0%);fill-opacity:0.501961;" d="M 401.90625 351.195312 L 400.289062 349.203125 Z M 401.90625 351.195312 "/>
<path style=" stroke:none;fill-rule:nonzero;fill:rgb(100%,0%,0%);fill-opacity:0.501961;" d="M 402.792969 352.292969 L 401.90625 351.195312 Z M 402.792969 352.292969 "/>
<path style=" stroke:none;fill-rule:nonzero;fill:rgb(100%,0%,0%);fill-opacity:0.501961;" d="M 403.144531 352.730469 L 402.792969 352.292969 Z M 403.144531 352.730469 "/>
<path style=" stroke:none;fill-rule:nonzero;fill:rgb(100%,0%,0%);fill-opacity:0.501961;" d="M 403.199219 352.800781 L 403.144531 352.730469 Z M 403.199219 352.800781 "/>
<path style="fill:none;stroke-width:0.75;stroke-linecap:round;stroke-linejoin:round;stroke:rgb(74.509804%,74.509804%,74.509804%);stroke-opacity:1;stroke-miterlimit:10;" d="M 100.800781 352.800781 Z M 100.800781 352.800781 "/>
<path style="fill:none;stroke-width:0.75;stroke-linecap:round;stroke-linejoin:round;stroke:rgb(74.509804%,74.509804%,74.509804%);stroke-opacity:1;stroke-miterlimit:10;" d="M 100.851562 352.738281 Z M 100.851562 352.738281 "/>
<path style="fill:none;stroke-width:0.75;stroke-linecap:round;stroke-linejoin:round;stroke:rgb(74.509804%,74.509804%,74.509804%);stroke-opacity:1;stroke-miterlimit:10;" d="M 101.1875 352.316406 Z M 101.1875 352.316406 "/>
<path style="fill:none;stroke-width:0.75;stroke-linecap:round;stroke-linejoin:round;stroke:rgb(74.509804%,74.509804%,74.509804%);stroke-opacity:1;stroke-miterlimit:10;" d="M 102.050781 351.246094 Z M 102.050781 351.246094 "/>
<path style="fill:none;stroke-width:0.75;stroke-linecap:round;stroke-linejoin:round;stroke:rgb(74.509804%,74.509804%,74.509804%);stroke-opacity:1;stroke-miterlimit:10;" d="M 103.640625 349.285156 Z M 103.640625 349.285156 "/>
<path style="fill:none;stroke-width:0.75;stroke-linecap:round;stroke-linejoin:round;stroke:rgb(74.509804%,74.509804%,74.509804%);stroke-opacity:1;stroke-miterlimit:10;" d="M 106.101562 346.273438 Z M 106.101562 346.273438 "/>
<path style="fill:none;stroke-width:0.75;stroke-linecap:round;stroke-linejoin:round;stroke:rgb(74.509804%,74.509804%,74.509804%);stroke-opacity:1;stroke-miterlimit:10;" d="M 109.511719 342.128906 Z M 109.511719 342.128906 "/>
<path style="fill:none;stroke-width:0.75;stroke-linecap:round;stroke-linejoin:round;stroke:rgb(74.509804%,74.509804%,74.509804%);stroke-opacity:1;stroke-miterlimit:10;" d="M 113.886719 336.84375 Z M 113.886719 336.84375 "/>
<path style="fill:none;stroke-width:0.75;stroke-linecap:round;stroke-linejoin:round;stroke:rgb(74.509804%,74.509804%,74.509804%);stroke-opacity:1;stroke-miterlimit:10;" d="M 119.1875 330.503906 Z M 119.1875 330.503906 "/>
<path style="fill:none;stroke-width:0.75;stroke-linecap:round;stroke-linejoin:round;stroke:rgb(74.509804%,74.509804%,74.509804%);stroke-opacity:1;stroke-miterlimit:10;" d="M 125.308594 323.25 Z M 125.308594 323.25 "/>
<path style="fill:none;stroke-width:0.75;stroke-linecap:round;stroke-linejoin:round;stroke:rgb(74.509804%,74.509804%,74.509804%);stroke-opacity:1;stroke-miterlimit:10;" d="M 132.109375 315.28125 Z M 132.109375 315.28125 "/>
<path style="fill:none;stroke-width:0.75;stroke-linecap:round;stroke-linejoin:round;stroke:rgb(74.509804%,74.509804%,74.509804%);stroke-opacity:1;stroke-miterlimit:10;" d="M 139.417969 306.832031 Z M 139.417969 306.832031 "/>
<path style="fill:none;stroke-width:0.75;stroke-linecap:round;stroke-linejoin:round;stroke:rgb(74.509804%,74.509804%,74.509804%);stroke-opacity:1;stroke-miterlimit:10;" d="M 147.0625 298.125 Z M 147.0625 298.125 "/>
<path style="fill:none;stroke-width:0.75;stroke-linecap:round;stroke-linejoin:round;stroke:rgb(74.509804%,74.509804%,74.509804%);stroke-opacity:1;stroke-miterlimit:10;" d="M 154.871094 289.390625 Z M 154.871094 289.390625 "/>
<path style="fill:none;stroke-width:0.75;stroke-linecap:round;stroke-linejoin:round;stroke:rgb(74.509804%,74.509804%,74.509804%);stroke-opacity:1;stroke-miterlimit:10;" d="M 162.691406 280.824219 Z M 162.691406 280.824219 "/>
<path style="fill:none;stroke-width:0.75;stroke-linecap:round;stroke-linejoin:round;stroke:rgb(74.509804%,74.509804%,74.509804%);stroke-opacity:1;stroke-miterlimit:10;" d="M 168.4375 274.6875 Z M 168.4375 274.6875 "/>
<path style="fill-rule:nonzero;fill:rgb(0%,0%,0%);fill-opacity:1;stroke-width:0.75;stroke-linecap:round;stroke-linejoin:round;stroke:rgb(74.509804%,74.509804%,74.509804%);stroke-opacity:1;stroke-miterlimit:10;" d="M 168.46875 274.695312 L 168.425781 274.65625 Z M 168.46875 274.695312 "/>
<path style="fill-rule:nonzero;fill:rgb(0%,0%,0%);fill-opacity:1;stroke-width:0.75;stroke-linecap:round;stroke-linejoin:round;stroke:rgb(74.509804%,74.509804%,74.509804%);stroke-opacity:1;stroke-miterlimit:10;" d="M 168.675781 274.738281 L 168.371094 274.453125 L 168.675781 274.734375 Z M 168.675781 274.738281 "/>
<path style="fill-rule:nonzero;fill:rgb(0%,0%,0%);fill-opacity:1;stroke-width:0.75;stroke-linecap:round;stroke-linejoin:round;stroke:rgb(74.509804%,74.509804%,74.509804%);stroke-opacity:1;stroke-miterlimit:10;" d="M 169.210938 274.84375 L 168.226562 273.925781 L 168.230469 273.925781 Z M 169.210938 274.84375 "/>
<path style="fill-rule:nonzero;fill:rgb(0%,0%,0%);fill-opacity:1;stroke-width:0.75;stroke-linecap:round;stroke-linejoin:round;stroke:rgb(74.509804%,74.509804%,74.509804%);stroke-opacity:1;stroke-miterlimit:10;" d="M 173.71875 275.742188 L 167.082031 269.433594 L 167.089844 269.429688 L 173.726562 275.734375 Z M 173.71875 275.742188 "/>
<path style="fill-rule:nonzero;fill:rgb(0%,0%,0%);fill-opacity:1;stroke-width:0.75;stroke-linecap:round;stroke-linejoin:round;stroke:rgb(74.509804%,74.509804%,74.509804%);stroke-opacity:1;stroke-miterlimit:10;" d="M 179.957031 276.988281 L 165.660156 263.195312 L 165.675781 263.179688 L 179.972656 276.972656 Z M 179.957031 276.988281 "/>
<path style="fill-rule:nonzero;fill:rgb(0%,0%,0%);fill-opacity:1;stroke-width:0.75;stroke-linecap:round;stroke-linejoin:round;stroke:rgb(74.509804%,74.509804%,74.509804%);stroke-opacity:1;stroke-miterlimit:10;" d="M 183.953125 277.722656 L 164.785156 259.226562 L 164.800781 259.207031 L 183.972656 277.703125 Z M 183.953125 277.722656 "/>
<path style="fill-rule:nonzero;fill:rgb(0%,0%,0%);fill-opacity:1;stroke-width:0.75;stroke-linecap:round;stroke-linejoin:round;stroke:rgb(74.509804%,74.509804%,74.509804%);stroke-opacity:1;stroke-miterlimit:10;" d="M 188.5 278.515625 L 163.828125 254.714844 L 163.851562 254.6875 L 188.523438 278.492188 Z M 188.5 278.515625 "/>
<path style="fill-rule:nonzero;fill:rgb(0%,0%,0%);fill-opacity:1;stroke-width:0.75;stroke-linecap:round;stroke-linejoin:round;stroke:rgb(74.509804%,74.509804%,74.509804%);stroke-opacity:1;stroke-miterlimit:10;" d="M 192.707031 279.363281 L 163.089844 250.265625 L 163.117188 250.238281 L 192.738281 279.335938 Z M 192.707031 279.363281 "/>
<path style="fill-rule:nonzero;fill:rgb(0%,0%,0%);fill-opacity:1;stroke-width:0.75;stroke-linecap:round;stroke-linejoin:round;stroke:rgb(74.509804%,74.509804%,74.509804%);stroke-opacity:1;stroke-miterlimit:10;" d="M 198.667969 280.542969 L 162.179688 244.042969 L 162.214844 244.007812 L 198.703125 280.507812 Z M 198.667969 280.542969 "/>
<path style="fill-rule:nonzero;fill:rgb(0%,0%,0%);fill-opacity:1;stroke-width:0.75;stroke-linecap:round;stroke-linejoin:round;stroke:rgb(74.509804%,74.509804%,74.509804%);stroke-opacity:1;stroke-miterlimit:10;" d="M 204.390625 281.433594 L 161.292969 238.320312 L 161.335938 238.277344 L 204.433594 281.390625 Z M 204.390625 281.433594 "/>
<path style="fill-rule:nonzero;fill:rgb(0%,0%,0%);fill-opacity:1;stroke-width:0.75;stroke-linecap:round;stroke-linejoin:round;stroke:rgb(74.509804%,74.509804%,74.509804%);stroke-opacity:1;stroke-miterlimit:10;" d="M 209.433594 282.433594 L 160.832031 232.738281 L 160.878906 232.691406 L 209.480469 282.382812 Z M 209.433594 282.433594 "/>
<path style="fill-rule:nonzero;fill:rgb(0%,0%,0%);fill-opacity:1;stroke-width:0.75;stroke-linecap:round;stroke-linejoin:round;stroke:rgb(74.509804%,74.509804%,74.509804%);stroke-opacity:1;stroke-miterlimit:10;" d="M 215.917969 283.65625 L 160.445312 225.675781 L 160.503906 225.621094 L 215.976562 283.597656 Z M 215.917969 283.65625 "/>
<path style="fill-rule:nonzero;fill:rgb(0%,0%,0%);fill-opacity:1;stroke-width:0.75;stroke-linecap:round;stroke-linejoin:round;stroke:rgb(74.509804%,74.509804%,74.509804%);stroke-opacity:1;stroke-miterlimit:10;" d="M 223.757812 284.976562 L 160.359375 216.9375 L 160.425781 216.871094 L 223.824219 284.914062 Z M 223.757812 284.976562 "/>
<path style="fill-rule:nonzero;fill:rgb(0%,0%,0%);fill-opacity:1;stroke-width:0.75;stroke-linecap:round;stroke-linejoin:round;stroke:rgb(74.509804%,74.509804%,74.509804%);stroke-opacity:1;stroke-miterlimit:10;" d="M 227.523438 285.875 L 160.742188 212.269531 L 160.816406 212.203125 L 227.597656 285.808594 Z M 227.523438 285.875 "/>
<path style="fill-rule:nonzero;fill:rgb(0%,0%,0%);fill-opacity:1;stroke-width:0.75;stroke-linecap:round;stroke-linejoin:round;stroke:rgb(74.509804%,74.509804%,74.509804%);stroke-opacity:1;stroke-miterlimit:10;" d="M 235.667969 287.089844 L 161.65625 202.832031 L 161.742188 202.761719 L 235.753906 287.015625 Z M 235.667969 287.089844 "/>
<path style="fill-rule:nonzero;fill:rgb(0%,0%,0%);fill-opacity:1;stroke-width:0.75;stroke-linecap:round;stroke-linejoin:round;stroke:rgb(74.509804%,74.509804%,74.509804%);stroke-opacity:1;stroke-miterlimit:10;" d="M 238.816406 287.964844 L 162.671875 198.417969 L 162.761719 198.34375 L 238.90625 287.886719 Z M 238.816406 287.964844 "/>
<path style="fill-rule:nonzero;fill:rgb(0%,0%,0%);fill-opacity:1;stroke-width:0.75;stroke-linecap:round;stroke-linejoin:round;stroke:rgb(74.509804%,74.509804%,74.509804%);stroke-opacity:1;stroke-miterlimit:10;" d="M 245.25 288.921875 L 164.644531 190.308594 L 164.742188 190.226562 L 245.347656 288.84375 Z M 245.25 288.921875 "/>
<path style="fill-rule:nonzero;fill:rgb(0%,0%,0%);fill-opacity:1;stroke-width:0.75;stroke-linecap:round;stroke-linejoin:round;stroke:rgb(74.509804%,74.509804%,74.509804%);stroke-opacity:1;stroke-miterlimit:10;" d="M 249.597656 289.792969 L 166.773438 184.34375 L 166.878906 184.261719 L 249.703125 289.707031 Z M 249.597656 289.792969 "/>
<path style="fill-rule:nonzero;fill:rgb(0%,0%,0%);fill-opacity:1;stroke-width:0.75;stroke-linecap:round;stroke-linejoin:round;stroke:rgb(74.509804%,74.509804%,74.509804%);stroke-opacity:1;stroke-miterlimit:10;" d="M 252.597656 290.609375 L 169.25 179.222656 L 169.359375 179.140625 L 252.710938 290.527344 Z M 252.597656 290.609375 "/>
<path style="fill-rule:nonzero;fill:rgb(0%,0%,0%);fill-opacity:1;stroke-width:0.75;stroke-linecap:round;stroke-linejoin:round;stroke:rgb(74.509804%,74.509804%,74.509804%);stroke-opacity:1;stroke-miterlimit:10;" d="M 257.921875 292.402344 L 175.324219 169.304688 L 175.445312 169.222656 L 258.046875 292.320312 Z M 257.921875 292.402344 "/>
<path style="fill-rule:nonzero;fill:rgb(0%,0%,0%);fill-opacity:1;stroke-width:0.75;stroke-linecap:round;stroke-linejoin:round;stroke:rgb(74.509804%,74.509804%,74.509804%);stroke-opacity:1;stroke-miterlimit:10;" d="M 261.269531 294.296875 L 182.878906 160.515625 L 183.011719 160.4375 L 261.402344 294.21875 Z M 261.269531 294.296875 "/>
<path style="fill-rule:nonzero;fill:rgb(0%,0%,0%);fill-opacity:1;stroke-width:0.75;stroke-linecap:round;stroke-linejoin:round;stroke:rgb(74.509804%,74.509804%,74.509804%);stroke-opacity:1;stroke-miterlimit:10;" d="M 262.796875 296.371094 L 191.835938 152.742188 L 191.980469 152.671875 L 262.9375 296.300781 Z M 262.796875 296.371094 "/>
<path style="fill-rule:nonzero;fill:rgb(0%,0%,0%);fill-opacity:1;stroke-width:0.75;stroke-linecap:round;stroke-linejoin:round;stroke:rgb(74.509804%,74.509804%,74.509804%);stroke-opacity:1;stroke-miterlimit:10;" d="M 262.628906 298.488281 L 202.144531 146.070312 L 202.296875 146.011719 L 262.78125 298.429688 Z M 262.628906 298.488281 "/>
<path style="fill-rule:nonzero;fill:rgb(0%,0%,0%);fill-opacity:1;stroke-width:0.75;stroke-linecap:round;stroke-linejoin:round;stroke:rgb(74.509804%,74.509804%,74.509804%);stroke-opacity:1;stroke-miterlimit:10;" d="M 261.003906 300.425781 L 213.65625 140.683594 L 213.816406 140.632812 L 261.164062 300.375 Z M 261.003906 300.425781 "/>
<path style="fill-rule:nonzero;fill:rgb(0%,0%,0%);fill-opacity:1;stroke-width:0.75;stroke-linecap:round;stroke-linejoin:round;stroke:rgb(74.509804%,74.509804%,74.509804%);stroke-opacity:1;stroke-miterlimit:10;" d="M 258.335938 302 L 226.023438 136.699219 L 226.191406 136.667969 L 258.503906 301.96875 Z M 258.335938 302 "/>
<path style="fill-rule:nonzero;fill:rgb(0%,0%,0%);fill-opacity:1;stroke-width:0.75;stroke-linecap:round;stroke-linejoin:round;stroke:rgb(74.509804%,74.509804%,74.509804%);stroke-opacity:1;stroke-miterlimit:10;" d="M 255.175781 303.066406 L 238.785156 134.21875 L 238.953125 134.203125 L 255.347656 303.050781 Z M 255.175781 303.066406 "/>
<path style="fill-rule:nonzero;fill:rgb(0%,0%,0%);fill-opacity:1;stroke-width:0.75;stroke-linecap:round;stroke-linejoin:round;stroke:rgb(74.509804%,74.509804%,74.509804%);stroke-opacity:1;stroke-miterlimit:10;" d="M 253.902344 303.40625 L 249.613281 133.398438 L 249.78125 133.394531 L 254.074219 303.402344 Z M 253.902344 303.40625 "/>
<path style="fill-rule:nonzero;fill:rgb(0%,0%,0%);fill-opacity:1;stroke-width:0.75;stroke-linecap:round;stroke-linejoin:round;stroke:rgb(74.509804%,74.509804%,74.509804%);stroke-opacity:1;stroke-miterlimit:10;" d="M 250.023438 303.417969 L 253.804688 133.378906 L 253.976562 133.382812 L 250.195312 303.421875 Z M 250.023438 303.417969 "/>
<path style="fill-rule:nonzero;fill:rgb(0%,0%,0%);fill-opacity:1;stroke-width:0.75;stroke-linecap:round;stroke-linejoin:round;stroke:rgb(74.509804%,74.509804%,74.509804%);stroke-opacity:1;stroke-miterlimit:10;" d="M 248.765625 303.015625 L 264.621094 134.207031 L 264.789062 134.222656 L 248.933594 303.03125 Z M 248.765625 303.015625 "/>
<path style="fill-rule:nonzero;fill:rgb(0%,0%,0%);fill-opacity:1;stroke-width:0.75;stroke-linecap:round;stroke-linejoin:round;stroke:rgb(74.509804%,74.509804%,74.509804%);stroke-opacity:1;stroke-miterlimit:10;" d="M 247.105469 302.738281 L 270.960938 135.140625 L 271.128906 135.164062 L 247.273438 302.765625 Z M 247.105469 302.738281 "/>
<path style="fill-rule:nonzero;fill:rgb(0%,0%,0%);fill-opacity:1;stroke-width:0.75;stroke-linecap:round;stroke-linejoin:round;stroke:rgb(74.509804%,74.509804%,74.509804%);stroke-opacity:1;stroke-miterlimit:10;" d="M 245.59375 302.015625 L 277.394531 136.554688 L 277.558594 136.585938 L 245.761719 302.050781 Z M 245.59375 302.015625 "/>
<path style="fill-rule:nonzero;fill:rgb(0%,0%,0%);fill-opacity:1;stroke-width:0.75;stroke-linecap:round;stroke-linejoin:round;stroke:rgb(74.509804%,74.509804%,74.509804%);stroke-opacity:1;stroke-miterlimit:10;" d="M 242.898438 300.484375 L 289.804688 140.433594 L 289.964844 140.480469 L 243.058594 300.53125 Z M 242.898438 300.484375 "/>
<path style="fill-rule:nonzero;fill:rgb(0%,0%,0%);fill-opacity:1;stroke-width:0.75;stroke-linecap:round;stroke-linejoin:round;stroke:rgb(74.509804%,74.509804%,74.509804%);stroke-opacity:1;stroke-miterlimit:10;" d="M 241.257812 298.480469 L 301.332031 145.828125 L 301.488281 145.886719 L 241.410156 298.542969 Z M 241.257812 298.480469 "/>
<path style="fill-rule:nonzero;fill:rgb(0%,0%,0%);fill-opacity:1;stroke-width:0.75;stroke-linecap:round;stroke-linejoin:round;stroke:rgb(74.509804%,74.509804%,74.509804%);stroke-opacity:1;stroke-miterlimit:10;" d="M 241.0625 296.328125 L 311.683594 152.476562 L 311.824219 152.546875 L 241.203125 296.398438 Z M 241.0625 296.328125 "/>
<path style="fill-rule:nonzero;fill:rgb(0%,0%,0%);fill-opacity:1;stroke-width:0.75;stroke-linecap:round;stroke-linejoin:round;stroke:rgb(74.509804%,74.509804%,74.509804%);stroke-opacity:1;stroke-miterlimit:10;" d="M 242.539062 294.25 L 320.695312 160.199219 L 320.828125 160.277344 L 242.671875 294.328125 Z M 242.539062 294.25 "/>
<path style="fill-rule:nonzero;fill:rgb(0%,0%,0%);fill-opacity:1;stroke-width:0.75;stroke-linecap:round;stroke-linejoin:round;stroke:rgb(74.509804%,74.509804%,74.509804%);stroke-opacity:1;stroke-miterlimit:10;" d="M 245.832031 292.347656 L 328.308594 168.945312 L 328.429688 169.027344 L 245.957031 292.429688 Z M 245.832031 292.347656 "/>
<path style="fill-rule:nonzero;fill:rgb(0%,0%,0%);fill-opacity:1;stroke-width:0.75;stroke-linecap:round;stroke-linejoin:round;stroke:rgb(74.509804%,74.509804%,74.509804%);stroke-opacity:1;stroke-miterlimit:10;" d="M 251.058594 290.613281 L 334.484375 178.765625 L 334.59375 178.847656 L 251.171875 290.695312 Z M 251.058594 290.613281 "/>
<path style="fill-rule:nonzero;fill:rgb(0%,0%,0%);fill-opacity:1;stroke-width:0.75;stroke-linecap:round;stroke-linejoin:round;stroke:rgb(74.509804%,74.509804%,74.509804%);stroke-opacity:1;stroke-miterlimit:10;" d="M 255.667969 289.773438 L 337.359375 185.464844 L 337.464844 185.546875 L 255.773438 289.851562 Z M 255.667969 289.773438 "/>
<path style="fill-rule:nonzero;fill:rgb(0%,0%,0%);fill-opacity:1;stroke-width:0.75;stroke-linecap:round;stroke-linejoin:round;stroke:rgb(74.509804%,74.509804%,74.509804%);stroke-opacity:1;stroke-miterlimit:10;" d="M 258.390625 288.882812 L 339.117188 189.859375 L 339.214844 189.9375 L 258.488281 288.960938 Z M 258.390625 288.882812 "/>
<path style="fill-rule:nonzero;fill:rgb(0%,0%,0%);fill-opacity:1;stroke-width:0.75;stroke-linecap:round;stroke-linejoin:round;stroke:rgb(74.509804%,74.509804%,74.509804%);stroke-opacity:1;stroke-miterlimit:10;" d="M 267.894531 287.082031 L 342.1875 202.320312 L 342.273438 202.394531 L 267.976562 287.15625 Z M 267.894531 287.082031 "/>
<path style="fill-rule:nonzero;fill:rgb(0%,0%,0%);fill-opacity:1;stroke-width:0.75;stroke-linecap:round;stroke-linejoin:round;stroke:rgb(74.509804%,74.509804%,74.509804%);stroke-opacity:1;stroke-miterlimit:10;" d="M 271.40625 286.265625 L 343.074219 207.117188 L 343.152344 207.191406 L 271.484375 286.335938 Z M 271.40625 286.265625 "/>
<path style="fill-rule:nonzero;fill:rgb(0%,0%,0%);fill-opacity:1;stroke-width:0.75;stroke-linecap:round;stroke-linejoin:round;stroke:rgb(74.509804%,74.509804%,74.509804%);stroke-opacity:1;stroke-miterlimit:10;" d="M 279.746094 284.988281 L 343.558594 216.382812 L 343.625 216.445312 L 279.8125 285.050781 Z M 279.746094 284.988281 "/>
<path style="fill-rule:nonzero;fill:rgb(0%,0%,0%);fill-opacity:1;stroke-width:0.75;stroke-linecap:round;stroke-linejoin:round;stroke:rgb(74.509804%,74.509804%,74.509804%);stroke-opacity:1;stroke-miterlimit:10;" d="M 283.089844 284.207031 L 343.832031 220.621094 L 343.894531 220.683594 L 283.152344 284.265625 Z M 283.089844 284.207031 "/>
<path style="fill-rule:nonzero;fill:rgb(0%,0%,0%);fill-opacity:1;stroke-width:0.75;stroke-linecap:round;stroke-linejoin:round;stroke:rgb(74.509804%,74.509804%,74.509804%);stroke-opacity:1;stroke-miterlimit:10;" d="M 289.304688 283.457031 L 343.367188 226.863281 L 343.425781 226.917969 L 289.359375 283.511719 Z M 289.304688 283.457031 "/>
<path style="fill-rule:nonzero;fill:rgb(0%,0%,0%);fill-opacity:1;stroke-width:0.75;stroke-linecap:round;stroke-linejoin:round;stroke:rgb(74.509804%,74.509804%,74.509804%);stroke-opacity:1;stroke-miterlimit:10;" d="M 294.011719 282.472656 L 343.160156 232.144531 L 343.210938 232.195312 L 294.0625 282.519531 Z M 294.011719 282.472656 "/>
<path style="fill-rule:nonzero;fill:rgb(0%,0%,0%);fill-opacity:1;stroke-width:0.75;stroke-linecap:round;stroke-linejoin:round;stroke:rgb(74.509804%,74.509804%,74.509804%);stroke-opacity:1;stroke-miterlimit:10;" d="M 300.769531 281.226562 L 342.476562 239.449219 L 342.519531 239.492188 L 300.808594 281.269531 Z M 300.769531 281.226562 "/>
<path style="fill-rule:nonzero;fill:rgb(0%,0%,0%);fill-opacity:1;stroke-width:0.75;stroke-linecap:round;stroke-linejoin:round;stroke:rgb(74.509804%,74.509804%,74.509804%);stroke-opacity:1;stroke-miterlimit:10;" d="M 306.441406 280.332031 L 341.589844 245.125 L 341.625 245.160156 L 306.476562 280.367188 Z M 306.441406 280.332031 "/>
<path style="fill-rule:nonzero;fill:rgb(0%,0%,0%);fill-opacity:1;stroke-width:0.75;stroke-linecap:round;stroke-linejoin:round;stroke:rgb(74.509804%,74.509804%,74.509804%);stroke-opacity:1;stroke-miterlimit:10;" d="M 310.675781 279.441406 L 340.980469 249.636719 L 341.011719 249.664062 L 310.707031 279.472656 Z M 310.675781 279.441406 "/>
<path style="fill-rule:nonzero;fill:rgb(0%,0%,0%);fill-opacity:1;stroke-width:0.75;stroke-linecap:round;stroke-linejoin:round;stroke:rgb(74.509804%,74.509804%,74.509804%);stroke-opacity:1;stroke-miterlimit:10;" d="M 316.449219 278.335938 L 339.945312 255.644531 L 339.96875 255.667969 L 316.472656 278.359375 Z M 316.449219 278.335938 "/>
<path style="fill-rule:nonzero;fill:rgb(0%,0%,0%);fill-opacity:1;stroke-width:0.75;stroke-linecap:round;stroke-linejoin:round;stroke:rgb(74.509804%,74.509804%,74.509804%);stroke-opacity:1;stroke-miterlimit:10;" d="M 320.894531 277.554688 L 339.007812 260.058594 L 339.027344 260.078125 L 320.910156 277.574219 Z M 320.894531 277.554688 "/>
<path style="fill-rule:nonzero;fill:rgb(0%,0%,0%);fill-opacity:1;stroke-width:0.75;stroke-linecap:round;stroke-linejoin:round;stroke:rgb(74.509804%,74.509804%,74.509804%);stroke-opacity:1;stroke-miterlimit:10;" d="M 324.773438 276.835938 L 338.15625 263.910156 L 338.167969 263.925781 L 324.789062 276.851562 Z M 324.773438 276.835938 "/>
<path style="fill-rule:nonzero;fill:rgb(0%,0%,0%);fill-opacity:1;stroke-width:0.75;stroke-linecap:round;stroke-linejoin:round;stroke:rgb(74.509804%,74.509804%,74.509804%);stroke-opacity:1;stroke-miterlimit:10;" d="M 329.613281 275.863281 L 337.070312 268.773438 L 337.074219 268.777344 L 329.621094 275.871094 Z M 329.613281 275.863281 "/>
<path style="fill-rule:nonzero;fill:rgb(0%,0%,0%);fill-opacity:1;stroke-width:0.75;stroke-linecap:round;stroke-linejoin:round;stroke:rgb(74.509804%,74.509804%,74.509804%);stroke-opacity:1;stroke-miterlimit:10;" d="M 334.046875 274.992188 L 335.964844 273.191406 L 335.96875 273.195312 Z M 334.046875 274.992188 "/>
<path style="fill-rule:nonzero;fill:rgb(0%,0%,0%);fill-opacity:1;stroke-width:0.75;stroke-linecap:round;stroke-linejoin:round;stroke:rgb(74.509804%,74.509804%,74.509804%);stroke-opacity:1;stroke-miterlimit:10;" d="M 334.929688 274.816406 L 335.734375 274.066406 Z M 334.929688 274.816406 "/>
<path style="fill-rule:nonzero;fill:rgb(0%,0%,0%);fill-opacity:1;stroke-width:0.75;stroke-linecap:round;stroke-linejoin:round;stroke:rgb(74.509804%,74.509804%,74.509804%);stroke-opacity:1;stroke-miterlimit:10;" d="M 335.386719 274.722656 L 335.609375 274.515625 L 335.390625 274.722656 Z M 335.386719 274.722656 "/>
<path style="fill-rule:nonzero;fill:rgb(0%,0%,0%);fill-opacity:1;stroke-width:0.75;stroke-linecap:round;stroke-linejoin:round;stroke:rgb(74.509804%,74.509804%,74.509804%);stroke-opacity:1;stroke-miterlimit:10;" d="M 335.546875 274.691406 L 335.566406 274.671875 Z M 335.546875 274.691406 "/>
<path style="fill:none;stroke-width:0.75;stroke-linecap:round;stroke-linejoin:round;stroke:rgb(74.509804%,74.509804%,74.509804%);stroke-opacity:1;stroke-miterlimit:10;" d="M 335.5625 274.6875 Z M 335.5625 274.6875 "/>
<path style="fill:none;stroke-width:0.75;stroke-linecap:round;stroke-linejoin:round;stroke:rgb(74.509804%,74.509804%,74.509804%);stroke-opacity:1;stroke-miterlimit:10;" d="M 341.050781 280.546875 Z M 341.050781 280.546875 "/>
<path style="fill:none;stroke-width:0.75;stroke-linecap:round;stroke-linejoin:round;stroke:rgb(74.509804%,74.509804%,74.509804%);stroke-opacity:1;stroke-miterlimit:10;" d="M 348.871094 289.105469 Z M 348.871094 289.105469 "/>
<path style="fill:none;stroke-width:0.75;stroke-linecap:round;stroke-linejoin:round;stroke:rgb(74.509804%,74.509804%,74.509804%);stroke-opacity:1;stroke-miterlimit:10;" d="M 356.683594 297.835938 Z M 356.683594 297.835938 "/>
<path style="fill:none;stroke-width:0.75;stroke-linecap:round;stroke-linejoin:round;stroke:rgb(74.509804%,74.509804%,74.509804%);stroke-opacity:1;stroke-miterlimit:10;" d="M 364.332031 306.546875 Z M 364.332031 306.546875 "/>
<path style="fill:none;stroke-width:0.75;stroke-linecap:round;stroke-linejoin:round;stroke:rgb(74.509804%,74.509804%,74.509804%);stroke-opacity:1;stroke-miterlimit:10;" d="M 371.65625 315.011719 Z M 371.65625 315.011719 "/>
<path style="fill:none;stroke-width:0.75;stroke-linecap:round;stroke-linejoin:round;stroke:rgb(74.509804%,74.509804%,74.509804%);stroke-opacity:1;stroke-miterlimit:10;" d="M 378.476562 322.996094 Z M 378.476562 322.996094 "/>
<path style="fill:none;stroke-width:0.75;stroke-linecap:round;stroke-linejoin:round;stroke:rgb(74.509804%,74.509804%,74.509804%);stroke-opacity:1;stroke-miterlimit:10;" d="M 384.625 330.277344 Z M 384.625 330.277344 "/>
<path style="fill:none;stroke-width:0.75;stroke-linecap:round;stroke-linejoin:round;stroke:rgb(74.509804%,74.509804%,74.509804%);stroke-opacity:1;stroke-miterlimit:10;" d="M 389.953125 336.652344 Z M 389.953125 336.652344 "/>
<path style="fill:none;stroke-width:0.75;stroke-linecap:round;stroke-linejoin:round;stroke:rgb(74.509804%,74.509804%,74.509804%);stroke-opacity:1;stroke-miterlimit:10;" d="M 394.359375 341.972656 Z M 394.359375 341.972656 "/>
<path style="fill:none;stroke-width:0.75;stroke-linecap:round;stroke-linejoin:round;stroke:rgb(74.509804%,74.509804%,74.509804%);stroke-opacity:1;stroke-miterlimit:10;" d="M 397.800781 346.15625 Z M 397.800781 346.15625 "/>
<path style="fill:none;stroke-width:0.75;stroke-linecap:round;stroke-linejoin:round;stroke:rgb(74.509804%,74.509804%,74.509804%);stroke-opacity:1;stroke-miterlimit:10;" d="M 400.289062 349.203125 Z M 400.289062 349.203125 "/>
<path style="fill:none;stroke-width:0.75;stroke-linecap:round;stroke-linejoin:round;stroke:rgb(74.509804%,74.509804%,74.509804%);stroke-opacity:1;stroke-miterlimit:10;" d="M 401.90625 351.195312 Z M 401.90625 351.195312 "/>
<path style="fill:none;stroke-width:0.75;stroke-linecap:round;stroke-linejoin:round;stroke:rgb(74.509804%,74.509804%,74.509804%);stroke-opacity:1;stroke-miterlimit:10;" d="M 402.792969 352.292969 Z M 402.792969 352.292969 "/>
<path style="fill:none;stroke-width:0.75;stroke-linecap:round;stroke-linejoin:round;stroke:rgb(74.509804%,74.509804%,74.509804%);stroke-opacity:1;stroke-miterlimit:10;" d="M 403.144531 352.730469 Z M 403.144531 352.730469 "/>
<path style="fill:none;stroke-width:0.75;stroke-linecap:round;stroke-linejoin:round;stroke:rgb(74.509804%,74.509804%,74.509804%);stroke-opacity:1;stroke-miterlimit:10;" d="M 403.199219 352.800781 Z M 403.199219 352.800781 "/>
<path style="fill:none;stroke-width:0.75;stroke-linecap:round;stroke-linejoin:round;stroke:rgb(74.509804%,74.509804%,74.509804%);stroke-opacity:1;stroke-miterlimit:10;" d="M 403.199219 352.800781 Z M 403.199219 352.800781 "/>
<path style="fill-rule:nonzero;fill:rgb(0%,0%,0%);fill-opacity:1;stroke-width:0.75;stroke-linecap:round;stroke-linejoin:round;stroke:rgb(0%,0%,0%);stroke-opacity:1;stroke-miterlimit:10;" d="M 253.902344 303.40625 L 254.074219 303.402344 L 255.347656 303.050781 L 258.503906 301.96875 L 261.164062 300.375 L 262.78125 298.429688 L 262.9375 296.300781 L 259.871094 288.699219 L 267.976562 287.15625 L 271.484375 286.335938 L 279.8125 285.050781 L 283.152344 284.265625 L 289.359375 283.511719 L 294.0625 282.519531 L 300.808594 281.269531 L 306.476562 280.367188 L 310.707031 279.472656 L 316.472656 278.359375 L 320.910156 277.574219 L 324.789062 276.851562 L 329.621094 275.871094 L 334.046875 274.992188 L 334.929688 274.816406 L 335.390625 274.722656 L 335.546875 274.691406 L 335.5625 274.6875 L 335.566406 274.671875 L 335.609375 274.515625 L 335.734375 274.066406 L 335.96875 273.195312 L 337.074219 268.777344 L 338.167969 263.925781 L 339.027344 260.078125 L 339.96875 255.667969 L 341.011719 249.664062 L 341.625 245.160156 L 342.519531 239.492188 L 343.210938 232.195312 L 343.425781 226.917969 L 343.894531 220.683594 L 343.625 216.445312 L 343.152344 207.191406 L 342.273438 202.394531 L 339.214844 189.9375 L 337.464844 185.546875 L 334.59375 178.847656 L 328.429688 169.027344 L 320.828125 160.277344 L 311.824219 152.546875 L 301.488281 145.886719 L 289.964844 140.480469 L 277.558594 136.585938 L 271.128906 135.164062 L 264.789062 134.222656 L 264.621094 134.207031 L 253.976562 133.382812 L 253.804688 133.378906 L 249.78125 133.394531 L 249.777344 133.394531 L 249.613281 133.398438 L 238.953125 134.203125 L 238.800781 134.21875 L 238.785156 134.21875 L 226.191406 136.667969 L 226.160156 136.671875 L 226.023438 136.699219 L 213.65625 140.683594 L 202.144531 146.070312 L 191.835938 152.742188 L 182.878906 160.515625 L 175.324219 169.304688 L 169.25 179.222656 L 166.773438 184.34375 L 164.644531 190.308594 L 162.671875 198.417969 L 161.65625 202.832031 L 160.742188 212.269531 L 160.359375 216.9375 L 160.445312 225.675781 L 160.832031 232.738281 L 161.292969 238.320312 L 162.179688 244.042969 L 163.089844 250.265625 L 163.828125 254.714844 L 164.785156 259.226562 L 165.660156 263.195312 L 167.082031 269.433594 L 168.226562 273.925781 L 168.371094 274.453125 L 168.425781 274.65625 L 168.4375 274.6875 L 168.46875 274.695312 L 168.675781 274.738281 L 169.210938 274.84375 L 173.71875 275.742188 L 179.957031 276.988281 L 183.953125 277.722656 L 188.5 278.515625 L 192.707031 279.363281 L 198.667969 280.542969 L 204.390625 281.433594 L 209.433594 282.433594 L 215.917969 283.65625 L 223.757812 284.976562 L 227.523438 285.875 L 235.667969 287.089844 L 238.816406 287.964844 L 244.09375 288.75 L 241.0625 296.328125 L 241.257812 298.480469 L 242.898438 300.484375 L 245.59375 302.015625 L 247.105469 302.738281 L 248.765625 303.015625 L 250.023438 303.417969 L 250.195312 303.421875 Z M 253.902344 303.40625 "/>
</g>
</svg>
