<?xml version="1.0" encoding="UTF-8"?>
<svg xmlns="http://www.w3.org/2000/svg" xmlns:xlink="http://www.w3.org/1999/xlink" width="504pt" height="504pt" viewBox="0 0 504 504" version="1.1">
<g id="surface148">
<path style=" stroke:none;fill-rule:nonzero;fill:rgb(74.509804%,74.509804%,74.509804%);fill-opacity:1;" d="M 109.800781 252 C 109.800781 256.96875 105.769531 261 100.800781 261 C 95.828125 261 91.800781 256.96875 91.800781 252 C 91.800781 247.03125 95.828125 243 100.800781 243 C 105.769531 243 109.800781 247.03125 109.800781 252 "/>
<path style=" stroke:none;fill-rule:nonzero;fill:rgb(74.509804%,74.509804%,74.509804%);fill-opacity:1;" d="M 210.601562 201.601562 C 210.601562 206.570312 206.570312 210.601562 201.601562 210.601562 C 196.628906 210.601562 192.601562 206.570312 192.601562 201.601562 C 192.601562 196.628906 196.628906 192.601562 201.601562 192.601562 C 206.570312 192.601562 210.601562 196.628906 210.601562 201.601562 "/>
<path style=" stroke:none;fill-rule:nonzero;fill:rgb(74.509804%,74.509804%,74.509804%);fill-opacity:1;" d="M 311.398438 302.398438 C 311.398438 307.371094 307.371094 311.398438 302.398438 311.398438 C 297.429688 311.398438 293.398438 307.371094 293.398438 302.398438 C 293.398438 297.429688 297.429688 293.398438 302.398438 293.398438 C 307.371094 293.398438 311.398438 297.429688 311.398438 302.398438 "/>
<path style=" stroke:none;fill-rule:nonzero;fill:rgb(74.509804%,74.509804%,74.509804%);fill-opacity:1;" d="M 412.199219 252 C 412.199219 256.96875 408.171875 261 403.199219 261 C 398.230469 261 394.199219 256.96875 394.199219 252 C 394.199219 247.03125 398.230469 243 403.199219 243 C 408.171875 243 412.199219 247.03125 412.199219 252 "/>
<path style=" stroke:none;fill-rule:nonzero;fill:rgb(0%,0%,0%);fill-opacity:1;" d="M 101.863281 252 C 101.863281 253.417969 99.738281 253.417969 99.738281 252 C 99.738281 250.582031 101.863281 250.582031 101.863281 252 "/>
<path style=" stroke:none;fill-rule:nonzero;fill:rgb(0%,0%,0%);fill-opacity:1;" d="M 101.953125 251.960938 C 101.953125 253.375 99.828125 253.375 99.828125 251.960938 C 99.828125 250.542969 101.953125 250.542969 101.953125 251.960938 "/>
<path style=" stroke:none;fill-rule:nonzero;fill:rgb(0%,0%,0%);fill-opacity:1;" d="M 102.539062 251.695312 C 102.539062 253.113281 100.414062 253.113281 100.414062 251.695312 C 100.414062 250.277344 102.539062 250.277344 102.539062 251.695312 "/>
<path style=" stroke:none;fill-rule:nonzero;fill:rgb(0%,0%,0%);fill-opacity:1;" d="M 104.015625 251.042969 C 104.015625 252.460938 101.890625 252.460938 101.890625 251.042969 C 101.890625 249.625 104.015625 249.625 104.015625 251.042969 "/>
<path style=" stroke:none;fill-rule:nonzero;fill:rgb(0%,0%,0%);fill-opacity:1;" d="M 106.640625 249.894531 C 106.640625 251.3125 104.511719 251.3125 104.511719 249.894531 C 104.511719 248.476562 106.640625 248.476562 106.640625 249.894531 "/>
<path style=" stroke:none;fill-rule:nonzero;fill:rgb(0%,0%,0%);fill-opacity:1;" d="M 110.511719 248.230469 C 110.511719 249.648438 108.386719 249.648438 108.386719 248.230469 C 108.386719 246.8125 110.511719 246.8125 110.511719 248.230469 "/>
<path style=" stroke:none;fill-rule:nonzero;fill:rgb(0%,0%,0%);fill-opacity:1;" d="M 115.582031 246.09375 C 115.582031 247.507812 113.453125 247.507812 113.453125 246.09375 C 113.453125 244.675781 115.582031 244.675781 115.582031 246.09375 "/>
<path style=" stroke:none;fill-rule:nonzero;fill:rgb(0%,0%,0%);fill-opacity:1;" d="M 121.648438 243.589844 C 121.648438 245.007812 119.519531 245.007812 119.519531 243.589844 C 119.519531 242.175781 121.648438 242.175781 121.648438 243.589844 "/>
<path style=" stroke:none;fill-rule:nonzero;fill:rgb(0%,0%,0%);fill-opacity:1;" d="M 128.425781 240.875 C 128.425781 242.292969 126.300781 242.292969 126.300781 240.875 C 126.300781 239.457031 128.425781 239.457031 128.425781 240.875 "/>
<path style=" stroke:none;fill-rule:nonzero;fill:rgb(0%,0%,0%);fill-opacity:1;" d="M 135.601562 238.101562 C 135.601562 239.515625 133.476562 239.515625 133.476562 238.101562 C 133.476562 236.683594 135.601562 236.683594 135.601562 238.101562 "/>
<path style=" stroke:none;fill-rule:nonzero;fill:rgb(0%,0%,0%);fill-opacity:1;" d="M 142.882812 235.410156 C 142.882812 236.828125 140.757812 236.828125 140.757812 235.410156 C 140.757812 233.992188 142.882812 233.992188 142.882812 235.410156 "/>
<path style=" stroke:none;fill-rule:nonzero;fill:rgb(0%,0%,0%);fill-opacity:1;" d="M 150.03125 232.921875 C 150.03125 234.339844 147.902344 234.339844 147.902344 232.921875 C 147.902344 231.503906 150.03125 231.503906 150.03125 232.921875 "/>
<path style=" stroke:none;fill-rule:nonzero;fill:rgb(0%,0%,0%);fill-opacity:1;" d="M 156.882812 230.714844 C 156.882812 232.132812 154.757812 232.132812 154.757812 230.714844 C 154.757812 229.296875 156.882812 229.296875 156.882812 230.714844 "/>
<path style=" stroke:none;fill-rule:nonzero;fill:rgb(0%,0%,0%);fill-opacity:1;" d="M 163.351562 228.839844 C 163.351562 230.257812 161.226562 230.257812 161.226562 228.839844 C 161.226562 227.421875 163.351562 227.421875 163.351562 228.839844 "/>
<path style=" stroke:none;fill-rule:nonzero;fill:rgb(0%,0%,0%);fill-opacity:1;" d="M 169.402344 227.328125 C 169.402344 228.746094 167.277344 228.746094 167.277344 227.328125 C 167.277344 225.910156 169.402344 225.910156 169.402344 227.328125 "/>
<path style=" stroke:none;fill-rule:nonzero;fill:rgb(0%,0%,0%);fill-opacity:1;" d="M 175.042969 226.1875 C 175.042969 227.605469 172.917969 227.605469 172.917969 226.1875 C 172.917969 224.769531 175.042969 224.769531 175.042969 226.1875 "/>
<path style=" stroke:none;fill-rule:nonzero;fill:rgb(0%,0%,0%);fill-opacity:1;" d="M 180.320312 225.421875 C 180.320312 226.839844 178.195312 226.839844 178.195312 225.421875 C 178.195312 224.003906 180.320312 224.003906 180.320312 225.421875 "/>
<path style=" stroke:none;fill-rule:nonzero;fill:rgb(0%,0%,0%);fill-opacity:1;" d="M 185.292969 225.027344 C 185.292969 226.445312 183.164062 226.445312 183.164062 225.027344 C 183.164062 223.609375 185.292969 223.609375 185.292969 225.027344 "/>
<path style=" stroke:none;fill-rule:nonzero;fill:rgb(0%,0%,0%);fill-opacity:1;" d="M 190.027344 225 C 190.027344 226.417969 187.898438 226.417969 187.898438 225 C 187.898438 223.582031 190.027344 223.582031 190.027344 225 "/>
<path style=" stroke:none;fill-rule:nonzero;fill:rgb(0%,0%,0%);fill-opacity:1;" d="M 194.597656 225.328125 C 194.597656 226.746094 192.472656 226.746094 192.472656 225.328125 C 192.472656 223.910156 194.597656 223.910156 194.597656 225.328125 "/>
<path style=" stroke:none;fill-rule:nonzero;fill:rgb(0%,0%,0%);fill-opacity:1;" d="M 199.078125 226.007812 C 199.078125 227.425781 196.949219 227.425781 196.949219 226.007812 C 196.949219 224.589844 199.078125 224.589844 199.078125 226.007812 "/>
<path style=" stroke:none;fill-rule:nonzero;fill:rgb(0%,0%,0%);fill-opacity:1;" d="M 202.664062 226.800781 C 202.664062 228.21875 200.535156 228.21875 200.535156 226.800781 C 200.535156 225.382812 202.664062 225.382812 202.664062 226.800781 "/>
<path style=" stroke:none;fill-rule:nonzero;fill:rgb(0%,0%,0%);fill-opacity:1;" d="M 206.933594 228.007812 C 206.933594 229.425781 204.808594 229.425781 204.808594 228.007812 C 204.808594 226.589844 206.933594 226.589844 206.933594 228.007812 "/>
<path style=" stroke:none;fill-rule:nonzero;fill:rgb(0%,0%,0%);fill-opacity:1;" d="M 211.246094 229.492188 C 211.246094 230.910156 209.117188 230.910156 209.117188 229.492188 C 209.117188 228.074219 211.246094 228.074219 211.246094 229.492188 "/>
<path style=" stroke:none;fill-rule:nonzero;fill:rgb(0%,0%,0%);fill-opacity:1;" d="M 215.625 231.246094 C 215.625 232.664062 213.5 232.664062 213.5 231.246094 C 213.5 229.832031 215.625 229.832031 215.625 231.246094 "/>
<path style=" stroke:none;fill-rule:nonzero;fill:rgb(0%,0%,0%);fill-opacity:1;" d="M 220.09375 233.257812 C 220.09375 234.675781 217.96875 234.675781 217.96875 233.257812 C 217.96875 231.839844 220.09375 231.839844 220.09375 233.257812 "/>
<path style=" stroke:none;fill-rule:nonzero;fill:rgb(0%,0%,0%);fill-opacity:1;" d="M 224.664062 235.507812 C 224.664062 236.925781 222.539062 236.925781 222.539062 235.507812 C 222.539062 234.089844 224.664062 234.089844 224.664062 235.507812 "/>
<path style=" stroke:none;fill-rule:nonzero;fill:rgb(0%,0%,0%);fill-opacity:1;" d="M 229.339844 237.980469 C 229.339844 239.394531 227.210938 239.394531 227.210938 237.980469 C 227.210938 236.5625 229.339844 236.5625 229.339844 237.980469 "/>
<path style=" stroke:none;fill-rule:nonzero;fill:rgb(0%,0%,0%);fill-opacity:1;" d="M 234.113281 240.640625 C 234.113281 242.058594 231.988281 242.058594 231.988281 240.640625 C 231.988281 239.222656 234.113281 239.222656 234.113281 240.640625 "/>
<path style=" stroke:none;fill-rule:nonzero;fill:rgb(0%,0%,0%);fill-opacity:1;" d="M 238.972656 243.464844 C 238.972656 244.882812 236.847656 244.882812 236.847656 243.464844 C 236.847656 242.046875 238.972656 242.046875 238.972656 243.464844 "/>
<path style=" stroke:none;fill-rule:nonzero;fill:rgb(0%,0%,0%);fill-opacity:1;" d="M 243.90625 246.410156 C 243.90625 247.828125 241.78125 247.828125 241.78125 246.410156 C 241.78125 244.992188 243.90625 244.992188 243.90625 246.410156 "/>
<path style=" stroke:none;fill-rule:nonzero;fill:rgb(0%,0%,0%);fill-opacity:1;" d="M 248.886719 249.441406 C 248.886719 250.859375 246.761719 250.859375 246.761719 249.441406 C 246.761719 248.023438 248.886719 248.023438 248.886719 249.441406 "/>
<path style=" stroke:none;fill-rule:nonzero;fill:rgb(0%,0%,0%);fill-opacity:1;" d="M 253.890625 252.507812 C 253.890625 253.925781 251.765625 253.925781 251.765625 252.507812 C 251.765625 251.089844 253.890625 251.089844 253.890625 252.507812 "/>
<path style=" stroke:none;fill-rule:nonzero;fill:rgb(0%,0%,0%);fill-opacity:1;" d="M 258.886719 255.566406 C 258.886719 256.984375 256.761719 256.984375 256.761719 255.566406 C 256.761719 254.148438 258.886719 254.148438 258.886719 255.566406 "/>
<path style=" stroke:none;fill-rule:nonzero;fill:rgb(0%,0%,0%);fill-opacity:1;" d="M 263.855469 258.574219 C 263.855469 259.992188 261.730469 259.992188 261.730469 258.574219 C 261.730469 257.15625 263.855469 257.15625 263.855469 258.574219 "/>
<path style=" stroke:none;fill-rule:nonzero;fill:rgb(0%,0%,0%);fill-opacity:1;" d="M 268.765625 261.484375 C 268.765625 262.902344 266.640625 262.902344 266.640625 261.484375 C 266.640625 260.066406 268.765625 260.066406 268.765625 261.484375 "/>
<path style=" stroke:none;fill-rule:nonzero;fill:rgb(0%,0%,0%);fill-opacity:1;" d="M 273.601562 264.257812 C 273.601562 265.675781 271.476562 265.675781 271.476562 264.257812 C 271.476562 262.839844 273.601562 262.839844 273.601562 264.257812 "/>
<path style=" stroke:none;fill-rule:nonzero;fill:rgb(0%,0%,0%);fill-opacity:1;" d="M 278.34375 266.859375 C 278.34375 268.277344 276.214844 268.277344 276.214844 266.859375 C 276.214844 265.441406 278.34375 265.441406 278.34375 266.859375 "/>
<path style=" stroke:none;fill-rule:nonzero;fill:rgb(0%,0%,0%);fill-opacity:1;" d="M 282.984375 269.261719 C 282.984375 270.675781 280.855469 270.675781 280.855469 269.261719 C 280.855469 267.84375 282.984375 267.84375 282.984375 269.261719 "/>
<path style=" stroke:none;fill-rule:nonzero;fill:rgb(0%,0%,0%);fill-opacity:1;" d="M 287.519531 271.433594 C 287.519531 272.851562 285.394531 272.851562 285.394531 271.433594 C 285.394531 270.015625 287.519531 270.015625 287.519531 271.433594 "/>
<path style=" stroke:none;fill-rule:nonzero;fill:rgb(0%,0%,0%);fill-opacity:1;" d="M 291.957031 273.359375 C 291.957031 274.777344 289.832031 274.777344 289.832031 273.359375 C 289.832031 271.945312 291.957031 271.945312 291.957031 273.359375 "/>
<path style=" stroke:none;fill-rule:nonzero;fill:rgb(0%,0%,0%);fill-opacity:1;" d="M 296.3125 275.027344 C 296.3125 276.445312 294.183594 276.445312 294.183594 275.027344 C 294.183594 273.609375 296.3125 273.609375 296.3125 275.027344 "/>
<path style=" stroke:none;fill-rule:nonzero;fill:rgb(0%,0%,0%);fill-opacity:1;" d="M 300.605469 276.421875 C 300.605469 277.839844 298.480469 277.839844 298.480469 276.421875 C 298.480469 275.003906 300.605469 275.003906 300.605469 276.421875 "/>
<path style=" stroke:none;fill-rule:nonzero;fill:rgb(0%,0%,0%);fill-opacity:1;" d="M 303.464844 277.199219 C 303.464844 278.617188 301.335938 278.617188 301.335938 277.199219 C 301.335938 275.78125 303.464844 275.78125 303.464844 277.199219 "/>
<path style=" stroke:none;fill-rule:nonzero;fill:rgb(0%,0%,0%);fill-opacity:1;" d="M 307.910156 278.148438 C 307.910156 279.566406 305.785156 279.566406 305.785156 278.148438 C 305.785156 276.730469 307.910156 276.730469 307.910156 278.148438 "/>
<path style=" stroke:none;fill-rule:nonzero;fill:rgb(0%,0%,0%);fill-opacity:1;" d="M 312.402344 278.761719 C 312.402344 280.179688 310.277344 280.179688 310.277344 278.761719 C 310.277344 277.34375 312.402344 277.34375 312.402344 278.761719 "/>
<path style=" stroke:none;fill-rule:nonzero;fill:rgb(0%,0%,0%);fill-opacity:1;" d="M 317 279.023438 C 317 280.441406 314.875 280.441406 314.875 279.023438 C 314.875 277.605469 317 277.605469 317 279.023438 "/>
<path style=" stroke:none;fill-rule:nonzero;fill:rgb(0%,0%,0%);fill-opacity:1;" d="M 321.773438 278.925781 C 321.773438 280.339844 319.648438 280.339844 319.648438 278.925781 C 319.648438 277.507812 321.773438 277.507812 321.773438 278.925781 "/>
<path style=" stroke:none;fill-rule:nonzero;fill:rgb(0%,0%,0%);fill-opacity:1;" d="M 326.796875 278.457031 C 326.796875 279.875 324.671875 279.875 324.671875 278.457031 C 324.671875 277.039062 326.796875 277.039062 326.796875 278.457031 "/>
<path style=" stroke:none;fill-rule:nonzero;fill:rgb(0%,0%,0%);fill-opacity:1;" d="M 332.140625 277.621094 C 332.140625 279.039062 330.015625 279.039062 330.015625 277.621094 C 330.015625 276.203125 332.140625 276.203125 332.140625 277.621094 "/>
<path style=" stroke:none;fill-rule:nonzero;fill:rgb(0%,0%,0%);fill-opacity:1;" d="M 337.859375 276.410156 C 337.859375 277.824219 335.734375 277.824219 335.734375 276.410156 C 335.734375 274.992188 337.859375 274.992188 337.859375 276.410156 "/>
<path style=" stroke:none;fill-rule:nonzero;fill:rgb(0%,0%,0%);fill-opacity:1;" d="M 343.992188 274.824219 C 343.992188 276.242188 341.863281 276.242188 341.863281 274.824219 C 341.863281 273.40625 343.992188 273.40625 343.992188 274.824219 "/>
<path style=" stroke:none;fill-rule:nonzero;fill:rgb(0%,0%,0%);fill-opacity:1;" d="M 350.539062 272.882812 C 350.539062 274.300781 348.410156 274.300781 348.410156 272.882812 C 348.410156 271.46875 350.539062 271.46875 350.539062 272.882812 "/>
<path style=" stroke:none;fill-rule:nonzero;fill:rgb(0%,0%,0%);fill-opacity:1;" d="M 357.457031 270.617188 C 357.457031 272.035156 355.332031 272.035156 355.332031 270.617188 C 355.332031 269.199219 357.457031 269.199219 357.457031 270.617188 "/>
<path style=" stroke:none;fill-rule:nonzero;fill:rgb(0%,0%,0%);fill-opacity:1;" d="M 364.644531 268.082031 C 364.644531 269.5 362.519531 269.5 362.519531 268.082031 C 362.519531 266.664062 364.644531 266.664062 364.644531 268.082031 "/>
<path style=" stroke:none;fill-rule:nonzero;fill:rgb(0%,0%,0%);fill-opacity:1;" d="M 371.925781 265.367188 C 371.925781 266.785156 369.800781 266.785156 369.800781 265.367188 C 369.800781 263.949219 371.925781 263.949219 371.925781 265.367188 "/>
<path style=" stroke:none;fill-rule:nonzero;fill:rgb(0%,0%,0%);fill-opacity:1;" d="M 379.050781 262.589844 C 379.050781 264.007812 376.921875 264.007812 376.921875 262.589844 C 376.921875 261.171875 379.050781 261.171875 379.050781 262.589844 "/>
<path style=" stroke:none;fill-rule:nonzero;fill:rgb(0%,0%,0%);fill-opacity:1;" d="M 385.714844 259.902344 C 385.714844 261.320312 383.589844 261.320312 383.589844 259.902344 C 383.589844 258.488281 385.714844 258.488281 385.714844 259.902344 "/>
<path style=" stroke:none;fill-rule:nonzero;fill:rgb(0%,0%,0%);fill-opacity:1;" d="M 391.609375 257.460938 C 391.609375 258.878906 389.484375 258.878906 389.484375 257.460938 C 389.484375 256.046875 391.609375 256.046875 391.609375 257.460938 "/>
<path style=" stroke:none;fill-rule:nonzero;fill:rgb(0%,0%,0%);fill-opacity:1;" d="M 396.457031 255.410156 C 396.457031 256.828125 394.332031 256.828125 394.332031 255.410156 C 394.332031 253.992188 396.457031 253.992188 396.457031 255.410156 "/>
<path style=" stroke:none;fill-rule:nonzero;fill:rgb(0%,0%,0%);fill-opacity:1;" d="M 400.089844 253.84375 C 400.089844 255.257812 397.964844 255.257812 397.964844 253.84375 C 397.964844 252.425781 400.089844 252.425781 400.089844 253.84375 "/>
<path style=" stroke:none;fill-rule:nonzero;fill:rgb(0%,0%,0%);fill-opacity:1;" d="M 402.476562 252.796875 C 402.476562 254.214844 400.351562 254.214844 400.351562 252.796875 C 400.351562 251.378906 402.476562 251.378906 402.476562 252.796875 "/>
<path style=" stroke:none;fill-rule:nonzero;fill:rgb(0%,0%,0%);fill-opacity:1;" d="M 403.757812 252.226562 C 403.757812 253.644531 401.632812 253.644531 401.632812 252.226562 C 401.632812 250.808594 403.757812 250.808594 403.757812 252.226562 "/>
<path style=" stroke:none;fill-rule:nonzero;fill:rgb(0%,0%,0%);fill-opacity:1;" d="M 404.214844 252.023438 C 404.214844 253.4375 402.089844 253.4375 402.089844 252.023438 C 402.089844 250.605469 404.214844 250.605469 404.214844 252.023438 "/>
<path style=" stroke:none;fill-rule:nonzero;fill:rgb(0%,0%,0%);fill-opacity:1;" d="M 404.261719 252 C 404.261719 253.417969 402.136719 253.417969 402.136719 252 C 402.136719 250.582031 404.261719 250.582031 404.261719 252 "/>
<path style=" stroke:none;fill-rule:nonzero;fill:rgb(100%,0%,0%);fill-opacity:0.501961;" d="M 100.898438 251.976562 L 100.800781 252 L 100.882812 251.941406 Z M 100.898438 251.976562 "/>
<path style=" stroke:none;fill-rule:nonzero;fill:rgb(100%,0%,0%);fill-opacity:0.501961;" d="M 101.535156 251.828125 L 100.898438 251.976562 L 100.882812 251.941406 L 101.417969 251.5625 Z M 101.535156 251.828125 "/>
<path style=" stroke:none;fill-rule:nonzero;fill:rgb(100%,0%,0%);fill-opacity:0.501961;" d="M 103.136719 251.457031 L 101.535156 251.828125 L 101.417969 251.5625 L 102.769531 250.625 Z M 103.136719 251.457031 "/>
<path style=" stroke:none;fill-rule:nonzero;fill:rgb(100%,0%,0%);fill-opacity:0.501961;" d="M 104.871094 251.0625 L 103.136719 251.457031 L 102.769531 250.625 L 104.238281 249.621094 L 104.242188 249.621094 Z M 104.871094 251.0625 "/>
<path style=" stroke:none;fill-rule:nonzero;fill:rgb(100%,0%,0%);fill-opacity:0.501961;" d="M 105.972656 250.808594 L 104.871094 251.0625 L 104.238281 249.621094 L 105.179688 248.984375 L 105.179688 248.980469 Z M 105.972656 250.808594 "/>
<path style=" stroke:none;fill-rule:nonzero;fill:rgb(100%,0%,0%);fill-opacity:0.501961;" d="M 107.402344 250.488281 L 105.972656 250.808594 L 105.179688 248.984375 L 106.402344 248.164062 L 106.402344 248.160156 Z M 107.402344 250.488281 "/>
<path style=" stroke:none;fill-rule:nonzero;fill:rgb(100%,0%,0%);fill-opacity:0.501961;" d="M 110.148438 249.867188 L 110.144531 249.867188 L 107.402344 250.488281 L 106.402344 248.164062 L 108.75 246.59375 L 108.753906 246.59375 Z M 110.148438 249.867188 "/>
<path style=" stroke:none;fill-rule:nonzero;fill:rgb(100%,0%,0%);fill-opacity:0.501961;" d="M 114.398438 248.921875 L 114.394531 248.925781 L 110.144531 249.867188 L 108.75 246.59375 L 112.402344 244.207031 L 112.40625 244.203125 Z M 114.398438 248.921875 "/>
<path style=" stroke:none;fill-rule:nonzero;fill:rgb(100%,0%,0%);fill-opacity:0.501961;" d="M 115.589844 248.65625 L 115.585938 248.65625 L 114.394531 248.925781 L 112.402344 244.207031 L 113.445312 243.53125 L 113.453125 243.527344 Z M 115.589844 248.65625 "/>
<path style=" stroke:none;fill-rule:nonzero;fill:rgb(100%,0%,0%);fill-opacity:0.501961;" d="M 118.71875 247.972656 L 118.710938 247.976562 L 115.585938 248.65625 L 113.445312 243.53125 L 116.164062 241.800781 L 116.171875 241.796875 Z M 118.71875 247.972656 "/>
<path style=" stroke:none;fill-rule:nonzero;fill:rgb(100%,0%,0%);fill-opacity:0.501961;" d="M 122.066406 247.230469 L 122.0625 247.234375 L 118.710938 247.976562 L 116.164062 241.800781 L 119.101562 239.949219 L 119.109375 239.949219 Z M 122.066406 247.230469 "/>
<path style=" stroke:none;fill-rule:nonzero;fill:rgb(100%,0%,0%);fill-opacity:0.501961;" d="M 123.476562 246.9375 L 123.46875 246.941406 L 122.0625 247.234375 L 119.101562 239.949219 L 120.359375 239.179688 L 120.367188 239.175781 Z M 123.476562 246.9375 "/>
<path style=" stroke:none;fill-rule:nonzero;fill:rgb(100%,0%,0%);fill-opacity:0.501961;" d="M 129.261719 245.679688 L 129.25 245.683594 L 123.46875 246.941406 L 120.359375 239.179688 L 125.46875 236.070312 L 125.476562 236.066406 Z M 129.261719 245.679688 "/>
<path style=" stroke:none;fill-rule:nonzero;fill:rgb(100%,0%,0%);fill-opacity:0.501961;" d="M 134.09375 244.664062 L 134.085938 244.667969 L 129.25 245.683594 L 125.46875 236.070312 L 129.785156 233.546875 L 129.796875 233.542969 Z M 134.09375 244.664062 "/>
<path style=" stroke:none;fill-rule:nonzero;fill:rgb(100%,0%,0%);fill-opacity:0.501961;" d="M 136.808594 244.078125 L 136.796875 244.082031 L 134.085938 244.667969 L 129.785156 233.546875 L 132.273438 232.121094 L 132.285156 232.117188 Z M 136.808594 244.078125 "/>
<path style=" stroke:none;fill-rule:nonzero;fill:rgb(100%,0%,0%);fill-opacity:0.501961;" d="M 139.816406 243.476562 L 139.800781 243.480469 L 136.796875 244.082031 L 132.273438 232.121094 L 135.039062 230.589844 L 135.054688 230.585938 Z M 139.816406 243.476562 "/>
<path style=" stroke:none;fill-rule:nonzero;fill:rgb(100%,0%,0%);fill-opacity:0.501961;" d="M 144.378906 242.523438 L 144.367188 242.527344 L 139.800781 243.480469 L 135.039062 230.589844 L 139.257812 228.296875 L 139.273438 228.292969 Z M 144.378906 242.523438 "/>
<path style=" stroke:none;fill-rule:nonzero;fill:rgb(100%,0%,0%);fill-opacity:0.501961;" d="M 145.804688 242.261719 L 145.789062 242.269531 L 144.367188 242.527344 L 139.257812 228.296875 L 140.671875 227.570312 L 140.6875 227.566406 Z M 145.804688 242.261719 "/>
<path style=" stroke:none;fill-rule:nonzero;fill:rgb(100%,0%,0%);fill-opacity:0.501961;" d="M 151.714844 241.09375 L 151.699219 241.097656 L 145.789062 242.269531 L 140.671875 227.570312 L 146.21875 224.75 L 146.234375 224.746094 Z M 151.714844 241.09375 "/>
<path style=" stroke:none;fill-rule:nonzero;fill:rgb(100%,0%,0%);fill-opacity:0.501961;" d="M 158.625 239.847656 L 158.605469 239.855469 L 151.699219 241.097656 L 146.21875 224.75 L 153.019531 221.578125 L 153.035156 221.574219 Z M 158.625 239.847656 "/>
<path style=" stroke:none;fill-rule:nonzero;fill:rgb(100%,0%,0%);fill-opacity:0.501961;" d="M 164.996094 238.839844 L 164.976562 238.84375 L 158.605469 239.855469 L 153.019531 221.578125 L 159.582031 218.839844 L 159.601562 218.835938 Z M 164.996094 238.839844 "/>
<path style=" stroke:none;fill-rule:nonzero;fill:rgb(100%,0%,0%);fill-opacity:0.501961;" d="M 165.738281 238.769531 L 165.714844 238.777344 L 164.976562 238.84375 L 159.582031 218.839844 L 160.636719 218.460938 L 160.660156 218.457031 Z M 165.738281 238.769531 "/>
<path style=" stroke:none;fill-rule:nonzero;fill:rgb(100%,0%,0%);fill-opacity:0.501961;" d="M 170.785156 238.105469 L 170.761719 238.109375 L 165.714844 238.777344 L 160.636719 218.460938 L 165.894531 216.550781 L 165.914062 216.546875 Z M 170.785156 238.105469 "/>
<path style=" stroke:none;fill-rule:nonzero;fill:rgb(100%,0%,0%);fill-opacity:0.501961;" d="M 173.238281 237.910156 L 173.214844 237.917969 L 170.761719 238.109375 L 165.894531 216.550781 L 168.722656 215.679688 L 168.746094 215.671875 Z M 173.238281 237.910156 "/>
<path style=" stroke:none;fill-rule:nonzero;fill:rgb(100%,0%,0%);fill-opacity:0.501961;" d="M 175.984375 237.660156 L 175.960938 237.664062 L 173.214844 237.917969 L 168.722656 215.679688 L 171.980469 214.714844 L 172.003906 214.710938 Z M 175.984375 237.660156 "/>
<path style=" stroke:none;fill-rule:nonzero;fill:rgb(100%,0%,0%);fill-opacity:0.501961;" d="M 180.625 237.519531 L 180.601562 237.523438 L 175.960938 237.664062 L 171.980469 214.714844 L 177.890625 213.328125 L 177.914062 213.324219 Z M 180.625 237.519531 "/>
<path style=" stroke:none;fill-rule:nonzero;fill:rgb(100%,0%,0%);fill-opacity:0.501961;" d="M 184.78125 237.632812 L 184.753906 237.632812 L 180.601562 237.523438 L 177.890625 213.328125 L 183.675781 212.421875 L 183.703125 212.421875 Z M 184.78125 237.632812 "/>
<path style=" stroke:none;fill-rule:nonzero;fill:rgb(100%,0%,0%);fill-opacity:0.501961;" d="M 188.546875 238.027344 L 188.519531 238.023438 L 184.753906 237.632812 L 183.675781 212.421875 L 189.378906 211.972656 L 189.40625 211.972656 Z M 188.546875 238.027344 "/>
<path style=" stroke:none;fill-rule:nonzero;fill:rgb(100%,0%,0%);fill-opacity:0.501961;" d="M 192.0625 238.636719 L 192.035156 238.636719 L 188.519531 238.023438 L 189.378906 211.972656 L 195.007812 212.019531 L 195.035156 212.023438 Z M 192.0625 238.636719 "/>
<path style=" stroke:none;fill-rule:nonzero;fill:rgb(100%,0%,0%);fill-opacity:0.501961;" d="M 195.515625 239.523438 L 195.488281 239.515625 L 192.035156 238.636719 L 195.007812 212.019531 L 200.511719 212.496094 L 200.539062 212.5 Z M 195.515625 239.523438 "/>
<path style=" stroke:none;fill-rule:nonzero;fill:rgb(100%,0%,0%);fill-opacity:0.501961;" d="M 198.199219 240.378906 L 198.171875 240.375 L 195.488281 239.515625 L 200.511719 212.496094 L 205 213.21875 L 205.027344 213.226562 Z M 198.199219 240.378906 "/>
<path style=" stroke:none;fill-rule:nonzero;fill:rgb(100%,0%,0%);fill-opacity:0.501961;" d="M 200.171875 241.125 L 200.144531 241.117188 L 198.171875 240.375 L 205 213.21875 L 207.855469 213.839844 L 207.882812 213.847656 Z M 200.171875 241.125 "/>
<path style=" stroke:none;fill-rule:nonzero;fill:rgb(100%,0%,0%);fill-opacity:0.501961;" d="M 201.609375 241.648438 L 201.582031 241.640625 L 200.144531 241.117188 L 207.855469 213.839844 L 210.132812 214.367188 L 210.160156 214.375 Z M 201.609375 241.648438 "/>
<path style=" stroke:none;fill-rule:nonzero;fill:rgb(100%,0%,0%);fill-opacity:0.501961;" d="M 205.113281 243.148438 L 205.085938 243.136719 L 201.582031 241.640625 L 210.132812 214.367188 L 215.25 215.839844 L 215.277344 215.851562 Z M 205.113281 243.148438 "/>
<path style=" stroke:none;fill-rule:nonzero;fill:rgb(100%,0%,0%);fill-opacity:0.501961;" d="M 208.019531 244.546875 L 207.988281 244.535156 L 205.085938 243.136719 L 215.25 215.839844 L 218.980469 217.097656 L 219.007812 217.109375 Z M 208.019531 244.546875 "/>
<path style=" stroke:none;fill-rule:nonzero;fill:rgb(100%,0%,0%);fill-opacity:0.501961;" d="M 208.773438 244.910156 L 208.746094 244.898438 L 207.988281 244.535156 L 218.980469 217.097656 L 220.351562 217.585938 L 220.378906 217.597656 Z M 208.773438 244.910156 "/>
<path style=" stroke:none;fill-rule:nonzero;fill:rgb(100%,0%,0%);fill-opacity:0.501961;" d="M 212.613281 246.917969 L 212.585938 246.902344 L 208.746094 244.898438 L 220.351562 217.585938 L 225.449219 219.597656 L 225.476562 219.613281 Z M 212.613281 246.917969 "/>
<path style=" stroke:none;fill-rule:nonzero;fill:rgb(100%,0%,0%);fill-opacity:0.501961;" d="M 215.304688 248.4375 L 215.277344 248.425781 L 212.585938 246.902344 L 225.449219 219.597656 L 228.765625 221.039062 L 228.792969 221.050781 Z M 215.304688 248.4375 "/>
<path style=" stroke:none;fill-rule:nonzero;fill:rgb(100%,0%,0%);fill-opacity:0.501961;" d="M 216.640625 249.183594 L 216.613281 249.167969 L 215.277344 248.425781 L 228.765625 221.039062 L 230.5625 221.835938 L 230.589844 221.847656 Z M 216.640625 249.183594 "/>
<path style=" stroke:none;fill-rule:nonzero;fill:rgb(100%,0%,0%);fill-opacity:0.501961;" d="M 220.851562 251.679688 L 220.824219 251.667969 L 216.613281 249.167969 L 230.5625 221.835938 L 235.699219 224.277344 L 235.726562 224.289062 Z M 220.851562 251.679688 "/>
<path style=" stroke:none;fill-rule:nonzero;fill:rgb(100%,0%,0%);fill-opacity:0.501961;" d="M 221.773438 252.261719 L 221.746094 252.246094 L 220.824219 251.667969 L 235.699219 224.277344 L 236.984375 224.925781 L 237.011719 224.941406 Z M 221.773438 252.261719 "/>
<path style=" stroke:none;fill-rule:nonzero;fill:rgb(100%,0%,0%);fill-opacity:0.501961;" d="M 225.242188 254.394531 L 225.214844 254.378906 L 221.746094 252.246094 L 236.984375 224.925781 L 240.859375 226.890625 L 240.886719 226.90625 Z M 225.242188 254.394531 "/>
<path style=" stroke:none;fill-rule:nonzero;fill:rgb(100%,0%,0%);fill-opacity:0.501961;" d="M 227.464844 255.816406 L 227.4375 255.800781 L 225.214844 254.378906 L 240.859375 226.890625 L 243.433594 228.253906 L 243.460938 228.269531 Z M 227.464844 255.816406 "/>
<path style=" stroke:none;fill-rule:nonzero;fill:rgb(100%,0%,0%);fill-opacity:0.501961;" d="M 229.789062 257.289062 L 229.757812 257.273438 L 227.4375 255.800781 L 243.433594 228.253906 L 246.035156 229.640625 L 246.0625 229.65625 Z M 229.789062 257.289062 "/>
<path style=" stroke:none;fill-rule:nonzero;fill:rgb(100%,0%,0%);fill-opacity:0.501961;" d="M 232.035156 258.753906 L 232.007812 258.738281 L 229.757812 257.273438 L 246.035156 229.640625 L 248.5625 231.027344 L 248.589844 231.042969 Z M 232.035156 258.753906 "/>
<path style=" stroke:none;fill-rule:nonzero;fill:rgb(100%,0%,0%);fill-opacity:0.501961;" d="M 234.472656 260.328125 L 234.445312 260.3125 L 232.007812 258.738281 L 248.5625 231.027344 L 251.214844 232.492188 L 251.242188 232.507812 Z M 234.472656 260.328125 "/>
<path style=" stroke:none;fill-rule:nonzero;fill:rgb(100%,0%,0%);fill-opacity:0.501961;" d="M 235.585938 261.0625 L 235.558594 261.046875 L 234.445312 260.3125 L 251.214844 232.492188 L 252.488281 233.210938 L 252.515625 233.226562 Z M 235.585938 261.0625 "/>
<path style=" stroke:none;fill-rule:nonzero;fill:rgb(100%,0%,0%);fill-opacity:0.501961;" d="M 238.3125 262.847656 L 238.285156 262.828125 L 235.558594 261.046875 L 252.488281 233.210938 L 255.324219 234.8125 L 255.351562 234.828125 Z M 238.3125 262.847656 "/>
<path style=" stroke:none;fill-rule:nonzero;fill:rgb(100%,0%,0%);fill-opacity:0.501961;" d="M 239.273438 263.472656 L 239.246094 263.457031 L 238.285156 262.828125 L 255.324219 234.8125 L 256.375 235.40625 L 256.402344 235.425781 Z M 239.273438 263.472656 "/>
<path style=" stroke:none;fill-rule:nonzero;fill:rgb(100%,0%,0%);fill-opacity:0.501961;" d="M 240.246094 264.109375 L 240.214844 264.089844 L 239.246094 263.457031 L 256.375 235.40625 L 257.429688 236.015625 L 257.457031 236.03125 Z M 240.246094 264.109375 "/>
<path style=" stroke:none;fill-rule:nonzero;fill:rgb(100%,0%,0%);fill-opacity:0.501961;" d="M 241.679688 265.039062 L 241.648438 265.019531 L 240.214844 264.089844 L 257.429688 236.015625 L 258.910156 236.871094 L 258.9375 236.886719 Z M 241.679688 265.039062 "/>
<path style=" stroke:none;fill-rule:nonzero;fill:rgb(100%,0%,0%);fill-opacity:0.501961;" d="M 242.773438 265.734375 L 242.746094 265.71875 L 241.648438 265.019531 L 258.910156 236.871094 L 260.027344 237.53125 L 260.054688 237.546875 Z M 242.773438 265.734375 "/>
<path style=" stroke:none;fill-rule:nonzero;fill:rgb(100%,0%,0%);fill-opacity:0.501961;" d="M 244.207031 266.609375 L 242.773438 265.734375 L 242.746094 265.71875 L 260.027344 237.53125 L 260.054688 237.546875 L 261.472656 238.421875 Z M 244.207031 266.609375 "/>
<path style=" stroke:none;fill-rule:nonzero;fill:rgb(100%,0%,0%);fill-opacity:0.501961;" d="M 246.207031 267.777344 L 244.207031 266.609375 L 244.179688 266.589844 L 261.445312 238.40625 L 261.472656 238.421875 L 263.414062 239.667969 Z M 246.207031 267.777344 "/>
<path style=" stroke:none;fill-rule:nonzero;fill:rgb(100%,0%,0%);fill-opacity:0.501961;" d="M 248.117188 268.871094 L 246.207031 267.777344 L 246.179688 267.761719 L 263.386719 239.648438 L 263.414062 239.667969 L 265.253906 240.867188 Z M 248.117188 268.871094 "/>
<path style=" stroke:none;fill-rule:nonzero;fill:rgb(100%,0%,0%);fill-opacity:0.501961;" d="M 249.328125 269.558594 L 248.117188 268.871094 L 248.085938 268.851562 L 265.226562 240.851562 L 265.253906 240.867188 L 266.351562 241.589844 Z M 249.328125 269.558594 "/>
<path style=" stroke:none;fill-rule:nonzero;fill:rgb(100%,0%,0%);fill-opacity:0.501961;" d="M 250.832031 270.40625 L 249.328125 269.558594 L 249.296875 269.542969 L 266.324219 241.574219 L 266.351562 241.589844 L 267.730469 242.488281 Z M 250.832031 270.40625 "/>
<path style=" stroke:none;fill-rule:nonzero;fill:rgb(100%,0%,0%);fill-opacity:0.501961;" d="M 254.496094 272.460938 L 250.832031 270.40625 L 250.804688 270.390625 L 267.703125 242.472656 L 267.730469 242.488281 L 271.117188 244.703125 Z M 254.496094 272.460938 "/>
<path style=" stroke:none;fill-rule:nonzero;fill:rgb(100%,0%,0%);fill-opacity:0.501961;" d="M 259.675781 275.28125 L 254.496094 272.460938 L 254.46875 272.441406 L 271.089844 244.6875 L 271.117188 244.703125 L 275.757812 247.699219 Z M 259.675781 275.28125 "/>
<path style=" stroke:none;fill-rule:nonzero;fill:rgb(100%,0%,0%);fill-opacity:0.501961;" d="M 264.847656 277.992188 L 259.675781 275.28125 L 259.648438 275.265625 L 275.730469 247.683594 L 275.757812 247.699219 L 280.253906 250.539062 Z M 264.847656 277.992188 "/>
<path style=" stroke:none;fill-rule:nonzero;fill:rgb(100%,0%,0%);fill-opacity:0.501961;" d="M 270.003906 280.550781 L 264.847656 277.992188 L 264.820312 277.976562 L 280.226562 250.523438 L 280.253906 250.539062 L 284.585938 253.183594 Z M 270.003906 280.550781 "/>
<path style=" stroke:none;fill-rule:nonzero;fill:rgb(100%,0%,0%);fill-opacity:0.501961;" d="M 273.175781 282.027344 L 270.003906 280.550781 L 269.976562 280.535156 L 284.558594 253.171875 L 284.585938 253.183594 L 287.289062 254.746094 Z M 273.175781 282.027344 "/>
<path style=" stroke:none;fill-rule:nonzero;fill:rgb(100%,0%,0%);fill-opacity:0.501961;" d="M 275.128906 282.925781 L 273.175781 282.027344 L 273.148438 282.011719 L 287.261719 254.734375 L 287.289062 254.746094 L 288.738281 255.605469 Z M 275.128906 282.925781 "/>
<path style=" stroke:none;fill-rule:nonzero;fill:rgb(100%,0%,0%);fill-opacity:0.501961;" d="M 280.238281 285.09375 L 275.128906 282.925781 L 275.101562 282.914062 L 288.710938 255.59375 L 288.738281 255.605469 L 292.703125 257.785156 Z M 280.238281 285.09375 "/>
<path style=" stroke:none;fill-rule:nonzero;fill:rgb(100%,0%,0%);fill-opacity:0.501961;" d="M 282.585938 285.992188 L 280.238281 285.09375 L 280.210938 285.082031 L 292.675781 257.773438 L 292.703125 257.785156 L 294.453125 258.664062 Z M 282.585938 285.992188 "/>
<path style=" stroke:none;fill-rule:nonzero;fill:rgb(100%,0%,0%);fill-opacity:0.501961;" d="M 285.332031 287.019531 L 282.585938 285.992188 L 282.558594 285.980469 L 294.425781 258.652344 L 294.453125 258.664062 L 296.480469 259.714844 Z M 285.332031 287.019531 "/>
<path style=" stroke:none;fill-rule:nonzero;fill:rgb(100%,0%,0%);fill-opacity:0.501961;" d="M 290.4375 288.679688 L 285.332031 287.019531 L 285.304688 287.007812 L 296.453125 259.703125 L 296.480469 259.714844 L 300.085938 261.382812 Z M 290.4375 288.679688 "/>
<path style=" stroke:none;fill-rule:nonzero;fill:rgb(100%,0%,0%);fill-opacity:0.501961;" d="M 293.402344 289.484375 L 290.4375 288.679688 L 290.410156 288.671875 L 300.058594 261.375 L 300.085938 261.382812 L 302.25 262.246094 Z M 293.402344 289.484375 "/>
<path style=" stroke:none;fill-rule:nonzero;fill:rgb(100%,0%,0%);fill-opacity:0.501961;" d="M 295.496094 290.035156 L 293.402344 289.484375 L 293.375 289.476562 L 302.222656 262.238281 L 302.25 262.246094 L 303.617188 262.816406 Z M 295.496094 290.035156 "/>
<path style=" stroke:none;fill-rule:nonzero;fill:rgb(100%,0%,0%);fill-opacity:0.501961;" d="M 299.113281 290.804688 L 295.496094 290.035156 L 295.46875 290.027344 L 303.589844 262.808594 L 303.617188 262.816406 L 305.714844 263.605469 Z M 299.113281 290.804688 "/>
<path style=" stroke:none;fill-rule:nonzero;fill:rgb(100%,0%,0%);fill-opacity:0.501961;" d="M 304.507812 291.617188 L 299.113281 290.804688 L 299.085938 290.796875 L 305.6875 263.597656 L 305.714844 263.605469 L 309.214844 264.6875 Z M 304.507812 291.617188 "/>
<path style=" stroke:none;fill-rule:nonzero;fill:rgb(100%,0%,0%);fill-opacity:0.501961;" d="M 307.898438 291.882812 L 304.507812 291.617188 L 304.480469 291.613281 L 309.1875 264.683594 L 309.214844 264.6875 L 311.539062 265.203125 Z M 307.898438 291.882812 "/>
<path style=" stroke:none;fill-rule:nonzero;fill:rgb(100%,0%,0%);fill-opacity:0.501961;" d="M 310.074219 292.03125 L 307.898438 291.882812 L 307.875 291.878906 L 311.515625 265.199219 L 311.539062 265.203125 L 312.632812 265.496094 Z M 310.074219 292.03125 "/>
<path style=" stroke:none;fill-rule:nonzero;fill:rgb(100%,0%,0%);fill-opacity:0.501961;" d="M 315.71875 291.96875 L 310.074219 292.03125 L 310.046875 292.027344 L 312.605469 265.496094 L 312.632812 265.496094 L 316.183594 266.078125 Z M 315.71875 291.96875 "/>
<path style=" stroke:none;fill-rule:nonzero;fill:rgb(100%,0%,0%);fill-opacity:0.501961;" d="M 319.523438 291.628906 L 315.71875 291.96875 L 315.691406 291.96875 L 316.15625 266.078125 L 316.183594 266.078125 L 318.996094 266.28125 Z M 319.523438 291.628906 "/>
<path style=" stroke:none;fill-rule:nonzero;fill:rgb(100%,0%,0%);fill-opacity:0.501961;" d="M 321.433594 291.441406 L 319.523438 291.628906 L 319.5 291.628906 L 318.972656 266.28125 L 318.996094 266.28125 L 320.011719 266.402344 Z M 321.433594 291.441406 "/>
<path style=" stroke:none;fill-rule:nonzero;fill:rgb(100%,0%,0%);fill-opacity:0.501961;" d="M 327.238281 290.433594 L 321.433594 291.441406 L 321.410156 291.445312 L 319.988281 266.40625 L 320.011719 266.402344 L 324.253906 266.480469 Z M 327.238281 290.433594 "/>
<path style=" stroke:none;fill-rule:nonzero;fill:rgb(100%,0%,0%);fill-opacity:0.501961;" d="M 330.03125 289.769531 L 327.238281 290.433594 L 327.214844 290.4375 L 324.230469 266.480469 L 324.253906 266.480469 L 326.363281 266.375 Z M 330.03125 289.769531 "/>
<path style=" stroke:none;fill-rule:nonzero;fill:rgb(100%,0%,0%);fill-opacity:0.501961;" d="M 333.179688 288.964844 L 330.03125 289.769531 L 330.007812 289.773438 L 326.339844 266.378906 L 326.363281 266.375 L 329 266.269531 Z M 333.179688 288.964844 "/>
<path style=" stroke:none;fill-rule:nonzero;fill:rgb(100%,0%,0%);fill-opacity:0.501961;" d="M 339.308594 287.046875 L 333.179688 288.964844 L 333.15625 288.96875 L 328.976562 266.277344 L 329 266.269531 L 334.304688 265.765625 Z M 339.308594 287.046875 "/>
<path style=" stroke:none;fill-rule:nonzero;fill:rgb(100%,0%,0%);fill-opacity:0.501961;" d="M 345.664062 284.664062 L 339.308594 287.046875 L 339.285156 287.050781 L 334.285156 265.769531 L 334.304688 265.765625 L 340.207031 264.980469 Z M 345.664062 284.664062 "/>
<path style=" stroke:none;fill-rule:nonzero;fill:rgb(100%,0%,0%);fill-opacity:0.501961;" d="M 346.777344 284.214844 L 345.664062 284.664062 L 345.644531 284.667969 L 340.1875 264.988281 L 340.207031 264.980469 L 341.035156 264.855469 Z M 346.777344 284.214844 "/>
<path style=" stroke:none;fill-rule:nonzero;fill:rgb(100%,0%,0%);fill-opacity:0.501961;" d="M 352.277344 281.835938 L 346.777344 284.214844 L 346.757812 284.222656 L 341.015625 264.859375 L 341.035156 264.855469 L 346.691406 263.925781 Z M 352.277344 281.835938 "/>
<path style=" stroke:none;fill-rule:nonzero;fill:rgb(100%,0%,0%);fill-opacity:0.501961;" d="M 353.683594 281.191406 L 352.277344 281.835938 L 352.257812 281.839844 L 346.671875 263.933594 L 346.691406 263.925781 L 347.953125 263.695312 Z M 353.683594 281.191406 "/>
<path style=" stroke:none;fill-rule:nonzero;fill:rgb(100%,0%,0%);fill-opacity:0.501961;" d="M 359.113281 278.589844 L 353.683594 281.191406 L 353.667969 281.199219 L 347.933594 263.699219 L 347.953125 263.695312 L 353.691406 262.640625 Z M 359.113281 278.589844 "/>
<path style=" stroke:none;fill-rule:nonzero;fill:rgb(100%,0%,0%);fill-opacity:0.501961;" d="M 360.007812 278.152344 L 359.113281 278.589844 L 359.097656 278.597656 L 353.675781 262.644531 L 353.691406 262.640625 L 354.480469 262.484375 Z M 360.007812 278.152344 "/>
<path style=" stroke:none;fill-rule:nonzero;fill:rgb(100%,0%,0%);fill-opacity:0.501961;" d="M 366.09375 274.984375 L 360.007812 278.152344 L 359.992188 278.15625 L 354.464844 262.492188 L 354.480469 262.484375 L 361.082031 261.175781 Z M 366.09375 274.984375 "/>
<path style=" stroke:none;fill-rule:nonzero;fill:rgb(100%,0%,0%);fill-opacity:0.501961;" d="M 371.195312 272.164062 L 366.09375 274.984375 L 366.082031 274.988281 L 361.070312 261.179688 L 361.082031 261.175781 L 366.660156 260.011719 Z M 371.195312 272.164062 "/>
<path style=" stroke:none;fill-rule:nonzero;fill:rgb(100%,0%,0%);fill-opacity:0.501961;" d="M 373.0625 271.121094 L 371.195312 272.164062 L 371.183594 272.171875 L 366.648438 260.015625 L 366.660156 260.011719 L 368.671875 259.609375 Z M 373.0625 271.121094 "/>
<path style=" stroke:none;fill-rule:nonzero;fill:rgb(100%,0%,0%);fill-opacity:0.501961;" d="M 376.308594 269.234375 L 373.0625 271.121094 L 373.050781 271.125 L 368.660156 259.613281 L 368.671875 259.609375 L 372.257812 258.835938 Z M 376.308594 269.234375 "/>
<path style=" stroke:none;fill-rule:nonzero;fill:rgb(100%,0%,0%);fill-opacity:0.501961;" d="M 379.804688 267.164062 L 376.308594 269.234375 L 376.296875 269.238281 L 372.246094 258.839844 L 372.257812 258.835938 L 376.175781 258.011719 Z M 379.804688 267.164062 "/>
<path style=" stroke:none;fill-rule:nonzero;fill:rgb(100%,0%,0%);fill-opacity:0.501961;" d="M 381.074219 266.398438 L 379.804688 267.164062 L 379.796875 267.167969 L 376.167969 258.015625 L 376.175781 258.011719 L 377.574219 257.707031 Z M 381.074219 266.398438 "/>
<path style=" stroke:none;fill-rule:nonzero;fill:rgb(100%,0%,0%);fill-opacity:0.501961;" d="M 386.054688 263.328125 L 381.074219 266.398438 L 381.066406 266.402344 L 377.5625 257.710938 L 377.574219 257.707031 L 383.257812 256.476562 Z M 386.054688 263.328125 "/>
<path style=" stroke:none;fill-rule:nonzero;fill:rgb(100%,0%,0%);fill-opacity:0.501961;" d="M 389.46875 261.160156 L 386.054688 263.328125 L 386.050781 263.332031 L 383.25 256.480469 L 383.257812 256.476562 L 387.171875 255.609375 Z M 389.46875 261.160156 "/>
<path style=" stroke:none;fill-rule:nonzero;fill:rgb(100%,0%,0%);fill-opacity:0.501961;" d="M 391.542969 259.832031 L 389.46875 261.160156 L 389.464844 261.164062 L 387.164062 255.613281 L 387.171875 255.609375 L 389.554688 255.089844 Z M 391.542969 259.832031 "/>
<path style=" stroke:none;fill-rule:nonzero;fill:rgb(100%,0%,0%);fill-opacity:0.501961;" d="M 393.035156 258.859375 L 391.542969 259.832031 L 391.539062 259.832031 L 389.550781 255.09375 L 389.554688 255.089844 L 391.277344 254.703125 Z M 393.035156 258.859375 "/>
<path style=" stroke:none;fill-rule:nonzero;fill:rgb(100%,0%,0%);fill-opacity:0.501961;" d="M 396.03125 256.890625 L 393.035156 258.859375 L 393.03125 258.859375 L 391.273438 254.703125 L 391.277344 254.703125 L 394.761719 253.925781 Z M 396.03125 256.890625 "/>
<path style=" stroke:none;fill-rule:nonzero;fill:rgb(100%,0%,0%);fill-opacity:0.501961;" d="M 398.578125 255.175781 L 396.03125 256.890625 L 396.027344 256.890625 L 394.761719 253.929688 L 394.761719 253.925781 L 397.75 253.25 Z M 398.578125 255.175781 "/>
<path style=" stroke:none;fill-rule:nonzero;fill:rgb(100%,0%,0%);fill-opacity:0.501961;" d="M 399.375 254.640625 L 398.578125 255.175781 L 398.578125 255.179688 L 397.746094 253.25 L 397.75 253.25 L 398.679688 253.042969 Z M 399.375 254.640625 "/>
<path style=" stroke:none;fill-rule:nonzero;fill:rgb(100%,0%,0%);fill-opacity:0.501961;" d="M 400.496094 253.875 L 399.375 254.640625 L 398.679688 253.042969 L 399.996094 252.738281 Z M 400.496094 253.875 "/>
<path style=" stroke:none;fill-rule:nonzero;fill:rgb(100%,0%,0%);fill-opacity:0.501961;" d="M 401.566406 253.140625 L 400.496094 253.875 L 400.492188 253.878906 L 399.996094 252.738281 L 401.261719 252.449219 Z M 401.566406 253.140625 "/>
<path style=" stroke:none;fill-rule:nonzero;fill:rgb(100%,0%,0%);fill-opacity:0.501961;" d="M 401.566406 253.140625 L 401.261719 252.449219 L 402.652344 252.128906 L 402.738281 252.324219 Z M 401.566406 253.140625 "/>
<path style=" stroke:none;fill-rule:nonzero;fill:rgb(100%,0%,0%);fill-opacity:0.501961;" d="M 402.738281 252.324219 L 402.652344 252.128906 L 403.148438 252.011719 L 403.15625 252.03125 Z M 402.738281 252.324219 "/>
<path style=" stroke:none;fill-rule:nonzero;fill:rgb(100%,0%,0%);fill-opacity:0.501961;" d="M 403.15625 252.03125 L 403.148438 252.011719 L 403.199219 252 Z M 403.15625 252.03125 "/>
<path style="fill:none;stroke-width:0.75;stroke-linecap:round;stroke-linejoin:round;stroke:rgb(74.509804%,74.509804%,74.509804%);stroke-opacity:1;stroke-miterlimit:10;" d="M 100.800781 252 Z M 100.800781 252 "/>
<path style="fill-rule:nonzero;fill:rgb(0%,0%,0%);fill-opacity:1;stroke-width:0.75;stroke-linecap:round;stroke-linejoin:round;stroke:rgb(74.509804%,74.509804%,74.509804%);stroke-opacity:1;stroke-miterlimit:10;" d="M 100.898438 251.976562 L 100.882812 251.941406 Z M 100.898438 251.976562 "/>
<path style="fill-rule:nonzero;fill:rgb(0%,0%,0%);fill-opacity:1;stroke-width:0.75;stroke-linecap:round;stroke-linejoin:round;stroke:rgb(74.509804%,74.509804%,74.509804%);stroke-opacity:1;stroke-miterlimit:10;" d="M 101.535156 251.828125 L 101.417969 251.5625 Z M 101.535156 251.828125 "/>
<path style="fill-rule:nonzero;fill:rgb(0%,0%,0%);fill-opacity:1;stroke-width:0.75;stroke-linecap:round;stroke-linejoin:round;stroke:rgb(74.509804%,74.509804%,74.509804%);stroke-opacity:1;stroke-miterlimit:10;" d="M 103.136719 251.457031 L 102.769531 250.625 Z M 103.136719 251.457031 "/>
<path style="fill-rule:nonzero;fill:rgb(0%,0%,0%);fill-opacity:1;stroke-width:0.75;stroke-linecap:round;stroke-linejoin:round;stroke:rgb(74.509804%,74.509804%,74.509804%);stroke-opacity:1;stroke-miterlimit:10;" d="M 104.871094 251.0625 L 104.238281 249.621094 L 104.242188 249.621094 Z M 104.871094 251.0625 "/>
<path style="fill-rule:nonzero;fill:rgb(0%,0%,0%);fill-opacity:1;stroke-width:0.75;stroke-linecap:round;stroke-linejoin:round;stroke:rgb(74.509804%,74.509804%,74.509804%);stroke-opacity:1;stroke-miterlimit:10;" d="M 105.972656 250.808594 L 105.179688 248.984375 L 105.179688 248.980469 Z M 105.972656 250.808594 "/>
<path style="fill-rule:nonzero;fill:rgb(0%,0%,0%);fill-opacity:1;stroke-width:0.75;stroke-linecap:round;stroke-linejoin:round;stroke:rgb(74.509804%,74.509804%,74.509804%);stroke-opacity:1;stroke-miterlimit:10;" d="M 107.402344 250.488281 L 106.402344 248.164062 L 106.402344 248.160156 Z M 107.402344 250.488281 "/>
<path style="fill-rule:nonzero;fill:rgb(0%,0%,0%);fill-opacity:1;stroke-width:0.75;stroke-linecap:round;stroke-linejoin:round;stroke:rgb(74.509804%,74.509804%,74.509804%);stroke-opacity:1;stroke-miterlimit:10;" d="M 110.144531 249.867188 L 108.75 246.59375 L 108.753906 246.59375 L 110.148438 249.867188 Z M 110.144531 249.867188 "/>
<path style="fill-rule:nonzero;fill:rgb(0%,0%,0%);fill-opacity:1;stroke-width:0.75;stroke-linecap:round;stroke-linejoin:round;stroke:rgb(74.509804%,74.509804%,74.509804%);stroke-opacity:1;stroke-miterlimit:10;" d="M 114.394531 248.925781 L 112.402344 244.207031 L 112.40625 244.203125 L 114.398438 248.921875 Z M 114.394531 248.925781 "/>
<path style="fill-rule:nonzero;fill:rgb(0%,0%,0%);fill-opacity:1;stroke-width:0.75;stroke-linecap:round;stroke-linejoin:round;stroke:rgb(74.509804%,74.509804%,74.509804%);stroke-opacity:1;stroke-miterlimit:10;" d="M 115.585938 248.65625 L 113.445312 243.53125 L 113.453125 243.527344 L 115.589844 248.65625 Z M 115.585938 248.65625 "/>
<path style="fill-rule:nonzero;fill:rgb(0%,0%,0%);fill-opacity:1;stroke-width:0.75;stroke-linecap:round;stroke-linejoin:round;stroke:rgb(74.509804%,74.509804%,74.509804%);stroke-opacity:1;stroke-miterlimit:10;" d="M 118.710938 247.976562 L 116.164062 241.800781 L 116.171875 241.796875 L 118.71875 247.972656 Z M 118.710938 247.976562 "/>
<path style="fill-rule:nonzero;fill:rgb(0%,0%,0%);fill-opacity:1;stroke-width:0.75;stroke-linecap:round;stroke-linejoin:round;stroke:rgb(74.509804%,74.509804%,74.509804%);stroke-opacity:1;stroke-miterlimit:10;" d="M 122.0625 247.234375 L 119.101562 239.949219 L 119.109375 239.949219 L 122.066406 247.230469 Z M 122.0625 247.234375 "/>
<path style="fill-rule:nonzero;fill:rgb(0%,0%,0%);fill-opacity:1;stroke-width:0.75;stroke-linecap:round;stroke-linejoin:round;stroke:rgb(74.509804%,74.509804%,74.509804%);stroke-opacity:1;stroke-miterlimit:10;" d="M 123.46875 246.941406 L 120.359375 239.179688 L 120.367188 239.175781 L 123.476562 246.9375 Z M 123.46875 246.941406 "/>
<path style="fill-rule:nonzero;fill:rgb(0%,0%,0%);fill-opacity:1;stroke-width:0.75;stroke-linecap:round;stroke-linejoin:round;stroke:rgb(74.509804%,74.509804%,74.509804%);stroke-opacity:1;stroke-miterlimit:10;" d="M 129.25 245.683594 L 125.46875 236.070312 L 125.476562 236.066406 L 129.261719 245.679688 Z M 129.25 245.683594 "/>
<path style="fill-rule:nonzero;fill:rgb(0%,0%,0%);fill-opacity:1;stroke-width:0.75;stroke-linecap:round;stroke-linejoin:round;stroke:rgb(74.509804%,74.509804%,74.509804%);stroke-opacity:1;stroke-miterlimit:10;" d="M 134.085938 244.667969 L 129.785156 233.546875 L 129.796875 233.542969 L 134.09375 244.664062 Z M 134.085938 244.667969 "/>
<path style="fill-rule:nonzero;fill:rgb(0%,0%,0%);fill-opacity:1;stroke-width:0.75;stroke-linecap:round;stroke-linejoin:round;stroke:rgb(74.509804%,74.509804%,74.509804%);stroke-opacity:1;stroke-miterlimit:10;" d="M 136.796875 244.082031 L 132.273438 232.121094 L 132.285156 232.117188 L 136.808594 244.078125 Z M 136.796875 244.082031 "/>
<path style="fill-rule:nonzero;fill:rgb(0%,0%,0%);fill-opacity:1;stroke-width:0.75;stroke-linecap:round;stroke-linejoin:round;stroke:rgb(74.509804%,74.509804%,74.509804%);stroke-opacity:1;stroke-miterlimit:10;" d="M 139.800781 243.480469 L 135.039062 230.589844 L 135.054688 230.585938 L 139.816406 243.476562 Z M 139.800781 243.480469 "/>
<path style="fill-rule:nonzero;fill:rgb(0%,0%,0%);fill-opacity:1;stroke-width:0.75;stroke-linecap:round;stroke-linejoin:round;stroke:rgb(74.509804%,74.509804%,74.509804%);stroke-opacity:1;stroke-miterlimit:10;" d="M 144.367188 242.527344 L 139.257812 228.296875 L 139.273438 228.292969 L 144.378906 242.523438 Z M 144.367188 242.527344 "/>
<path style="fill-rule:nonzero;fill:rgb(0%,0%,0%);fill-opacity:1;stroke-width:0.75;stroke-linecap:round;stroke-linejoin:round;stroke:rgb(74.509804%,74.509804%,74.509804%);stroke-opacity:1;stroke-miterlimit:10;" d="M 145.789062 242.269531 L 140.671875 227.570312 L 140.6875 227.566406 L 145.804688 242.261719 Z M 145.789062 242.269531 "/>
<path style="fill-rule:nonzero;fill:rgb(0%,0%,0%);fill-opacity:1;stroke-width:0.75;stroke-linecap:round;stroke-linejoin:round;stroke:rgb(74.509804%,74.509804%,74.509804%);stroke-opacity:1;stroke-miterlimit:10;" d="M 151.699219 241.097656 L 146.21875 224.75 L 146.234375 224.746094 L 151.714844 241.09375 Z M 151.699219 241.097656 "/>
<path style="fill-rule:nonzero;fill:rgb(0%,0%,0%);fill-opacity:1;stroke-width:0.75;stroke-linecap:round;stroke-linejoin:round;stroke:rgb(74.509804%,74.509804%,74.509804%);stroke-opacity:1;stroke-miterlimit:10;" d="M 158.605469 239.855469 L 153.019531 221.578125 L 153.035156 221.574219 L 158.625 239.847656 Z M 158.605469 239.855469 "/>
<path style="fill-rule:nonzero;fill:rgb(0%,0%,0%);fill-opacity:1;stroke-width:0.75;stroke-linecap:round;stroke-linejoin:round;stroke:rgb(74.509804%,74.509804%,74.509804%);stroke-opacity:1;stroke-miterlimit:10;" d="M 164.976562 238.84375 L 159.582031 218.839844 L 159.601562 218.835938 L 164.996094 238.839844 Z M 164.976562 238.84375 "/>
<path style="fill-rule:nonzero;fill:rgb(0%,0%,0%);fill-opacity:1;stroke-width:0.75;stroke-linecap:round;stroke-linejoin:round;stroke:rgb(74.509804%,74.509804%,74.509804%);stroke-opacity:1;stroke-miterlimit:10;" d="M 165.714844 238.777344 L 160.636719 218.460938 L 160.660156 218.457031 L 165.738281 238.769531 Z M 165.714844 238.777344 "/>
<path style="fill-rule:nonzero;fill:rgb(0%,0%,0%);fill-opacity:1;stroke-width:0.75;stroke-linecap:round;stroke-linejoin:round;stroke:rgb(74.509804%,74.509804%,74.509804%);stroke-opacity:1;stroke-miterlimit:10;" d="M 170.761719 238.109375 L 165.894531 216.550781 L 165.914062 216.546875 L 170.785156 238.105469 Z M 170.761719 238.109375 "/>
<path style="fill-rule:nonzero;fill:rgb(0%,0%,0%);fill-opacity:1;stroke-width:0.75;stroke-linecap:round;stroke-linejoin:round;stroke:rgb(74.509804%,74.509804%,74.509804%);stroke-opacity:1;stroke-miterlimit:10;" d="M 173.214844 237.917969 L 168.722656 215.679688 L 168.746094 215.671875 L 173.238281 237.910156 Z M 173.214844 237.917969 "/>
<path style="fill-rule:nonzero;fill:rgb(0%,0%,0%);fill-opacity:1;stroke-width:0.75;stroke-linecap:round;stroke-linejoin:round;stroke:rgb(74.509804%,74.509804%,74.509804%);stroke-opacity:1;stroke-miterlimit:10;" d="M 175.960938 237.664062 L 171.980469 214.714844 L 172.003906 214.710938 L 175.984375 237.660156 Z M 175.960938 237.664062 "/>
<path style="fill-rule:nonzero;fill:rgb(0%,0%,0%);fill-opacity:1;stroke-width:0.75;stroke-linecap:round;stroke-linejoin:round;stroke:rgb(74.509804%,74.509804%,74.509804%);stroke-opacity:1;stroke-miterlimit:10;" d="M 180.601562 237.523438 L 177.890625 213.328125 L 177.914062 213.324219 L 180.625 237.519531 Z M 180.601562 237.523438 "/>
<path style="fill-rule:nonzero;fill:rgb(0%,0%,0%);fill-opacity:1;stroke-width:0.75;stroke-linecap:round;stroke-linejoin:round;stroke:rgb(74.509804%,74.509804%,74.509804%);stroke-opacity:1;stroke-miterlimit:10;" d="M 184.753906 237.632812 L 183.675781 212.421875 L 183.703125 212.421875 L 184.78125 237.632812 Z M 184.753906 237.632812 "/>
<path style="fill-rule:nonzero;fill:rgb(0%,0%,0%);fill-opacity:1;stroke-width:0.75;stroke-linecap:round;stroke-linejoin:round;stroke:rgb(74.509804%,74.509804%,74.509804%);stroke-opacity:1;stroke-miterlimit:10;" d="M 188.519531 238.023438 L 189.378906 211.972656 L 189.40625 211.972656 L 188.546875 238.027344 Z M 188.519531 238.023438 "/>
<path style="fill-rule:nonzero;fill:rgb(0%,0%,0%);fill-opacity:1;stroke-width:0.75;stroke-linecap:round;stroke-linejoin:round;stroke:rgb(74.509804%,74.509804%,74.509804%);stroke-opacity:1;stroke-miterlimit:10;" d="M 192.035156 238.636719 L 195.007812 212.019531 L 195.035156 212.023438 L 192.0625 238.636719 Z M 192.035156 238.636719 "/>
<path style="fill-rule:nonzero;fill:rgb(0%,0%,0%);fill-opacity:1;stroke-width:0.75;stroke-linecap:round;stroke-linejoin:round;stroke:rgb(74.509804%,74.509804%,74.509804%);stroke-opacity:1;stroke-miterlimit:10;" d="M 195.488281 239.515625 L 200.511719 212.496094 L 200.539062 212.5 L 195.515625 239.523438 Z M 195.488281 239.515625 "/>
<path style="fill-rule:nonzero;fill:rgb(0%,0%,0%);fill-opacity:1;stroke-width:0.75;stroke-linecap:round;stroke-linejoin:round;stroke:rgb(74.509804%,74.509804%,74.509804%);stroke-opacity:1;stroke-miterlimit:10;" d="M 198.171875 240.375 L 205 213.21875 L 205.027344 213.226562 L 198.199219 240.378906 Z M 198.171875 240.375 "/>
<path style="fill-rule:nonzero;fill:rgb(0%,0%,0%);fill-opacity:1;stroke-width:0.75;stroke-linecap:round;stroke-linejoin:round;stroke:rgb(74.509804%,74.509804%,74.509804%);stroke-opacity:1;stroke-miterlimit:10;" d="M 200.144531 241.117188 L 207.855469 213.839844 L 207.882812 213.847656 L 200.171875 241.125 Z M 200.144531 241.117188 "/>
<path style="fill-rule:nonzero;fill:rgb(0%,0%,0%);fill-opacity:1;stroke-width:0.75;stroke-linecap:round;stroke-linejoin:round;stroke:rgb(74.509804%,74.509804%,74.509804%);stroke-opacity:1;stroke-miterlimit:10;" d="M 201.582031 241.640625 L 210.132812 214.367188 L 210.160156 214.375 L 201.609375 241.648438 Z M 201.582031 241.640625 "/>
<path style="fill-rule:nonzero;fill:rgb(0%,0%,0%);fill-opacity:1;stroke-width:0.75;stroke-linecap:round;stroke-linejoin:round;stroke:rgb(74.509804%,74.509804%,74.509804%);stroke-opacity:1;stroke-miterlimit:10;" d="M 205.085938 243.136719 L 215.25 215.839844 L 215.277344 215.851562 L 205.113281 243.148438 Z M 205.085938 243.136719 "/>
<path style="fill-rule:nonzero;fill:rgb(0%,0%,0%);fill-opacity:1;stroke-width:0.75;stroke-linecap:round;stroke-linejoin:round;stroke:rgb(74.509804%,74.509804%,74.509804%);stroke-opacity:1;stroke-miterlimit:10;" d="M 207.988281 244.535156 L 218.980469 217.097656 L 219.007812 217.109375 L 208.019531 244.546875 Z M 207.988281 244.535156 "/>
<path style="fill-rule:nonzero;fill:rgb(0%,0%,0%);fill-opacity:1;stroke-width:0.75;stroke-linecap:round;stroke-linejoin:round;stroke:rgb(74.509804%,74.509804%,74.509804%);stroke-opacity:1;stroke-miterlimit:10;" d="M 208.746094 244.898438 L 220.351562 217.585938 L 220.378906 217.597656 L 208.773438 244.910156 Z M 208.746094 244.898438 "/>
<path style="fill-rule:nonzero;fill:rgb(0%,0%,0%);fill-opacity:1;stroke-width:0.75;stroke-linecap:round;stroke-linejoin:round;stroke:rgb(74.509804%,74.509804%,74.509804%);stroke-opacity:1;stroke-miterlimit:10;" d="M 212.585938 246.902344 L 225.449219 219.597656 L 225.476562 219.613281 L 212.613281 246.917969 Z M 212.585938 246.902344 "/>
<path style="fill-rule:nonzero;fill:rgb(0%,0%,0%);fill-opacity:1;stroke-width:0.75;stroke-linecap:round;stroke-linejoin:round;stroke:rgb(74.509804%,74.509804%,74.509804%);stroke-opacity:1;stroke-miterlimit:10;" d="M 215.277344 248.425781 L 228.765625 221.039062 L 228.792969 221.050781 L 215.304688 248.4375 Z M 215.277344 248.425781 "/>
<path style="fill-rule:nonzero;fill:rgb(0%,0%,0%);fill-opacity:1;stroke-width:0.75;stroke-linecap:round;stroke-linejoin:round;stroke:rgb(74.509804%,74.509804%,74.509804%);stroke-opacity:1;stroke-miterlimit:10;" d="M 216.613281 249.167969 L 230.5625 221.835938 L 230.589844 221.847656 L 216.640625 249.183594 Z M 216.613281 249.167969 "/>
<path style="fill-rule:nonzero;fill:rgb(0%,0%,0%);fill-opacity:1;stroke-width:0.75;stroke-linecap:round;stroke-linejoin:round;stroke:rgb(74.509804%,74.509804%,74.509804%);stroke-opacity:1;stroke-miterlimit:10;" d="M 220.824219 251.667969 L 235.699219 224.277344 L 235.726562 224.289062 L 220.851562 251.679688 Z M 220.824219 251.667969 "/>
<path style="fill-rule:nonzero;fill:rgb(0%,0%,0%);fill-opacity:1;stroke-width:0.75;stroke-linecap:round;stroke-linejoin:round;stroke:rgb(74.509804%,74.509804%,74.509804%);stroke-opacity:1;stroke-miterlimit:10;" d="M 221.746094 252.246094 L 236.984375 224.925781 L 237.011719 224.941406 L 221.773438 252.261719 Z M 221.746094 252.246094 "/>
<path style="fill-rule:nonzero;fill:rgb(0%,0%,0%);fill-opacity:1;stroke-width:0.75;stroke-linecap:round;stroke-linejoin:round;stroke:rgb(74.509804%,74.509804%,74.509804%);stroke-opacity:1;stroke-miterlimit:10;" d="M 225.214844 254.378906 L 240.859375 226.890625 L 240.886719 226.90625 L 225.242188 254.394531 Z M 225.214844 254.378906 "/>
<path style="fill-rule:nonzero;fill:rgb(0%,0%,0%);fill-opacity:1;stroke-width:0.75;stroke-linecap:round;stroke-linejoin:round;stroke:rgb(74.509804%,74.509804%,74.509804%);stroke-opacity:1;stroke-miterlimit:10;" d="M 227.4375 255.800781 L 243.433594 228.253906 L 243.460938 228.269531 L 227.464844 255.816406 Z M 227.4375 255.800781 "/>
<path style="fill-rule:nonzero;fill:rgb(0%,0%,0%);fill-opacity:1;stroke-width:0.75;stroke-linecap:round;stroke-linejoin:round;stroke:rgb(74.509804%,74.509804%,74.509804%);stroke-opacity:1;stroke-miterlimit:10;" d="M 229.757812 257.273438 L 246.035156 229.640625 L 246.0625 229.65625 L 229.789062 257.289062 Z M 229.757812 257.273438 "/>
<path style="fill-rule:nonzero;fill:rgb(0%,0%,0%);fill-opacity:1;stroke-width:0.75;stroke-linecap:round;stroke-linejoin:round;stroke:rgb(74.509804%,74.509804%,74.509804%);stroke-opacity:1;stroke-miterlimit:10;" d="M 232.007812 258.738281 L 248.5625 231.027344 L 248.589844 231.042969 L 232.035156 258.753906 Z M 232.007812 258.738281 "/>
<path style="fill-rule:nonzero;fill:rgb(0%,0%,0%);fill-opacity:1;stroke-width:0.75;stroke-linecap:round;stroke-linejoin:round;stroke:rgb(74.509804%,74.509804%,74.509804%);stroke-opacity:1;stroke-miterlimit:10;" d="M 234.445312 260.3125 L 251.214844 232.492188 L 251.242188 232.507812 L 234.472656 260.328125 Z M 234.445312 260.3125 "/>
<path style="fill-rule:nonzero;fill:rgb(0%,0%,0%);fill-opacity:1;stroke-width:0.75;stroke-linecap:round;stroke-linejoin:round;stroke:rgb(74.509804%,74.509804%,74.509804%);stroke-opacity:1;stroke-miterlimit:10;" d="M 235.558594 261.046875 L 252.488281 233.210938 L 252.515625 233.226562 L 235.585938 261.0625 Z M 235.558594 261.046875 "/>
<path style="fill-rule:nonzero;fill:rgb(0%,0%,0%);fill-opacity:1;stroke-width:0.75;stroke-linecap:round;stroke-linejoin:round;stroke:rgb(74.509804%,74.509804%,74.509804%);stroke-opacity:1;stroke-miterlimit:10;" d="M 238.285156 262.828125 L 255.324219 234.8125 L 255.351562 234.828125 L 238.3125 262.847656 Z M 238.285156 262.828125 "/>
<path style="fill-rule:nonzero;fill:rgb(0%,0%,0%);fill-opacity:1;stroke-width:0.75;stroke-linecap:round;stroke-linejoin:round;stroke:rgb(74.509804%,74.509804%,74.509804%);stroke-opacity:1;stroke-miterlimit:10;" d="M 239.246094 263.457031 L 256.375 235.40625 L 256.402344 235.425781 L 239.273438 263.472656 Z M 239.246094 263.457031 "/>
<path style="fill-rule:nonzero;fill:rgb(0%,0%,0%);fill-opacity:1;stroke-width:0.75;stroke-linecap:round;stroke-linejoin:round;stroke:rgb(74.509804%,74.509804%,74.509804%);stroke-opacity:1;stroke-miterlimit:10;" d="M 240.214844 264.089844 L 257.429688 236.015625 L 257.457031 236.03125 L 240.246094 264.109375 Z M 240.214844 264.089844 "/>
<path style="fill-rule:nonzero;fill:rgb(0%,0%,0%);fill-opacity:1;stroke-width:0.75;stroke-linecap:round;stroke-linejoin:round;stroke:rgb(74.509804%,74.509804%,74.509804%);stroke-opacity:1;stroke-miterlimit:10;" d="M 241.648438 265.019531 L 258.910156 236.871094 L 258.9375 236.886719 L 241.679688 265.039062 Z M 241.648438 265.019531 "/>
<path style="fill-rule:nonzero;fill:rgb(0%,0%,0%);fill-opacity:1;stroke-width:0.75;stroke-linecap:round;stroke-linejoin:round;stroke:rgb(74.509804%,74.509804%,74.509804%);stroke-opacity:1;stroke-miterlimit:10;" d="M 242.746094 265.71875 L 260.027344 237.53125 L 260.054688 237.546875 L 242.773438 265.734375 Z M 242.746094 265.71875 "/>
<path style="fill-rule:nonzero;fill:rgb(0%,0%,0%);fill-opacity:1;stroke-width:0.75;stroke-linecap:round;stroke-linejoin:round;stroke:rgb(74.509804%,74.509804%,74.509804%);stroke-opacity:1;stroke-miterlimit:10;" d="M 244.179688 266.589844 L 261.445312 238.40625 L 261.472656 238.421875 L 244.207031 266.609375 Z M 244.179688 266.589844 "/>
<path style="fill-rule:nonzero;fill:rgb(0%,0%,0%);fill-opacity:1;stroke-width:0.75;stroke-linecap:round;stroke-linejoin:round;stroke:rgb(74.509804%,74.509804%,74.509804%);stroke-opacity:1;stroke-miterlimit:10;" d="M 246.179688 267.761719 L 263.386719 239.648438 L 263.414062 239.667969 L 246.207031 267.777344 Z M 246.179688 267.761719 "/>
<path style="fill-rule:nonzero;fill:rgb(0%,0%,0%);fill-opacity:1;stroke-width:0.75;stroke-linecap:round;stroke-linejoin:round;stroke:rgb(74.509804%,74.509804%,74.509804%);stroke-opacity:1;stroke-miterlimit:10;" d="M 248.085938 268.851562 L 265.226562 240.851562 L 265.253906 240.867188 L 248.117188 268.871094 Z M 248.085938 268.851562 "/>
<path style="fill-rule:nonzero;fill:rgb(0%,0%,0%);fill-opacity:1;stroke-width:0.75;stroke-linecap:round;stroke-linejoin:round;stroke:rgb(74.509804%,74.509804%,74.509804%);stroke-opacity:1;stroke-miterlimit:10;" d="M 249.296875 269.542969 L 266.324219 241.574219 L 266.351562 241.589844 L 249.328125 269.558594 Z M 249.296875 269.542969 "/>
<path style="fill-rule:nonzero;fill:rgb(0%,0%,0%);fill-opacity:1;stroke-width:0.75;stroke-linecap:round;stroke-linejoin:round;stroke:rgb(74.509804%,74.509804%,74.509804%);stroke-opacity:1;stroke-miterlimit:10;" d="M 250.804688 270.390625 L 267.703125 242.472656 L 267.730469 242.488281 L 250.832031 270.40625 Z M 250.804688 270.390625 "/>
<path style="fill-rule:nonzero;fill:rgb(0%,0%,0%);fill-opacity:1;stroke-width:0.75;stroke-linecap:round;stroke-linejoin:round;stroke:rgb(74.509804%,74.509804%,74.509804%);stroke-opacity:1;stroke-miterlimit:10;" d="M 254.46875 272.441406 L 271.089844 244.6875 L 271.117188 244.703125 L 254.496094 272.460938 Z M 254.46875 272.441406 "/>
<path style="fill-rule:nonzero;fill:rgb(0%,0%,0%);fill-opacity:1;stroke-width:0.75;stroke-linecap:round;stroke-linejoin:round;stroke:rgb(74.509804%,74.509804%,74.509804%);stroke-opacity:1;stroke-miterlimit:10;" d="M 259.648438 275.265625 L 275.730469 247.683594 L 275.757812 247.699219 L 259.675781 275.28125 Z M 259.648438 275.265625 "/>
<path style="fill-rule:nonzero;fill:rgb(0%,0%,0%);fill-opacity:1;stroke-width:0.75;stroke-linecap:round;stroke-linejoin:round;stroke:rgb(74.509804%,74.509804%,74.509804%);stroke-opacity:1;stroke-miterlimit:10;" d="M 264.820312 277.976562 L 280.226562 250.523438 L 280.253906 250.539062 L 264.847656 277.992188 Z M 264.820312 277.976562 "/>
<path style="fill-rule:nonzero;fill:rgb(0%,0%,0%);fill-opacity:1;stroke-width:0.75;stroke-linecap:round;stroke-linejoin:round;stroke:rgb(74.509804%,74.509804%,74.509804%);stroke-opacity:1;stroke-miterlimit:10;" d="M 269.976562 280.535156 L 284.558594 253.171875 L 284.585938 253.183594 L 270.003906 280.550781 Z M 269.976562 280.535156 "/>
<path style="fill-rule:nonzero;fill:rgb(0%,0%,0%);fill-opacity:1;stroke-width:0.75;stroke-linecap:round;stroke-linejoin:round;stroke:rgb(74.509804%,74.509804%,74.509804%);stroke-opacity:1;stroke-miterlimit:10;" d="M 273.148438 282.011719 L 287.261719 254.734375 L 287.289062 254.746094 L 273.175781 282.027344 Z M 273.148438 282.011719 "/>
<path style="fill-rule:nonzero;fill:rgb(0%,0%,0%);fill-opacity:1;stroke-width:0.75;stroke-linecap:round;stroke-linejoin:round;stroke:rgb(74.509804%,74.509804%,74.509804%);stroke-opacity:1;stroke-miterlimit:10;" d="M 275.101562 282.914062 L 288.710938 255.59375 L 288.738281 255.605469 L 275.128906 282.925781 Z M 275.101562 282.914062 "/>
<path style="fill-rule:nonzero;fill:rgb(0%,0%,0%);fill-opacity:1;stroke-width:0.75;stroke-linecap:round;stroke-linejoin:round;stroke:rgb(74.509804%,74.509804%,74.509804%);stroke-opacity:1;stroke-miterlimit:10;" d="M 280.210938 285.082031 L 292.675781 257.773438 L 292.703125 257.785156 L 280.238281 285.09375 Z M 280.210938 285.082031 "/>
<path style="fill-rule:nonzero;fill:rgb(0%,0%,0%);fill-opacity:1;stroke-width:0.75;stroke-linecap:round;stroke-linejoin:round;stroke:rgb(74.509804%,74.509804%,74.509804%);stroke-opacity:1;stroke-miterlimit:10;" d="M 282.558594 285.980469 L 294.425781 258.652344 L 294.453125 258.664062 L 282.585938 285.992188 Z M 282.558594 285.980469 "/>
<path style="fill-rule:nonzero;fill:rgb(0%,0%,0%);fill-opacity:1;stroke-width:0.75;stroke-linecap:round;stroke-linejoin:round;stroke:rgb(74.509804%,74.509804%,74.509804%);stroke-opacity:1;stroke-miterlimit:10;" d="M 285.304688 287.007812 L 296.453125 259.703125 L 296.480469 259.714844 L 285.332031 287.019531 Z M 285.304688 287.007812 "/>
<path style="fill-rule:nonzero;fill:rgb(0%,0%,0%);fill-opacity:1;stroke-width:0.75;stroke-linecap:round;stroke-linejoin:round;stroke:rgb(74.509804%,74.509804%,74.509804%);stroke-opacity:1;stroke-miterlimit:10;" d="M 290.410156 288.671875 L 300.058594 261.375 L 300.085938 261.382812 L 290.4375 288.679688 Z M 290.410156 288.671875 "/>
<path style="fill-rule:nonzero;fill:rgb(0%,0%,0%);fill-opacity:1;stroke-width:0.75;stroke-linecap:round;stroke-linejoin:round;stroke:rgb(74.509804%,74.509804%,74.509804%);stroke-opacity:1;stroke-miterlimit:10;" d="M 293.375 289.476562 L 302.222656 262.238281 L 302.25 262.246094 L 293.402344 289.484375 Z M 293.375 289.476562 "/>
<path style="fill-rule:nonzero;fill:rgb(0%,0%,0%);fill-opacity:1;stroke-width:0.75;stroke-linecap:round;stroke-linejoin:round;stroke:rgb(74.509804%,74.509804%,74.509804%);stroke-opacity:1;stroke-miterlimit:10;" d="M 295.46875 290.027344 L 303.589844 262.808594 L 303.617188 262.816406 L 295.496094 290.035156 Z M 295.46875 290.027344 "/>
<path style="fill-rule:nonzero;fill:rgb(0%,0%,0%);fill-opacity:1;stroke-width:0.75;stroke-linecap:round;stroke-linejoin:round;stroke:rgb(74.509804%,74.509804%,74.509804%);stroke-opacity:1;stroke-miterlimit:10;" d="M 299.085938 290.796875 L 305.6875 263.597656 L 305.714844 263.605469 L 299.113281 290.804688 Z M 299.085938 290.796875 "/>
<path style="fill-rule:nonzero;fill:rgb(0%,0%,0%);fill-opacity:1;stroke-width:0.75;stroke-linecap:round;stroke-linejoin:round;stroke:rgb(74.509804%,74.509804%,74.509804%);stroke-opacity:1;stroke-miterlimit:10;" d="M 304.480469 291.613281 L 309.1875 264.683594 L 309.214844 264.6875 L 304.507812 291.617188 Z M 304.480469 291.613281 "/>
<path style="fill-rule:nonzero;fill:rgb(0%,0%,0%);fill-opacity:1;stroke-width:0.75;stroke-linecap:round;stroke-linejoin:round;stroke:rgb(74.509804%,74.509804%,74.509804%);stroke-opacity:1;stroke-miterlimit:10;" d="M 307.875 291.878906 L 311.515625 265.199219 L 311.539062 265.203125 L 307.898438 291.882812 Z M 307.875 291.878906 "/>
<path style="fill-rule:nonzero;fill:rgb(0%,0%,0%);fill-opacity:1;stroke-width:0.75;stroke-linecap:round;stroke-linejoin:round;stroke:rgb(74.509804%,74.509804%,74.509804%);stroke-opacity:1;stroke-miterlimit:10;" d="M 310.046875 292.027344 L 312.605469 265.496094 L 312.632812 265.496094 L 310.074219 292.03125 Z M 310.046875 292.027344 "/>
<path style="fill-rule:nonzero;fill:rgb(0%,0%,0%);fill-opacity:1;stroke-width:0.75;stroke-linecap:round;stroke-linejoin:round;stroke:rgb(74.509804%,74.509804%,74.509804%);stroke-opacity:1;stroke-miterlimit:10;" d="M 315.691406 291.96875 L 316.15625 266.078125 L 316.183594 266.078125 L 315.71875 291.96875 Z M 315.691406 291.96875 "/>
<path style="fill-rule:nonzero;fill:rgb(0%,0%,0%);fill-opacity:1;stroke-width:0.75;stroke-linecap:round;stroke-linejoin:round;stroke:rgb(74.509804%,74.509804%,74.509804%);stroke-opacity:1;stroke-miterlimit:10;" d="M 319.5 291.628906 L 318.972656 266.28125 L 318.996094 266.28125 L 319.523438 291.628906 Z M 319.5 291.628906 "/>
<path style="fill-rule:nonzero;fill:rgb(0%,0%,0%);fill-opacity:1;stroke-width:0.75;stroke-linecap:round;stroke-linejoin:round;stroke:rgb(74.509804%,74.509804%,74.509804%);stroke-opacity:1;stroke-miterlimit:10;" d="M 321.410156 291.445312 L 319.988281 266.40625 L 320.011719 266.402344 L 321.433594 291.441406 Z M 321.410156 291.445312 "/>
<path style="fill-rule:nonzero;fill:rgb(0%,0%,0%);fill-opacity:1;stroke-width:0.75;stroke-linecap:round;stroke-linejoin:round;stroke:rgb(74.509804%,74.509804%,74.509804%);stroke-opacity:1;stroke-miterlimit:10;" d="M 327.214844 290.4375 L 324.230469 266.480469 L 324.253906 266.480469 L 327.238281 290.433594 Z M 327.214844 290.4375 "/>
<path style="fill-rule:nonzero;fill:rgb(0%,0%,0%);fill-opacity:1;stroke-width:0.75;stroke-linecap:round;stroke-linejoin:round;stroke:rgb(74.509804%,74.509804%,74.509804%);stroke-opacity:1;stroke-miterlimit:10;" d="M 330.007812 289.773438 L 326.339844 266.378906 L 326.363281 266.375 L 330.03125 289.769531 Z M 330.007812 289.773438 "/>
<path style="fill-rule:nonzero;fill:rgb(0%,0%,0%);fill-opacity:1;stroke-width:0.75;stroke-linecap:round;stroke-linejoin:round;stroke:rgb(74.509804%,74.509804%,74.509804%);stroke-opacity:1;stroke-miterlimit:10;" d="M 333.15625 288.96875 L 328.976562 266.277344 L 329 266.269531 L 333.179688 288.964844 Z M 333.15625 288.96875 "/>
<path style="fill-rule:nonzero;fill:rgb(0%,0%,0%);fill-opacity:1;stroke-width:0.75;stroke-linecap:round;stroke-linejoin:round;stroke:rgb(74.509804%,74.509804%,74.509804%);stroke-opacity:1;stroke-miterlimit:10;" d="M 339.285156 287.050781 L 334.285156 265.769531 L 334.304688 265.765625 L 339.308594 287.046875 Z M 339.285156 287.050781 "/>
<path style="fill-rule:nonzero;fill:rgb(0%,0%,0%);fill-opacity:1;stroke-width:0.75;stroke-linecap:round;stroke-linejoin:round;stroke:rgb(74.509804%,74.509804%,74.509804%);stroke-opacity:1;stroke-miterlimit:10;" d="M 345.644531 284.667969 L 340.1875 264.988281 L 340.207031 264.980469 L 345.664062 284.664062 Z M 345.644531 284.667969 "/>
<path style="fill-rule:nonzero;fill:rgb(0%,0%,0%);fill-opacity:1;stroke-width:0.75;stroke-linecap:round;stroke-linejoin:round;stroke:rgb(74.509804%,74.509804%,74.509804%);stroke-opacity:1;stroke-miterlimit:10;" d="M 346.757812 284.222656 L 341.015625 264.859375 L 341.035156 264.855469 L 346.777344 284.214844 Z M 346.757812 284.222656 "/>
<path style="fill-rule:nonzero;fill:rgb(0%,0%,0%);fill-opacity:1;stroke-width:0.75;stroke-linecap:round;stroke-linejoin:round;stroke:rgb(74.509804%,74.509804%,74.509804%);stroke-opacity:1;stroke-miterlimit:10;" d="M 352.257812 281.839844 L 346.671875 263.933594 L 346.691406 263.925781 L 352.277344 281.835938 Z M 352.257812 281.839844 "/>
<path style="fill-rule:nonzero;fill:rgb(0%,0%,0%);fill-opacity:1;stroke-width:0.75;stroke-linecap:round;stroke-linejoin:round;stroke:rgb(74.509804%,74.509804%,74.509804%);stroke-opacity:1;stroke-miterlimit:10;" d="M 353.667969 281.199219 L 347.933594 263.699219 L 347.953125 263.695312 L 353.683594 281.191406 Z M 353.667969 281.199219 "/>
<path style="fill-rule:nonzero;fill:rgb(0%,0%,0%);fill-opacity:1;stroke-width:0.75;stroke-linecap:round;stroke-linejoin:round;stroke:rgb(74.509804%,74.509804%,74.509804%);stroke-opacity:1;stroke-miterlimit:10;" d="M 359.097656 278.597656 L 353.675781 262.644531 L 353.691406 262.640625 L 359.113281 278.589844 Z M 359.097656 278.597656 "/>
<path style="fill-rule:nonzero;fill:rgb(0%,0%,0%);fill-opacity:1;stroke-width:0.75;stroke-linecap:round;stroke-linejoin:round;stroke:rgb(74.509804%,74.509804%,74.509804%);stroke-opacity:1;stroke-miterlimit:10;" d="M 359.992188 278.15625 L 354.464844 262.492188 L 354.480469 262.484375 L 360.007812 278.152344 Z M 359.992188 278.15625 "/>
<path style="fill-rule:nonzero;fill:rgb(0%,0%,0%);fill-opacity:1;stroke-width:0.75;stroke-linecap:round;stroke-linejoin:round;stroke:rgb(74.509804%,74.509804%,74.509804%);stroke-opacity:1;stroke-miterlimit:10;" d="M 366.082031 274.988281 L 361.070312 261.179688 L 361.082031 261.175781 L 366.09375 274.984375 Z M 366.082031 274.988281 "/>
<path style="fill-rule:nonzero;fill:rgb(0%,0%,0%);fill-opacity:1;stroke-width:0.75;stroke-linecap:round;stroke-linejoin:round;stroke:rgb(74.509804%,74.509804%,74.509804%);stroke-opacity:1;stroke-miterlimit:10;" d="M 371.183594 272.171875 L 366.648438 260.015625 L 366.660156 260.011719 L 371.195312 272.164062 Z M 371.183594 272.171875 "/>
<path style="fill-rule:nonzero;fill:rgb(0%,0%,0%);fill-opacity:1;stroke-width:0.75;stroke-linecap:round;stroke-linejoin:round;stroke:rgb(74.509804%,74.509804%,74.509804%);stroke-opacity:1;stroke-miterlimit:10;" d="M 373.050781 271.125 L 368.660156 259.613281 L 368.671875 259.609375 L 373.0625 271.121094 Z M 373.050781 271.125 "/>
<path style="fill-rule:nonzero;fill:rgb(0%,0%,0%);fill-opacity:1;stroke-width:0.75;stroke-linecap:round;stroke-linejoin:round;stroke:rgb(74.509804%,74.509804%,74.509804%);stroke-opacity:1;stroke-miterlimit:10;" d="M 376.296875 269.238281 L 372.246094 258.839844 L 372.257812 258.835938 L 376.308594 269.234375 Z M 376.296875 269.238281 "/>
<path style="fill-rule:nonzero;fill:rgb(0%,0%,0%);fill-opacity:1;stroke-width:0.75;stroke-linecap:round;stroke-linejoin:round;stroke:rgb(74.509804%,74.509804%,74.509804%);stroke-opacity:1;stroke-miterlimit:10;" d="M 379.796875 267.167969 L 376.167969 258.015625 L 376.175781 258.011719 L 379.804688 267.164062 Z M 379.796875 267.167969 "/>
<path style="fill-rule:nonzero;fill:rgb(0%,0%,0%);fill-opacity:1;stroke-width:0.75;stroke-linecap:round;stroke-linejoin:round;stroke:rgb(74.509804%,74.509804%,74.509804%);stroke-opacity:1;stroke-miterlimit:10;" d="M 381.066406 266.402344 L 377.5625 257.710938 L 377.574219 257.707031 L 381.074219 266.398438 Z M 381.066406 266.402344 "/>
<path style="fill-rule:nonzero;fill:rgb(0%,0%,0%);fill-opacity:1;stroke-width:0.75;stroke-linecap:round;stroke-linejoin:round;stroke:rgb(74.509804%,74.509804%,74.509804%);stroke-opacity:1;stroke-miterlimit:10;" d="M 386.050781 263.332031 L 383.25 256.480469 L 383.257812 256.476562 L 386.054688 263.328125 Z M 386.050781 263.332031 "/>
<path style="fill-rule:nonzero;fill:rgb(0%,0%,0%);fill-opacity:1;stroke-width:0.75;stroke-linecap:round;stroke-linejoin:round;stroke:rgb(74.509804%,74.509804%,74.509804%);stroke-opacity:1;stroke-miterlimit:10;" d="M 389.464844 261.164062 L 387.164062 255.613281 L 387.171875 255.609375 L 389.46875 261.160156 Z M 389.464844 261.164062 "/>
<path style="fill-rule:nonzero;fill:rgb(0%,0%,0%);fill-opacity:1;stroke-width:0.75;stroke-linecap:round;stroke-linejoin:round;stroke:rgb(74.509804%,74.509804%,74.509804%);stroke-opacity:1;stroke-miterlimit:10;" d="M 391.539062 259.832031 L 389.550781 255.09375 L 389.554688 255.089844 L 391.542969 259.832031 Z M 391.539062 259.832031 "/>
<path style="fill-rule:nonzero;fill:rgb(0%,0%,0%);fill-opacity:1;stroke-width:0.75;stroke-linecap:round;stroke-linejoin:round;stroke:rgb(74.509804%,74.509804%,74.509804%);stroke-opacity:1;stroke-miterlimit:10;" d="M 393.03125 258.859375 L 391.273438 254.703125 L 391.277344 254.703125 L 393.035156 258.859375 Z M 393.03125 258.859375 "/>
<path style="fill-rule:nonzero;fill:rgb(0%,0%,0%);fill-opacity:1;stroke-width:0.75;stroke-linecap:round;stroke-linejoin:round;stroke:rgb(74.509804%,74.509804%,74.509804%);stroke-opacity:1;stroke-miterlimit:10;" d="M 396.027344 256.890625 L 394.761719 253.929688 L 394.761719 253.925781 L 396.03125 256.890625 Z M 396.027344 256.890625 "/>
<path style="fill-rule:nonzero;fill:rgb(0%,0%,0%);fill-opacity:1;stroke-width:0.75;stroke-linecap:round;stroke-linejoin:round;stroke:rgb(74.509804%,74.509804%,74.509804%);stroke-opacity:1;stroke-miterlimit:10;" d="M 398.578125 255.179688 L 397.746094 253.25 L 397.75 253.25 L 398.578125 255.175781 Z M 398.578125 255.179688 "/>
<path style="fill-rule:nonzero;fill:rgb(0%,0%,0%);fill-opacity:1;stroke-width:0.75;stroke-linecap:round;stroke-linejoin:round;stroke:rgb(74.509804%,74.509804%,74.509804%);stroke-opacity:1;stroke-miterlimit:10;" d="M 399.375 254.640625 L 398.679688 253.042969 Z M 399.375 254.640625 "/>
<path style="fill-rule:nonzero;fill:rgb(0%,0%,0%);fill-opacity:1;stroke-width:0.75;stroke-linecap:round;stroke-linejoin:round;stroke:rgb(74.509804%,74.509804%,74.509804%);stroke-opacity:1;stroke-miterlimit:10;" d="M 400.492188 253.878906 L 399.996094 252.738281 L 400.496094 253.875 Z M 400.492188 253.878906 "/>
<path style="fill-rule:nonzero;fill:rgb(0%,0%,0%);fill-opacity:1;stroke-width:0.75;stroke-linecap:round;stroke-linejoin:round;stroke:rgb(74.509804%,74.509804%,74.509804%);stroke-opacity:1;stroke-miterlimit:10;" d="M 401.566406 253.140625 L 401.261719 252.449219 Z M 401.566406 253.140625 "/>
<path style="fill-rule:nonzero;fill:rgb(0%,0%,0%);fill-opacity:1;stroke-width:0.75;stroke-linecap:round;stroke-linejoin:round;stroke:rgb(74.509804%,74.509804%,74.509804%);stroke-opacity:1;stroke-miterlimit:10;" d="M 402.738281 252.324219 L 402.652344 252.128906 Z M 402.738281 252.324219 "/>
<path style="fill-rule:nonzero;fill:rgb(0%,0%,0%);fill-opacity:1;stroke-width:0.75;stroke-linecap:round;stroke-linejoin:round;stroke:rgb(74.509804%,74.509804%,74.509804%);stroke-opacity:1;stroke-miterlimit:10;" d="M 403.15625 252.03125 L 403.148438 252.011719 Z M 403.15625 252.03125 "/>
<path style="fill:none;stroke-width:0.75;stroke-linecap:round;stroke-linejoin:round;stroke:rgb(74.509804%,74.509804%,74.509804%);stroke-opacity:1;stroke-miterlimit:10;" d="M 403.199219 252 Z M 403.199219 252 "/>
<path style="fill-rule:nonzero;fill:rgb(0%,0%,0%);fill-opacity:1;stroke-width:0.75;stroke-linecap:round;stroke-linejoin:round;stroke:rgb(0%,0%,0%);stroke-opacity:1;stroke-miterlimit:10;" d="M 402.652344 252.128906 L 401.261719 252.449219 L 399.996094 252.738281 L 398.679688 253.042969 L 397.75 253.25 L 394.761719 253.925781 L 391.277344 254.703125 L 389.554688 255.089844 L 387.171875 255.609375 L 383.257812 256.476562 L 377.574219 257.707031 L 376.175781 258.011719 L 372.257812 258.835938 L 368.671875 259.609375 L 366.660156 260.011719 L 361.082031 261.175781 L 354.480469 262.484375 L 353.691406 262.640625 L 347.953125 263.695312 L 346.691406 263.925781 L 341.035156 264.855469 L 340.207031 264.980469 L 334.304688 265.765625 L 329 266.269531 L 326.363281 266.375 L 324.253906 266.480469 L 320.011719 266.402344 L 318.996094 266.28125 L 316.183594 266.078125 L 312.632812 265.496094 L 311.539062 265.203125 L 309.214844 264.6875 L 305.714844 263.605469 L 303.617188 262.816406 L 302.25 262.246094 L 300.085938 261.382812 L 296.480469 259.714844 L 294.453125 258.664062 L 292.703125 257.785156 L 288.738281 255.605469 L 287.289062 254.746094 L 284.585938 253.183594 L 280.253906 250.539062 L 275.757812 247.699219 L 271.117188 244.703125 L 267.730469 242.488281 L 266.351562 241.589844 L 265.253906 240.867188 L 263.414062 239.667969 L 261.472656 238.421875 L 260.054688 237.546875 L 260.027344 237.53125 L 258.910156 236.871094 L 257.429688 236.015625 L 256.375 235.40625 L 255.324219 234.8125 L 252.488281 233.210938 L 251.214844 232.492188 L 248.5625 231.027344 L 246.035156 229.640625 L 243.433594 228.253906 L 240.859375 226.890625 L 236.984375 224.925781 L 235.699219 224.277344 L 230.5625 221.835938 L 228.765625 221.039062 L 225.449219 219.597656 L 220.351562 217.585938 L 218.980469 217.097656 L 215.25 215.839844 L 210.132812 214.367188 L 207.855469 213.839844 L 205 213.21875 L 200.511719 212.496094 L 195.007812 212.019531 L 189.378906 211.972656 L 183.675781 212.421875 L 177.890625 213.328125 L 171.980469 214.714844 L 168.722656 215.679688 L 165.894531 216.550781 L 160.636719 218.460938 L 159.582031 218.839844 L 153.019531 221.578125 L 146.21875 224.75 L 140.671875 227.570312 L 139.257812 228.296875 L 135.039062 230.589844 L 132.273438 232.121094 L 129.785156 233.546875 L 125.46875 236.070312 L 120.359375 239.179688 L 119.101562 239.949219 L 116.164062 241.800781 L 113.445312 243.53125 L 112.402344 244.207031 L 108.75 246.59375 L 106.402344 248.164062 L 105.179688 248.984375 L 104.238281 249.621094 L 102.769531 250.625 L 101.417969 251.5625 L 100.882812 251.941406 L 100.800781 252 L 100.898438 251.976562 L 101.535156 251.828125 L 103.136719 251.457031 L 104.871094 251.0625 L 105.972656 250.808594 L 107.402344 250.488281 L 110.144531 249.867188 L 114.394531 248.925781 L 115.585938 248.65625 L 118.710938 247.976562 L 122.0625 247.234375 L 123.46875 246.941406 L 129.25 245.683594 L 134.085938 244.667969 L 136.796875 244.082031 L 139.800781 243.480469 L 144.367188 242.527344 L 145.789062 242.269531 L 151.699219 241.097656 L 158.605469 239.855469 L 164.976562 238.84375 L 165.714844 238.777344 L 170.761719 238.109375 L 173.214844 237.917969 L 175.960938 237.664062 L 180.601562 237.523438 L 184.753906 237.632812 L 188.519531 238.023438 L 192.035156 238.636719 L 195.488281 239.515625 L 198.171875 240.375 L 200.144531 241.117188 L 201.582031 241.640625 L 205.085938 243.136719 L 207.988281 244.535156 L 208.746094 244.898438 L 212.585938 246.902344 L 215.277344 248.425781 L 216.613281 249.167969 L 220.824219 251.667969 L 221.746094 252.246094 L 225.214844 254.378906 L 227.4375 255.800781 L 229.757812 257.273438 L 232.007812 258.738281 L 234.445312 260.3125 L 235.558594 261.046875 L 238.285156 262.828125 L 239.246094 263.457031 L 240.214844 264.089844 L 241.648438 265.019531 L 242.746094 265.71875 L 242.773438 265.734375 L 244.207031 266.609375 L 246.207031 267.777344 L 248.117188 268.871094 L 249.328125 269.558594 L 250.832031 270.40625 L 254.496094 272.460938 L 259.675781 275.28125 L 264.847656 277.992188 L 270.003906 280.550781 L 273.175781 282.027344 L 275.128906 282.925781 L 280.238281 285.09375 L 282.585938 285.992188 L 285.332031 287.019531 L 290.4375 288.679688 L 293.402344 289.484375 L 295.496094 290.035156 L 299.113281 290.804688 L 304.507812 291.617188 L 307.898438 291.882812 L 310.074219 292.03125 L 315.71875 291.96875 L 319.523438 291.628906 L 321.433594 291.441406 L 327.238281 290.433594 L 330.03125 289.769531 L 333.179688 288.964844 L 339.308594 287.046875 L 345.664062 284.664062 L 346.777344 284.214844 L 352.277344 281.835938 L 353.683594 281.191406 L 359.113281 278.589844 L 360.007812 278.152344 L 366.09375 274.984375 L 371.195312 272.164062 L 373.0625 271.121094 L 376.308594 269.234375 L 379.804688 267.164062 L 381.074219 266.398438 L 386.054688 263.328125 L 389.46875 261.160156 L 391.542969 259.832031 L 393.035156 258.859375 L 396.03125 256.890625 L 398.578125 255.175781 L 399.375 254.640625 L 400.496094 253.875 L 401.566406 253.140625 L 402.738281 252.324219 L 403.15625 252.03125 L 403.199219 252 L 403.148438 252.011719 Z M 402.652344 252.128906 "/>
</g>
</svg>
