<?xml version="1.0" encoding="UTF-8"?>
<svg xmlns="http://www.w3.org/2000/svg" xmlns:xlink="http://www.w3.org/1999/xlink" width="504pt" height="504pt" viewBox="0 0 504 504" version="1.1">
<g id="surface113">
<rect x="0" y="0" width="504" height="504" style="fill:rgb(100%,100%,100%);fill-opacity:1;stroke:none;"/>
<path style=" stroke:none;fill-rule:nonzero;fill:rgb(0%,0%,0%);fill-opacity:1;" d="M 103.050781 252 C 103.050781 255 98.550781 255 98.550781 252 C 98.550781 249 103.050781 249 103.050781 252 "/>
<path style=" stroke:none;fill-rule:nonzero;fill:rgb(0%,0%,0%);fill-opacity:1;" d="M 203.851562 201.601562 C 203.851562 204.601562 199.351562 204.601562 199.351562 201.601562 C 199.351562 198.601562 203.851562 198.601562 203.851562 201.601562 "/>
<path style=" stroke:none;fill-rule:nonzero;fill:rgb(0%,0%,0%);fill-opacity:1;" d="M 304.648438 302.398438 C 304.648438 305.398438 300.148438 305.398438 300.148438 302.398438 C 300.148438 299.398438 304.648438 299.398438 304.648438 302.398438 "/>
<path style=" stroke:none;fill-rule:nonzero;fill:rgb(0%,0%,0%);fill-opacity:1;" d="M 405.449219 252 C 405.449219 255 400.949219 255 400.949219 252 C 400.949219 249 405.449219 249 405.449219 252 "/>
<path style="fill:none;stroke-width:0.75;stroke-linecap:round;stroke-linejoin:round;stroke:rgb(100%,0%,0%);stroke-opacity:1;stroke-miterlimit:10;" d="M 100.800781 252 L 100.800781 252 "/>
<path style="fill:none;stroke-width:0.75;stroke-linecap:round;stroke-linejoin:round;stroke:rgb(100%,0%,0%);stroke-opacity:1;stroke-miterlimit:10;" d="M 201.601562 201.601562 L 199.328125 215.589844 "/>
<path style="fill:none;stroke-width:0.75;stroke-linecap:round;stroke-linejoin:round;stroke:rgb(100%,0%,0%);stroke-opacity:1;stroke-miterlimit:10;" d="M 302.398438 302.398438 L 300.128906 316.390625 "/>
<path style="fill:none;stroke-width:0.75;stroke-linecap:round;stroke-linejoin:round;stroke:rgb(100%,0%,0%);stroke-opacity:1;stroke-miterlimit:10;" d="M 403.199219 252 L 403.199219 252 "/>
<path style=" stroke:none;fill-rule:nonzero;fill:rgb(100%,0%,0%);fill-opacity:1;" d="M 105.300781 252 C 105.300781 258 96.300781 258 96.300781 252 C 96.300781 246 105.300781 246 105.300781 252 "/>
<path style=" stroke:none;fill-rule:nonzero;fill:rgb(100%,0%,0%);fill-opacity:1;" d="M 203.828125 215.589844 C 203.828125 221.589844 194.828125 221.589844 194.828125 215.589844 C 194.828125 209.589844 203.828125 209.589844 203.828125 215.589844 "/>
<path style=" stroke:none;fill-rule:nonzero;fill:rgb(100%,0%,0%);fill-opacity:1;" d="M 304.628906 316.390625 C 304.628906 322.390625 295.628906 322.390625 295.628906 316.390625 C 295.628906 310.390625 304.628906 310.390625 304.628906 316.390625 "/>
<path style=" stroke:none;fill-rule:nonzero;fill:rgb(100%,0%,0%);fill-opacity:1;" d="M 407.699219 252 C 407.699219 258 398.699219 258 398.699219 252 C 398.699219 246 407.699219 246 407.699219 252 "/>
<path style="fill:none;stroke-width:0.75;stroke-linecap:round;stroke-linejoin:round;stroke:rgb(0%,0%,100%);stroke-opacity:1;stroke-miterlimit:10;" d="M 100.800781 252 L 100.800781 252 "/>
<path style="fill:none;stroke-width:0.75;stroke-linecap:round;stroke-linejoin:round;stroke:rgb(0%,0%,100%);stroke-opacity:1;stroke-miterlimit:10;" d="M 203.871094 187.609375 L 201.601562 201.601562 "/>
<path style="fill:none;stroke-width:0.75;stroke-linecap:round;stroke-linejoin:round;stroke:rgb(0%,0%,100%);stroke-opacity:1;stroke-miterlimit:10;" d="M 304.671875 288.410156 L 302.398438 302.398438 "/>
<path style="fill:none;stroke-width:0.75;stroke-linecap:round;stroke-linejoin:round;stroke:rgb(0%,0%,100%);stroke-opacity:1;stroke-miterlimit:10;" d="M 403.199219 252 L 403.199219 252 "/>
<path style=" stroke:none;fill-rule:nonzero;fill:rgb(0%,0%,100%);fill-opacity:1;" d="M 105.300781 252 C 105.300781 258 96.300781 258 96.300781 252 C 96.300781 246 105.300781 246 105.300781 252 "/>
<path style=" stroke:none;fill-rule:nonzero;fill:rgb(0%,0%,100%);fill-opacity:1;" d="M 208.371094 187.609375 C 208.371094 193.609375 199.371094 193.609375 199.371094 187.609375 C 199.371094 181.609375 208.371094 181.609375 208.371094 187.609375 "/>
<path style=" stroke:none;fill-rule:nonzero;fill:rgb(0%,0%,100%);fill-opacity:1;" d="M 309.171875 288.410156 C 309.171875 294.410156 300.171875 294.410156 300.171875 288.410156 C 300.171875 282.410156 309.171875 282.410156 309.171875 288.410156 "/>
<path style=" stroke:none;fill-rule:nonzero;fill:rgb(0%,0%,100%);fill-opacity:1;" d="M 407.699219 252 C 407.699219 258 398.699219 258 398.699219 252 C 398.699219 246 407.699219 246 407.699219 252 "/>
<path style="fill:none;stroke-width:0.75;stroke-linecap:round;stroke-linejoin:round;stroke:rgb(100%,0%,0%);stroke-opacity:1;stroke-miterlimit:10;" d="M 100.800781 252 L 100.828125 251.988281 L 101.023438 251.917969 L 101.578125 251.710938 L 102.667969 251.308594 L 104.4375 250.65625 L 106.96875 249.71875 L 110.3125 248.484375 L 114.527344 246.925781 L 117.222656 245.933594 L 119.785156 244.988281 L 122.628906 243.964844 L 125.773438 242.871094 L 129.234375 241.734375 L 133.015625 240.578125 L 137.101562 239.429688 L 141.476562 238.320312 L 146.109375 237.289062 L 150.960938 236.363281 L 155.980469 235.585938 L 161.113281 234.980469 L 166.3125 234.582031 L 171.53125 234.414062 L 176.722656 234.492188 L 181.863281 234.835938 L 186.929688 235.457031 L 191.929688 236.371094 L 196.871094 237.601562 L 199.707031 238.457031 L 203.933594 239.949219 L 208.203125 241.691406 L 212.542969 243.679688 L 216.980469 245.902344 L 221.519531 248.335938 L 226.167969 250.964844 L 230.921875 253.757812 L 235.765625 256.683594 L 240.6875 259.703125 L 245.660156 262.773438 L 250.660156 265.851562 L 255.664062 268.890625 L 260.640625 271.84375 L 265.5625 274.671875 L 270.414062 277.335938 L 275.179688 279.796875 L 279.847656 282.027344 L 284.414062 284.011719 L 288.886719 285.71875 L 293.28125 287.144531 L 297.621094 288.273438 L 300.507812 288.859375 L 305.359375 289.53125 L 310.257812 289.832031 L 315.222656 289.777344 L 320.269531 289.390625 L 325.390625 288.679688 L 330.5625 287.667969 L 335.761719 286.378906 L 340.941406 284.84375 L 346.058594 283.097656 L 351.070312 281.179688 L 355.917969 279.136719 L 360.5625 277.011719 L 364.964844 274.851562 L 369.09375 272.695312 L 372.929688 270.589844 L 376.457031 268.5625 L 379.683594 266.640625 L 382.617188 264.851562 L 385.269531 263.199219 L 386.023438 262.730469 L 390.667969 259.828125 L 394.457031 257.460938 L 397.480469 255.574219 L 399.78125 254.136719 L 401.398438 253.125 L 402.414062 252.488281 L 402.953125 252.15625 L 403.160156 252.023438 L 403.199219 252 "/>
<path style="fill:none;stroke-width:0.75;stroke-linecap:round;stroke-linejoin:round;stroke:rgb(0%,0%,100%);stroke-opacity:1;stroke-miterlimit:10;" d="M 100.800781 252 L 100.824219 251.984375 L 100.988281 251.882812 L 101.453125 251.59375 L 102.367188 251.019531 L 103.867188 250.082031 L 106.035156 248.730469 L 108.921875 246.925781 L 112.5625 244.652344 L 117.035156 241.855469 L 117.976562 241.269531 L 120.554688 239.664062 L 123.398438 237.914062 L 126.535156 236.03125 L 129.972656 234.03125 L 133.714844 231.945312 L 137.757812 229.800781 L 142.078125 227.640625 L 146.65625 225.5 L 151.449219 223.425781 L 156.414062 221.464844 L 161.503906 219.660156 L 166.671875 218.058594 L 171.867188 216.691406 L 177.050781 215.59375 L 182.191406 214.792969 L 187.261719 214.304688 L 192.25 214.148438 L 197.167969 214.339844 L 202.03125 214.898438 L 203.492188 215.140625 L 207.808594 216.066406 L 212.160156 217.292969 L 216.578125 218.8125 L 221.082031 220.617188 L 225.683594 222.679688 L 230.382812 224.992188 L 235.179688 227.523438 L 240.054688 230.246094 L 245 233.121094 L 249.988281 236.105469 L 254.992188 239.164062 L 259.988281 242.246094 L 264.945312 245.304688 L 269.84375 248.296875 L 274.660156 251.179688 L 279.378906 253.921875 L 283.992188 256.492188 L 288.496094 258.855469 L 292.898438 261.003906 L 297.214844 262.910156 L 301.464844 264.570312 L 304.292969 265.542969 L 309.214844 266.957031 L 314.175781 268.050781 L 319.203125 268.839844 L 324.304688 269.34375 L 329.46875 269.574219 L 334.675781 269.542969 L 339.890625 269.273438 L 345.070312 268.785156 L 350.160156 268.105469 L 355.113281 267.261719 L 359.878906 266.285156 L 364.40625 265.214844 L 368.664062 264.085938 L 372.621094 262.929688 L 376.265625 261.777344 L 379.59375 260.660156 L 382.609375 259.59375 L 385.332031 258.601562 L 386.777344 258.066406 L 391.523438 256.316406 L 395.324219 254.910156 L 398.289062 253.8125 L 400.464844 253.011719 L 401.90625 252.476562 L 402.730469 252.171875 L 403.097656 252.039062 L 403.195312 252 L 403.199219 252 "/>
</g>
</svg>
