<?xml version="1.0" encoding="UTF-8"?>
<svg xmlns="http://www.w3.org/2000/svg" xmlns:xlink="http://www.w3.org/1999/xlink" width="504pt" height="504pt" viewBox="0 0 504 504" version="1.1">
<g id="surface319">
<rect x="0" y="0" width="504" height="504" style="fill:rgb(89.803922%,89.803922%,89.803922%);fill-opacity:1;stroke:none;"/>
<path style="fill-rule:nonzero;fill:rgb(0%,0%,0%);fill-opacity:1;stroke-width:0.375;stroke-linecap:round;stroke-linejoin:round;stroke:rgb(0%,0%,0%);stroke-opacity:1;stroke-miterlimit:10;" d="M 348.957031 341.300781 L 357.75 340.316406 L 358.441406 340.214844 L 366.699219 338.347656 L 367.386719 338.167969 L 375.125 335.542969 L 375.804688 335.292969 L 383.058594 332.027344 L 383.722656 331.707031 L 390.542969 327.898438 L 391.191406 327.523438 L 397.628906 323.257812 L 398.257812 322.828125 L 404.359375 318.1875 L 404.972656 317.710938 L 410.769531 312.769531 L 411.371094 312.257812 L 417.472656 306.542969 L 423.285156 300.664062 L 428.796875 294.722656 L 433.976562 288.828125 L 438.789062 283.109375 L 443.175781 277.695312 L 447.089844 272.714844 L 450.480469 268.285156 L 453.3125 264.503906 L 455.566406 261.429688 L 457.257812 259.089844 L 458.425781 257.449219 L 459.136719 256.4375 L 459.488281 255.933594 L 459.597656 255.773438 L 459.613281 255.75 L 460.03125 254.976562 L 460.042969 254.949219 L 460.367188 254.101562 L 460.582031 253.21875 L 460.679688 252.316406 L 460.660156 251.40625 L 460.527344 250.507812 L 460.28125 249.636719 L 459.921875 248.800781 L 459.460938 248.019531 L 458.90625 247.300781 L 458.261719 246.660156 L 457.539062 246.109375 L 456.753906 245.652344 L 455.917969 245.304688 L 455.042969 245.0625 L 454.140625 244.933594 L 453.234375 244.921875 L 452.332031 245.027344 L 451.449219 245.246094 L 450.605469 245.578125 L 449.808594 246.011719 L 449.074219 246.546875 L 448.414062 247.171875 L 447.847656 247.863281 L 447.839844 247.875 L 447.800781 247.9375 L 447.765625 247.988281 L 447.460938 248.453125 L 446.816406 249.421875 L 445.738281 251.019531 L 444.160156 253.320312 L 442.050781 256.351562 L 439.394531 260.09375 L 436.214844 264.480469 L 432.539062 269.40625 L 428.425781 274.753906 L 423.925781 280.386719 L 419.097656 286.167969 L 413.988281 291.964844 L 408.613281 297.679688 L 402.992188 303.214844 L 397.160156 308.441406 L 391.109375 313.289062 L 384.816406 317.6875 L 378.242188 321.582031 L 371.332031 324.902344 L 364.03125 327.585938 L 356.28125 329.546875 L 348.03125 330.679688 L 339.277344 330.867188 L 330.074219 329.972656 L 320.550781 327.871094 L 315.671875 326.3125 L 307.140625 322.808594 L 299.070312 318.582031 L 291.625 313.796875 L 284.949219 308.625 L 279.105469 303.207031 L 274.097656 297.652344 L 269.898438 292.035156 L 266.429688 286.40625 L 263.617188 280.789062 L 261.355469 275.1875 L 259.542969 269.605469 L 258.078125 264.039062 L 256.847656 258.40625 L 255.734375 252.703125 L 254.640625 246.9375 L 253.441406 241.097656 L 252.019531 235.167969 L 251.902344 234.757812 L 250.253906 229.15625 L 250.117188 228.761719 L 248.027344 223.066406 L 247.863281 222.691406 L 245.226562 216.914062 L 245.039062 216.566406 L 241.753906 210.734375 L 241.542969 210.414062 L 237.519531 204.570312 L 237.289062 204.277344 L 232.460938 198.476562 L 232.296875 198.304688 L 232.210938 198.214844 L 226.53125 192.527344 L 226.269531 192.296875 L 219.730469 186.820312 L 219.460938 186.625 L 212.089844 181.484375 L 211.816406 181.320312 L 203.714844 176.667969 L 203.441406 176.53125 L 194.761719 172.550781 L 194.492188 172.445312 L 185.519531 169.351562 L 185.257812 169.277344 L 179.660156 167.878906 L 179.398438 167.835938 L 169.503906 166.332031 L 169.257812 166.316406 L 159.699219 166.019531 L 159.46875 166.027344 L 150.410156 166.808594 L 150.195312 166.84375 L 141.671875 168.558594 L 141.476562 168.613281 L 133.476562 171.144531 L 133.300781 171.210938 L 125.785156 174.445312 L 125.628906 174.523438 L 118.546875 178.363281 L 118.40625 178.449219 L 111.699219 182.816406 L 111.578125 182.902344 L 105.199219 187.722656 L 105.140625 187.769531 L 105.09375 187.808594 L 99 193.007812 L 98.910156 193.089844 L 93.078125 198.59375 L 93.003906 198.675781 L 87.425781 204.402344 L 82.042969 210.328125 L 76.957031 216.269531 L 72.199219 222.097656 L 67.824219 227.6875 L 63.878906 232.902344 L 60.417969 237.609375 L 57.476562 241.707031 L 55.085938 245.109375 L 53.242188 247.78125 L 51.917969 249.722656 L 51.070312 250.988281 L 50.605469 251.683594 L 50.425781 251.957031 L 50.398438 252 L 50.429688 251.960938 L 50.613281 251.691406 L 51.09375 251.007812 L 51.976562 249.761719 L 53.34375 247.855469 L 55.253906 245.234375 L 57.730469 241.894531 L 60.769531 237.875 L 64.347656 233.261719 L 68.417969 228.15625 L 72.921875 222.691406 L 77.808594 217 L 83.023438 211.214844 L 88.519531 205.457031 L 94.273438 199.84375 L 100.261719 194.46875 L 106.496094 189.417969 L 112.992188 184.765625 L 119.785156 180.589844 L 126.910156 176.957031 L 134.417969 173.949219 L 142.363281 171.65625 L 150.777344 170.183594 L 159.671875 169.644531 L 169.019531 170.171875 L 178.738281 171.894531 L 184.167969 173.398438 L 192.949219 176.679688 L 201.40625 180.824219 L 209.292969 185.617188 L 216.433594 190.871094 L 222.734375 196.425781 L 228.171875 202.152344 L 232.757812 207.957031 L 236.550781 213.769531 L 239.625 219.5625 L 242.078125 225.316406 L 244.015625 231.039062 L 245.542969 236.757812 L 246.769531 242.5 L 247.789062 248.207031 L 248.734375 253.960938 L 249.714844 259.785156 L 250.765625 265.234375 L 250.855469 265.699219 L 252.164062 271.246094 L 252.277344 271.71875 L 253.953125 277.367188 L 254.101562 277.839844 L 256.257812 283.59375 L 256.445312 284.0625 L 259.1875 289.898438 L 259.417969 290.359375 L 262.84375 296.253906 L 263.117188 296.699219 L 267.304688 302.601562 L 267.628906 303.03125 L 272.636719 308.878906 L 273.003906 309.289062 L 278.863281 315.003906 L 279.277344 315.386719 L 285.984375 320.859375 L 286.445312 321.214844 L 293.945312 326.308594 L 294.40625 326.605469 L 294.445312 326.628906 L 302.628906 331.1875 L 303.171875 331.46875 L 311.765625 335.246094 L 312.339844 335.496094 L 317.460938 337.277344 L 318.070312 337.460938 L 327.925781 339.90625 L 328.5625 340.035156 L 338.304688 341.230469 L 338.917969 341.285156 L 338.96875 341.289062 L 348.277344 341.324219 Z M 348.957031 341.300781 "/>
<path style="fill-rule:nonzero;fill:rgb(0%,0%,0%);fill-opacity:1;stroke-width:0.75;stroke-linecap:round;stroke-linejoin:round;stroke:rgb(0%,0%,0%);stroke-opacity:1;stroke-miterlimit:10;" d="M 83.609375 208.605469 L 83.453125 208.4375 L 82.597656 207.503906 L 80.996094 205.765625 L 79.128906 203.761719 L 77.410156 201.953125 L 75.949219 200.460938 L 74.65625 199.210938 L 73.824219 198.4375 L 72.542969 197.308594 L 71.105469 196.105469 L 69.367188 194.71875 L 67.289062 193.101562 L 65.113281 191.4375 L 63.425781 190.15625 L 62.691406 189.601562 L 62.621094 189.550781 L 62.726562 189.601562 L 63.632812 190.039062 L 65.597656 191 L 68.085938 192.226562 L 70.449219 193.417969 L 72.433594 194.449219 L 74.09375 195.351562 L 75.582031 196.21875 L 76.675781 196.886719 L 78.210938 197.878906 L 79.972656 199.078125 L 82.050781 200.535156 L 84.300781 202.148438 L 86.21875 203.535156 L 87.238281 204.273438 L 87.417969 204.40625 Z M 83.609375 208.605469 "/>
<path style="fill-rule:nonzero;fill:rgb(0%,0%,0%);fill-opacity:1;stroke-width:0.75;stroke-linecap:round;stroke-linejoin:round;stroke:rgb(0%,0%,0%);stroke-opacity:1;stroke-miterlimit:10;" d="M 91.367188 200.210938 L 91.226562 200.03125 L 90.445312 199.035156 L 88.984375 197.179688 L 87.277344 195.039062 L 85.699219 193.101562 L 84.359375 191.503906 L 83.167969 190.152344 L 82.394531 189.320312 L 81.207031 188.097656 L 79.863281 186.789062 L 78.238281 185.269531 L 76.289062 183.496094 L 74.25 181.671875 L 72.667969 180.265625 L 71.976562 179.65625 L 71.910156 179.597656 L 72.011719 179.65625 L 72.878906 180.164062 L 74.769531 181.273438 L 77.152344 182.6875 L 79.417969 184.054688 L 81.316406 185.234375 L 82.902344 186.265625 L 84.320312 187.246094 L 85.355469 187.996094 L 86.8125 189.101562 L 88.476562 190.433594 L 90.433594 192.046875 L 92.554688 193.824219 L 94.359375 195.355469 L 95.320312 196.171875 L 95.492188 196.320312 Z M 91.367188 200.210938 "/>
<path style="fill-rule:nonzero;fill:rgb(0%,0%,0%);fill-opacity:1;stroke-width:0.75;stroke-linecap:round;stroke-linejoin:round;stroke:rgb(0%,0%,0%);stroke-opacity:1;stroke-miterlimit:10;" d="M 99.710938 192.402344 L 99.582031 192.214844 L 98.851562 191.179688 L 97.484375 189.253906 L 95.882812 187.027344 L 94.410156 185.015625 L 93.148438 183.351562 L 92.027344 181.945312 L 91.296875 181.074219 L 90.171875 179.789062 L 88.894531 178.417969 L 87.347656 176.816406 L 85.492188 174.949219 L 83.546875 173.023438 L 82.035156 171.539062 L 81.378906 170.898438 L 81.3125 170.835938 L 81.410156 170.898438 L 82.253906 171.449219 L 84.082031 172.652344 L 86.394531 174.1875 L 88.589844 175.664062 L 90.425781 176.941406 L 91.957031 178.046875 L 93.324219 179.097656 L 94.320312 179.898438 L 95.71875 181.078125 L 97.3125 182.488281 L 99.1875 184.199219 L 101.21875 186.082031 L 102.945312 187.703125 L 103.859375 188.566406 L 104.023438 188.722656 Z M 99.710938 192.402344 "/>
<path style="fill-rule:nonzero;fill:rgb(0%,0%,0%);fill-opacity:1;stroke-width:0.75;stroke-linecap:round;stroke-linejoin:round;stroke:rgb(0%,0%,0%);stroke-opacity:1;stroke-miterlimit:10;" d="M 108.5625 185.179688 L 108.445312 184.988281 L 107.777344 183.910156 L 106.527344 181.90625 L 105.0625 179.589844 L 103.710938 177.492188 L 102.550781 175.753906 L 101.515625 174.285156 L 100.839844 173.371094 L 99.792969 172.023438 L 98.601562 170.578125 L 97.152344 168.886719 L 95.410156 166.914062 L 93.582031 164.875 L 92.164062 163.304688 L 91.542969 162.621094 L 91.484375 162.558594 L 91.578125 162.625 L 92.382812 163.226562 L 94.140625 164.535156 L 96.355469 166.203125 L 98.457031 167.8125 L 100.214844 169.195312 L 101.675781 170.390625 L 102.980469 171.519531 L 103.929688 172.378906 L 105.253906 173.640625 L 106.761719 175.144531 L 108.53125 176.960938 L 110.445312 178.964844 L 112.070312 180.679688 L 112.933594 181.601562 L 113.089844 181.765625 Z M 108.5625 185.179688 "/>
<path style="fill-rule:nonzero;fill:rgb(0%,0%,0%);fill-opacity:1;stroke-width:0.75;stroke-linecap:round;stroke-linejoin:round;stroke:rgb(0%,0%,0%);stroke-opacity:1;stroke-miterlimit:10;" d="M 117.960938 178.679688 L 117.871094 178.472656 L 117.375 177.308594 L 116.4375 175.140625 L 115.335938 172.628906 L 114.3125 170.351562 L 113.425781 168.460938 L 112.621094 166.855469 L 112.085938 165.851562 L 111.253906 164.359375 L 110.292969 162.75 L 109.113281 160.867188 L 107.683594 158.652344 L 106.183594 156.363281 L 105.011719 154.597656 L 104.503906 153.832031 L 104.453125 153.757812 L 104.535156 153.839844 L 105.246094 154.554688 L 106.785156 156.113281 L 108.726562 158.09375 L 110.5625 159.996094 L 112.097656 161.625 L 113.363281 163.027344 L 114.480469 164.339844 L 115.289062 165.328125 L 116.414062 166.773438 L 117.679688 168.484375 L 119.15625 170.550781 L 120.75 172.8125 L 122.101562 174.757812 L 122.820312 175.792969 L 122.945312 175.980469 Z M 117.960938 178.679688 "/>
<path style="fill-rule:nonzero;fill:rgb(0%,0%,0%);fill-opacity:1;stroke-width:0.75;stroke-linecap:round;stroke-linejoin:round;stroke:rgb(0%,0%,0%);stroke-opacity:1;stroke-miterlimit:10;" d="M 128.113281 173.445312 L 128.042969 173.226562 L 127.652344 172.023438 L 126.914062 169.78125 L 126.042969 167.179688 L 125.230469 164.820312 L 124.515625 162.859375 L 123.863281 161.183594 L 123.421875 160.136719 L 122.726562 158.578125 L 121.914062 156.886719 L 120.910156 154.902344 L 119.6875 152.570312 L 118.398438 150.152344 L 117.394531 148.289062 L 116.957031 147.480469 L 116.914062 147.402344 L 116.988281 147.492188 L 117.628906 148.265625 L 119.023438 149.957031 L 120.777344 152.105469 L 122.433594 154.167969 L 123.8125 155.929688 L 124.945312 157.441406 L 125.945312 158.847656 L 126.660156 159.90625 L 127.644531 161.445312 L 128.753906 163.265625 L 130.039062 165.457031 L 131.417969 167.855469 L 132.589844 169.910156 L 133.210938 171.007812 L 133.320312 171.203125 Z M 128.113281 173.445312 "/>
<path style="fill-rule:nonzero;fill:rgb(0%,0%,0%);fill-opacity:1;stroke-width:0.75;stroke-linecap:round;stroke-linejoin:round;stroke:rgb(0%,0%,0%);stroke-opacity:1;stroke-miterlimit:10;" d="M 138.78125 169.363281 L 138.742188 169.140625 L 138.515625 167.894531 L 138.085938 165.570312 L 137.574219 162.878906 L 137.085938 160.429688 L 136.644531 158.390625 L 136.21875 156.640625 L 135.925781 155.542969 L 135.445312 153.90625 L 134.871094 152.121094 L 134.140625 150.019531 L 133.242188 147.546875 L 132.292969 144.976562 L 131.546875 142.996094 L 131.222656 142.132812 L 131.191406 142.050781 L 131.25 142.148438 L 131.78125 143.003906 L 132.9375 144.867188 L 134.386719 147.230469 L 135.75 149.5 L 136.878906 151.429688 L 137.796875 153.078125 L 138.597656 154.605469 L 139.164062 155.753906 L 139.933594 157.414062 L 140.785156 159.363281 L 141.765625 161.707031 L 142.808594 164.269531 L 143.691406 166.464844 L 144.160156 167.636719 L 144.242188 167.84375 Z M 138.78125 169.363281 "/>
<path style="fill-rule:nonzero;fill:rgb(0%,0%,0%);fill-opacity:1;stroke-width:0.75;stroke-linecap:round;stroke-linejoin:round;stroke:rgb(0%,0%,0%);stroke-opacity:1;stroke-miterlimit:10;" d="M 149.929688 166.847656 L 149.929688 166.621094 L 149.9375 165.355469 L 149.945312 162.992188 L 149.9375 160.253906 L 149.910156 157.757812 L 149.851562 155.667969 L 149.753906 153.875 L 149.667969 152.742188 L 149.5 151.042969 L 149.261719 149.183594 L 148.929688 146.980469 L 148.507812 144.382812 L 148.042969 141.683594 L 147.679688 139.601562 L 147.515625 138.695312 L 147.5 138.605469 L 147.542969 138.714844 L 147.90625 139.652344 L 148.695312 141.695312 L 149.6875 144.285156 L 150.609375 146.765625 L 151.363281 148.871094 L 151.964844 150.664062 L 152.46875 152.3125 L 152.8125 153.542969 L 153.265625 155.316406 L 153.742188 157.390625 L 154.273438 159.875 L 154.828125 162.585938 L 155.289062 164.90625 L 155.535156 166.144531 L 155.578125 166.363281 Z M 149.929688 166.847656 "/>
<path style="fill-rule:nonzero;fill:rgb(0%,0%,0%);fill-opacity:1;stroke-width:0.75;stroke-linecap:round;stroke-linejoin:round;stroke:rgb(0%,0%,0%);stroke-opacity:1;stroke-miterlimit:10;" d="M 161.320312 166.070312 L 161.347656 165.84375 L 161.503906 164.585938 L 161.785156 162.242188 L 162.097656 159.519531 L 162.359375 157.035156 L 162.546875 154.957031 L 162.660156 153.160156 L 162.707031 152.027344 L 162.734375 150.320312 L 162.714844 148.445312 L 162.644531 146.222656 L 162.527344 143.589844 L 162.382812 140.855469 L 162.261719 138.742188 L 162.207031 137.824219 L 162.199219 137.734375 L 162.230469 137.847656 L 162.484375 138.820312 L 163.027344 140.941406 L 163.707031 143.632812 L 164.335938 146.203125 L 164.839844 148.382812 L 165.226562 150.230469 L 165.535156 151.925781 L 165.734375 153.191406 L 165.976562 155.003906 L 166.210938 157.121094 L 166.449219 159.648438 L 166.683594 162.40625 L 166.875 164.761719 L 166.96875 166.019531 L 166.988281 166.246094 Z M 161.320312 166.070312 "/>
<path style="fill-rule:nonzero;fill:rgb(0%,0%,0%);fill-opacity:1;stroke-width:0.75;stroke-linecap:round;stroke-linejoin:round;stroke:rgb(0%,0%,0%);stroke-opacity:1;stroke-miterlimit:10;" d="M 172.707031 166.820312 L 172.765625 166.597656 L 173.066406 165.371094 L 173.628906 163.074219 L 174.261719 160.410156 L 174.820312 157.976562 L 175.25 155.933594 L 175.578125 154.164062 L 175.757812 153.042969 L 175.992188 151.351562 L 176.195312 149.488281 L 176.390625 147.269531 L 176.585938 144.644531 L 176.769531 141.914062 L 176.902344 139.800781 L 176.957031 138.882812 L 176.960938 138.792969 L 176.976562 138.910156 L 177.113281 139.90625 L 177.402344 142.078125 L 177.753906 144.828125 L 178.074219 147.453125 L 178.3125 149.679688 L 178.476562 151.558594 L 178.582031 153.28125 L 178.628906 154.558594 L 178.652344 156.386719 L 178.628906 158.515625 L 178.566406 161.054688 L 178.46875 163.820312 L 178.378906 166.183594 L 178.324219 167.445312 L 178.3125 167.667969 Z M 172.707031 166.820312 "/>
<path style="fill-rule:nonzero;fill:rgb(0%,0%,0%);fill-opacity:1;stroke-width:0.75;stroke-linecap:round;stroke-linejoin:round;stroke:rgb(0%,0%,0%);stroke-opacity:1;stroke-miterlimit:10;" d="M 183.964844 168.816406 L 184.058594 168.609375 L 184.582031 167.453125 L 185.546875 165.296875 L 186.652344 162.789062 L 187.636719 160.496094 L 188.433594 158.566406 L 189.074219 156.886719 L 189.453125 155.816406 L 189.988281 154.195312 L 190.527344 152.398438 L 191.117188 150.253906 L 191.785156 147.707031 L 192.457031 145.054688 L 192.96875 143 L 193.1875 142.105469 L 193.210938 142.019531 L 193.203125 142.132812 L 193.15625 143.140625 L 193.050781 145.328125 L 192.902344 148.097656 L 192.742188 150.738281 L 192.574219 152.96875 L 192.394531 154.847656 L 192.1875 156.558594 L 192.003906 157.824219 L 191.695312 159.628906 L 191.289062 161.71875 L 190.765625 164.203125 L 190.171875 166.90625 L 189.65625 169.214844 L 189.375 170.445312 L 189.324219 170.664062 Z M 183.964844 168.816406 "/>
<path style="fill-rule:nonzero;fill:rgb(0%,0%,0%);fill-opacity:1;stroke-width:0.75;stroke-linecap:round;stroke-linejoin:round;stroke:rgb(0%,0%,0%);stroke-opacity:1;stroke-miterlimit:10;" d="M 194.765625 172.550781 L 194.878906 172.355469 L 195.511719 171.257812 L 196.683594 169.207031 L 198.03125 166.820312 L 199.234375 164.632812 L 200.214844 162.789062 L 201.019531 161.179688 L 201.503906 160.152344 L 202.191406 158.589844 L 202.902344 156.855469 L 203.703125 154.78125 L 204.613281 152.308594 L 205.542969 149.734375 L 206.253906 147.742188 L 206.5625 146.871094 L 206.589844 146.789062 L 206.574219 146.902344 L 206.429688 147.898438 L 206.105469 150.066406 L 205.6875 152.808594 L 205.269531 155.417969 L 204.886719 157.625 L 204.523438 159.476562 L 204.148438 161.160156 L 203.839844 162.402344 L 203.359375 164.164062 L 202.75 166.207031 L 201.988281 168.628906 L 201.132812 171.261719 L 200.390625 173.507812 L 199.992188 174.703125 L 199.917969 174.917969 Z M 194.765625 172.550781 "/>
<path style="fill-rule:nonzero;fill:rgb(0%,0%,0%);fill-opacity:1;stroke-width:0.75;stroke-linecap:round;stroke-linejoin:round;stroke:rgb(0%,0%,0%);stroke-opacity:1;stroke-miterlimit:10;" d="M 205.085938 177.453125 L 205.214844 177.269531 L 205.945312 176.230469 L 207.296875 174.296875 L 208.855469 172.039062 L 210.253906 169.972656 L 211.394531 168.226562 L 212.34375 166.695312 L 212.917969 165.714844 L 213.746094 164.222656 L 214.613281 162.5625 L 215.597656 160.566406 L 216.730469 158.1875 L 217.886719 155.707031 L 218.777344 153.785156 L 219.160156 152.949219 L 219.195312 152.871094 L 219.171875 152.980469 L 218.933594 153.960938 L 218.417969 156.089844 L 217.753906 158.78125 L 217.097656 161.34375 L 216.515625 163.503906 L 215.988281 165.316406 L 215.460938 166.960938 L 215.042969 168.167969 L 214.402344 169.882812 L 213.609375 171.859375 L 212.632812 174.199219 L 211.542969 176.746094 L 210.597656 178.914062 L 210.09375 180.070312 L 210 180.277344 Z M 205.085938 177.453125 "/>
<path style="fill-rule:nonzero;fill:rgb(0%,0%,0%);fill-opacity:1;stroke-width:0.75;stroke-linecap:round;stroke-linejoin:round;stroke:rgb(0%,0%,0%);stroke-opacity:1;stroke-miterlimit:10;" d="M 214.835938 183.398438 L 214.980469 183.226562 L 215.800781 182.257812 L 217.316406 180.445312 L 219.066406 178.339844 L 220.640625 176.402344 L 221.933594 174.761719 L 223.011719 173.320312 L 223.667969 172.394531 L 224.625 170.980469 L 225.632812 169.402344 L 226.789062 167.5 L 228.128906 165.234375 L 229.5 162.863281 L 230.554688 161.027344 L 231.011719 160.226562 L 231.054688 160.148438 L 231.015625 160.261719 L 230.699219 161.214844 L 229.996094 163.289062 L 229.09375 165.914062 L 228.21875 168.410156 L 227.449219 170.507812 L 226.761719 172.269531 L 226.09375 173.855469 L 225.570312 175.023438 L 224.78125 176.675781 L 223.820312 178.574219 L 222.640625 180.820312 L 221.328125 183.261719 L 220.199219 185.339844 L 219.59375 186.445312 L 219.484375 186.640625 Z M 214.835938 183.398438 "/>
<path style="fill-rule:nonzero;fill:rgb(0%,0%,0%);fill-opacity:1;stroke-width:0.75;stroke-linecap:round;stroke-linejoin:round;stroke:rgb(0%,0%,0%);stroke-opacity:1;stroke-miterlimit:10;" d="M 223.914062 190.324219 L 224.074219 190.164062 L 224.972656 189.273438 L 226.644531 187.601562 L 228.570312 185.65625 L 230.3125 183.863281 L 231.742188 182.34375 L 232.941406 181.003906 L 233.679688 180.136719 L 234.757812 178.816406 L 235.898438 177.328125 L 237.21875 175.535156 L 238.746094 173.394531 L 240.324219 171.15625 L 241.535156 169.417969 L 242.058594 168.660156 L 242.109375 168.589844 L 242.0625 168.695312 L 241.660156 169.617188 L 240.78125 171.621094 L 239.652344 174.15625 L 238.558594 176.566406 L 237.609375 178.589844 L 236.773438 180.285156 L 235.964844 181.808594 L 235.34375 182.925781 L 234.410156 184.5 L 233.285156 186.308594 L 231.914062 188.441406 L 230.394531 190.757812 L 229.085938 192.726562 L 228.386719 193.777344 L 228.261719 193.964844 Z M 223.914062 190.324219 "/>
<path style="fill-rule:nonzero;fill:rgb(0%,0%,0%);fill-opacity:1;stroke-width:0.75;stroke-linecap:round;stroke-linejoin:round;stroke:rgb(0%,0%,0%);stroke-opacity:1;stroke-miterlimit:10;" d="M 232.210938 198.175781 L 232.398438 198.046875 L 233.441406 197.328125 L 235.382812 195.984375 L 237.628906 194.414062 L 239.660156 192.964844 L 241.339844 191.722656 L 242.757812 190.617188 L 243.640625 189.898438 L 244.9375 188.789062 L 246.324219 187.53125 L 247.941406 186.003906 L 249.832031 184.171875 L 251.78125 182.25 L 253.285156 180.753906 L 253.996094 180.042969 L 253.933594 180.140625 L 253.371094 180.972656 L 252.148438 182.789062 L 250.585938 185.082031 L 249.078125 187.257812 L 247.78125 189.078125 L 246.65625 190.59375 L 245.589844 191.949219 L 244.777344 192.9375 L 243.582031 194.320312 L 242.148438 195.898438 L 240.417969 197.753906 L 238.507812 199.757812 L 236.871094 201.464844 L 235.992188 202.371094 L 235.835938 202.53125 Z M 232.210938 198.175781 "/>
<path style="fill-rule:nonzero;fill:rgb(0%,0%,0%);fill-opacity:1;stroke-width:0.75;stroke-linecap:round;stroke-linejoin:round;stroke:rgb(0%,0%,0%);stroke-opacity:1;stroke-miterlimit:10;" d="M 239.289062 207.136719 L 239.484375 207.027344 L 240.589844 206.40625 L 242.648438 205.246094 L 245.027344 203.886719 L 247.179688 202.625 L 248.964844 201.542969 L 250.480469 200.570312 L 251.421875 199.9375 L 252.816406 198.949219 L 254.3125 197.824219 L 256.0625 196.449219 L 258.109375 194.792969 L 260.226562 193.058594 L 261.859375 191.707031 L 262.566406 191.121094 L 262.636719 191.0625 L 262.5625 191.152344 L 261.929688 191.933594 L 260.542969 193.628906 L 258.777344 195.769531 L 257.082031 197.800781 L 255.625 199.496094 L 254.363281 200.902344 L 253.179688 202.15625 L 252.277344 203.066406 L 250.960938 204.335938 L 249.394531 205.773438 L 247.5 207.464844 L 245.417969 209.289062 L 243.628906 210.835938 L 242.671875 211.660156 L 242.503906 211.808594 Z M 239.289062 207.136719 "/>
<path style="fill-rule:nonzero;fill:rgb(0%,0%,0%);fill-opacity:1;stroke-width:0.75;stroke-linecap:round;stroke-linejoin:round;stroke:rgb(0%,0%,0%);stroke-opacity:1;stroke-miterlimit:10;" d="M 245.21875 216.894531 L 245.433594 216.820312 L 246.628906 216.402344 L 248.855469 215.617188 L 251.433594 214.6875 L 253.777344 213.824219 L 255.722656 213.066406 L 257.382812 212.375 L 258.421875 211.910156 L 259.964844 211.179688 L 261.632812 210.332031 L 263.597656 209.285156 L 265.902344 208.011719 L 268.289062 206.667969 L 270.128906 205.625 L 270.929688 205.167969 L 271.003906 205.121094 L 270.917969 205.199219 L 270.15625 205.855469 L 268.496094 207.285156 L 266.386719 209.089844 L 264.363281 210.792969 L 262.632812 212.210938 L 261.148438 213.375 L 259.765625 214.402344 L 258.71875 215.144531 L 257.203125 216.164062 L 255.40625 217.308594 L 253.25 218.644531 L 250.878906 220.078125 L 248.851562 221.292969 L 247.765625 221.9375 L 247.574219 222.050781 Z M 245.21875 216.894531 "/>
<path style="fill-rule:nonzero;fill:rgb(0%,0%,0%);fill-opacity:1;stroke-width:0.75;stroke-linecap:round;stroke-linejoin:round;stroke:rgb(0%,0%,0%);stroke-opacity:1;stroke-miterlimit:10;" d="M 249.738281 227.394531 L 249.960938 227.351562 L 251.203125 227.105469 L 253.519531 226.644531 L 256.203125 226.09375 L 258.644531 225.570312 L 260.675781 225.097656 L 262.417969 224.644531 L 263.511719 224.335938 L 265.144531 223.832031 L 266.917969 223.230469 L 269.007812 222.46875 L 271.46875 221.535156 L 274.023438 220.546875 L 275.996094 219.773438 L 276.851562 219.433594 L 276.933594 219.402344 L 276.835938 219.464844 L 275.988281 220.007812 L 274.144531 221.1875 L 271.800781 222.671875 L 269.554688 224.070312 L 267.640625 225.230469 L 266.003906 226.171875 L 264.488281 226.992188 L 263.351562 227.578125 L 261.703125 228.371094 L 259.765625 229.25 L 257.4375 230.265625 L 254.890625 231.347656 L 252.707031 232.265625 L 251.542969 232.75 L 251.335938 232.835938 Z M 249.738281 227.394531 "/>
<path style="fill-rule:nonzero;fill:rgb(0%,0%,0%);fill-opacity:1;stroke-width:0.75;stroke-linecap:round;stroke-linejoin:round;stroke:rgb(0%,0%,0%);stroke-opacity:1;stroke-miterlimit:10;" d="M 252.886719 238.382812 L 253.109375 238.359375 L 254.371094 238.21875 L 256.714844 237.953125 L 259.4375 237.625 L 261.914062 237.308594 L 263.980469 237.007812 L 265.753906 236.703125 L 266.867188 236.484375 L 268.535156 236.117188 L 270.355469 235.667969 L 272.5 235.082031 L 275.03125 234.359375 L 277.660156 233.585938 L 279.6875 232.980469 L 280.570312 232.714844 L 280.652344 232.6875 L 280.550781 232.742188 L 279.664062 233.214844 L 277.726562 234.234375 L 275.265625 235.519531 L 272.910156 236.726562 L 270.90625 237.71875 L 269.199219 238.523438 L 267.621094 239.214844 L 266.4375 239.703125 L 264.726562 240.355469 L 262.722656 241.070312 L 260.320312 241.886719 L 257.691406 242.753906 L 255.4375 243.484375 L 254.238281 243.871094 L 254.023438 243.9375 Z M 252.886719 238.382812 "/>
<path style="fill-rule:nonzero;fill:rgb(0%,0%,0%);fill-opacity:1;stroke-width:0.75;stroke-linecap:round;stroke-linejoin:round;stroke:rgb(0%,0%,0%);stroke-opacity:1;stroke-miterlimit:10;" d="M 255.144531 249.585938 L 255.371094 249.566406 L 256.628906 249.445312 L 258.980469 249.210938 L 261.707031 248.925781 L 264.1875 248.644531 L 266.257812 248.371094 L 268.035156 248.09375 L 269.152344 247.894531 L 270.824219 247.550781 L 272.648438 247.125 L 274.804688 246.574219 L 277.347656 245.886719 L 279.984375 245.152344 L 282.019531 244.574219 L 282.90625 244.320312 L 282.992188 244.296875 L 282.886719 244.351562 L 281.992188 244.808594 L 280.042969 245.800781 L 277.5625 247.050781 L 275.191406 248.222656 L 273.171875 249.1875 L 271.453125 249.964844 L 269.863281 250.632812 L 268.675781 251.101562 L 266.957031 251.730469 L 264.941406 252.417969 L 262.527344 253.199219 L 259.882812 254.027344 L 257.625 254.722656 L 256.417969 255.09375 L 256.203125 255.15625 Z M 255.144531 249.585938 "/>
<path style="fill-rule:nonzero;fill:rgb(0%,0%,0%);fill-opacity:1;stroke-width:0.75;stroke-linecap:round;stroke-linejoin:round;stroke:rgb(0%,0%,0%);stroke-opacity:1;stroke-miterlimit:10;" d="M 257.371094 260.796875 L 257.59375 260.769531 L 258.851562 260.613281 L 261.195312 260.3125 L 263.910156 259.953125 L 266.382812 259.601562 L 268.445312 259.269531 L 270.214844 258.945312 L 271.324219 258.710938 L 272.988281 258.324219 L 274.800781 257.847656 L 276.941406 257.234375 L 279.460938 256.476562 L 282.078125 255.667969 L 284.097656 255.035156 L 284.976562 254.757812 L 285.058594 254.730469 L 284.957031 254.785156 L 284.074219 255.269531 L 282.152344 256.316406 L 279.710938 257.632812 L 277.371094 258.871094 L 275.382812 259.890625 L 273.683594 260.71875 L 272.113281 261.429688 L 270.9375 261.933594 L 269.238281 262.609375 L 267.242188 263.351562 L 264.851562 264.199219 L 262.234375 265.101562 L 259.992188 265.863281 L 258.796875 266.265625 L 258.582031 266.335938 Z M 257.371094 260.796875 "/>
<path style="fill-rule:nonzero;fill:rgb(0%,0%,0%);fill-opacity:1;stroke-width:0.75;stroke-linecap:round;stroke-linejoin:round;stroke:rgb(0%,0%,0%);stroke-opacity:1;stroke-miterlimit:10;" d="M 260.269531 271.847656 L 260.492188 271.796875 L 261.726562 271.519531 L 264.027344 270.992188 L 266.695312 270.363281 L 269.121094 269.773438 L 271.140625 269.242188 L 272.871094 268.746094 L 273.953125 268.40625 L 275.570312 267.855469 L 277.328125 267.203125 L 279.398438 266.386719 L 281.832031 265.386719 L 284.355469 264.324219 L 286.304688 263.496094 L 287.152344 263.132812 L 287.230469 263.097656 L 287.136719 263.164062 L 286.304688 263.730469 L 284.492188 264.960938 L 282.191406 266.511719 L 279.988281 267.972656 L 278.105469 269.183594 L 276.496094 270.171875 L 275.003906 271.035156 L 273.882812 271.648438 L 272.257812 272.488281 L 270.34375 273.421875 L 268.046875 274.5 L 265.53125 275.65625 L 263.375 276.628906 L 262.222656 277.148438 L 262.019531 277.238281 Z M 260.269531 271.847656 "/>
<path style="fill-rule:nonzero;fill:rgb(0%,0%,0%);fill-opacity:1;stroke-width:0.75;stroke-linecap:round;stroke-linejoin:round;stroke:rgb(0%,0%,0%);stroke-opacity:1;stroke-miterlimit:10;" d="M 264.457031 282.464844 L 264.667969 282.382812 L 265.847656 281.921875 L 268.046875 281.054688 L 270.589844 280.035156 L 272.898438 279.085938 L 274.816406 278.257812 L 276.449219 277.503906 L 277.46875 277.003906 L 278.984375 276.21875 L 280.625 275.3125 L 282.546875 274.191406 L 284.800781 272.835938 L 287.140625 271.40625 L 288.941406 270.296875 L 289.722656 269.8125 L 289.796875 269.765625 L 289.714844 269.84375 L 288.976562 270.527344 L 287.371094 272.019531 L 285.328125 273.894531 L 283.367188 275.671875 L 281.691406 277.148438 L 280.25 278.371094 L 278.902344 279.445312 L 277.886719 280.222656 L 276.40625 281.296875 L 274.65625 282.507812 L 272.542969 283.921875 L 270.230469 285.441406 L 268.246094 286.726562 L 267.1875 287.410156 L 266.996094 287.535156 Z M 264.457031 282.464844 "/>
<path style="fill-rule:nonzero;fill:rgb(0%,0%,0%);fill-opacity:1;stroke-width:0.75;stroke-linecap:round;stroke-linejoin:round;stroke:rgb(0%,0%,0%);stroke-opacity:1;stroke-miterlimit:10;" d="M 270.144531 292.363281 L 270.335938 292.246094 L 271.417969 291.582031 L 273.425781 290.339844 L 275.75 288.886719 L 277.851562 287.542969 L 279.59375 286.390625 L 281.070312 285.363281 L 281.984375 284.691406 L 283.339844 283.648438 L 284.789062 282.464844 L 286.484375 281.023438 L 288.464844 279.289062 L 290.515625 277.472656 L 292.089844 276.058594 L 292.777344 275.441406 L 292.839844 275.382812 L 292.769531 275.476562 L 292.167969 276.28125 L 290.851562 278.03125 L 289.171875 280.238281 L 287.554688 282.335938 L 286.167969 284.085938 L 284.960938 285.542969 L 283.828125 286.839844 L 282.964844 287.785156 L 281.699219 289.105469 L 280.1875 290.605469 L 278.359375 292.367188 L 276.351562 294.273438 L 274.625 295.890625 L 273.703125 296.75 L 273.539062 296.902344 Z M 270.144531 292.363281 "/>
<path style="fill-rule:nonzero;fill:rgb(0%,0%,0%);fill-opacity:1;stroke-width:0.75;stroke-linecap:round;stroke-linejoin:round;stroke:rgb(0%,0%,0%);stroke-opacity:1;stroke-miterlimit:10;" d="M 277.160156 301.402344 L 277.328125 301.253906 L 278.269531 300.40625 L 280.023438 298.824219 L 282.046875 296.976562 L 283.875 295.273438 L 285.378906 293.828125 L 286.644531 292.550781 L 287.425781 291.722656 L 288.570312 290.457031 L 289.785156 289.03125 L 291.191406 287.304688 L 292.828125 285.246094 L 294.515625 283.085938 L 295.8125 281.414062 L 296.375 280.683594 L 296.429688 280.613281 L 296.378906 280.71875 L 294.949219 283.578125 L 293.695312 286.050781 L 292.480469 288.402344 L 291.429688 290.378906 L 290.507812 292.023438 L 289.625 293.507812 L 288.945312 294.589844 L 287.9375 296.117188 L 286.722656 297.867188 L 285.242188 299.929688 L 283.609375 302.164062 L 282.203125 304.066406 L 281.453125 305.078125 L 281.316406 305.257812 Z M 277.160156 301.402344 "/>
<path style="fill-rule:nonzero;fill:rgb(0%,0%,0%);fill-opacity:1;stroke-width:0.75;stroke-linecap:round;stroke-linejoin:round;stroke:rgb(0%,0%,0%);stroke-opacity:1;stroke-miterlimit:10;" d="M 285.589844 309.117188 L 285.742188 308.953125 L 286.609375 308.027344 L 288.214844 306.296875 L 290.066406 304.277344 L 291.738281 302.421875 L 293.109375 300.847656 L 294.253906 299.460938 L 294.960938 298.570312 L 295.984375 297.207031 L 297.070312 295.675781 L 298.320312 293.835938 L 299.769531 291.636719 L 301.257812 289.339844 L 302.402344 287.558594 L 302.898438 286.78125 L 302.945312 286.707031 L 302.902344 286.816406 L 302.535156 287.753906 L 301.730469 289.789062 L 300.703125 292.363281 L 299.703125 294.816406 L 298.828125 296.875 L 298.054688 298.597656 L 297.308594 300.148438 L 296.726562 301.289062 L 295.859375 302.898438 L 294.800781 304.75 L 293.511719 306.933594 L 292.082031 309.304688 L 290.847656 311.324219 L 290.1875 312.398438 L 290.070312 312.589844 Z M 285.589844 309.117188 "/>
<path style="fill-rule:nonzero;fill:rgb(0%,0%,0%);fill-opacity:1;stroke-width:0.75;stroke-linecap:round;stroke-linejoin:round;stroke:rgb(0%,0%,0%);stroke-opacity:1;stroke-miterlimit:10;" d="M 294.816406 315.847656 L 294.957031 315.667969 L 295.734375 314.667969 L 297.183594 312.804688 L 298.851562 310.628906 L 300.355469 308.636719 L 301.582031 306.945312 L 302.605469 305.464844 L 303.226562 304.515625 L 304.132812 303.066406 L 305.078125 301.449219 L 306.160156 299.507812 L 307.410156 297.191406 L 308.695312 294.769531 L 309.679688 292.894531 L 310.105469 292.078125 L 310.144531 292 L 310.113281 292.113281 L 309.828125 293.078125 L 309.207031 295.179688 L 308.40625 297.832031 L 307.621094 300.359375 L 306.933594 302.488281 L 306.3125 304.273438 L 305.707031 305.886719 L 305.226562 307.074219 L 304.5 308.75 L 303.613281 310.6875 L 302.515625 312.976562 L 301.300781 315.460938 L 300.25 317.582031 L 299.6875 318.710938 L 299.585938 318.910156 Z M 294.816406 315.847656 "/>
<path style="fill-rule:nonzero;fill:rgb(0%,0%,0%);fill-opacity:1;stroke-width:0.75;stroke-linecap:round;stroke-linejoin:round;stroke:rgb(0%,0%,0%);stroke-opacity:1;stroke-miterlimit:10;" d="M 304.605469 321.769531 L 304.710938 321.566406 L 305.296875 320.445312 L 306.386719 318.347656 L 307.632812 315.90625 L 308.75 313.675781 L 309.652344 311.792969 L 310.390625 310.152344 L 310.832031 309.105469 L 311.457031 307.515625 L 312.097656 305.753906 L 312.808594 303.648438 L 313.621094 301.144531 L 314.445312 298.53125 L 315.074219 296.511719 L 315.34375 295.628906 L 315.371094 295.546875 L 315.359375 295.660156 L 315.253906 296.660156 L 315.019531 298.839844 L 314.714844 301.597656 L 314.402344 304.222656 L 314.109375 306.441406 L 313.824219 308.308594 L 313.515625 310.003906 L 313.257812 311.257812 L 312.847656 313.039062 L 312.324219 315.101562 L 311.660156 317.554688 L 310.914062 320.21875 L 310.265625 322.496094 L 309.914062 323.707031 L 309.851562 323.921875 Z M 304.605469 321.769531 "/>
<path style="fill-rule:nonzero;fill:rgb(0%,0%,0%);fill-opacity:1;stroke-width:0.75;stroke-linecap:round;stroke-linejoin:round;stroke:rgb(0%,0%,0%);stroke-opacity:1;stroke-miterlimit:10;" d="M 315.164062 326.148438 L 315.253906 325.941406 L 315.75 324.773438 L 316.664062 322.597656 L 317.714844 320.066406 L 318.648438 317.75 L 319.398438 315.800781 L 320.003906 314.109375 L 320.359375 313.027344 L 320.859375 311.394531 L 321.355469 309.589844 L 321.898438 307.429688 L 322.507812 304.871094 L 323.121094 302.203125 L 323.585938 300.136719 L 323.785156 299.238281 L 323.804688 299.152344 L 323.800781 299.265625 L 323.777344 300.273438 L 323.71875 302.460938 L 323.632812 305.234375 L 323.53125 307.878906 L 323.414062 310.113281 L 323.277344 311.996094 L 323.109375 313.710938 L 322.953125 314.980469 L 322.6875 316.789062 L 322.328125 318.890625 L 321.859375 321.386719 L 321.328125 324.101562 L 320.863281 326.421875 L 320.609375 327.65625 L 320.5625 327.875 Z M 315.164062 326.148438 "/>
<path style="fill-rule:nonzero;fill:rgb(0%,0%,0%);fill-opacity:1;stroke-width:0.75;stroke-linecap:round;stroke-linejoin:round;stroke:rgb(0%,0%,0%);stroke-opacity:1;stroke-miterlimit:10;" d="M 326.1875 329.117188 L 326.257812 328.902344 L 326.644531 327.695312 L 327.355469 325.441406 L 328.167969 322.824219 L 328.882812 320.433594 L 329.449219 318.421875 L 329.894531 316.679688 L 330.148438 315.574219 L 330.496094 313.902344 L 330.824219 312.054688 L 331.164062 309.855469 L 331.535156 307.25 L 331.898438 304.535156 L 332.171875 302.4375 L 332.285156 301.523438 L 332.296875 301.4375 L 332.304688 301.550781 L 332.375 302.554688 L 332.519531 304.742188 L 332.6875 307.507812 L 332.832031 310.152344 L 332.921875 312.386719 L 332.960938 314.273438 L 332.949219 315.996094 L 332.910156 317.277344 L 332.8125 319.105469 L 332.652344 321.226562 L 332.417969 323.753906 L 332.136719 326.507812 L 331.886719 328.859375 L 331.75 330.113281 L 331.726562 330.339844 Z M 326.1875 329.117188 "/>
<path style="fill-rule:nonzero;fill:rgb(0%,0%,0%);fill-opacity:1;stroke-width:0.75;stroke-linecap:round;stroke-linejoin:round;stroke:rgb(0%,0%,0%);stroke-opacity:1;stroke-miterlimit:10;" d="M 337.480469 330.90625 L 337.5 330.679688 L 337.585938 329.417969 L 337.746094 327.058594 L 337.917969 324.324219 L 338.046875 321.832031 L 338.121094 319.746094 L 338.144531 317.945312 L 338.128906 316.808594 L 338.070312 315.105469 L 337.953125 313.234375 L 337.765625 311.015625 L 337.507812 308.398438 L 337.21875 305.671875 L 336.988281 303.570312 L 336.886719 302.652344 L 336.875 302.566406 L 336.910156 302.675781 L 337.214844 303.636719 L 337.871094 305.726562 L 338.691406 308.375 L 339.453125 310.910156 L 340.070312 313.058594 L 340.554688 314.882812 L 340.949219 316.5625 L 341.214844 317.8125 L 341.550781 319.613281 L 341.894531 321.710938 L 342.265625 324.222656 L 342.644531 326.964844 L 342.957031 329.3125 L 343.121094 330.5625 L 343.148438 330.785156 Z M 337.480469 330.90625 "/>
<path style="fill-rule:nonzero;fill:rgb(0%,0%,0%);fill-opacity:1;stroke-width:0.75;stroke-linecap:round;stroke-linejoin:round;stroke:rgb(0%,0%,0%);stroke-opacity:1;stroke-miterlimit:10;" d="M 348.902344 330.5625 L 348.890625 330.332031 L 348.835938 329.066406 L 348.71875 326.710938 L 348.574219 323.972656 L 348.417969 321.480469 L 348.253906 319.398438 L 348.066406 317.609375 L 347.921875 316.484375 L 347.664062 314.796875 L 347.332031 312.953125 L 346.890625 310.769531 L 346.335938 308.199219 L 345.734375 305.527344 L 345.261719 303.460938 L 345.054688 302.566406 L 345.035156 302.480469 L 345.082031 302.585938 L 345.496094 303.5 L 346.386719 305.503906 L 347.507812 308.039062 L 348.558594 310.46875 L 349.417969 312.535156 L 350.109375 314.292969 L 350.695312 315.910156 L 351.101562 317.125 L 351.644531 318.871094 L 352.226562 320.921875 L 352.882812 323.371094 L 353.578125 326.050781 L 354.15625 328.347656 L 354.460938 329.570312 L 354.515625 329.789062 Z M 348.902344 330.5625 "/>
<path style="fill-rule:nonzero;fill:rgb(0%,0%,0%);fill-opacity:1;stroke-width:0.75;stroke-linecap:round;stroke-linejoin:round;stroke:rgb(0%,0%,0%);stroke-opacity:1;stroke-miterlimit:10;" d="M 360.140625 328.570312 L 360.105469 328.34375 L 359.90625 327.09375 L 359.535156 324.761719 L 359.085938 322.058594 L 358.652344 319.597656 L 358.257812 317.546875 L 357.875 315.792969 L 357.609375 314.6875 L 357.167969 313.039062 L 356.632812 311.242188 L 355.953125 309.121094 L 355.113281 306.628906 L 354.222656 304.039062 L 353.523438 302.039062 L 353.21875 301.171875 L 353.191406 301.085938 L 353.25 301.1875 L 353.761719 302.054688 L 354.867188 303.941406 L 356.261719 306.339844 L 357.574219 308.640625 L 358.65625 310.59375 L 359.539062 312.265625 L 360.300781 313.8125 L 360.839844 314.972656 L 361.570312 316.648438 L 362.378906 318.621094 L 363.300781 320.984375 L 364.285156 323.570312 L 365.117188 325.785156 L 365.558594 326.96875 L 365.636719 327.179688 Z M 360.140625 328.570312 "/>
<path style="fill-rule:nonzero;fill:rgb(0%,0%,0%);fill-opacity:1;stroke-width:0.75;stroke-linecap:round;stroke-linejoin:round;stroke:rgb(0%,0%,0%);stroke-opacity:1;stroke-miterlimit:10;" d="M 371.003906 325.058594 L 370.925781 324.847656 L 370.484375 323.660156 L 369.652344 321.449219 L 368.675781 318.890625 L 367.761719 316.566406 L 366.96875 314.632812 L 366.242188 312.988281 L 365.757812 311.960938 L 365 310.433594 L 364.117188 308.777344 L 363.027344 306.835938 L 361.710938 304.558594 L 360.320312 302.199219 L 359.238281 300.378906 L 358.765625 299.589844 L 358.722656 299.511719 L 358.800781 299.597656 L 359.472656 300.347656 L 360.933594 301.976562 L 362.777344 304.050781 L 364.523438 306.039062 L 365.972656 307.742188 L 367.167969 309.203125 L 368.222656 310.566406 L 368.984375 311.597656 L 370.035156 313.09375 L 371.214844 314.863281 L 372.59375 316.996094 L 374.074219 319.335938 L 375.328125 321.339844 L 375.996094 322.410156 L 376.113281 322.601562 Z M 371.003906 325.058594 "/>
<path style="fill-rule:nonzero;fill:rgb(0%,0%,0%);fill-opacity:1;stroke-width:0.75;stroke-linecap:round;stroke-linejoin:round;stroke:rgb(0%,0%,0%);stroke-opacity:1;stroke-miterlimit:10;" d="M 381.167969 319.847656 L 381.070312 319.644531 L 380.527344 318.5 L 379.507812 316.367188 L 378.316406 313.902344 L 377.207031 311.664062 L 376.246094 309.808594 L 375.382812 308.234375 L 374.8125 307.25 L 373.921875 305.792969 L 372.902344 304.222656 L 371.652344 302.378906 L 370.140625 300.222656 L 368.554688 297.992188 L 367.320312 296.273438 L 366.78125 295.527344 L 366.730469 295.453125 L 366.8125 295.535156 L 367.550781 296.21875 L 369.148438 297.71875 L 371.160156 299.625 L 373.070312 301.457031 L 374.664062 303.027344 L 375.980469 304.382812 L 377.148438 305.648438 L 377.996094 306.609375 L 379.167969 308.011719 L 380.5 309.671875 L 382.054688 311.679688 L 383.730469 313.882812 L 385.15625 315.773438 L 385.910156 316.78125 L 386.046875 316.960938 Z M 381.167969 319.847656 "/>
<path style="fill-rule:nonzero;fill:rgb(0%,0%,0%);fill-opacity:1;stroke-width:0.75;stroke-linecap:round;stroke-linejoin:round;stroke:rgb(0%,0%,0%);stroke-opacity:1;stroke-miterlimit:10;" d="M 390.726562 313.597656 L 390.601562 313.40625 L 389.902344 312.347656 L 388.597656 310.382812 L 387.066406 308.109375 L 385.65625 306.050781 L 384.445312 304.347656 L 383.367188 302.90625 L 382.664062 302.015625 L 381.582031 300.695312 L 380.347656 299.285156 L 378.851562 297.636719 L 377.054688 295.714844 L 375.167969 293.730469 L 373.703125 292.199219 L 373.066406 291.535156 L 373.003906 291.472656 L 373.101562 291.539062 L 373.925781 292.117188 L 375.714844 293.375 L 377.980469 294.980469 L 380.125 296.527344 L 381.925781 297.855469 L 383.417969 299.011719 L 384.753906 300.101562 L 385.726562 300.933594 L 387.085938 302.15625 L 388.636719 303.613281 L 390.457031 305.382812 L 392.429688 307.328125 L 395.152344 310.050781 Z M 390.726562 313.597656 "/>
<path style="fill-rule:nonzero;fill:rgb(0%,0%,0%);fill-opacity:1;stroke-width:0.75;stroke-linecap:round;stroke-linejoin:round;stroke:rgb(0%,0%,0%);stroke-opacity:1;stroke-miterlimit:10;" d="M 399.53125 306.316406 L 399.398438 306.132812 L 398.640625 305.117188 L 397.226562 303.226562 L 395.574219 301.039062 L 394.050781 299.0625 L 392.75 297.429688 L 391.59375 296.050781 L 390.839844 295.199219 L 389.683594 293.945312 L 388.378906 292.601562 L 386.789062 291.042969 L 384.890625 289.222656 L 382.898438 287.34375 L 381.351562 285.894531 L 380.675781 285.269531 L 380.609375 285.210938 L 380.710938 285.269531 L 381.566406 285.800781 L 383.425781 286.957031 L 385.773438 288.433594 L 388.003906 289.859375 L 389.871094 291.089844 L 391.425781 292.160156 L 392.820312 293.171875 L 393.835938 293.949219 L 395.261719 295.09375 L 396.890625 296.464844 L 398.808594 298.128906 L 400.882812 299.964844 L 402.648438 301.539062 L 403.585938 302.382812 L 403.753906 302.53125 Z M 399.53125 306.316406 "/>
<path style="fill-rule:nonzero;fill:rgb(0%,0%,0%);fill-opacity:1;stroke-width:0.75;stroke-linecap:round;stroke-linejoin:round;stroke:rgb(0%,0%,0%);stroke-opacity:1;stroke-miterlimit:10;" d="M 407.855469 298.488281 L 407.707031 298.316406 L 406.867188 297.367188 L 405.296875 295.605469 L 403.464844 293.566406 L 401.777344 291.726562 L 400.339844 290.210938 L 399.070312 288.9375 L 398.25 288.152344 L 396.988281 287 L 395.570312 285.773438 L 393.859375 284.355469 L 391.808594 282.703125 L 389.664062 281.003906 L 388 279.695312 L 387.273438 279.125 L 387.203125 279.074219 L 387.308594 279.125 L 388.203125 279.578125 L 390.15625 280.574219 L 392.621094 281.84375 L 394.964844 283.074219 L 396.929688 284.140625 L 398.570312 285.074219 L 400.046875 285.964844 L 401.125 286.652344 L 402.644531 287.671875 L 404.386719 288.898438 L 406.4375 290.390625 L 408.660156 292.042969 L 410.554688 293.460938 L 411.5625 294.21875 L 411.738281 294.355469 Z M 407.855469 298.488281 "/>
<path style="fill-rule:nonzero;fill:rgb(0%,0%,0%);fill-opacity:1;stroke-width:0.75;stroke-linecap:round;stroke-linejoin:round;stroke:rgb(0%,0%,0%);stroke-opacity:1;stroke-miterlimit:10;" d="M 415.625 290.105469 L 415.472656 289.941406 L 414.601562 289.019531 L 412.976562 287.304688 L 411.078125 285.328125 L 409.332031 283.546875 L 407.847656 282.078125 L 406.539062 280.84375 L 405.691406 280.085938 L 404.394531 278.972656 L 402.941406 277.792969 L 401.179688 276.429688 L 399.078125 274.84375 L 396.878906 273.214844 L 395.175781 271.960938 L 394.429688 271.414062 L 394.359375 271.363281 L 394.464844 271.414062 L 395.375 271.835938 L 397.359375 272.769531 L 399.863281 273.960938 L 402.246094 275.113281 L 404.246094 276.117188 L 405.914062 276.996094 L 407.417969 277.839844 L 408.519531 278.492188 L 410.070312 279.460938 L 411.847656 280.632812 L 413.949219 282.0625 L 416.222656 283.636719 L 418.160156 284.996094 L 419.191406 285.722656 L 419.375 285.851562 Z M 415.625 290.105469 "/>
<path style="fill-rule:nonzero;fill:rgb(0%,0%,0%);fill-opacity:1;stroke-width:0.75;stroke-linecap:round;stroke-linejoin:round;stroke:rgb(0%,0%,0%);stroke-opacity:1;stroke-miterlimit:10;" d="M 423.082031 281.445312 L 422.917969 281.285156 L 422.003906 280.40625 L 420.296875 278.777344 L 418.304688 276.894531 L 416.476562 275.195312 L 414.921875 273.800781 L 413.554688 272.632812 L 412.675781 271.914062 L 411.324219 270.867188 L 409.8125 269.757812 L 407.992188 268.484375 L 405.816406 267 L 403.539062 265.476562 L 401.777344 264.308594 L 401.007812 263.800781 L 400.933594 263.753906 L 401.042969 263.796875 L 401.972656 264.175781 L 403.996094 265.011719 L 406.558594 266.078125 L 408.992188 267.117188 L 411.039062 268.019531 L 412.75 268.820312 L 414.289062 269.589844 L 415.421875 270.1875 L 417.019531 271.082031 L 418.851562 272.164062 L 421.015625 273.488281 L 423.363281 274.953125 L 425.367188 276.21875 L 426.429688 276.894531 L 426.621094 277.015625 Z M 423.082031 281.445312 "/>
<path style="fill-rule:nonzero;fill:rgb(0%,0%,0%);fill-opacity:1;stroke-width:0.75;stroke-linecap:round;stroke-linejoin:round;stroke:rgb(0%,0%,0%);stroke-opacity:1;stroke-miterlimit:10;" d="M 430.175781 272.480469 L 430.007812 272.328125 L 429.078125 271.464844 L 427.34375 269.863281 L 425.316406 268.019531 L 423.457031 266.355469 L 421.878906 264.988281 L 420.488281 263.84375 L 419.59375 263.144531 L 418.226562 262.121094 L 416.695312 261.039062 L 414.851562 259.796875 L 412.648438 258.355469 L 410.34375 256.875 L 408.558594 255.734375 L 407.78125 255.242188 L 407.707031 255.195312 L 407.816406 255.238281 L 408.753906 255.601562 L 410.792969 256.398438 L 413.371094 257.421875 L 415.824219 258.414062 L 417.886719 259.28125 L 419.613281 260.046875 L 421.167969 260.789062 L 422.308594 261.367188 L 423.921875 262.230469 L 425.773438 263.28125 L 427.964844 264.566406 L 430.339844 265.988281 L 432.363281 267.214844 L 433.4375 267.871094 L 433.632812 267.988281 Z M 430.175781 272.480469 "/>
<path style="fill-rule:nonzero;fill:rgb(0%,0%,0%);fill-opacity:1;stroke-width:0.75;stroke-linecap:round;stroke-linejoin:round;stroke:rgb(0%,0%,0%);stroke-opacity:1;stroke-miterlimit:10;" d="M 437.039062 263.34375 L 436.867188 263.191406 L 435.914062 262.359375 L 434.132812 260.804688 L 432.058594 259.019531 L 430.152344 257.40625 L 428.535156 256.082031 L 427.117188 254.980469 L 426.203125 254.304688 L 424.808594 253.320312 L 423.246094 252.28125 L 421.367188 251.089844 L 419.125 249.710938 L 416.78125 248.292969 L 414.964844 247.207031 L 414.175781 246.734375 L 414.097656 246.691406 L 414.207031 246.730469 L 415.15625 247.066406 L 417.214844 247.808594 L 419.824219 248.757812 L 422.300781 249.679688 L 424.386719 250.488281 L 426.132812 251.207031 L 427.710938 251.90625 L 428.867188 252.453125 L 430.503906 253.273438 L 432.382812 254.269531 L 434.609375 255.492188 L 437.023438 256.847656 L 439.078125 258.015625 L 440.171875 258.644531 L 440.367188 258.753906 Z M 437.039062 263.34375 "/>
<path style="fill-rule:nonzero;fill:rgb(0%,0%,0%);fill-opacity:1;stroke-width:0.75;stroke-linecap:round;stroke-linejoin:round;stroke:rgb(0%,0%,0%);stroke-opacity:1;stroke-miterlimit:10;" d="M 88.320312 205.667969 L 88.464844 205.839844 L 89.277344 206.804688 L 90.796875 208.621094 L 92.5625 210.75 L 94.164062 212.71875 L 95.484375 214.390625 L 96.585938 215.851562 L 97.328125 216.894531 L 98.296875 218.320312 L 99.320312 219.90625 L 100.488281 221.8125 L 101.84375 224.085938 L 103.242188 226.480469 L 104.34375 228.375 L 104.84375 229.246094 L 104.902344 229.347656 L 104.84375 229.28125 L 104.238281 228.585938 L 102.84375 226.996094 L 101.027344 224.945312 L 99.269531 222.988281 L 97.757812 221.351562 L 96.460938 220.003906 L 95.242188 218.808594 L 94.410156 218.03125 L 93.070312 216.832031 L 91.480469 215.480469 L 89.554688 213.890625 L 87.421875 212.171875 L 85.574219 210.699219 L 84.582031 209.910156 L 84.402344 209.769531 Z M 88.320312 205.667969 "/>
<path style="fill-rule:nonzero;fill:rgb(0%,0%,0%);fill-opacity:1;stroke-width:0.75;stroke-linecap:round;stroke-linejoin:round;stroke:rgb(0%,0%,0%);stroke-opacity:1;stroke-miterlimit:10;" d="M 96.578125 197.773438 L 96.710938 197.957031 L 97.449219 198.980469 L 98.824219 200.90625 L 100.417969 203.167969 L 101.867188 205.253906 L 103.050781 207.019531 L 104.035156 208.5625 L 104.699219 209.660156 L 105.554688 211.152344 L 106.449219 212.816406 L 107.46875 214.808594 L 108.644531 217.179688 L 109.859375 219.671875 L 110.808594 221.648438 L 111.242188 222.554688 L 111.289062 222.660156 L 111.238281 222.589844 L 110.6875 221.851562 L 109.417969 220.15625 L 107.765625 217.972656 L 106.164062 215.882812 L 104.785156 214.136719 L 103.589844 212.691406 L 102.46875 211.40625 L 101.703125 210.566406 L 100.457031 209.269531 L 98.976562 207.796875 L 97.175781 206.066406 L 95.183594 204.1875 L 93.457031 202.574219 L 92.527344 201.714844 L 92.359375 201.558594 Z M 96.578125 197.773438 "/>
<path style="fill-rule:nonzero;fill:rgb(0%,0%,0%);fill-opacity:1;stroke-width:0.75;stroke-linecap:round;stroke-linejoin:round;stroke:rgb(0%,0%,0%);stroke-opacity:1;stroke-miterlimit:10;" d="M 105.296875 190.390625 L 105.421875 190.578125 L 106.105469 191.636719 L 107.378906 193.628906 L 108.863281 195.96875 L 110.203125 198.125 L 111.296875 199.949219 L 112.203125 201.539062 L 112.808594 202.667969 L 113.589844 204.203125 L 114.402344 205.910156 L 115.316406 207.949219 L 116.371094 210.375 L 117.457031 212.929688 L 118.308594 214.949219 L 118.695312 215.875 L 118.738281 215.984375 L 118.691406 215.910156 L 118.179688 215.144531 L 116.996094 213.386719 L 115.457031 211.125 L 113.960938 208.957031 L 112.671875 207.144531 L 111.550781 205.640625 L 110.496094 204.300781 L 109.773438 203.421875 L 108.59375 202.0625 L 107.1875 200.519531 L 105.476562 198.703125 L 103.582031 196.722656 L 101.9375 195.027344 L 101.050781 194.121094 L 100.894531 193.957031 Z M 105.296875 190.390625 "/>
<path style="fill-rule:nonzero;fill:rgb(0%,0%,0%);fill-opacity:1;stroke-width:0.75;stroke-linecap:round;stroke-linejoin:round;stroke:rgb(0%,0%,0%);stroke-opacity:1;stroke-miterlimit:10;" d="M 114.535156 183.664062 L 114.648438 183.859375 L 115.265625 184.957031 L 116.421875 187.023438 L 117.761719 189.445312 L 118.96875 191.675781 L 119.953125 193.5625 L 120.761719 195.203125 L 121.300781 196.367188 L 121.988281 197.945312 L 122.695312 199.695312 L 123.492188 201.789062 L 124.398438 204.273438 L 125.332031 206.886719 L 126.058594 208.953125 L 126.390625 209.902344 L 126.429688 210.011719 L 126.382812 209.933594 L 125.917969 209.140625 L 124.84375 207.316406 L 123.441406 204.964844 L 122.074219 202.714844 L 120.894531 200.828125 L 119.867188 199.257812 L 118.894531 197.859375 L 118.222656 196.941406 L 117.128906 195.511719 L 115.820312 193.886719 L 114.21875 191.972656 L 112.445312 189.882812 L 110.902344 188.09375 L 110.074219 187.132812 L 109.925781 186.964844 Z M 114.535156 183.664062 "/>
<path style="fill-rule:nonzero;fill:rgb(0%,0%,0%);fill-opacity:1;stroke-width:0.75;stroke-linecap:round;stroke-linejoin:round;stroke:rgb(0%,0%,0%);stroke-opacity:1;stroke-miterlimit:10;" d="M 124.550781 178.15625 L 124.632812 178.367188 L 125.082031 179.546875 L 125.914062 181.761719 L 126.878906 184.355469 L 127.738281 186.742188 L 128.429688 188.757812 L 128.984375 190.5 L 129.34375 191.730469 L 129.789062 193.394531 L 130.226562 195.230469 L 130.699219 197.417969 L 131.226562 200.011719 L 131.757812 202.734375 L 132.167969 204.882812 L 132.351562 205.871094 L 132.375 205.988281 L 132.34375 205.90625 L 132 205.050781 L 131.207031 203.085938 L 130.171875 200.550781 L 129.160156 198.121094 L 128.277344 196.078125 L 127.496094 194.375 L 126.742188 192.84375 L 126.214844 191.835938 L 125.347656 190.261719 L 124.292969 188.460938 L 123 186.324219 L 121.554688 183.996094 L 120.300781 181.996094 L 119.625 180.921875 L 119.5 180.730469 Z M 124.550781 178.15625 "/>
<path style="fill-rule:nonzero;fill:rgb(0%,0%,0%);fill-opacity:1;stroke-width:0.75;stroke-linecap:round;stroke-linejoin:round;stroke:rgb(0%,0%,0%);stroke-opacity:1;stroke-miterlimit:10;" d="M 135.0625 173.691406 L 135.125 173.90625 L 135.464844 175.121094 L 136.09375 177.402344 L 136.820312 180.074219 L 137.460938 182.53125 L 137.96875 184.597656 L 138.363281 186.382812 L 138.609375 187.640625 L 138.898438 189.339844 L 139.171875 191.207031 L 139.445312 193.429688 L 139.734375 196.058594 L 140.015625 198.816406 L 140.230469 200.996094 L 140.324219 202 L 140.335938 202.113281 L 140.3125 202.03125 L 140.046875 201.148438 L 139.4375 199.121094 L 138.636719 196.5 L 137.847656 193.988281 L 137.152344 191.875 L 136.527344 190.109375 L 135.914062 188.515625 L 135.484375 187.464844 L 134.761719 185.816406 L 133.875 183.925781 L 132.777344 181.683594 L 131.550781 179.234375 L 130.480469 177.128906 L 129.90625 176 L 129.800781 175.796875 Z M 135.0625 173.691406 "/>
<path style="fill-rule:nonzero;fill:rgb(0%,0%,0%);fill-opacity:1;stroke-width:0.75;stroke-linecap:round;stroke-linejoin:round;stroke:rgb(0%,0%,0%);stroke-opacity:1;stroke-miterlimit:10;" d="M 146.160156 170.992188 L 146.175781 171.214844 L 146.257812 172.472656 L 146.40625 174.835938 L 146.5625 177.597656 L 146.6875 180.132812 L 146.757812 182.261719 L 146.777344 184.089844 L 146.757812 185.371094 L 146.695312 187.09375 L 146.574219 188.976562 L 146.382812 191.207031 L 146.125 193.839844 L 145.835938 196.597656 L 145.59375 198.777344 L 145.484375 199.777344 L 145.46875 199.890625 L 145.460938 199.804688 L 145.386719 198.886719 L 145.207031 196.777344 L 144.960938 194.046875 L 144.707031 191.429688 L 144.460938 189.214844 L 144.214844 187.359375 L 143.941406 185.671875 L 143.734375 184.554688 L 143.367188 182.796875 L 142.890625 180.761719 L 142.277344 178.34375 L 141.582031 175.691406 L 140.96875 173.410156 L 140.636719 172.1875 L 140.578125 171.96875 Z M 146.160156 170.992188 "/>
<path style="fill-rule:nonzero;fill:rgb(0%,0%,0%);fill-opacity:1;stroke-width:0.75;stroke-linecap:round;stroke-linejoin:round;stroke:rgb(0%,0%,0%);stroke-opacity:1;stroke-miterlimit:10;" d="M 157.507812 169.773438 L 157.496094 170 L 157.4375 171.257812 L 157.316406 173.621094 L 157.164062 176.386719 L 157 178.917969 L 156.828125 181.042969 L 156.640625 182.859375 L 156.476562 184.128906 L 156.21875 185.835938 L 155.886719 187.695312 L 155.449219 189.886719 L 154.894531 192.472656 L 154.292969 195.183594 L 153.8125 197.320312 L 153.585938 198.300781 L 153.5625 198.414062 L 153.5625 198.324219 L 153.589844 197.402344 L 153.652344 195.289062 L 153.714844 192.550781 L 153.757812 189.917969 L 153.761719 187.691406 L 153.726562 185.820312 L 153.648438 184.113281 L 153.566406 182.980469 L 153.398438 181.1875 L 153.152344 179.117188 L 152.820312 176.640625 L 152.425781 173.929688 L 152.074219 171.59375 L 151.882812 170.34375 L 151.847656 170.117188 Z M 157.507812 169.773438 "/>
<path style="fill-rule:nonzero;fill:rgb(0%,0%,0%);fill-opacity:1;stroke-width:0.75;stroke-linecap:round;stroke-linejoin:round;stroke:rgb(0%,0%,0%);stroke-opacity:1;stroke-miterlimit:10;" d="M 168.917969 170.164062 L 168.882812 170.386719 L 168.675781 171.632812 L 168.28125 173.964844 L 167.804688 176.691406 L 167.347656 179.1875 L 166.933594 181.277344 L 166.53125 183.0625 L 166.222656 184.304688 L 165.769531 185.964844 L 165.222656 187.773438 L 164.53125 189.898438 L 163.679688 192.40625 L 162.769531 195.023438 L 162.039062 197.089844 L 161.703125 198.039062 L 161.664062 198.148438 L 161.675781 198.058594 L 161.8125 197.148438 L 162.117188 195.054688 L 162.5 192.34375 L 162.847656 189.734375 L 163.109375 187.523438 L 163.292969 185.660156 L 163.414062 183.957031 L 163.46875 182.820312 L 163.507812 181.023438 L 163.507812 178.933594 L 163.460938 176.4375 L 163.386719 173.699219 L 163.3125 171.339844 L 163.265625 170.074219 L 163.257812 169.847656 Z M 168.917969 170.164062 "/>
<path style="fill-rule:nonzero;fill:rgb(0%,0%,0%);fill-opacity:1;stroke-width:0.75;stroke-linecap:round;stroke-linejoin:round;stroke:rgb(0%,0%,0%);stroke-opacity:1;stroke-miterlimit:10;" d="M 180.171875 172.152344 L 180.109375 172.367188 L 179.757812 173.578125 L 179.085938 175.847656 L 178.292969 178.496094 L 177.539062 180.921875 L 176.878906 182.945312 L 176.269531 184.671875 L 175.8125 185.867188 L 175.164062 187.464844 L 174.40625 189.195312 L 173.464844 191.222656 L 172.324219 193.609375 L 171.105469 196.101562 L 170.136719 198.066406 L 169.6875 198.964844 L 169.636719 199.070312 L 169.660156 198.984375 L 169.902344 198.097656 L 170.453125 196.050781 L 171.15625 193.40625 L 171.8125 190.855469 L 172.339844 188.695312 L 172.742188 186.863281 L 173.066406 185.1875 L 173.253906 184.066406 L 173.507812 182.285156 L 173.753906 180.214844 L 174.007812 177.730469 L 174.261719 175 L 174.464844 172.648438 L 174.570312 171.386719 L 174.589844 171.160156 Z M 180.171875 172.152344 "/>
<path style="fill-rule:nonzero;fill:rgb(0%,0%,0%);fill-opacity:1;stroke-width:0.75;stroke-linecap:round;stroke-linejoin:round;stroke:rgb(0%,0%,0%);stroke-opacity:1;stroke-miterlimit:10;" d="M 190.960938 175.9375 L 190.859375 176.140625 L 190.292969 177.265625 L 189.226562 179.375 L 187.960938 181.839844 L 186.785156 184.085938 L 185.765625 185.957031 L 184.855469 187.542969 L 184.191406 188.640625 L 183.265625 190.089844 L 182.207031 191.65625 L 180.914062 193.480469 L 179.359375 195.621094 L 177.710938 197.851562 L 176.398438 199.609375 L 175.796875 200.414062 L 175.726562 200.503906 L 175.765625 200.425781 L 176.164062 199.597656 L 177.078125 197.6875 L 178.25 195.210938 L 179.355469 192.820312 L 180.261719 190.789062 L 180.992188 189.0625 L 181.613281 187.472656 L 182 186.40625 L 182.574219 184.699219 L 183.191406 182.707031 L 183.890625 180.308594 L 184.632812 177.671875 L 185.257812 175.394531 L 185.589844 174.171875 L 185.652344 173.953125 Z M 190.960938 175.9375 "/>
<path style="fill-rule:nonzero;fill:rgb(0%,0%,0%);fill-opacity:1;stroke-width:0.75;stroke-linecap:round;stroke-linejoin:round;stroke:rgb(0%,0%,0%);stroke-opacity:1;stroke-miterlimit:10;" d="M 201.308594 180.773438 L 201.1875 180.964844 L 200.515625 182.03125 L 199.242188 184.027344 L 197.746094 186.355469 L 196.351562 188.476562 L 195.160156 190.238281 L 194.097656 191.730469 L 193.328125 192.753906 L 192.265625 194.109375 L 191.058594 195.5625 L 189.59375 197.253906 L 187.835938 199.230469 L 185.976562 201.289062 L 184.503906 202.910156 L 183.824219 203.652344 L 183.746094 203.738281 L 183.792969 203.660156 L 184.269531 202.875 L 185.367188 201.0625 L 186.773438 198.714844 L 188.105469 196.445312 L 189.210938 194.511719 L 190.101562 192.863281 L 190.875 191.34375 L 191.367188 190.316406 L 192.101562 188.675781 L 192.910156 186.75 L 193.839844 184.433594 L 194.839844 181.882812 L 195.683594 179.675781 L 196.136719 178.492188 L 196.214844 178.28125 Z M 201.308594 180.773438 "/>
<path style="fill-rule:nonzero;fill:rgb(0%,0%,0%);fill-opacity:1;stroke-width:0.75;stroke-linecap:round;stroke-linejoin:round;stroke:rgb(0%,0%,0%);stroke-opacity:1;stroke-miterlimit:10;" d="M 211.078125 186.703125 L 210.941406 186.882812 L 210.171875 187.882812 L 208.726562 189.757812 L 207.023438 191.9375 L 205.445312 193.925781 L 204.09375 195.574219 L 202.902344 196.960938 L 202.046875 197.910156 L 200.863281 199.164062 L 199.527344 200.5 L 197.917969 202.050781 L 195.988281 203.863281 L 193.949219 205.742188 L 192.335938 207.222656 L 191.589844 207.902344 L 191.503906 207.980469 L 191.558594 207.90625 L 192.105469 207.167969 L 193.359375 205.460938 L 194.976562 203.25 L 196.507812 201.113281 L 197.785156 199.289062 L 198.824219 197.726562 L 199.730469 196.28125 L 200.3125 195.304688 L 201.195312 193.738281 L 202.175781 191.894531 L 203.308594 189.671875 L 204.535156 187.21875 L 205.578125 185.101562 L 206.132812 183.964844 L 206.234375 183.757812 Z M 211.078125 186.703125 "/>
<path style="fill-rule:nonzero;fill:rgb(0%,0%,0%);fill-opacity:1;stroke-width:0.75;stroke-linecap:round;stroke-linejoin:round;stroke:rgb(0%,0%,0%);stroke-opacity:1;stroke-miterlimit:10;" d="M 219.925781 193.949219 L 219.757812 194.101562 L 218.828125 194.953125 L 217.074219 196.542969 L 215.019531 198.394531 L 213.113281 200.074219 L 211.496094 201.460938 L 210.082031 202.617188 L 209.070312 203.402344 L 207.6875 204.429688 L 206.140625 205.511719 L 204.28125 206.757812 L 202.066406 208.203125 L 199.730469 209.699219 L 197.878906 210.871094 L 197.03125 211.410156 L 196.929688 211.472656 L 196.996094 211.410156 L 197.664062 210.777344 L 199.199219 209.320312 L 201.175781 207.421875 L 203.058594 205.585938 L 204.632812 204.011719 L 205.929688 202.660156 L 207.074219 201.394531 L 207.820312 200.535156 L 208.960938 199.144531 L 210.25 197.503906 L 211.757812 195.511719 L 213.390625 193.3125 L 214.789062 191.410156 L 215.535156 190.386719 L 215.671875 190.203125 Z M 219.925781 193.949219 "/>
<path style="fill-rule:nonzero;fill:rgb(0%,0%,0%);fill-opacity:1;stroke-width:0.75;stroke-linecap:round;stroke-linejoin:round;stroke:rgb(0%,0%,0%);stroke-opacity:1;stroke-miterlimit:10;" d="M 228.023438 201.996094 L 227.847656 202.132812 L 226.84375 202.898438 L 224.957031 204.328125 L 222.742188 205.988281 L 220.699219 207.492188 L 218.964844 208.726562 L 217.449219 209.753906 L 216.375 210.445312 L 214.902344 211.347656 L 213.265625 212.289062 L 211.304688 213.363281 L 208.96875 214.605469 L 206.507812 215.886719 L 204.5625 216.890625 L 203.667969 217.351562 L 203.5625 217.402344 L 203.632812 217.347656 L 204.355469 216.777344 L 206.015625 215.460938 L 208.152344 213.75 L 210.191406 212.085938 L 211.898438 210.660156 L 213.3125 209.425781 L 214.566406 208.269531 L 215.382812 207.480469 L 216.644531 206.199219 L 218.074219 204.675781 L 219.753906 202.828125 L 221.574219 200.78125 L 223.136719 199.011719 L 223.972656 198.058594 L 224.121094 197.886719 Z M 228.023438 201.996094 "/>
<path style="fill-rule:nonzero;fill:rgb(0%,0%,0%);fill-opacity:1;stroke-width:0.75;stroke-linecap:round;stroke-linejoin:round;stroke:rgb(0%,0%,0%);stroke-opacity:1;stroke-miterlimit:10;" d="M 234.84375 211.15625 L 234.644531 211.257812 L 233.519531 211.828125 L 231.40625 212.890625 L 228.929688 214.125 L 226.644531 215.234375 L 224.714844 216.136719 L 223.042969 216.871094 L 221.859375 217.359375 L 220.25 217.976562 L 218.46875 218.609375 L 216.347656 219.3125 L 213.824219 220.109375 L 211.171875 220.925781 L 209.078125 221.5625 L 208.113281 221.851562 L 208.003906 221.886719 L 208.082031 221.84375 L 208.894531 221.414062 L 210.761719 220.417969 L 213.175781 219.121094 L 215.480469 217.855469 L 217.417969 216.761719 L 219.03125 215.800781 L 220.472656 214.890625 L 221.417969 214.261719 L 222.894531 213.230469 L 224.574219 211.988281 L 226.558594 210.476562 L 228.71875 208.792969 L 230.578125 207.332031 L 231.570312 206.546875 L 231.75 206.40625 Z M 234.84375 211.15625 "/>
<path style="fill-rule:nonzero;fill:rgb(0%,0%,0%);fill-opacity:1;stroke-width:0.75;stroke-linecap:round;stroke-linejoin:round;stroke:rgb(0%,0%,0%);stroke-opacity:1;stroke-miterlimit:10;" d="M 240.445312 221.105469 L 240.238281 221.191406 L 239.066406 221.65625 L 236.867188 222.527344 L 234.289062 223.535156 L 231.914062 224.4375 L 229.914062 225.164062 L 228.179688 225.746094 L 226.957031 226.125 L 225.300781 226.597656 L 223.46875 227.066406 L 221.292969 227.574219 L 218.707031 228.144531 L 215.996094 228.722656 L 213.851562 229.167969 L 212.863281 229.371094 L 212.75 229.394531 L 212.832031 229.359375 L 213.683594 229.003906 L 215.632812 228.179688 L 218.148438 227.101562 L 220.5625 226.046875 L 222.589844 225.128906 L 224.277344 224.320312 L 225.796875 223.542969 L 226.796875 223 L 228.355469 222.105469 L 230.140625 221.019531 L 232.253906 219.6875 L 234.558594 218.207031 L 236.539062 216.917969 L 237.597656 216.222656 L 237.785156 216.097656 Z M 240.445312 221.105469 "/>
<path style="fill-rule:nonzero;fill:rgb(0%,0%,0%);fill-opacity:1;stroke-width:0.75;stroke-linecap:round;stroke-linejoin:round;stroke:rgb(0%,0%,0%);stroke-opacity:1;stroke-miterlimit:10;" d="M 244.296875 231.875 L 244.078125 231.921875 L 242.847656 232.195312 L 240.535156 232.699219 L 237.828125 233.277344 L 235.339844 233.785156 L 233.25 234.179688 L 231.445312 234.476562 L 230.175781 234.652344 L 228.464844 234.851562 L 226.582031 235.019531 L 224.351562 235.171875 L 221.710938 235.316406 L 218.9375 235.449219 L 216.75 235.542969 L 215.746094 235.582031 L 215.628906 235.589844 L 215.714844 235.566406 L 216.613281 235.351562 L 218.667969 234.855469 L 221.328125 234.195312 L 223.878906 233.546875 L 226.027344 232.964844 L 227.824219 232.441406 L 229.449219 231.914062 L 230.523438 231.539062 L 232.207031 230.910156 L 234.140625 230.125 L 236.441406 229.152344 L 238.953125 228.0625 L 241.117188 227.109375 L 242.273438 226.597656 L 242.480469 226.503906 Z M 244.296875 231.875 "/>
<path style="fill-rule:nonzero;fill:rgb(0%,0%,0%);fill-opacity:1;stroke-width:0.75;stroke-linecap:round;stroke-linejoin:round;stroke:rgb(0%,0%,0%);stroke-opacity:1;stroke-miterlimit:10;" d="M 246.878906 243.007812 L 246.652344 243.03125 L 245.398438 243.160156 L 243.046875 243.394531 L 240.289062 243.65625 L 237.761719 243.871094 L 235.636719 244.019531 L 233.808594 244.105469 L 232.53125 244.132812 L 230.804688 244.132812 L 228.917969 244.082031 L 226.683594 243.976562 L 224.042969 243.816406 L 221.277344 243.625 L 219.089844 243.46875 L 218.089844 243.390625 L 217.972656 243.382812 L 218.058594 243.375 L 218.976562 243.261719 L 221.074219 243.003906 L 223.792969 242.660156 L 226.402344 242.308594 L 228.601562 241.980469 L 230.449219 241.664062 L 232.125 241.332031 L 233.234375 241.085938 L 234.980469 240.652344 L 236.992188 240.097656 L 239.386719 239.398438 L 242.011719 238.605469 L 244.269531 237.910156 L 245.476562 237.53125 L 245.695312 237.464844 Z M 246.878906 243.007812 "/>
<path style="fill-rule:nonzero;fill:rgb(0%,0%,0%);fill-opacity:1;stroke-width:0.75;stroke-linecap:round;stroke-linejoin:round;stroke:rgb(0%,0%,0%);stroke-opacity:1;stroke-miterlimit:10;" d="M 248.785156 254.277344 L 248.558594 254.289062 L 247.300781 254.359375 L 244.9375 254.480469 L 242.171875 254.605469 L 239.636719 254.703125 L 237.507812 254.75 L 235.679688 254.746094 L 234.398438 254.714844 L 232.675781 254.632812 L 230.792969 254.492188 L 228.566406 254.277344 L 225.9375 253.988281 L 223.183594 253.667969 L 221.007812 253.40625 L 220.011719 253.28125 L 219.894531 253.265625 L 219.984375 253.261719 L 220.902344 253.195312 L 223.011719 253.039062 L 225.742188 252.824219 L 228.363281 252.597656 L 230.578125 252.375 L 232.441406 252.148438 L 234.128906 251.898438 L 235.246094 251.703125 L 237.011719 251.351562 L 239.050781 250.898438 L 241.476562 250.3125 L 244.132812 249.644531 L 246.421875 249.058594 L 247.648438 248.738281 L 247.867188 248.683594 Z M 248.785156 254.277344 "/>
<path style="fill-rule:nonzero;fill:rgb(0%,0%,0%);fill-opacity:1;stroke-width:0.75;stroke-linecap:round;stroke-linejoin:round;stroke:rgb(0%,0%,0%);stroke-opacity:1;stroke-miterlimit:10;" d="M 250.824219 265.523438 L 250.597656 265.542969 L 249.339844 265.644531 L 246.984375 265.832031 L 244.222656 266.039062 L 241.6875 266.203125 L 239.5625 266.3125 L 237.734375 266.359375 L 236.453125 266.363281 L 234.730469 266.332031 L 232.84375 266.242188 L 230.613281 266.089844 L 227.976562 265.878906 L 225.214844 265.632812 L 223.03125 265.433594 L 222.03125 265.335938 L 221.914062 265.324219 L 222.003906 265.316406 L 222.917969 265.226562 L 225.023438 265.007812 L 227.75 264.71875 L 230.363281 264.417969 L 232.570312 264.132812 L 234.421875 263.855469 L 236.105469 263.554688 L 237.21875 263.328125 L 238.972656 262.929688 L 240.996094 262.417969 L 243.40625 261.765625 L 246.042969 261.023438 L 248.3125 260.371094 L 249.53125 260.019531 L 249.75 259.957031 Z M 250.824219 265.523438 "/>
<path style="fill-rule:nonzero;fill:rgb(0%,0%,0%);fill-opacity:1;stroke-width:0.75;stroke-linecap:round;stroke-linejoin:round;stroke:rgb(0%,0%,0%);stroke-opacity:1;stroke-miterlimit:10;" d="M 253.71875 276.574219 L 253.496094 276.613281 L 252.257812 276.839844 L 249.925781 277.257812 L 247.199219 277.730469 L 244.695312 278.140625 L 242.589844 278.457031 L 240.773438 278.683594 L 239.5 278.8125 L 237.78125 278.945312 L 235.894531 279.042969 L 233.660156 279.109375 L 231.015625 279.152344 L 228.242188 279.179688 L 226.050781 279.191406 L 225.046875 279.195312 L 224.929688 279.195312 L 225.015625 279.175781 L 225.917969 278.996094 L 227.992188 278.578125 L 230.675781 278.019531 L 233.25 277.46875 L 235.417969 276.96875 L 237.234375 276.511719 L 238.878906 276.050781 L 239.964844 275.71875 L 241.671875 275.148438 L 243.636719 274.441406 L 245.96875 273.558594 L 248.523438 272.5625 L 250.71875 271.691406 L 251.894531 271.222656 L 252.105469 271.136719 Z M 253.71875 276.574219 "/>
<path style="fill-rule:nonzero;fill:rgb(0%,0%,0%);fill-opacity:1;stroke-width:0.75;stroke-linecap:round;stroke-linejoin:round;stroke:rgb(0%,0%,0%);stroke-opacity:1;stroke-miterlimit:10;" d="M 257.914062 287.191406 L 257.703125 287.265625 L 256.507812 287.675781 L 254.269531 288.4375 L 251.644531 289.316406 L 249.230469 290.101562 L 247.195312 290.726562 L 245.4375 291.222656 L 244.195312 291.542969 L 242.515625 291.933594 L 240.667969 292.3125 L 238.46875 292.714844 L 235.859375 293.15625 L 233.121094 293.601562 L 230.957031 293.941406 L 229.960938 294.097656 L 229.847656 294.113281 L 229.929688 294.082031 L 230.796875 293.769531 L 232.785156 293.042969 L 235.351562 292.089844 L 237.8125 291.152344 L 239.882812 290.335938 L 241.609375 289.609375 L 243.164062 288.90625 L 244.1875 288.414062 L 245.789062 287.59375 L 247.625 286.601562 L 249.800781 285.375 L 252.175781 284.007812 L 254.214844 282.816406 L 255.308594 282.175781 L 255.503906 282.058594 Z M 257.914062 287.191406 "/>
<path style="fill-rule:nonzero;fill:rgb(0%,0%,0%);fill-opacity:1;stroke-width:0.75;stroke-linecap:round;stroke-linejoin:round;stroke:rgb(0%,0%,0%);stroke-opacity:1;stroke-miterlimit:10;" d="M 263.398438 297.210938 L 263.191406 297.300781 L 262.039062 297.8125 L 259.875 298.769531 L 257.335938 299.871094 L 255 300.863281 L 253.027344 301.664062 L 251.316406 302.316406 L 250.109375 302.738281 L 248.472656 303.277344 L 246.664062 303.8125 L 244.507812 304.40625 L 241.945312 305.074219 L 239.257812 305.753906 L 237.128906 306.285156 L 236.152344 306.523438 L 236.042969 306.550781 L 236.121094 306.515625 L 236.957031 306.125 L 238.875 305.226562 L 241.347656 304.054688 L 243.71875 302.910156 L 245.707031 301.914062 L 247.367188 301.039062 L 248.855469 300.203125 L 249.832031 299.621094 L 251.355469 298.667969 L 253.097656 297.515625 L 255.15625 296.105469 L 257.402344 294.535156 L 259.332031 293.175781 L 260.363281 292.4375 L 260.550781 292.308594 Z M 263.398438 297.210938 "/>
<path style="fill-rule:nonzero;fill:rgb(0%,0%,0%);fill-opacity:1;stroke-width:0.75;stroke-linecap:round;stroke-linejoin:round;stroke:rgb(0%,0%,0%);stroke-opacity:1;stroke-miterlimit:10;" d="M 270.382812 306.25 L 270.195312 306.378906 L 269.15625 307.089844 L 267.199219 308.417969 L 264.902344 309.964844 L 262.78125 311.359375 L 260.988281 312.503906 L 259.421875 313.453125 L 258.3125 314.089844 L 256.796875 314.910156 L 255.113281 315.769531 L 253.101562 316.742188 L 250.703125 317.859375 L 248.179688 319.015625 L 246.1875 319.917969 L 245.269531 320.332031 L 245.164062 320.378906 L 245.234375 320.328125 L 245.984375 319.792969 L 247.710938 318.566406 L 249.929688 316.964844 L 252.054688 315.410156 L 253.832031 314.070312 L 255.304688 312.914062 L 256.617188 311.820312 L 257.476562 311.074219 L 258.800781 309.859375 L 260.308594 308.414062 L 262.078125 306.652344 L 264.003906 304.703125 L 265.65625 303.015625 L 266.539062 302.105469 L 266.695312 301.941406 Z M 270.382812 306.25 "/>
<path style="fill-rule:nonzero;fill:rgb(0%,0%,0%);fill-opacity:1;stroke-width:0.75;stroke-linecap:round;stroke-linejoin:round;stroke:rgb(0%,0%,0%);stroke-opacity:1;stroke-miterlimit:10;" d="M 278.3125 314.464844 L 278.140625 314.609375 L 277.167969 315.410156 L 275.339844 316.914062 L 273.1875 318.65625 L 271.203125 320.238281 L 269.519531 321.539062 L 268.046875 322.625 L 266.996094 323.359375 L 265.5625 324.3125 L 263.960938 325.316406 L 262.042969 326.46875 L 259.757812 327.796875 L 257.347656 329.175781 L 255.441406 330.253906 L 254.566406 330.746094 L 254.464844 330.804688 L 254.53125 330.746094 L 255.234375 330.148438 L 256.839844 328.769531 L 258.90625 326.976562 L 260.882812 325.234375 L 262.535156 323.742188 L 263.898438 322.457031 L 265.105469 321.25 L 265.890625 320.429688 L 267.105469 319.101562 L 268.472656 317.527344 L 270.078125 315.613281 L 271.820312 313.5 L 273.3125 311.667969 L 274.113281 310.683594 L 274.253906 310.507812 Z M 278.3125 314.464844 "/>
<path style="fill-rule:nonzero;fill:rgb(0%,0%,0%);fill-opacity:1;stroke-width:0.75;stroke-linecap:round;stroke-linejoin:round;stroke:rgb(0%,0%,0%);stroke-opacity:1;stroke-miterlimit:10;" d="M 287.101562 321.769531 L 286.941406 321.925781 L 286.042969 322.8125 L 284.351562 324.46875 L 282.367188 326.394531 L 280.527344 328.148438 L 278.964844 329.59375 L 277.59375 330.800781 L 276.613281 331.625 L 275.269531 332.703125 L 273.765625 333.847656 L 271.957031 335.160156 L 269.796875 336.6875 L 267.519531 338.273438 L 265.714844 339.515625 L 264.886719 340.082031 L 264.789062 340.148438 L 264.851562 340.085938 L 265.496094 339.429688 L 266.972656 337.914062 L 268.875 335.941406 L 270.691406 334.035156 L 272.203125 332.402344 L 273.445312 331 L 274.542969 329.695312 L 275.253906 328.808594 L 276.34375 327.375 L 277.570312 325.683594 L 279 323.640625 L 280.550781 321.378906 L 281.875 319.425781 L 282.582031 318.375 L 282.707031 318.183594 Z M 287.101562 321.769531 "/>
<path style="fill-rule:nonzero;fill:rgb(0%,0%,0%);fill-opacity:1;stroke-width:0.75;stroke-linecap:round;stroke-linejoin:round;stroke:rgb(0%,0%,0%);stroke-opacity:1;stroke-miterlimit:10;" d="M 296.652344 328.050781 L 296.511719 328.226562 L 295.722656 329.207031 L 294.226562 331.042969 L 292.472656 333.179688 L 290.84375 335.128906 L 289.453125 336.742188 L 288.226562 338.097656 L 287.34375 339.027344 L 286.128906 340.25 L 284.765625 341.554688 L 283.113281 343.0625 L 281.140625 344.824219 L 279.054688 346.65625 L 277.402344 348.09375 L 276.644531 348.753906 L 276.554688 348.828125 L 276.609375 348.757812 L 277.175781 348.03125 L 278.472656 346.359375 L 280.144531 344.1875 L 281.730469 342.089844 L 283.050781 340.296875 L 284.128906 338.765625 L 285.070312 337.339844 L 285.675781 336.378906 L 286.597656 334.835938 L 287.625 333.015625 L 288.816406 330.824219 L 290.101562 328.402344 L 291.195312 326.308594 L 291.78125 325.1875 L 291.886719 324.984375 Z M 296.652344 328.050781 "/>
<path style="fill-rule:nonzero;fill:rgb(0%,0%,0%);fill-opacity:1;stroke-width:0.75;stroke-linecap:round;stroke-linejoin:round;stroke:rgb(0%,0%,0%);stroke-opacity:1;stroke-miterlimit:10;" d="M 306.902344 333.109375 L 306.792969 333.304688 L 306.164062 334.398438 L 304.976562 336.445312 L 303.574219 338.832031 L 302.273438 341.011719 L 301.152344 342.820312 L 300.152344 344.351562 L 299.425781 345.40625 L 298.417969 346.804688 L 297.273438 348.308594 L 295.878906 350.054688 L 294.203125 352.105469 L 292.433594 354.238281 L 291.027344 355.917969 L 290.378906 356.6875 L 290.304688 356.777344 L 290.347656 356.699219 L 290.792969 355.894531 L 291.8125 354.039062 L 293.121094 351.632812 L 294.359375 349.308594 L 295.382812 347.332031 L 296.207031 345.652344 L 296.917969 344.097656 L 297.363281 343.054688 L 298.035156 341.382812 L 298.761719 339.425781 L 299.59375 337.074219 L 300.484375 334.484375 L 301.242188 332.246094 L 301.644531 331.042969 L 301.714844 330.828125 Z M 306.902344 333.109375 "/>
<path style="fill-rule:nonzero;fill:rgb(0%,0%,0%);fill-opacity:1;stroke-width:0.75;stroke-linecap:round;stroke-linejoin:round;stroke:rgb(0%,0%,0%);stroke-opacity:1;stroke-miterlimit:10;" d="M 317.527344 337.300781 L 317.429688 337.503906 L 316.890625 338.644531 L 315.871094 340.777344 L 314.660156 343.269531 L 313.535156 345.542969 L 312.558594 347.4375 L 311.683594 349.042969 L 311.046875 350.152344 L 310.152344 351.625 L 309.128906 353.210938 L 307.878906 355.066406 L 306.371094 357.242188 L 304.773438 359.507812 L 303.503906 361.292969 L 302.917969 362.109375 L 302.851562 362.207031 L 302.886719 362.125 L 303.265625 361.285156 L 304.136719 359.355469 L 305.25 356.855469 L 306.304688 354.441406 L 307.167969 352.390625 L 307.855469 350.648438 L 308.441406 349.042969 L 308.804688 347.96875 L 309.339844 346.25 L 309.910156 344.242188 L 310.554688 341.832031 L 311.238281 339.175781 L 311.8125 336.886719 L 312.121094 335.65625 L 312.171875 335.4375 Z M 317.527344 337.300781 "/>
<path style="fill-rule:nonzero;fill:rgb(0%,0%,0%);fill-opacity:1;stroke-width:0.75;stroke-linecap:round;stroke-linejoin:round;stroke:rgb(0%,0%,0%);stroke-opacity:1;stroke-miterlimit:10;" d="M 328.613281 340.074219 L 328.539062 340.289062 L 328.105469 341.472656 L 327.28125 343.691406 L 326.308594 346.28125 L 325.398438 348.652344 L 324.601562 350.625 L 323.878906 352.304688 L 323.34375 353.46875 L 322.589844 355.015625 L 321.714844 356.691406 L 320.640625 358.652344 L 319.339844 360.957031 L 317.957031 363.363281 L 316.859375 365.257812 L 316.351562 366.125 L 316.292969 366.226562 L 316.320312 366.144531 L 316.625 365.273438 L 317.3125 363.269531 L 318.191406 360.675781 L 319.015625 358.179688 L 319.6875 356.054688 L 320.210938 354.257812 L 320.644531 352.605469 L 320.910156 351.5 L 321.285156 349.742188 L 321.667969 347.6875 L 322.089844 345.226562 L 322.523438 342.523438 L 322.886719 340.1875 L 323.078125 338.9375 L 323.113281 338.710938 Z M 328.613281 340.074219 "/>
<path style="fill-rule:nonzero;fill:rgb(0%,0%,0%);fill-opacity:1;stroke-width:0.75;stroke-linecap:round;stroke-linejoin:round;stroke:rgb(0%,0%,0%);stroke-opacity:1;stroke-miterlimit:10;" d="M 339.964844 341.4375 L 339.914062 341.65625 L 339.625 342.882812 L 339.078125 345.183594 L 338.425781 347.875 L 337.804688 350.335938 L 337.253906 352.390625 L 336.738281 354.148438 L 336.347656 355.367188 L 335.785156 356.996094 L 335.121094 358.761719 L 334.289062 360.839844 L 333.273438 363.285156 L 332.191406 365.835938 L 331.328125 367.851562 L 330.929688 368.773438 L 330.882812 368.878906 L 330.902344 368.792969 L 331.097656 367.894531 L 331.539062 365.824219 L 332.101562 363.144531 L 332.621094 360.5625 L 333.027344 358.375 L 333.335938 356.527344 L 333.566406 354.835938 L 333.695312 353.707031 L 333.855469 351.914062 L 333.988281 349.832031 L 334.109375 347.335938 L 334.214844 344.597656 L 334.292969 342.238281 L 334.332031 340.972656 L 334.339844 340.746094 Z M 339.964844 341.4375 "/>
<path style="fill-rule:nonzero;fill:rgb(0%,0%,0%);fill-opacity:1;stroke-width:0.75;stroke-linecap:round;stroke-linejoin:round;stroke:rgb(0%,0%,0%);stroke-opacity:1;stroke-miterlimit:10;" d="M 351.402344 341.222656 L 351.386719 341.445312 L 351.292969 342.703125 L 351.105469 345.0625 L 350.875 347.820312 L 350.640625 350.347656 L 350.414062 352.464844 L 350.175781 354.277344 L 349.976562 355.542969 L 349.671875 357.238281 L 349.289062 359.089844 L 348.789062 361.269531 L 348.167969 363.839844 L 347.492188 366.53125 L 346.949219 368.652344 L 346.699219 369.625 L 346.667969 369.738281 L 346.675781 369.652344 L 346.726562 368.730469 L 346.84375 366.617188 L 346.984375 363.882812 L 347.097656 361.253906 L 347.164062 359.027344 L 347.179688 357.15625 L 347.148438 355.449219 L 347.101562 354.3125 L 346.980469 352.515625 L 346.792969 350.4375 L 346.527344 347.957031 L 346.210938 345.234375 L 345.921875 342.890625 L 345.765625 341.632812 L 345.738281 341.40625 Z M 351.402344 341.222656 "/>
<path style="fill-rule:nonzero;fill:rgb(0%,0%,0%);fill-opacity:1;stroke-width:0.75;stroke-linecap:round;stroke-linejoin:round;stroke:rgb(0%,0%,0%);stroke-opacity:1;stroke-miterlimit:10;" d="M 362.664062 339.257812 L 362.691406 339.484375 L 362.835938 340.734375 L 363.097656 343.085938 L 363.390625 345.839844 L 363.636719 348.367188 L 363.8125 350.488281 L 363.917969 352.3125 L 363.964844 353.59375 L 363.984375 355.316406 L 363.957031 357.203125 L 363.878906 359.441406 L 363.75 362.082031 L 363.59375 364.851562 L 363.460938 367.039062 L 363.398438 368.042969 L 363.390625 368.160156 L 363.378906 368.070312 L 363.257812 367.15625 L 362.972656 365.058594 L 362.59375 362.347656 L 362.210938 359.742188 L 361.859375 357.546875 L 361.519531 355.703125 L 361.167969 354.035156 L 360.90625 352.925781 L 360.453125 351.1875 L 359.875 349.179688 L 359.144531 346.792969 L 358.320312 344.179688 L 357.597656 341.929688 L 357.207031 340.726562 L 357.132812 340.511719 Z M 362.664062 339.257812 "/>
<path style="fill-rule:nonzero;fill:rgb(0%,0%,0%);fill-opacity:1;stroke-width:0.75;stroke-linecap:round;stroke-linejoin:round;stroke:rgb(0%,0%,0%);stroke-opacity:1;stroke-miterlimit:10;" d="M 373.621094 336.054688 L 373.667969 336.273438 L 373.941406 337.503906 L 374.449219 339.816406 L 375.027344 342.523438 L 375.539062 345.011719 L 375.933594 347.101562 L 376.230469 348.90625 L 376.40625 350.175781 L 376.609375 351.886719 L 376.777344 353.765625 L 376.929688 356 L 377.078125 358.640625 L 377.210938 361.410156 L 377.308594 363.597656 L 377.351562 364.605469 L 377.355469 364.71875 L 377.335938 364.632812 L 377.117188 363.738281 L 376.617188 361.683594 L 375.960938 359.023438 L 375.304688 356.472656 L 374.726562 354.324219 L 374.199219 352.527344 L 373.671875 350.902344 L 373.296875 349.832031 L 372.664062 348.148438 L 371.878906 346.210938 L 370.90625 343.914062 L 369.8125 341.402344 L 368.859375 339.238281 L 368.34375 338.082031 L 368.25 337.875 Z M 373.621094 336.054688 "/>
<path style="fill-rule:nonzero;fill:rgb(0%,0%,0%);fill-opacity:1;stroke-width:0.75;stroke-linecap:round;stroke-linejoin:round;stroke:rgb(0%,0%,0%);stroke-opacity:1;stroke-miterlimit:10;" d="M 384.117188 331.550781 L 384.1875 331.765625 L 384.578125 332.960938 L 385.304688 335.214844 L 386.140625 337.851562 L 386.882812 340.28125 L 387.476562 342.324219 L 387.949219 344.09375 L 388.246094 345.335938 L 388.609375 347.023438 L 388.957031 348.878906 L 389.324219 351.085938 L 389.726562 353.699219 L 390.125 356.445312 L 390.429688 358.613281 L 390.570312 359.609375 L 390.585938 359.726562 L 390.554688 359.640625 L 390.253906 358.769531 L 389.558594 356.769531 L 388.648438 354.1875 L 387.753906 351.714844 L 386.96875 349.628906 L 386.273438 347.890625 L 385.59375 346.324219 L 385.117188 345.292969 L 384.324219 343.679688 L 383.359375 341.828125 L 382.167969 339.632812 L 380.839844 337.238281 L 379.683594 335.175781 L 379.058594 334.074219 L 378.945312 333.878906 Z M 384.117188 331.550781 "/>
<path style="fill-rule:nonzero;fill:rgb(0%,0%,0%);fill-opacity:1;stroke-width:0.75;stroke-linecap:round;stroke-linejoin:round;stroke:rgb(0%,0%,0%);stroke-opacity:1;stroke-miterlimit:10;" d="M 393.933594 325.703125 L 394.039062 325.90625 L 394.617188 327.023438 L 395.695312 329.128906 L 396.949219 331.597656 L 398.074219 333.875 L 398.992188 335.796875 L 399.738281 337.464844 L 400.234375 338.644531 L 400.867188 340.25 L 401.507812 342.023438 L 402.226562 344.140625 L 403.046875 346.660156 L 403.882812 349.304688 L 404.535156 351.394531 L 404.832031 352.355469 L 404.863281 352.464844 L 404.824219 352.390625 L 404.386719 351.578125 L 403.375 349.71875 L 402.0625 347.316406 L 400.777344 345.015625 L 399.667969 343.089844 L 398.699219 341.484375 L 397.777344 340.046875 L 397.140625 339.105469 L 396.097656 337.640625 L 394.847656 335.96875 L 393.316406 333.996094 L 391.617188 331.847656 L 390.144531 330 L 389.351562 329.011719 L 389.207031 328.835938 Z M 393.933594 325.703125 "/>
<path style="fill-rule:nonzero;fill:rgb(0%,0%,0%);fill-opacity:1;stroke-width:0.75;stroke-linecap:round;stroke-linejoin:round;stroke:rgb(0%,0%,0%);stroke-opacity:1;stroke-miterlimit:10;" d="M 403.222656 319.050781 L 403.339844 319.246094 L 403.988281 320.324219 L 405.203125 322.355469 L 406.613281 324.738281 L 407.886719 326.933594 L 408.925781 328.792969 L 409.78125 330.410156 L 410.355469 331.554688 L 411.085938 333.113281 L 411.84375 334.84375 L 412.699219 336.910156 L 413.679688 339.367188 L 414.6875 341.953125 L 415.476562 343.996094 L 415.835938 344.933594 L 415.875 345.042969 L 415.828125 344.96875 L 415.339844 344.1875 L 414.210938 342.398438 L 412.742188 340.085938 L 411.3125 337.875 L 410.078125 336.023438 L 409.007812 334.488281 L 407.992188 333.113281 L 407.296875 332.214844 L 406.160156 330.820312 L 404.800781 329.234375 L 403.148438 327.367188 L 401.3125 325.332031 L 399.71875 323.585938 L 398.863281 322.652344 L 398.710938 322.484375 Z M 403.222656 319.050781 "/>
<path style="fill-rule:nonzero;fill:rgb(0%,0%,0%);fill-opacity:1;stroke-width:0.75;stroke-linecap:round;stroke-linejoin:round;stroke:rgb(0%,0%,0%);stroke-opacity:1;stroke-miterlimit:10;" d="M 411.992188 311.726562 L 412.121094 311.914062 L 412.828125 312.957031 L 414.15625 314.917969 L 415.695312 317.214844 L 417.085938 319.339844 L 418.230469 321.136719 L 419.171875 322.703125 L 419.808594 323.816406 L 420.625 325.332031 L 421.480469 327.015625 L 422.449219 329.03125 L 423.5625 331.433594 L 424.710938 333.957031 L 425.609375 335.953125 L 426.023438 336.871094 L 426.070312 336.976562 L 426.019531 336.90625 L 425.488281 336.152344 L 424.261719 334.425781 L 422.664062 332.203125 L 421.113281 330.074219 L 419.78125 328.292969 L 418.625 326.820312 L 417.535156 325.503906 L 416.789062 324.644531 L 415.578125 323.316406 L 414.132812 321.808594 L 412.378906 320.035156 L 410.433594 318.105469 L 408.746094 316.449219 L 407.839844 315.566406 L 407.679688 315.40625 Z M 411.992188 311.726562 "/>
<path style="fill-rule:nonzero;fill:rgb(0%,0%,0%);fill-opacity:1;stroke-width:0.75;stroke-linecap:round;stroke-linejoin:round;stroke:rgb(0%,0%,0%);stroke-opacity:1;stroke-miterlimit:10;" d="M 420.203125 303.78125 L 420.347656 303.953125 L 421.140625 304.933594 L 422.628906 306.773438 L 424.359375 308.933594 L 425.929688 310.929688 L 427.21875 312.625 L 428.292969 314.105469 L 429.019531 315.160156 L 429.960938 316.601562 L 430.957031 318.207031 L 432.09375 320.132812 L 433.40625 322.429688 L 434.765625 324.847656 L 435.832031 326.761719 L 436.320312 327.640625 L 436.375 327.742188 L 436.316406 327.675781 L 435.726562 326.96875 L 434.355469 325.355469 L 432.578125 323.273438 L 430.851562 321.285156 L 429.371094 319.625 L 428.09375 318.253906 L 426.898438 317.035156 L 426.082031 316.242188 L 424.761719 315.023438 L 423.195312 313.640625 L 421.296875 312.023438 L 419.191406 310.265625 L 417.371094 308.757812 L 416.394531 307.957031 L 416.21875 307.8125 Z M 420.203125 303.78125 "/>
<path style="fill-rule:nonzero;fill:rgb(0%,0%,0%);fill-opacity:1;stroke-width:0.75;stroke-linecap:round;stroke-linejoin:round;stroke:rgb(0%,0%,0%);stroke-opacity:1;stroke-miterlimit:10;" d="M 428.078125 295.496094 L 428.226562 295.667969 L 429.050781 296.617188 L 430.597656 298.410156 L 432.394531 300.515625 L 434.027344 302.460938 L 435.371094 304.113281 L 436.492188 305.558594 L 437.25 306.589844 L 438.242188 308 L 439.285156 309.570312 L 440.480469 311.460938 L 441.871094 313.714844 L 443.304688 316.085938 L 444.433594 317.964844 L 444.945312 318.828125 L 445.007812 318.929688 L 444.949219 318.863281 L 444.332031 318.179688 L 442.914062 316.609375 L 441.066406 314.585938 L 439.28125 312.652344 L 437.746094 311.039062 L 436.425781 309.710938 L 435.191406 308.53125 L 434.351562 307.765625 L 432.992188 306.585938 L 431.382812 305.257812 L 429.429688 303.699219 L 427.273438 302.011719 L 425.40625 300.566406 L 424.402344 299.792969 L 424.222656 299.652344 Z M 428.078125 295.496094 "/>
<path style="fill-rule:nonzero;fill:rgb(0%,0%,0%);fill-opacity:1;stroke-width:0.75;stroke-linecap:round;stroke-linejoin:round;stroke:rgb(0%,0%,0%);stroke-opacity:1;stroke-miterlimit:10;" d="M 435.644531 286.933594 L 435.796875 287.097656 L 436.648438 288.027344 L 438.242188 289.777344 L 440.09375 291.835938 L 441.777344 293.734375 L 443.164062 295.351562 L 444.320312 296.765625 L 445.109375 297.777344 L 446.136719 299.160156 L 447.222656 300.707031 L 448.46875 302.5625 L 449.914062 304.777344 L 451.414062 307.113281 L 452.589844 308.960938 L 453.128906 309.8125 L 453.1875 309.910156 L 453.128906 309.84375 L 452.496094 309.175781 L 451.035156 307.644531 L 449.136719 305.667969 L 447.296875 303.785156 L 445.722656 302.214844 L 444.367188 300.917969 L 443.101562 299.773438 L 442.242188 299.03125 L 440.851562 297.890625 L 439.207031 296.601562 L 437.214844 295.097656 L 435.015625 293.464844 L 433.109375 292.070312 L 432.085938 291.324219 L 431.902344 291.191406 Z M 435.644531 286.933594 "/>
<path style="fill-rule:nonzero;fill:rgb(0%,0%,0%);fill-opacity:1;stroke-width:0.75;stroke-linecap:round;stroke-linejoin:round;stroke:rgb(0%,0%,0%);stroke-opacity:1;stroke-miterlimit:10;" d="M 442.871094 278.074219 L 443.027344 278.234375 L 443.917969 279.128906 L 445.578125 280.8125 L 447.511719 282.792969 L 449.269531 284.625 L 450.71875 286.183594 L 451.933594 287.554688 L 452.761719 288.53125 L 453.84375 289.871094 L 454.988281 291.371094 L 456.308594 293.175781 L 457.84375 295.332031 L 459.433594 297.605469 L 460.683594 299.40625 L 461.253906 300.230469 L 461.320312 300.328125 L 461.257812 300.265625 L 460.597656 299.625 L 459.078125 298.152344 L 457.101562 296.253906 L 455.191406 294.445312 L 453.550781 292.9375 L 452.148438 291.699219 L 450.835938 290.605469 L 449.945312 289.898438 L 448.511719 288.8125 L 446.816406 287.59375 L 444.765625 286.171875 L 442.5 284.628906 L 440.542969 283.308594 L 439.300781 282.480469 Z M 442.871094 278.074219 "/>
<path style="fill-rule:nonzero;fill:rgb(0%,0%,0%);fill-opacity:1;stroke-width:0.75;stroke-linecap:round;stroke-linejoin:round;stroke:rgb(0%,0%,0%);stroke-opacity:1;stroke-miterlimit:10;" d="M 449.890625 269.058594 L 450.054688 269.210938 L 450.964844 270.082031 L 452.675781 271.71875 L 454.664062 273.644531 L 456.46875 275.425781 L 457.964844 276.945312 L 459.214844 278.277344 L 460.070312 279.230469 L 461.1875 280.542969 L 462.375 282.011719 L 463.746094 283.777344 L 465.339844 285.890625 L 466.996094 288.117188 L 468.292969 289.882812 L 468.886719 290.691406 L 468.957031 290.785156 L 468.890625 290.726562 L 468.214844 290.101562 L 466.652344 288.671875 L 464.625 286.832031 L 462.660156 285.078125 L 460.984375 283.617188 L 459.542969 282.417969 L 458.203125 281.363281 L 457.292969 280.679688 L 455.828125 279.632812 L 454.101562 278.460938 L 452.011719 277.097656 L 449.703125 275.617188 L 447.710938 274.355469 L 446.636719 273.679688 L 446.445312 273.558594 Z M 449.890625 269.058594 "/>
</g>
</svg>
