<?xml version="1.0" encoding="UTF-8"?>
<svg xmlns="http://www.w3.org/2000/svg" xmlns:xlink="http://www.w3.org/1999/xlink" width="504pt" height="504pt" viewBox="0 0 504 504" version="1.1">
<g id="surface313">
<path style="fill-rule:nonzero;fill:rgb(58.039216%,0%,82.745098%);fill-opacity:1;stroke-width:0.75;stroke-linecap:round;stroke-linejoin:round;stroke:rgb(58.039216%,0%,82.745098%);stroke-opacity:1;stroke-miterlimit:10;" d="M 252.859375 407.304688 L 254.578125 407.117188 L 258.25 406.539062 L 259.953125 406.300781 L 263.039062 405.71875 L 265.238281 405.324219 L 268.78125 404.539062 L 270.460938 404.195312 L 275.375 402.945312 L 280.140625 401.574219 L 281.808594 401.0625 L 284.910156 400.058594 L 287.953125 398.957031 L 289.496094 398.421875 L 293.761719 396.71875 L 297.863281 394.925781 L 298.5 394.667969 L 302.4375 392.769531 L 303.609375 392.183594 L 306.554688 390.65625 L 307.632812 390.074219 L 310.726562 388.359375 L 314.792969 385.957031 L 317.1875 384.453125 L 318.917969 383.378906 L 319.945312 382.703125 L 323.085938 380.640625 L 326.324219 378.410156 L 327.273438 377.777344 L 329.410156 376.238281 L 331.386719 374.847656 L 332.570312 373.96875 L 335.554688 371.769531 L 339.617188 368.628906 L 342.796875 366.039062 L 343.632812 365.367188 L 343.640625 365.359375 L 346.320312 363.054688 L 347.476562 362.066406 L 347.484375 362.058594 L 349.523438 360.195312 L 351.152344 358.71875 L 352.125 357.78125 L 353.808594 356.15625 L 354.691406 355.308594 L 354.699219 355.304688 L 355.652344 354.351562 L 356.960938 353.066406 L 358.097656 351.949219 L 358.105469 351.945312 L 359.148438 350.851562 L 361.304688 348.605469 L 361.308594 348.597656 L 361.914062 347.921875 L 364.359375 345.214844 L 364.367188 345.210938 L 364.933594 344.539062 L 367.265625 341.792969 L 367.269531 341.785156 L 367.914062 340.972656 L 370.023438 338.351562 L 370.359375 337.910156 L 372.988281 334.425781 L 375.601562 330.777344 L 377.644531 327.789062 L 378.226562 326.945312 L 379.722656 324.648438 L 380.789062 323.042969 L 381.796875 321.410156 L 382.671875 320.027344 L 383.371094 318.917969 L 384.359375 317.238281 L 385.910156 314.648438 L 387.84375 311.226562 L 388.429688 310.175781 L 389.773438 307.648438 L 390.84375 305.632812 L 391.824219 303.640625 L 393.175781 300.9375 L 393.996094 299.128906 L 395.394531 296.117188 L 396.253906 294.066406 L 397.476562 291.199219 L 398.542969 288.457031 L 399.398438 286.21875 L 400.765625 282.394531 L 401.148438 281.214844 L 402.679688 276.417969 L 404.035156 271.617188 L 404.554688 269.441406 L 405.222656 266.699219 L 405.867188 263.660156 L 406.222656 261.863281 L 406.773438 258.792969 L 407.039062 257.15625 L 407.320312 255.136719 L 407.691406 252.65625 L 407.746094 251.859375 L 407.746094 251.832031 L 407.617188 250.886719 L 407.347656 249.058594 L 407.109375 247.257812 L 406.816406 245.484375 L 406.308594 242.570312 L 405.9375 240.679688 L 405.324219 237.746094 L 404.648438 234.945312 L 404.152344 232.832031 L 402.816406 228.042969 L 401.300781 223.242188 L 400.898438 221.996094 L 399.570312 218.238281 L 398.683594 215.910156 L 397.660156 213.257812 L 396.398438 210.269531 L 395.59375 208.332031 L 394.136719 205.171875 L 393.386719 203.5 L 391.957031 200.628906 L 391.0625 198.792969 L 389.894531 196.589844 L 388.65625 194.238281 L 387.960938 192.988281 L 386.144531 189.753906 L 384.46875 186.941406 L 383.601562 185.460938 L 382.777344 184.144531 L 381.023438 181.320312 L 378.449219 177.394531 L 376.496094 174.539062 L 375.832031 173.546875 L 374.25 171.347656 L 373.230469 169.902344 L 371.8125 168.023438 L 370.609375 166.410156 L 370.28125 165.980469 L 369.121094 164.535156 L 367.5625 162.570312 L 366.207031 160.96875 L 364.671875 159.140625 L 363.175781 157.476562 L 361.632812 155.75 L 360.261719 154.316406 L 358.4375 152.394531 L 357.792969 151.757812 L 356.128906 150.113281 L 355.03125 149.023438 L 355.023438 149.019531 L 354.289062 148.308594 L 352.972656 147.03125 L 351.523438 145.625 L 351.515625 145.621094 L 350.714844 144.890625 L 347.8125 142.234375 L 343.984375 138.929688 L 340.84375 136.367188 L 339.972656 135.652344 L 337.3125 133.59375 L 335.917969 132.503906 L 333.9375 131.046875 L 331.820312 129.460938 L 330.726562 128.699219 L 327.632812 126.484375 L 324.667969 124.445312 L 323.457031 123.605469 L 321.480469 122.3125 L 320.117188 121.402344 L 319.289062 120.863281 L 317.363281 119.65625 L 315.253906 118.316406 L 314.425781 117.84375 L 311.097656 115.855469 L 307.871094 114.050781 L 306.929688 113.546875 L 303.878906 111.949219 L 302.820312 111.421875 L 298.890625 109.507812 L 298.257812 109.25 L 294.164062 107.445312 L 289.910156 105.734375 L 288.328125 105.175781 L 285.335938 104.089844 L 282.207031 103.0625 L 280.585938 102.558594 L 275.839844 101.179688 L 270.933594 99.917969 L 269.167969 99.546875 L 265.71875 98.773438 L 263.382812 98.34375 L 260.4375 97.785156 L 258.523438 97.5 L 255.058594 96.953125 L 252.976562 96.710938 L 252.171875 96.601562 L 252.144531 96.601562 L 251.140625 96.695312 L 249.421875 96.882812 L 245.75 97.460938 L 244.046875 97.699219 L 240.960938 98.28125 L 238.761719 98.675781 L 235.21875 99.460938 L 233.539062 99.804688 L 228.625 101.054688 L 223.859375 102.425781 L 222.191406 102.9375 L 219.089844 103.941406 L 216.046875 105.042969 L 214.503906 105.578125 L 210.238281 107.28125 L 206.136719 109.074219 L 205.5 109.332031 L 201.5625 111.230469 L 200.390625 111.816406 L 197.445312 113.34375 L 196.367188 113.925781 L 193.273438 115.640625 L 189.207031 118.042969 L 186.8125 119.546875 L 185.082031 120.621094 L 184.054688 121.296875 L 180.914062 123.359375 L 177.675781 125.589844 L 176.726562 126.222656 L 174.589844 127.761719 L 172.613281 129.152344 L 171.429688 130.03125 L 168.445312 132.230469 L 164.382812 135.371094 L 161.203125 137.960938 L 160.367188 138.632812 L 160.359375 138.640625 L 157.679688 140.945312 L 156.523438 141.933594 L 156.515625 141.941406 L 154.476562 143.804688 L 152.847656 145.28125 L 151.875 146.21875 L 150.191406 147.84375 L 149.308594 148.691406 L 149.300781 148.695312 L 148.347656 149.648438 L 147.039062 150.933594 L 145.902344 152.050781 L 145.894531 152.054688 L 144.851562 153.148438 L 142.695312 155.394531 L 142.691406 155.402344 L 142.085938 156.078125 L 139.640625 158.785156 L 139.632812 158.789062 L 139.066406 159.460938 L 136.734375 162.207031 L 136.730469 162.214844 L 136.085938 163.027344 L 133.976562 165.648438 L 133.640625 166.089844 L 131.011719 169.574219 L 128.398438 173.222656 L 126.355469 176.210938 L 125.773438 177.054688 L 124.277344 179.351562 L 123.210938 180.957031 L 122.203125 182.589844 L 121.328125 183.972656 L 120.628906 185.082031 L 119.640625 186.761719 L 118.089844 189.351562 L 116.15625 192.773438 L 115.570312 193.824219 L 114.226562 196.351562 L 113.15625 198.367188 L 112.175781 200.359375 L 110.824219 203.0625 L 110.003906 204.871094 L 108.605469 207.882812 L 107.746094 209.933594 L 106.523438 212.800781 L 105.457031 215.542969 L 104.601562 217.78125 L 103.234375 221.605469 L 102.851562 222.785156 L 101.320312 227.582031 L 99.964844 232.382812 L 99.445312 234.558594 L 98.777344 237.300781 L 98.132812 240.339844 L 97.777344 242.136719 L 97.226562 245.207031 L 96.960938 246.84375 L 96.679688 248.863281 L 96.308594 251.34375 L 96.253906 252.140625 L 96.253906 252.167969 L 96.382812 253.113281 L 96.652344 254.941406 L 96.890625 256.742188 L 97.183594 258.515625 L 97.691406 261.429688 L 98.0625 263.320312 L 98.675781 266.253906 L 99.351562 269.054688 L 99.847656 271.167969 L 101.183594 275.957031 L 102.699219 280.757812 L 103.101562 282.003906 L 104.429688 285.761719 L 105.316406 288.089844 L 106.339844 290.742188 L 107.601562 293.730469 L 108.40625 295.667969 L 109.863281 298.828125 L 110.613281 300.5 L 112.042969 303.371094 L 112.9375 305.207031 L 114.105469 307.410156 L 115.34375 309.761719 L 116.039062 311.011719 L 117.855469 314.246094 L 119.53125 317.058594 L 120.398438 318.539062 L 121.222656 319.855469 L 122.976562 322.679688 L 125.550781 326.605469 L 127.503906 329.460938 L 128.167969 330.453125 L 129.75 332.652344 L 130.769531 334.097656 L 132.1875 335.976562 L 133.390625 337.589844 L 133.71875 338.019531 L 134.878906 339.464844 L 136.4375 341.429688 L 137.792969 343.03125 L 139.328125 344.859375 L 140.824219 346.523438 L 142.367188 348.25 L 143.738281 349.6875 L 145.5625 351.605469 L 146.207031 352.242188 L 147.871094 353.886719 L 148.96875 354.976562 L 148.976562 354.980469 L 149.710938 355.691406 L 151.027344 356.96875 L 152.476562 358.375 L 152.484375 358.378906 L 153.285156 359.109375 L 156.1875 361.765625 L 160.015625 365.070312 L 163.15625 367.632812 L 164.027344 368.347656 L 166.6875 370.40625 L 168.082031 371.496094 L 170.0625 372.953125 L 172.179688 374.539062 L 173.273438 375.300781 L 176.367188 377.515625 L 179.332031 379.554688 L 180.542969 380.394531 L 182.519531 381.6875 L 183.882812 382.597656 L 184.710938 383.136719 L 186.636719 384.34375 L 188.746094 385.683594 L 189.574219 386.15625 L 192.902344 388.144531 L 196.128906 389.949219 L 197.070312 390.453125 L 200.121094 392.050781 L 201.179688 392.578125 L 205.109375 394.492188 L 205.742188 394.75 L 209.835938 396.554688 L 214.089844 398.265625 L 215.671875 398.824219 L 218.664062 399.910156 L 221.792969 400.9375 L 223.414062 401.441406 L 228.160156 402.820312 L 233.066406 404.082031 L 234.832031 404.453125 L 238.28125 405.226562 L 240.617188 405.65625 L 243.5625 406.214844 L 245.476562 406.5 L 248.941406 407.046875 L 251.023438 407.289062 L 251.828125 407.398438 L 251.855469 407.398438 Z M 379.457031 252.171875 L 379.730469 254.589844 L 379.9375 256.226562 L 380.054688 257.363281 L 380.289062 260.171875 L 380.378906 261.429688 L 380.515625 264.140625 L 380.5625 266.519531 L 380.613281 268.210938 L 380.539062 272.59375 L 380.292969 277.144531 L 380.265625 277.8125 L 379.921875 281.632812 L 379.695312 283.605469 L 379.382812 286.21875 L 378.949219 289.015625 L 378.667969 290.882812 L 378.085938 293.933594 L 377.78125 295.574219 L 377.152344 298.328125 L 376.714844 300.257812 L 376.195312 302.234375 L 375.476562 304.878906 L 375.234375 305.722656 L 374.113281 309.300781 L 373.183594 311.921875 L 372.570312 313.609375 L 372.179688 314.605469 L 371.558594 316.121094 L 370.894531 317.71875 L 370.175781 319.300781 L 369.046875 321.703125 L 368.703125 322.378906 L 367.101562 325.414062 L 364.988281 329.011719 L 362.707031 332.527344 L 362.574219 332.734375 L 360.632812 335.457031 L 360.164062 336.113281 L 358 338.910156 L 357.609375 339.417969 L 355.304688 342.175781 L 354.867188 342.699219 L 352.824219 344.964844 L 351.902344 345.984375 L 350.890625 347.027344 L 349.613281 348.34375 L 348.757812 349.210938 L 347.960938 349.941406 L 346.238281 351.523438 L 345.371094 352.320312 L 343.777344 353.679688 L 341.75 355.410156 L 340.695312 356.246094 L 337.972656 358.402344 L 337.28125 358.910156 L 334.105469 361.238281 L 330.0625 363.972656 L 327.058594 365.828125 L 325.96875 366.484375 L 323.960938 367.609375 L 321.738281 368.824219 L 320.929688 369.222656 L 317.558594 370.875 L 314.285156 372.300781 L 313.382812 372.679688 L 311.613281 373.359375 L 309.222656 374.261719 L 305.085938 375.644531 L 301.941406 376.550781 L 301.125 376.769531 L 298.027344 377.546875 L 297.160156 377.738281 L 293.015625 378.617188 L 292.886719 378.605469 L 288.800781 379.292969 L 284.699219 379.824219 L 283.558594 379.910156 L 280.671875 380.179688 L 277.757812 380.351562 L 276.554688 380.398438 L 272.144531 380.507812 L 267.617188 380.464844 L 266.5 380.386719 L 263.160156 380.25 L 261.445312 380.101562 L 258.582031 379.890625 L 257.4375 379.734375 L 253.988281 379.375 L 252.898438 379.183594 L 251.898438 379.085938 L 251.867188 379.085938 L 251.066406 379.191406 L 249.554688 379.429688 L 246.367188 379.757812 L 244.96875 379.929688 L 242.285156 380.121094 L 240.402344 380.277344 L 237.179688 380.398438 L 235.960938 380.476562 L 231.445312 380.503906 L 227.042969 380.382812 L 225.890625 380.335938 L 222.933594 380.148438 L 220.109375 379.875 L 218.917969 379.78125 L 214.824219 379.238281 L 210.742188 378.535156 L 210.613281 378.546875 L 206.460938 377.652344 L 205.730469 377.488281 L 202.488281 376.664062 L 201.839844 376.496094 L 198.519531 375.519531 L 195.0625 374.351562 L 194.464844 374.160156 L 192.222656 373.300781 L 190.210938 372.511719 L 189.5625 372.242188 L 188.0625 371.582031 L 186.027344 370.675781 L 184.902344 370.136719 L 181.835938 368.605469 L 178.65625 366.832031 L 177.683594 366.28125 L 175.515625 364.949219 L 173.539062 363.707031 L 172.214844 362.816406 L 169.5 360.957031 L 168.769531 360.425781 L 165.640625 358.105469 L 161.882812 355.105469 L 159.019531 352.644531 L 158.332031 352.054688 L 156.917969 350.75 L 155.570312 349.503906 L 154.945312 348.921875 L 153.941406 347.882812 L 152.316406 346.203125 L 151.839844 345.707031 L 150.117188 343.789062 L 148.902344 342.429688 L 147.503906 340.75 L 146.175781 339.148438 L 144.808594 337.371094 L 143.636719 335.839844 L 142.261719 333.910156 L 141.214844 332.417969 L 141.074219 332.199219 L 139.992188 330.539062 L 138.800781 328.671875 L 138 327.308594 L 136.695312 325.046875 L 136.253906 324.203125 L 134.757812 321.316406 L 132.929688 317.328125 L 131.761719 314.449219 L 131.269531 313.199219 L 130.757812 311.757812 L 129.746094 308.882812 L 128.710938 305.527344 L 128.398438 304.441406 L 127.75 302.015625 L 127.175781 299.8125 L 126.789062 298.082031 L 126.125 295.125 L 125.863281 293.65625 L 125.253906 290.433594 L 125.003906 288.707031 L 124.558594 285.777344 L 124.265625 283.269531 L 124.035156 281.195312 L 123.710938 277.460938 L 123.675781 276.722656 L 123.449219 272.183594 L 123.386719 267.808594 L 123.445312 266.199219 L 123.496094 263.75 L 123.640625 261.160156 L 123.738281 259.789062 L 123.96875 257.167969 L 124.101562 255.835938 L 124.289062 254.480469 L 124.496094 252.644531 L 124.597656 251.859375 L 124.597656 251.832031 L 124.542969 251.828125 L 124.269531 249.410156 L 124.0625 247.773438 L 123.945312 246.636719 L 123.710938 243.828125 L 123.621094 242.570312 L 123.484375 239.859375 L 123.4375 237.480469 L 123.386719 235.789062 L 123.460938 231.40625 L 123.707031 226.855469 L 123.734375 226.1875 L 124.078125 222.367188 L 124.304688 220.394531 L 124.617188 217.78125 L 125.050781 214.984375 L 125.332031 213.117188 L 125.914062 210.066406 L 126.21875 208.425781 L 126.847656 205.671875 L 127.285156 203.742188 L 127.804688 201.765625 L 128.523438 199.121094 L 128.765625 198.277344 L 129.886719 194.699219 L 130.816406 192.078125 L 131.429688 190.390625 L 131.820312 189.394531 L 132.441406 187.878906 L 133.105469 186.28125 L 133.824219 184.699219 L 134.953125 182.296875 L 135.296875 181.621094 L 136.898438 178.585938 L 139.011719 174.988281 L 141.292969 171.472656 L 141.425781 171.265625 L 143.367188 168.542969 L 143.835938 167.886719 L 146 165.089844 L 146.390625 164.582031 L 148.695312 161.824219 L 149.132812 161.300781 L 151.175781 159.035156 L 152.097656 158.015625 L 153.109375 156.972656 L 154.386719 155.65625 L 155.242188 154.789062 L 156.039062 154.058594 L 157.761719 152.476562 L 158.628906 151.679688 L 160.222656 150.320312 L 162.25 148.589844 L 163.304688 147.753906 L 166.027344 145.597656 L 166.71875 145.089844 L 169.894531 142.761719 L 173.9375 140.027344 L 176.941406 138.171875 L 178.03125 137.515625 L 180.039062 136.390625 L 182.261719 135.175781 L 183.070312 134.777344 L 186.441406 133.125 L 189.714844 131.699219 L 190.617188 131.320312 L 192.386719 130.640625 L 194.777344 129.738281 L 198.914062 128.355469 L 202.058594 127.449219 L 202.875 127.230469 L 205.972656 126.453125 L 206.839844 126.261719 L 210.984375 125.382812 L 211.113281 125.394531 L 215.199219 124.707031 L 219.300781 124.175781 L 220.441406 124.089844 L 223.328125 123.820312 L 226.242188 123.648438 L 227.445312 123.601562 L 231.855469 123.492188 L 236.382812 123.535156 L 237.5 123.613281 L 240.839844 123.75 L 242.554688 123.898438 L 245.417969 124.109375 L 246.5625 124.265625 L 250.011719 124.625 L 251.101562 124.816406 L 252.101562 124.914062 L 252.132812 124.914062 L 252.933594 124.808594 L 254.445312 124.570312 L 257.632812 124.242188 L 259.03125 124.070312 L 261.714844 123.878906 L 263.597656 123.722656 L 266.820312 123.601562 L 268.039062 123.523438 L 272.554688 123.496094 L 276.957031 123.617188 L 278.109375 123.664062 L 281.066406 123.851562 L 283.890625 124.125 L 285.082031 124.21875 L 289.175781 124.761719 L 293.257812 125.464844 L 293.386719 125.453125 L 297.539062 126.347656 L 298.269531 126.511719 L 301.511719 127.335938 L 302.160156 127.503906 L 305.480469 128.480469 L 308.9375 129.648438 L 309.535156 129.839844 L 311.777344 130.699219 L 313.789062 131.488281 L 314.4375 131.757812 L 315.9375 132.417969 L 317.972656 133.324219 L 319.097656 133.863281 L 322.164062 135.394531 L 325.34375 137.167969 L 326.316406 137.71875 L 328.484375 139.050781 L 330.460938 140.292969 L 331.785156 141.183594 L 334.5 143.042969 L 335.230469 143.574219 L 338.359375 145.894531 L 342.117188 148.894531 L 344.980469 151.355469 L 345.667969 151.945312 L 347.082031 153.25 L 348.429688 154.496094 L 349.054688 155.078125 L 350.058594 156.117188 L 351.683594 157.796875 L 352.160156 158.292969 L 353.882812 160.210938 L 355.097656 161.570312 L 356.496094 163.25 L 357.824219 164.851562 L 359.191406 166.628906 L 360.363281 168.160156 L 361.738281 170.089844 L 362.785156 171.582031 L 362.925781 171.800781 L 364.007812 173.460938 L 365.199219 175.328125 L 366 176.691406 L 367.304688 178.953125 L 367.746094 179.796875 L 369.242188 182.683594 L 371.070312 186.671875 L 372.238281 189.550781 L 372.730469 190.800781 L 373.242188 192.242188 L 374.253906 195.117188 L 375.289062 198.472656 L 375.601562 199.558594 L 376.25 201.984375 L 376.824219 204.1875 L 377.210938 205.917969 L 377.875 208.875 L 378.136719 210.34375 L 378.746094 213.566406 L 378.996094 215.292969 L 379.441406 218.222656 L 379.734375 220.730469 L 379.964844 222.804688 L 380.289062 226.539062 L 380.324219 227.277344 L 380.550781 231.816406 L 380.613281 236.191406 L 380.554688 237.800781 L 380.503906 240.25 L 380.359375 242.839844 L 380.261719 244.210938 L 380.03125 246.832031 L 379.898438 248.164062 L 379.710938 249.519531 L 379.503906 251.355469 L 379.402344 252.140625 L 379.402344 252.167969 Z M 379.457031 252.171875 "/>
<path style="fill:none;stroke-width:2.25;stroke-linecap:round;stroke-linejoin:round;stroke:rgb(100%,100%,100%);stroke-opacity:1;stroke-dasharray:9,9;stroke-miterlimit:10;" d="M 393.574219 252 L 393.503906 247.726562 L 393.285156 243.40625 L 392.914062 239.011719 L 392.382812 234.523438 L 391.683594 229.941406 L 390.816406 225.269531 L 389.769531 220.53125 L 388.554688 215.75 L 387.171875 210.957031 L 385.632812 206.195312 L 383.949219 201.5 L 382.132812 196.902344 L 380.199219 192.441406 L 378.167969 188.136719 L 376.046875 184.003906 L 373.847656 180.042969 L 371.570312 176.253906 L 369.214844 172.621094 L 366.769531 169.109375 L 366.535156 168.785156 L 363.964844 165.367188 L 361.25 162 L 358.367188 158.664062 L 355.300781 155.347656 L 352.042969 152.050781 L 348.59375 148.78125 L 344.960938 145.5625 L 341.167969 142.40625 L 337.234375 139.34375 L 333.1875 136.394531 L 329.0625 133.585938 L 324.894531 130.9375 L 320.710938 128.460938 L 316.535156 126.171875 L 312.390625 124.074219 L 308.28125 122.164062 L 304.214844 120.4375 L 300.171875 118.882812 L 296.128906 117.480469 L 295.75 117.355469 L 291.660156 116.101562 L 287.484375 114.972656 L 283.191406 113.96875 L 278.761719 113.085938 L 274.1875 112.335938 L 269.476562 111.71875 L 264.644531 111.25 L 259.722656 110.925781 L 254.738281 110.761719 L 249.730469 110.753906 L 244.746094 110.90625 L 239.8125 111.210938 L 234.972656 111.667969 L 230.25 112.269531 L 225.664062 113.011719 L 221.21875 113.878906 L 216.910156 114.875 L 212.726562 115.992188 L 208.632812 117.230469 L 208.25 117.355469 L 204.207031 118.742188 L 200.167969 120.285156 L 196.101562 121.996094 L 191.996094 123.886719 L 187.855469 125.96875 L 183.683594 128.238281 L 179.5 130.695312 L 175.324219 133.332031 L 171.195312 136.125 L 167.144531 139.0625 L 163.195312 142.117188 L 159.386719 145.261719 L 155.742188 148.476562 L 152.273438 151.742188 L 148.996094 155.035156 L 145.914062 158.351562 L 143.011719 161.6875 L 140.28125 165.050781 L 137.699219 168.460938 L 137.464844 168.785156 L 135.007812 172.285156 L 132.644531 175.90625 L 130.363281 179.679688 L 128.15625 183.625 L 126.027344 187.742188 L 123.984375 192.03125 L 122.042969 196.480469 L 120.21875 201.0625 L 118.519531 205.75 L 116.964844 210.507812 L 115.570312 215.300781 L 114.335938 220.085938 L 113.277344 224.828125 L 112.390625 229.507812 L 111.675781 234.097656 L 111.128906 238.59375 L 110.742188 242.996094 L 110.511719 247.320312 L 110.425781 251.601562 L 110.425781 252 L 110.496094 256.273438 L 110.714844 260.59375 L 111.085938 264.988281 L 111.617188 269.476562 L 112.316406 274.058594 L 113.183594 278.730469 L 114.230469 283.46875 L 115.445312 288.25 L 116.828125 293.042969 L 118.367188 297.804688 L 120.050781 302.5 L 121.867188 307.097656 L 123.800781 311.558594 L 125.832031 315.863281 L 127.953125 319.996094 L 130.152344 323.957031 L 132.429688 327.746094 L 134.785156 331.378906 L 137.230469 334.890625 L 137.464844 335.214844 L 140.035156 338.632812 L 142.75 342 L 145.632812 345.335938 L 148.699219 348.652344 L 151.957031 351.949219 L 155.40625 355.21875 L 159.039062 358.4375 L 162.832031 361.59375 L 166.765625 364.65625 L 170.8125 367.605469 L 174.9375 370.414062 L 179.105469 373.0625 L 183.289062 375.539062 L 187.464844 377.828125 L 191.609375 379.925781 L 195.71875 381.835938 L 199.785156 383.5625 L 203.828125 385.117188 L 207.871094 386.519531 L 208.25 386.644531 L 212.339844 387.898438 L 216.515625 389.027344 L 220.808594 390.03125 L 225.238281 390.914062 L 229.8125 391.664062 L 234.523438 392.28125 L 239.355469 392.75 L 244.277344 393.074219 L 249.261719 393.238281 L 254.269531 393.246094 L 259.253906 393.09375 L 264.1875 392.789062 L 269.027344 392.332031 L 273.75 391.730469 L 278.335938 390.988281 L 282.78125 390.121094 L 287.089844 389.125 L 291.273438 388.007812 L 295.367188 386.769531 L 295.75 386.644531 L 299.792969 385.257812 L 303.832031 383.714844 L 307.898438 382.003906 L 312.003906 380.113281 L 316.144531 378.03125 L 320.316406 375.761719 L 324.5 373.304688 L 328.675781 370.667969 L 332.804688 367.875 L 336.855469 364.9375 L 340.804688 361.882812 L 344.613281 358.738281 L 348.257812 355.523438 L 351.726562 352.257812 L 355.003906 348.964844 L 358.085938 345.648438 L 360.988281 342.3125 L 363.71875 338.949219 L 366.300781 335.539062 L 366.535156 335.214844 L 368.992188 331.714844 L 371.355469 328.09375 L 373.636719 324.320312 L 375.84375 320.375 L 377.972656 316.257812 L 380.015625 311.96875 L 381.957031 307.519531 L 383.78125 302.9375 L 385.480469 298.25 L 387.035156 293.492188 L 388.429688 288.699219 L 389.664062 283.914062 L 390.722656 279.171875 L 391.609375 274.492188 L 392.324219 269.902344 L 392.871094 265.40625 L 393.257812 261.003906 L 393.488281 256.679688 L 393.574219 252.398438 L 393.574219 252 "/>
</g>
</svg>
