<?xml version="1.0" encoding="UTF-8"?>
<svg xmlns="http://www.w3.org/2000/svg" xmlns:xlink="http://www.w3.org/1999/xlink" width="504pt" height="504pt" viewBox="0 0 504 504" version="1.1">
<g id="surface292">
<path style=" stroke:none;fill-rule:nonzero;fill:rgb(74.509804%,74.509804%,74.509804%);fill-opacity:1;" d="M 109.800781 168 C 109.800781 172.96875 105.769531 177 100.800781 177 C 95.828125 177 91.800781 172.96875 91.800781 168 C 91.800781 163.03125 95.828125 159 100.800781 159 C 105.769531 159 109.800781 163.03125 109.800781 168 "/>
<path style=" stroke:none;fill-rule:nonzero;fill:rgb(74.509804%,74.509804%,74.509804%);fill-opacity:1;" d="M 412.199219 168 C 412.199219 172.96875 408.171875 177 403.199219 177 C 398.230469 177 394.199219 172.96875 394.199219 168 C 394.199219 163.03125 398.230469 159 403.199219 159 C 408.171875 159 412.199219 163.03125 412.199219 168 "/>
<path style="fill-rule:nonzero;fill:rgb(0%,0%,0%);fill-opacity:1;stroke-width:0.375;stroke-linecap:round;stroke-linejoin:round;stroke:rgb(0%,0%,0%);stroke-opacity:1;stroke-miterlimit:10;" d="M 313.898438 223.839844 L 315.445312 222.875 L 317.761719 221.425781 L 320.929688 219.445312 L 324.976562 216.914062 L 329.890625 213.839844 L 335.601562 210.269531 L 341.988281 206.277344 L 348.882812 201.964844 L 356.074219 197.46875 L 363.339844 192.925781 L 370.433594 188.488281 L 377.136719 184.300781 L 383.242188 180.480469 L 388.601562 177.128906 L 393.109375 174.308594 L 396.714844 172.054688 L 399.429688 170.359375 L 401.304688 169.183594 L 402.453125 168.46875 L 403.199219 168 L 402.453125 167.53125 L 401.304688 166.816406 L 399.429688 165.640625 L 396.714844 163.945312 L 393.109375 161.691406 L 388.601562 158.871094 L 383.242188 155.519531 L 377.136719 151.699219 L 370.433594 147.511719 L 363.339844 143.074219 L 356.074219 138.53125 L 348.882812 134.035156 L 341.988281 129.722656 L 335.601562 125.730469 L 329.890625 122.160156 L 324.976562 119.085938 L 320.929688 116.554688 L 317.761719 114.574219 L 315.445312 113.125 L 313.898438 112.160156 L 313.011719 111.601562 L 312.898438 111.601562 L 312.394531 139.652344 L 100.773438 139.652344 L 100.773438 196.347656 L 312.394531 196.347656 L 312.898438 224.398438 L 313.011719 224.398438 Z M 313.898438 223.839844 "/>
<path style=" stroke:none;fill-rule:nonzero;fill:rgb(74.509804%,74.509804%,74.509804%);fill-opacity:1;" d="M 109.800781 403.199219 C 109.800781 408.171875 105.769531 412.199219 100.800781 412.199219 C 95.828125 412.199219 91.800781 408.171875 91.800781 403.199219 C 91.800781 398.230469 95.828125 394.199219 100.800781 394.199219 C 105.769531 394.199219 109.800781 398.230469 109.800781 403.199219 "/>
<path style=" stroke:none;fill-rule:nonzero;fill:rgb(74.509804%,74.509804%,74.509804%);fill-opacity:1;" d="M 261 252 C 261 256.96875 256.96875 261 252 261 C 247.03125 261 243 256.96875 243 252 C 243 247.03125 247.03125 243 252 243 C 256.96875 243 261 247.03125 261 252 "/>
<path style=" stroke:none;fill-rule:nonzero;fill:rgb(74.509804%,74.509804%,74.509804%);fill-opacity:1;" d="M 412.199219 403.199219 C 412.199219 408.171875 408.171875 412.199219 403.199219 412.199219 C 398.230469 412.199219 394.199219 408.171875 394.199219 403.199219 C 394.199219 398.230469 398.230469 394.199219 403.199219 394.199219 C 408.171875 394.199219 412.199219 398.230469 412.199219 403.199219 "/>
<path style="fill-rule:nonzero;fill:rgb(0%,0%,0%);fill-opacity:1;stroke-width:0.375;stroke-linecap:round;stroke-linejoin:round;stroke:rgb(0%,0%,0%);stroke-opacity:1;stroke-miterlimit:10;" d="M 120.226562 423.84375 L 120.570312 423.523438 L 121.136719 422.996094 L 121.140625 422.992188 L 121.515625 422.644531 L 122.394531 421.832031 L 123.296875 421 L 124.414062 419.976562 L 126.066406 418.460938 L 127.296875 417.339844 L 129.894531 414.976562 L 131.1875 413.808594 L 134.78125 410.566406 L 136.128906 409.359375 L 140.644531 405.324219 L 142.160156 403.984375 L 147.335938 399.410156 L 149.285156 397.707031 L 149.328125 397.671875 L 154.664062 393.011719 L 157.472656 390.597656 L 157.515625 390.5625 L 162.417969 386.34375 L 166.664062 382.757812 L 166.707031 382.722656 L 170.375 379.621094 L 176.761719 374.339844 L 176.804688 374.304688 L 178.339844 373.03125 L 186.394531 366.535156 L 187.328125 365.808594 L 187.371094 365.773438 L 193.921875 360.644531 L 198.828125 356.949219 L 198.871094 356.914062 L 201.027344 355.285156 L 208.066406 350.210938 L 210.253906 348.726562 L 210.300781 348.695312 L 214.183594 346.042969 L 220.285156 342.15625 L 221.671875 341.359375 L 221.722656 341.328125 L 225.257812 339.25 L 230.289062 336.601562 L 232.828125 335.445312 L 232.878906 335.421875 L 234.066406 334.847656 L 238.183594 333.226562 L 241.503906 332.199219 L 244.558594 331.460938 L 247.578125 330.992188 L 250.96875 330.75 L 251.511719 330.742188 L 254.929688 330.851562 L 257.820312 331.175781 L 260.796875 331.75 L 264.507812 332.777344 L 264.738281 332.902344 L 264.792969 332.917969 L 267.441406 333.828125 L 271.726562 335.65625 L 271.722656 335.664062 L 271.773438 335.691406 L 276.226562 337.882812 L 279.007812 339.441406 L 279.058594 339.46875 L 281.019531 340.550781 L 285.042969 343.011719 L 285.089844 343.039062 L 286.570312 343.9375 L 289.910156 346.140625 L 289.957031 346.171875 L 292.859375 348.085938 L 293.714844 348.691406 L 293.761719 348.722656 L 297.066406 351.042969 L 297.113281 351.074219 L 299.355469 352.648438 L 300.4375 353.449219 L 301.289062 354.074219 L 301.644531 354.335938 L 285.441406 377.28125 L 285.53125 377.347656 L 286.601562 377.523438 L 288.464844 377.828125 L 291.113281 378 L 294.246094 378.355469 L 299.160156 379.257812 L 301.253906 379.429688 L 304.519531 379.933594 L 311.511719 381.34375 L 311.953125 381.1875 L 318.925781 382.660156 L 323.421875 383.539062 L 327.175781 384.285156 L 334.980469 386.039062 L 336 386.160156 L 345.277344 388.363281 L 346.25 388.503906 L 354.332031 390.480469 L 357.324219 391.167969 L 363.109375 392.609375 L 367.65625 393.742188 L 371.339844 394.671875 L 376.945312 396.121094 L 378.804688 396.589844 L 384.929688 398.214844 L 385.328125 398.304688 L 390.820312 399.785156 L 391.421875 399.9375 L 395.195312 400.972656 L 396.378906 401.292969 L 398.492188 401.878906 L 399.816406 402.246094 L 400.792969 402.519531 L 401.902344 402.832031 L 402.902344 403.113281 L 403.1875 403.195312 L 403.199219 403.199219 L 403.195312 403.1875 L 403.09375 402.910156 L 402.738281 401.929688 L 402.34375 400.847656 L 401.988281 399.890625 L 401.511719 398.597656 L 400.746094 396.53125 L 400.308594 395.375 L 398.933594 391.703125 L 398.695312 391.097656 L 396.683594 385.777344 L 396.5 385.339844 L 394.226562 379.421875 L 393.488281 377.554688 L 391.371094 372.140625 L 389.933594 368.515625 L 388.160156 364.09375 L 385.90625 358.476562 L 384.652344 355.484375 L 381.503906 347.730469 L 380.921875 346.546875 L 377.277344 337.734375 L 376.59375 336.402344 L 373.417969 328.976562 L 371.664062 325.117188 L 369.601562 320.636719 L 366.667969 314.015625 L 365.902344 312.898438 L 362.949219 306.402344 L 361.207031 302.933594 L 359.765625 300.378906 L 357.625 295.867188 L 355.695312 292.328125 L 353.839844 289.179688 L 353 287.488281 L 352.515625 286.519531 L 352.421875 286.453125 L 335.292969 308.710938 L 334.9375 308.449219 L 334.085938 307.820312 L 332.351562 306.542969 L 332.304688 306.511719 L 329.667969 304.660156 L 329.621094 304.628906 L 326.3125 302.308594 L 326.269531 302.277344 L 324.515625 301.050781 L 324.46875 301.019531 L 321.167969 298.84375 L 321.121094 298.8125 L 317.21875 296.242188 L 317.171875 296.210938 L 314.652344 294.664062 L 314.601562 294.632812 L 309.863281 291.742188 L 309.8125 291.710938 L 306.601562 289.917969 L 306.550781 289.890625 L 302.390625 287.585938 L 302.339844 287.5625 L 296.875 284.859375 L 296.824219 284.832031 L 294.777344 283.859375 L 294.726562 283.835938 L 288.328125 281.121094 L 288.273438 281.101562 L 283.578125 279.429688 L 283.527344 279.410156 L 280.449219 278.371094 L 280.394531 278.355469 L 273.707031 276.546875 L 273.652344 276.535156 L 266.425781 275.140625 L 266.371094 275.132812 L 259.183594 274.316406 L 259.125 274.3125 L 252.53125 274.058594 L 252.472656 274.058594 L 247.839844 274.144531 L 247.78125 274.148438 L 241.140625 274.664062 L 241.136719 274.664062 L 241.085938 274.671875 L 233.972656 275.761719 L 233.917969 275.773438 L 228.5625 277.003906 L 228.519531 277.015625 L 228.507812 277.015625 L 225.902344 277.683594 L 225.847656 277.699219 L 219.359375 279.75 L 219.304688 279.769531 L 212.515625 282.40625 L 212.464844 282.429688 L 209.121094 283.945312 L 209.070312 283.96875 L 204.84375 285.9375 L 204.792969 285.960938 L 197.921875 289.582031 L 197.875 289.609375 L 193.085938 292.398438 L 193.039062 292.429688 L 190.292969 294.046875 L 190.246094 294.078125 L 183.148438 298.597656 L 183.132812 298.609375 L 183.101562 298.628906 L 178.359375 301.855469 L 178.3125 301.886719 L 175.269531 303.96875 L 175.222656 304.003906 L 167.636719 309.46875 L 167.589844 309.503906 L 164.738281 311.648438 L 164.695312 311.683594 L 159.355469 315.710938 L 159.308594 315.746094 L 152.433594 321.125 L 152.390625 321.160156 L 150.921875 322.308594 L 150.878906 322.34375 L 142.65625 328.980469 L 142.609375 329.015625 L 140.667969 330.621094 L 140.625 330.65625 L 134.085938 336.066406 L 134.042969 336.101562 L 130.117188 339.414062 L 130.074219 339.453125 L 125.652344 343.191406 L 125.609375 343.226562 L 120.550781 347.574219 L 120.527344 347.59375 L 120.507812 347.613281 L 117.523438 350.179688 L 117.480469 350.21875 L 112.046875 354.960938 L 112.003906 354.996094 L 109.890625 356.839844 L 109.847656 356.878906 L 104.609375 361.511719 L 102.953125 362.976562 L 102.910156 363.011719 L 98.347656 367.09375 L 96.882812 368.398438 L 96.84375 368.4375 L 93.203125 371.722656 L 91.820312 372.96875 L 91.78125 373.007812 L 89.136719 375.410156 L 87.839844 376.59375 L 87.796875 376.632812 L 86.097656 378.191406 L 84.9375 379.253906 L 84.894531 379.292969 L 83.9375 380.175781 L 83.03125 381.011719 L 82.992188 381.050781 L 82.558594 381.453125 L 81.960938 382.007812 L 81.917969 382.046875 L 81.527344 382.410156 L 81.488281 382.449219 L 81.386719 382.542969 L 120.171875 423.894531 Z M 120.226562 423.84375 "/>
</g>
</svg>
