<?xml version="1.0" encoding="UTF-8"?>
<svg xmlns="http://www.w3.org/2000/svg" xmlns:xlink="http://www.w3.org/1999/xlink" width="504pt" height="504pt" viewBox="0 0 504 504" version="1.1">
<g id="surface117">
<path style=" stroke:none;fill-rule:nonzero;fill:rgb(74.509804%,74.509804%,74.509804%);fill-opacity:1;" d="M 59.398438 252 C 59.398438 256.96875 55.371094 261 50.398438 261 C 45.429688 261 41.398438 256.96875 41.398438 252 C 41.398438 247.03125 45.429688 243 50.398438 243 C 55.371094 243 59.398438 247.03125 59.398438 252 "/>
<path style=" stroke:none;fill-rule:nonzero;fill:rgb(74.509804%,74.509804%,74.509804%);fill-opacity:1;" d="M 126.601562 252 C 126.601562 256.96875 122.570312 261 117.601562 261 C 112.628906 261 108.601562 256.96875 108.601562 252 C 108.601562 247.03125 112.628906 243 117.601562 243 C 122.570312 243 126.601562 247.03125 126.601562 252 "/>
<path style=" stroke:none;fill-rule:nonzero;fill:rgb(74.509804%,74.509804%,74.509804%);fill-opacity:1;" d="M 193.800781 252 C 193.800781 256.96875 189.769531 261 184.800781 261 C 179.828125 261 175.800781 256.96875 175.800781 252 C 175.800781 247.03125 179.828125 243 184.800781 243 C 189.769531 243 193.800781 247.03125 193.800781 252 "/>
<path style=" stroke:none;fill-rule:nonzero;fill:rgb(74.509804%,74.509804%,74.509804%);fill-opacity:1;" d="M 261 252 C 261 256.96875 256.96875 261 252 261 C 247.03125 261 243 256.96875 243 252 C 243 247.03125 247.03125 243 252 243 C 256.96875 243 261 247.03125 261 252 "/>
<path style=" stroke:none;fill-rule:nonzero;fill:rgb(74.509804%,74.509804%,74.509804%);fill-opacity:1;" d="M 328.199219 252 C 328.199219 256.96875 324.171875 261 319.199219 261 C 314.230469 261 310.199219 256.96875 310.199219 252 C 310.199219 247.03125 314.230469 243 319.199219 243 C 324.171875 243 328.199219 247.03125 328.199219 252 "/>
<path style=" stroke:none;fill-rule:nonzero;fill:rgb(74.509804%,74.509804%,74.509804%);fill-opacity:1;" d="M 395.398438 252 C 395.398438 256.96875 391.371094 261 386.398438 261 C 381.429688 261 377.398438 256.96875 377.398438 252 C 377.398438 247.03125 381.429688 243 386.398438 243 C 391.371094 243 395.398438 247.03125 395.398438 252 "/>
<path style=" stroke:none;fill-rule:nonzero;fill:rgb(74.509804%,74.509804%,74.509804%);fill-opacity:1;" d="M 462.601562 252 C 462.601562 256.96875 458.570312 261 453.601562 261 C 448.628906 261 444.601562 256.96875 444.601562 252 C 444.601562 247.03125 448.628906 243 453.601562 243 C 458.570312 243 462.601562 247.03125 462.601562 252 "/>
<path style="fill-rule:nonzero;fill:rgb(0%,0%,0%);fill-opacity:1;stroke-width:0.75;stroke-linecap:round;stroke-linejoin:round;stroke:rgb(0%,0%,0%);stroke-opacity:1;stroke-miterlimit:10;" d="M 50.398438 252 L 50.398438 244.914062 L 117.601562 223.652344 L 184.800781 244.914062 L 252 223.652344 L 319.199219 244.914062 L 386.398438 223.652344 L 453.601562 244.914062 L 453.601562 259.085938 L 386.398438 280.347656 L 319.199219 259.085938 L 252 280.347656 L 184.800781 259.085938 L 117.601562 280.347656 L 50.398438 259.085938 Z M 50.398438 252 "/>
</g>
</svg>
