<?xml version="1.0" encoding="UTF-8"?>
<svg xmlns="http://www.w3.org/2000/svg" xmlns:xlink="http://www.w3.org/1999/xlink" width="504pt" height="504pt" viewBox="0 0 504 504" version="1.1">
<g id="surface93">
<path style=" stroke:none;fill-rule:nonzero;fill:rgb(74.509804%,74.509804%,74.509804%);fill-opacity:1;" d="M 109.800781 403.199219 C 109.800781 408.171875 105.769531 412.199219 100.800781 412.199219 C 95.828125 412.199219 91.800781 408.171875 91.800781 403.199219 C 91.800781 398.230469 95.828125 394.199219 100.800781 394.199219 C 105.769531 394.199219 109.800781 398.230469 109.800781 403.199219 "/>
<path style=" stroke:none;fill-rule:nonzero;fill:rgb(74.509804%,74.509804%,74.509804%);fill-opacity:1;" d="M 210.601562 302.398438 C 210.601562 307.371094 206.570312 311.398438 201.601562 311.398438 C 196.628906 311.398438 192.601562 307.371094 192.601562 302.398438 C 192.601562 297.429688 196.628906 293.398438 201.601562 293.398438 C 206.570312 293.398438 210.601562 297.429688 210.601562 302.398438 "/>
<path style=" stroke:none;fill-rule:nonzero;fill:rgb(74.509804%,74.509804%,74.509804%);fill-opacity:1;" d="M 311.398438 302.398438 C 311.398438 307.371094 307.371094 311.398438 302.398438 311.398438 C 297.429688 311.398438 293.398438 307.371094 293.398438 302.398438 C 293.398438 297.429688 297.429688 293.398438 302.398438 293.398438 C 307.371094 293.398438 311.398438 297.429688 311.398438 302.398438 "/>
<path style=" stroke:none;fill-rule:nonzero;fill:rgb(74.509804%,74.509804%,74.509804%);fill-opacity:1;" d="M 412.199219 403.199219 C 412.199219 408.171875 408.171875 412.199219 403.199219 412.199219 C 398.230469 412.199219 394.199219 408.171875 394.199219 403.199219 C 394.199219 398.230469 398.230469 394.199219 403.199219 394.199219 C 408.171875 394.199219 412.199219 398.230469 412.199219 403.199219 "/>
<path style="fill-rule:nonzero;fill:rgb(0%,0%,0%);fill-opacity:1;stroke-width:0.75;stroke-linecap:round;stroke-linejoin:round;stroke:rgb(0%,0%,0%);stroke-opacity:1;stroke-miterlimit:10;" d="M 130.6875 433.445312 L 130.710938 433.414062 L 130.746094 433.378906 L 130.742188 433.371094 L 130.835938 433.253906 L 131.078125 432.960938 L 131.074219 432.957031 L 131.207031 432.792969 L 131.96875 431.867188 L 131.976562 431.859375 L 131.972656 431.855469 L 133.082031 430.507812 L 133.628906 429.851562 L 133.621094 429.84375 L 134.628906 428.628906 L 136.136719 426.8125 L 136.128906 426.804688 L 136.605469 426.238281 L 139.070312 423.28125 L 139.515625 422.746094 L 139.507812 422.738281 L 141.835938 419.960938 L 143.695312 417.746094 L 143.6875 417.734375 L 144.921875 416.269531 L 148.382812 412.167969 L 148.527344 412 L 148.515625 411.988281 L 151.992188 407.898438 L 153.828125 405.742188 L 153.820312 405.738281 L 153.8125 405.730469 L 155.808594 403.40625 L 159.390625 399.230469 L 159.375 399.214844 L 159.820312 398.707031 L 164.214844 393.640625 L 165.03125 392.699219 L 165.027344 392.695312 L 165.015625 392.679688 L 168.699219 388.488281 L 170.589844 386.339844 L 170.585938 386.335938 L 170.570312 386.316406 L 173.464844 383.078125 L 175.945312 380.300781 L 175.945312 380.296875 L 175.921875 380.273438 L 178.566406 377.375 L 181.019531 374.683594 L 181.019531 374.679688 L 180.992188 374.652344 L 184.074219 371.355469 L 185.765625 369.542969 L 185.734375 369.507812 L 190.046875 365.023438 L 190.164062 364.902344 L 190.128906 364.859375 L 194.222656 360.757812 L 194.222656 360.753906 L 194.183594 360.707031 L 196.066406 358.898438 L 197.957031 357.082031 L 197.914062 357.023438 L 201.402344 353.835938 L 201.359375 353.773438 L 202.414062 352.863281 L 204.605469 350.976562 L 204.558594 350.90625 L 207.621094 348.433594 L 207.574219 348.359375 L 208.273438 347.835938 L 210.519531 346.148438 L 210.476562 346.074219 L 213.371094 344.050781 L 213.34375 343.996094 L 214.210938 343.421875 L 214.183594 343.367188 L 214.976562 342.867188 L 217.671875 341.175781 L 217.632812 341.097656 L 220.863281 339.238281 L 220.828125 339.15625 L 221.746094 338.675781 L 224.101562 337.445312 L 224.074219 337.359375 L 227.421875 335.78125 L 227.394531 335.695312 L 227.832031 335.511719 L 230.84375 334.25 L 230.820312 334.164062 L 234.007812 332.992188 L 234.382812 332.855469 L 234.363281 332.765625 L 238.042969 331.597656 L 238.027344 331.511719 L 238.042969 331.507812 L 241.820312 330.492188 L 241.808594 330.40625 L 241.984375 330.367188 L 245.707031 329.542969 L 245.699219 329.460938 L 247.796875 329.097656 L 249.679688 328.769531 L 249.679688 328.6875 L 250.617188 328.566406 L 251.914062 328.402344 L 253.113281 328.25 L 253.726562 328.171875 L 253.726562 328.09375 L 255.160156 327.976562 L 257.429688 327.792969 L 257.816406 327.761719 L 257.820312 327.683594 L 259.566406 327.621094 L 261.925781 327.539062 L 261.933594 327.464844 L 262.746094 327.472656 L 266.03125 327.503906 L 266.042969 327.433594 L 267.128906 327.492188 L 270.121094 327.660156 L 270.132812 327.589844 L 272.828125 327.863281 L 274.171875 327.996094 L 274.1875 327.929688 L 278.1875 328.511719 L 278.207031 328.449219 L 279.085938 328.617188 L 282.164062 329.203125 L 282.183594 329.144531 L 286.109375 330.070312 L 286.132812 330.015625 L 286.648438 330.160156 L 290.050781 331.105469 L 290.070312 331.058594 L 294.011719 332.324219 L 294.027344 332.289062 L 295.328125 332.746094 L 295.855469 332.933594 L 295.871094 332.902344 L 299.691406 334.363281 L 299.710938 334.320312 L 303.425781 335.894531 L 303.480469 335.917969 L 303.5 335.878906 L 307.390625 337.691406 L 307.414062 337.65625 L 311.5 339.726562 L 311.523438 339.699219 L 311.886719 339.894531 L 315.875 342.070312 L 315.894531 342.046875 L 320.570312 344.757812 L 320.585938 344.738281 L 325.632812 347.824219 L 325.644531 347.808594 L 328.511719 349.636719 L 331.09375 351.285156 L 331.101562 351.269531 L 336.019531 354.519531 L 336.972656 355.148438 L 336.980469 355.136719 L 342.964844 359.207031 L 343.257812 359.40625 L 343.265625 359.398438 L 349.410156 363.671875 L 349.917969 364.023438 L 349.921875 364.019531 L 355.441406 367.929688 L 356.863281 368.9375 L 356.867188 368.933594 L 361.121094 371.992188 L 363.972656 374.046875 L 363.976562 374.042969 L 366.503906 375.882812 L 371.066406 379.207031 L 371.070312 379.203125 L 371.613281 379.605469 L 376.472656 383.179688 L 377.925781 384.246094 L 377.925781 384.242188 L 381.046875 386.558594 L 384.292969 388.964844 L 385.316406 389.730469 L 389.234375 392.65625 L 389.929688 393.171875 L 392.730469 395.277344 L 394.628906 396.703125 L 394.628906 396.699219 L 395.753906 397.550781 L 398.253906 399.4375 L 398.253906 399.441406 L 400.203125 400.917969 L 400.789062 401.359375 L 401.605469 401.984375 L 402.308594 402.519531 L 402.511719 402.675781 L 402.996094 403.042969 L 403.015625 403.058594 L 403.175781 403.183594 L 403.195312 403.195312 L 403.199219 403.199219 L 403.195312 403.195312 L 403.183594 403.179688 L 403.054688 403.023438 L 403.039062 403.003906 L 402.648438 402.53125 L 402.488281 402.335938 L 401.925781 401.652344 L 401.269531 400.859375 L 401.269531 400.855469 L 400.800781 400.289062 L 399.242188 398.40625 L 399.238281 398.40625 L 397.238281 395.996094 L 396.332031 394.910156 L 396.332031 394.90625 L 394.8125 393.085938 L 392.558594 390.394531 L 392.554688 390.390625 L 392 389.726562 L 388.851562 385.984375 L 388.023438 385 L 388.019531 384.992188 L 385.410156 381.910156 L 385.40625 381.910156 L 382.886719 378.929688 L 382.878906 378.921875 L 381.710938 377.550781 L 377.792969 372.960938 L 377.339844 372.429688 L 377.324219 372.414062 L 373.636719 368.136719 L 371.578125 365.742188 L 371.554688 365.722656 L 369.246094 363.074219 L 365.769531 359.085938 L 365.734375 359.054688 L 364.582031 357.75 L 360.054688 352.628906 L 360.007812 352.585938 L 359.59375 352.128906 L 354.523438 346.496094 L 354.457031 346.433594 L 354.214844 346.171875 L 349.234375 340.753906 L 349.140625 340.671875 L 348.359375 339.84375 L 344.199219 335.4375 L 344.074219 335.332031 L 341.9375 333.140625 L 339.414062 330.550781 L 339.25 330.414062 L 334.878906 326.101562 L 334.847656 326.070312 L 334.664062 325.925781 L 334.636719 325.90625 L 330.460938 321.964844 L 330.261719 321.816406 L 330.195312 321.769531 L 326.808594 318.742188 L 326.203125 318.199219 L 325.988281 318.050781 L 325.878906 317.972656 L 322.023438 314.730469 L 321.796875 314.582031 L 321.644531 314.484375 L 317.878906 311.527344 L 317.636719 311.378906 L 317.453125 311.269531 L 317.40625 311.238281 L 313.734375 308.550781 L 313.476562 308.40625 L 313.28125 308.300781 L 309.570312 305.78125 L 309.300781 305.640625 L 309.21875 305.601562 L 308.746094 305.296875 L 307.214844 304.316406 L 306.9375 304.179688 L 306.824219 304.128906 L 302.734375 301.667969 L 302.441406 301.535156 L 302.15625 301.410156 L 299.058594 299.710938 L 297.988281 299.121094 L 297.679688 298.996094 L 297.351562 298.871094 L 293.082031 296.75 L 292.761719 296.632812 L 292.394531 296.511719 L 289.53125 295.238281 L 288.007812 294.558594 L 287.667969 294.453125 L 287.269531 294.335938 L 287.265625 294.335938 L 282.753906 292.558594 L 282.398438 292.464844 L 281.96875 292.363281 L 280.6875 291.921875 L 277.328125 290.769531 L 276.960938 290.6875 L 276.5 290.597656 L 273.628906 289.753906 L 271.738281 289.199219 L 271.355469 289.132812 L 270.875 289.0625 L 267.679688 288.28125 L 266.007812 287.871094 L 266.007812 287.867188 L 265.613281 287.820312 L 265.109375 287.765625 L 262.792969 287.308594 L 260.15625 286.789062 L 259.746094 286.757812 L 259.222656 286.726562 L 258.839844 286.667969 L 256.589844 286.328125 L 254.917969 286.078125 L 254.210938 285.972656 L 253.789062 285.957031 L 253.25 285.949219 L 252.636719 285.886719 L 252.632812 285.886719 L 251.433594 285.761719 L 250.132812 285.625 L 248.496094 285.453125 L 248.207031 285.425781 L 247.769531 285.429688 L 247.214844 285.449219 L 245.308594 285.335938 L 242.324219 285.164062 L 242.164062 285.152344 L 241.722656 285.179688 L 241.15625 285.222656 L 237.34375 285.175781 L 236.125 285.160156 L 235.671875 285.203125 L 235.097656 285.277344 L 231.1875 285.402344 L 230.109375 285.4375 L 229.648438 285.507812 L 229.070312 285.605469 L 224.148438 285.988281 L 223.675781 286.082031 L 223.097656 286.207031 L 222.703125 286.257812 L 222.699219 286.257812 L 218.253906 286.800781 L 217.777344 286.917969 L 217.207031 287.070312 L 213.988281 287.609375 L 212.449219 287.867188 L 211.964844 288.007812 L 211.410156 288.179688 L 206.734375 289.171875 L 206.246094 289.335938 L 205.714844 289.527344 L 203.140625 290.1875 L 201.109375 290.710938 L 200.617188 290.898438 L 200.125 291.097656 L 195.566406 292.464844 L 195.074219 292.679688 L 194.625 292.882812 L 191.613281 293.914062 L 190.085938 294.4375 L 189.59375 294.671875 L 189.476562 294.730469 L 187.878906 295.324219 L 187.386719 295.570312 L 187.292969 295.621094 L 183.085938 297.296875 L 182.59375 297.5625 L 182.21875 297.769531 L 179.648438 298.902344 L 177.945312 299.648438 L 177.453125 299.9375 L 177.097656 300.152344 L 172.703125 302.269531 L 172.210938 302.578125 L 171.914062 302.773438 L 169.351562 304.109375 L 167.347656 305.15625 L 166.855469 305.488281 L 166.636719 305.640625 L 161.839844 308.324219 L 161.347656 308.675781 L 161.222656 308.773438 L 158.96875 310.109375 L 156.144531 311.78125 L 155.648438 312.15625 L 155.613281 312.183594 L 150.207031 315.546875 L 149.761719 315.902344 L 149.617188 315.992188 L 143.988281 319.636719 L 143.617188 319.941406 L 141.554688 321.320312 L 137.464844 324.050781 L 137.15625 324.3125 L 134.152344 326.375 L 130.636719 328.785156 L 130.378906 329.007812 L 127.328125 331.144531 L 123.535156 333.800781 L 123.324219 333.988281 L 123.320312 333.988281 L 120.992188 335.652344 L 116.25 339.03125 L 116.074219 339.1875 L 115.058594 339.917969 L 109.625 343.847656 L 108.914062 344.363281 L 108.765625 344.496094 L 104.324219 347.742188 L 101.710938 349.652344 L 101.585938 349.765625 L 99.308594 351.445312 L 94.871094 354.722656 L 94.765625 354.820312 L 94.761719 354.820312 L 94.585938 354.953125 L 90.277344 358.15625 L 88.636719 359.375 L 88.546875 359.460938 L 86.230469 361.195312 L 83.242188 363.429688 L 83.160156 363.507812 L 82.601562 363.925781 L 79.527344 366.242188 L 78.859375 366.746094 L 78.789062 366.8125 L 76.902344 368.234375 L 75.578125 369.238281 L 75.515625 369.296875 L 74.835938 369.8125 L 73.386719 370.914062 L 73.332031 370.964844 L 73.320312 370.972656 L 72.371094 371.699219 L 72.148438 371.867188 L 72.097656 371.914062 L 71.796875 372.144531 L 71.632812 372.269531 L 71.59375 372.308594 L 71.554688 372.339844 L 71.523438 372.363281 L 70.910156 372.953125 L 130.078125 434.039062 Z M 130.6875 433.445312 "/>
</g>
</svg>
