<?xml version="1.0" encoding="UTF-8"?>
<svg xmlns="http://www.w3.org/2000/svg" xmlns:xlink="http://www.w3.org/1999/xlink" width="504pt" height="504pt" viewBox="0 0 504 504" version="1.1">
<g id="surface276">
<path style=" stroke:none;fill-rule:nonzero;fill:rgb(74.509804%,74.509804%,74.509804%);fill-opacity:1;" d="M 109.800781 201.601562 C 109.800781 206.570312 105.769531 210.601562 100.800781 210.601562 C 95.828125 210.601562 91.800781 206.570312 91.800781 201.601562 C 91.800781 196.628906 95.828125 192.601562 100.800781 192.601562 C 105.769531 192.601562 109.800781 196.628906 109.800781 201.601562 "/>
<path style=" stroke:none;fill-rule:nonzero;fill:rgb(74.509804%,74.509804%,74.509804%);fill-opacity:1;" d="M 210.601562 100.800781 C 210.601562 105.769531 206.570312 109.800781 201.601562 109.800781 C 196.628906 109.800781 192.601562 105.769531 192.601562 100.800781 C 192.601562 95.828125 196.628906 91.800781 201.601562 91.800781 C 206.570312 91.800781 210.601562 95.828125 210.601562 100.800781 "/>
<path style=" stroke:none;fill-rule:nonzero;fill:rgb(74.509804%,74.509804%,74.509804%);fill-opacity:1;" d="M 311.398438 100.800781 C 311.398438 105.769531 307.371094 109.800781 302.398438 109.800781 C 297.429688 109.800781 293.398438 105.769531 293.398438 100.800781 C 293.398438 95.828125 297.429688 91.800781 302.398438 91.800781 C 307.371094 91.800781 311.398438 95.828125 311.398438 100.800781 "/>
<path style=" stroke:none;fill-rule:nonzero;fill:rgb(74.509804%,74.509804%,74.509804%);fill-opacity:1;" d="M 412.199219 201.601562 C 412.199219 206.570312 408.171875 210.601562 403.199219 210.601562 C 398.230469 210.601562 394.199219 206.570312 394.199219 201.601562 C 394.199219 196.628906 398.230469 192.601562 403.199219 192.601562 C 408.171875 192.601562 412.199219 196.628906 412.199219 201.601562 "/>
<path style="fill-rule:nonzero;fill:rgb(0%,0%,0%);fill-opacity:1;stroke-width:0.75;stroke-linecap:round;stroke-linejoin:round;stroke:rgb(0%,0%,0%);stroke-opacity:1;stroke-miterlimit:10;" d="M 70.734375 171.535156 L 70.800781 171.480469 L 71.242188 171.136719 L 72.363281 170.265625 L 74.390625 168.691406 L 77.460938 166.320312 L 81.609375 163.128906 L 86.773438 159.183594 L 92.800781 154.609375 L 99.480469 149.578125 L 106.582031 144.277344 L 113.882812 138.894531 L 121.175781 133.585938 L 128.3125 128.472656 L 135.183594 123.652344 L 141.726562 119.175781 L 147.910156 115.066406 L 153.738281 111.335938 L 159.234375 107.96875 L 164.433594 104.953125 L 169.390625 102.253906 L 174.15625 99.84375 L 178.777344 97.699219 L 183.316406 95.78125 L 187.8125 94.066406 L 189.195312 93.574219 L 194.167969 91.933594 L 199.1875 90.484375 L 204.28125 89.222656 L 209.476562 88.15625 L 214.777344 87.289062 L 220.1875 86.625 L 225.695312 86.175781 L 231.292969 85.949219 L 236.957031 85.945312 L 242.65625 86.175781 L 248.359375 86.632812 L 254.039062 87.320312 L 259.65625 88.230469 L 265.191406 89.355469 L 270.609375 90.6875 L 275.890625 92.214844 L 281.03125 93.925781 L 286.015625 95.808594 L 290.851562 97.859375 L 295.550781 100.070312 L 300.136719 102.449219 L 304.511719 104.921875 L 308.589844 107.417969 L 312.652344 110.097656 L 316.742188 113.011719 L 320.898438 116.1875 L 325.167969 119.675781 L 329.605469 123.507812 L 334.25 127.726562 L 339.136719 132.359375 L 344.292969 137.421875 L 349.726562 142.917969 L 355.421875 148.820312 L 361.328125 155.066406 L 367.363281 161.550781 L 373.402344 168.136719 L 379.289062 174.621094 L 384.835938 180.789062 L 389.84375 186.40625 L 394.140625 191.257812 L 397.597656 195.183594 L 400.15625 198.105469 L 401.847656 200.042969 L 402.78125 201.113281 L 403.144531 201.535156 L 403.199219 201.601562 L 403.15625 201.566406 L 402.769531 201.257812 L 401.703125 200.410156 L 399.714844 198.832031 L 396.660156 196.421875 L 392.519531 193.167969 L 387.386719 189.15625 L 381.445312 184.535156 L 374.933594 179.511719 L 368.105469 174.289062 L 361.195312 169.058594 L 354.402344 163.980469 L 347.863281 159.171875 L 341.664062 154.707031 L 335.847656 150.617188 L 330.425781 146.921875 L 325.371094 143.609375 L 320.65625 140.660156 L 316.222656 138.046875 L 312.023438 135.734375 L 308 133.691406 L 304.105469 131.882812 L 300.289062 130.277344 L 300.105469 130.203125 L 295.804688 128.597656 L 291.511719 127.207031 L 287.195312 126.027344 L 282.828125 125.0625 L 278.402344 124.324219 L 273.917969 123.820312 L 269.378906 123.5625 L 264.804688 123.550781 L 260.210938 123.796875 L 255.621094 124.300781 L 251.0625 125.058594 L 246.5625 126.0625 L 242.144531 127.300781 L 237.820312 128.765625 L 233.605469 130.441406 L 229.503906 132.3125 L 225.511719 134.371094 L 221.613281 136.605469 L 217.789062 139.023438 L 214.007812 141.625 L 212.003906 143.089844 L 208.632812 145.6875 L 205.210938 148.511719 L 201.691406 151.601562 L 198.027344 155.007812 L 194.175781 158.773438 L 190.09375 162.9375 L 185.742188 167.53125 L 181.101562 172.582031 L 176.164062 178.082031 L 170.953125 183.992188 L 165.535156 190.242188 L 160.003906 196.703125 L 154.503906 203.191406 L 149.21875 209.480469 L 144.351562 215.3125 L 140.101562 220.433594 L 136.625 224.640625 L 134.019531 227.8125 L 132.277344 229.9375 L 131.308594 231.125 L 130.925781 231.59375 L 130.867188 231.664062 Z M 70.734375 171.535156 "/>
<path style=" stroke:none;fill-rule:nonzero;fill:rgb(74.509804%,74.509804%,74.509804%);fill-opacity:1;" d="M 109.800781 403.199219 C 109.800781 408.171875 105.769531 412.199219 100.800781 412.199219 C 95.828125 412.199219 91.800781 408.171875 91.800781 403.199219 C 91.800781 398.230469 95.828125 394.199219 100.800781 394.199219 C 105.769531 394.199219 109.800781 398.230469 109.800781 403.199219 "/>
<path style=" stroke:none;fill-rule:nonzero;fill:rgb(74.509804%,74.509804%,74.509804%);fill-opacity:1;" d="M 210.601562 302.398438 C 210.601562 307.371094 206.570312 311.398438 201.601562 311.398438 C 196.628906 311.398438 192.601562 307.371094 192.601562 302.398438 C 192.601562 297.429688 196.628906 293.398438 201.601562 293.398438 C 206.570312 293.398438 210.601562 297.429688 210.601562 302.398438 "/>
<path style=" stroke:none;fill-rule:nonzero;fill:rgb(74.509804%,74.509804%,74.509804%);fill-opacity:1;" d="M 311.398438 302.398438 C 311.398438 307.371094 307.371094 311.398438 302.398438 311.398438 C 297.429688 311.398438 293.398438 307.371094 293.398438 302.398438 C 293.398438 297.429688 297.429688 293.398438 302.398438 293.398438 C 307.371094 293.398438 311.398438 297.429688 311.398438 302.398438 "/>
<path style=" stroke:none;fill-rule:nonzero;fill:rgb(74.509804%,74.509804%,74.509804%);fill-opacity:1;" d="M 412.199219 403.199219 C 412.199219 408.171875 408.171875 412.199219 403.199219 412.199219 C 398.230469 412.199219 394.199219 408.171875 394.199219 403.199219 C 394.199219 398.230469 398.230469 394.199219 403.199219 394.199219 C 408.171875 394.199219 412.199219 398.230469 412.199219 403.199219 "/>
<path style="fill-rule:nonzero;fill:rgb(0%,0%,0%);fill-opacity:1;stroke-width:0.75;stroke-linecap:round;stroke-linejoin:round;stroke:rgb(0%,0%,0%);stroke-opacity:1;stroke-miterlimit:10;" d="M 130.414062 433.710938 L 130.4375 433.675781 L 130.769531 433.257812 L 131.671875 432.152344 L 132.808594 430.769531 L 133.316406 430.148438 L 134.355469 428.890625 L 135.847656 427.089844 L 136.335938 426.492188 L 139.214844 423.03125 L 141.570312 420.210938 L 143.394531 418.027344 L 144.660156 416.515625 L 148.21875 412.289062 L 151.738281 408.136719 L 153.507812 406.039062 L 155.558594 403.636719 L 159.125 399.476562 L 159.574219 398.933594 L 163.972656 393.863281 L 164.644531 393.050781 L 168.460938 388.703125 L 170.222656 386.667969 L 173.230469 383.285156 L 175.578125 380.625 L 178.339844 377.574219 L 180.617188 375.03125 L 183.847656 371.546875 L 185.269531 369.960938 L 189.730469 365.257812 L 193.824219 361.070312 L 195.847656 359.0625 L 197.324219 357.554688 L 200.984375 354.140625 L 202.195312 353.011719 L 203.898438 351.449219 L 207.171875 348.714844 L 208.050781 347.964844 L 209.769531 346.578125 L 212.996094 344.253906 L 213.699219 343.679688 L 214.753906 342.972656 L 216.894531 341.539062 L 220.347656 339.457031 L 221.527344 338.761719 L 223.238281 337.765625 L 226.957031 335.9375 L 227.617188 335.574219 L 230.007812 334.484375 L 233.648438 333.027344 L 237.648438 331.671875 L 237.835938 331.539062 L 241.371094 330.554688 L 241.78125 330.386719 L 245.050781 329.605469 L 247.601562 329.105469 L 248.988281 328.804688 L 250.421875 328.570312 L 251.722656 328.40625 L 252.988281 328.175781 L 254.972656 327.96875 L 257.160156 327.734375 L 259.386719 327.609375 L 261.363281 327.492188 L 262.570312 327.449219 L 265.535156 327.441406 L 266.960938 327.464844 L 269.503906 327.546875 L 272.664062 327.824219 L 273.398438 327.816406 L 277.84375 328.421875 L 278.9375 328.570312 L 281.597656 329.023438 L 285.839844 329.96875 L 286.511719 330.101562 L 289.582031 330.910156 L 293.75 332.207031 L 295.5 332.757812 L 299.34375 334.179688 L 303.148438 335.726562 L 307.089844 337.503906 L 311.359375 339.632812 L 311.792969 339.828125 L 315.632812 341.898438 L 320.375 344.613281 L 325.492188 347.714844 L 328.4375 349.578125 L 330.9375 351.15625 L 335.953125 354.464844 L 336.824219 355.023438 L 343.164062 359.324219 L 349.84375 363.960938 L 355.394531 367.890625 L 356.792969 368.875 L 361.082031 371.957031 L 363.925781 374 L 366.46875 375.847656 L 371.027344 379.167969 L 376.449219 383.15625 L 377.894531 384.214844 L 381.027344 386.539062 L 384.273438 388.945312 L 385.300781 389.714844 L 389.222656 392.640625 L 389.914062 393.160156 L 392.722656 395.269531 L 394.617188 396.691406 L 395.746094 397.542969 L 398.25 399.4375 L 400.199219 400.914062 L 400.785156 401.359375 L 401.605469 401.984375 L 402.308594 402.519531 L 403.015625 403.058594 L 403.195312 403.195312 L 403.199219 403.199219 L 403.195312 403.195312 L 403.054688 403.023438 L 402.488281 402.332031 L 401.925781 401.652344 L 401.269531 400.855469 L 400.796875 400.289062 L 399.238281 398.402344 L 397.230469 395.988281 L 396.324219 394.898438 L 394.800781 393.078125 L 392.546875 390.382812 L 391.984375 389.714844 L 388.835938 385.96875 L 388.003906 384.976562 L 385.386719 381.890625 L 382.859375 378.90625 L 381.683594 377.527344 L 377.304688 372.394531 L 373.605469 368.105469 L 371.527344 365.699219 L 369.203125 363.035156 L 365.71875 359.039062 L 364.535156 357.707031 L 359.976562 352.5625 L 354.433594 346.414062 L 349.15625 340.6875 L 348.292969 339.789062 L 344.085938 335.34375 L 341.863281 333.078125 L 339.230469 330.402344 L 334.664062 325.925781 L 330.253906 321.8125 L 326.710938 318.675781 L 325.824219 317.941406 L 321.734375 314.542969 L 317.5625 311.332031 L 313.394531 308.363281 L 309.324219 305.65625 L 306.828125 304.128906 L 302.355469 301.496094 L 298.921875 299.652344 L 297.34375 298.867188 L 292.664062 296.601562 L 289.382812 295.191406 L 287.304688 294.347656 L 282.421875 292.472656 L 280.527344 291.886719 L 276.785156 290.652344 L 273.457031 289.726562 L 271.027344 289.085938 L 267.503906 288.257812 L 265.308594 287.789062 L 262.613281 287.296875 L 259.507812 286.742188 L 256.402344 286.324219 L 253.609375 285.953125 L 251.242188 285.761719 L 249.9375 285.628906 L 247.519531 285.4375 L 245.109375 285.347656 L 241.410156 285.203125 L 237.140625 285.195312 L 235.136719 285.273438 L 230.980469 285.433594 L 229.046875 285.613281 L 223.414062 286.136719 L 217.621094 286.957031 L 213.773438 287.671875 L 211.449219 288.167969 L 206.148438 289.371094 L 202.921875 290.273438 L 200.207031 291.066406 L 194.96875 292.726562 L 191.394531 294.019531 L 189.550781 294.695312 L 187.234375 295.65625 L 182.53125 297.597656 L 179.425781 299.03125 L 177.109375 300.144531 L 172.1875 302.597656 L 169.132812 304.257812 L 166.625 305.652344 L 161.421875 308.628906 L 158.746094 310.273438 L 155.574219 312.21875 L 149.753906 315.910156 L 143.664062 319.902344 L 141.328125 321.511719 L 137.105469 324.359375 L 133.921875 326.574219 L 130.28125 329.09375 L 127.09375 331.351562 L 123.21875 334.085938 L 120.753906 335.867188 L 115.976562 339.277344 L 114.820312 340.140625 L 109.378906 344.074219 L 108.539062 344.707031 L 104.074219 347.972656 L 101.402344 349.941406 L 99.054688 351.683594 L 94.558594 355.011719 L 90.015625 358.402344 L 88.320312 359.671875 L 85.964844 361.445312 L 82.929688 363.726562 L 79.257812 366.496094 L 78.535156 367.050781 L 76.632812 368.496094 L 75.285156 369.519531 L 74.5625 370.074219 L 73.085938 371.203125 L 71.859375 372.148438 L 71.351562 372.542969 L 71.246094 372.628906 L 71.1875 372.6875 L 130.351562 433.769531 Z M 130.414062 433.710938 "/>
</g>
</svg>
