<?xml version="1.0" encoding="UTF-8"?>
<svg xmlns="http://www.w3.org/2000/svg" xmlns:xlink="http://www.w3.org/1999/xlink" width="504pt" height="504pt" viewBox="0 0 504 504" version="1.1">
<g id="surface308">
<path style="fill-rule:nonzero;fill:rgb(48.235294%,40.784314%,93.333333%);fill-opacity:1;stroke-width:0.75;stroke-linecap:round;stroke-linejoin:round;stroke:rgb(48.235294%,40.784314%,93.333333%);stroke-opacity:1;stroke-miterlimit:10;" d="M 296.410156 414.421875 L 298.921875 414.28125 L 303.675781 414.117188 L 305 413.808594 L 309.777344 413.378906 L 312.652344 412.921875 L 315.5 412.398438 L 320.8125 411.359375 L 326.246094 410.007812 L 329.933594 408.960938 L 332.195312 408.167969 L 337.300781 406.515625 L 339.359375 405.640625 L 343.3125 404.066406 L 348.875 401.621094 L 354.3125 398.90625 L 357.667969 397.089844 L 360.125 395.632812 L 365.046875 392.679688 L 367.492188 391.035156 L 370.539062 388.921875 L 375.171875 385.5625 L 377.351562 383.808594 L 380.246094 381.414062 L 384.519531 377.683594 L 387.085938 375.273438 L 389.117188 373.238281 L 392.953125 369.230469 L 396.777344 364.929688 L 399.953125 360.992188 L 400.003906 360.925781 L 401.03125 359.542969 L 403.9375 355.644531 L 405.84375 352.890625 L 407.429688 350.476562 L 407.476562 350.402344 L 410.191406 346.003906 L 410.234375 345.929688 L 411.59375 343.5625 L 411.636719 343.488281 L 413.320312 340.382812 L 413.359375 340.308594 L 415.953125 335.140625 L 415.992188 335.0625 L 418.515625 329.558594 L 418.550781 329.484375 L 420.847656 323.703125 L 422.980469 317.792969 L 424.828125 311.75 L 426.355469 306 L 426.941406 303.707031 L 427.84375 299.378906 L 428.839844 293.664062 L 429.253906 291.265625 L 429.761719 287.085938 L 430.246094 281.511719 L 430.460938 279.273438 L 430.609375 275.082031 L 430.609375 269.75 L 430.667969 267.792969 L 430.4375 263.523438 L 430.003906 257.984375 L 429.296875 253.015625 L 429.222656 251.425781 L 428.304688 246.519531 L 427.109375 241.242188 L 426.296875 238.023438 L 425.625 235.429688 L 423.980469 230.589844 L 423.558594 228.949219 L 421.929688 224.851562 L 420.535156 221.5 L 419.597656 219.160156 L 417.097656 214.015625 L 414.34375 208.988281 L 413.484375 207.257812 L 411.257812 203.683594 L 409.832031 201.367188 L 407.96875 198.574219 L 406.15625 196 L 404.511719 193.699219 L 402.5625 191.191406 L 400.925781 189.09375 L 399.140625 186.964844 L 397.253906 184.796875 L 396.003906 183.332031 L 393.441406 180.625 L 391.140625 178.328125 L 389.582031 176.773438 L 388.121094 175.390625 L 387.398438 174.773438 L 386.871094 174.097656 L 386.535156 172.640625 L 386.027344 170.285156 L 385.398438 167.613281 L 384.570312 164.464844 L 384.007812 162.640625 L 383.28125 160.324219 L 382.609375 158.03125 L 382.144531 157.15625 L 381.59375 155.535156 L 380.507812 152.578125 L 379.519531 150.28125 L 378.386719 147.675781 L 376.992188 144.621094 L 375.960938 142.707031 L 373.5 137.972656 L 370.839844 133.292969 L 369.824219 131.917969 L 367.550781 128.277344 L 365.730469 125.6875 L 363.925781 123.261719 L 360.363281 118.59375 L 356.648438 114.117188 L 355.136719 112.59375 L 352.238281 109.4375 L 349.320312 106.453125 L 347.601562 104.9375 L 343.589844 101.167969 L 341.886719 99.847656 L 338.527344 97.089844 L 333.800781 93.507812 L 328.964844 90.222656 L 325.421875 87.953125 L 323.554688 86.941406 L 318.949219 84.335938 L 315.164062 82.355469 L 313.378906 81.589844 L 309.230469 79.644531 L 307.597656 79.0625 L 302.929688 77.148438 L 297.519531 75.300781 L 292.339844 73.695312 L 290.050781 73.113281 L 286.109375 72.136719 L 280.492188 70.929688 L 276.789062 70.261719 L 273.984375 69.84375 L 268.113281 69.109375 L 261.847656 68.539062 L 261.765625 68.535156 L 261.761719 68.535156 L 255.714844 68.28125 L 255.632812 68.277344 L 255.628906 68.277344 L 252.105469 68.238281 L 252.019531 68.238281 L 248.910156 68.273438 L 248.824219 68.277344 L 242.886719 68.53125 L 242.800781 68.535156 L 237.878906 68.894531 L 236.050781 69.054688 L 235.964844 69.0625 L 230.292969 69.808594 L 224.714844 70.714844 L 222.78125 71.042969 L 218.261719 72.042969 L 212.796875 73.425781 L 209.757812 74.269531 L 206.765625 75.183594 L 201.644531 76.96875 L 197.675781 78.507812 L 196.710938 78.898438 L 195.25 79.421875 L 190.679688 81.535156 L 185.582031 84.039062 L 180.554688 86.839844 L 175.566406 89.867188 L 170.769531 93.144531 L 167.550781 95.507812 L 165.578125 96.925781 L 161.390625 100.464844 L 159.53125 101.96875 L 156.53125 104.738281 L 153.234375 108.019531 L 151.867188 109.21875 L 148.214844 113.324219 L 146.769531 114.796875 L 144.039062 118.132812 L 141.75 121.039062 L 140.121094 123.058594 L 136.824219 127.746094 L 133.832031 132.457031 L 132.691406 134.125 L 130.796875 137.480469 L 129.300781 140.21875 L 128.066406 142.480469 L 126.402344 146.097656 L 125.632812 147.441406 L 123.707031 152.078125 L 122.039062 156.667969 L 121.53125 157.597656 L 120.136719 162.171875 L 119.230469 165.375 L 118.726562 167.140625 L 118.308594 168.660156 L 117.886719 170.808594 L 117.523438 172.226562 L 117.207031 173.691406 L 116.910156 174.492188 L 115.601562 175.601562 L 114.796875 176.402344 L 114.070312 177.1875 L 112.3125 178.8125 L 110.945312 180.203125 L 109.839844 181.449219 L 107.105469 184.371094 L 103.421875 188.65625 L 100.480469 192.300781 L 99.722656 193.515625 L 96.347656 198.09375 L 93.0625 203.09375 L 90.070312 207.984375 L 89.316406 209.601562 L 87.191406 213.421875 L 85.851562 216.191406 L 84.558594 219.027344 L 82.273438 224.273438 L 80.28125 229.46875 L 79.539062 231.902344 L 78.488281 235.273438 L 77.007812 240.578125 L 75.816406 245.9375 L 75.042969 249.886719 L 74.839844 251.046875 L 74.765625 252.503906 L 74.058594 257.28125 L 73.773438 260.445312 L 73.609375 263.296875 L 73.339844 268.550781 L 73.34375 271.535156 L 73.410156 274.816406 L 73.609375 280.308594 L 73.863281 283.171875 L 74.226562 286.785156 L 74.925781 292.464844 L 75.414062 295.296875 L 76.109375 299.050781 L 77.328125 304.816406 L 78.097656 307.851562 L 79.0625 311.355469 L 80.792969 317.074219 L 82.027344 320.714844 L 83.042969 323.433594 L 85.25 328.9375 L 87.730469 334.5625 L 87.769531 334.636719 L 90.390625 339.859375 L 90.429688 339.933594 L 92.296875 343.371094 L 92.335938 343.445312 L 93.523438 345.515625 L 93.566406 345.585938 L 96.398438 350.167969 L 96.445312 350.242188 L 99.425781 354.734375 L 100.816406 356.71875 L 102.65625 359.144531 L 103.664062 360.507812 L 103.714844 360.574219 L 106.855469 364.445312 L 109.65625 367.695312 L 110.972656 369.210938 L 114.695312 373.054688 L 118.605469 376.839844 L 120.0625 378.25 L 123.488281 381.207031 L 127.902344 384.78125 L 129.867188 386.347656 L 133.203125 388.773438 L 137.949219 391.957031 L 139.726562 393.1875 L 143.652344 395.535156 L 149.035156 398.570312 L 154.515625 401.292969 L 158.222656 402.992188 L 160.488281 404.054688 L 165.617188 406.003906 L 167.757812 406.882812 L 171.617188 408.171875 L 177.125 409.828125 L 182.503906 411.152344 L 185.328125 411.816406 L 188.308594 412.433594 L 193.558594 413.265625 L 198.503906 413.746094 L 199.789062 414.050781 L 202.015625 414.140625 L 204.898438 414.347656 L 210.136719 414.457031 L 215.335938 414.296875 L 217.222656 414.308594 L 220.996094 413.984375 L 223.730469 413.734375 L 226.644531 413.394531 L 229.707031 412.929688 L 232.257812 412.535156 L 235.070312 411.984375 L 237.792969 411.410156 L 239.761719 410.996094 L 243.433594 410.046875 L 246.480469 409.171875 L 248.941406 408.425781 L 250.488281 407.976562 L 251.382812 407.644531 L 252.226562 407.515625 L 254.410156 408.265625 L 255.9375 408.667969 L 258.210938 409.417969 L 260.003906 409.902344 L 261.695312 410.296875 L 265.664062 411.296875 L 271.207031 412.445312 L 275.726562 413.230469 L 277.101562 413.289062 L 282.402344 413.957031 L 287.644531 414.382812 L 289.296875 414.3125 L 293.289062 414.464844 Z M 356.082031 258.410156 L 355.292969 261.003906 L 355.144531 260.988281 L 354.050781 264.648438 L 353.144531 267.238281 L 352.988281 267.398438 L 351.703125 271.179688 L 350.710938 273.714844 L 350.507812 274.089844 L 349.042969 277.945312 L 347.894531 280.640625 L 347.738281 280.902344 L 346.15625 284.671875 L 344.613281 288.003906 L 343.09375 291.261719 L 341.515625 294.378906 L 339.992188 297.378906 L 338.371094 300.371094 L 337.4375 301.941406 L 337.394531 302.015625 L 337.039062 302.707031 L 335.25 305.753906 L 334.757812 306.519531 L 333.996094 307.855469 L 331.992188 310.957031 L 332.023438 310.980469 L 330.605469 313.035156 L 328.96875 315.460938 L 327 318.121094 L 326.453125 318.859375 L 325.425781 320.304688 L 323.148438 323.160156 L 321.785156 324.773438 L 321.289062 325.535156 L 318.625 328.601562 L 317.214844 330.171875 L 316.5 331.136719 L 313.53125 334.289062 L 312.796875 335.136719 L 311.230469 336.882812 L 308.414062 339.757812 L 305.628906 342.574219 L 303.5 344.574219 L 303.269531 345.039062 L 300.03125 347.925781 L 299.566406 348.5 L 297.699219 350.246094 L 294.929688 352.675781 L 292.109375 355.054688 L 290.960938 356.054688 L 289.75 357.152344 L 286.445312 359.5 L 286.527344 359.761719 L 283.570312 361.753906 L 282.574219 362.550781 L 280.835938 363.800781 L 278.035156 365.519531 L 277.867188 365.867188 L 274.222656 368.027344 L 270.355469 370.175781 L 270.269531 370.417969 L 266.804688 372.222656 L 262.671875 374.28125 L 259.546875 375.722656 L 258.472656 376.289062 L 257.226562 376.867188 L 255.003906 377.75 L 254.097656 378.230469 L 252.269531 378.96875 L 251.425781 378.839844 L 250.53125 378.503906 L 249.613281 378.050781 L 247.546875 377.15625 L 245.160156 376.101562 L 242.128906 374.714844 L 240.957031 374.097656 L 238.871094 373.054688 L 236.832031 372.03125 L 235.171875 371.085938 L 233.027344 369.941406 L 231.113281 368.8125 L 229.53125 367.851562 L 226.78125 366.230469 L 226.328125 365.777344 L 222.945312 363.609375 L 219.832031 361.464844 L 218.5 360.378906 L 217.21875 359.546875 L 217.292969 359.3125 L 214.15625 356.992188 L 211.320312 354.710938 L 210.070312 353.535156 L 208.992188 352.542969 L 206.15625 350.050781 L 203.375 347.515625 L 201.363281 345.585938 L 201.027344 345.109375 L 197.789062 342.109375 L 197.335938 341.449219 L 195.417969 339.574219 L 192.652344 336.683594 L 189.945312 333.820312 L 187.800781 331.445312 L 187.777344 331.273438 L 184.933594 328.15625 L 183.273438 326.144531 L 182.972656 325.707031 L 180.484375 322.75 L 178.796875 320.582031 L 178.851562 320.53125 L 176.625 317.683594 L 174.804688 315.160156 L 174.875 315.101562 L 173.265625 312.886719 L 171.8125 310.734375 L 171.851562 310.707031 L 170.320312 308.292969 L 170.175781 308.082031 L 168.457031 305.320312 L 166.777344 302.398438 L 166.667969 302.132812 L 166.625 302.058594 L 165.472656 300.0625 L 163.894531 297.089844 L 162.3125 294.101562 L 160.660156 290.679688 L 160.257812 289.804688 L 159.28125 287.851562 L 157.644531 284.171875 L 156.898438 282.375 L 156.304688 281.1875 L 154.761719 277.371094 L 153.980469 275.316406 L 153.515625 274.394531 L 152.125 270.59375 L 151.46875 268.707031 L 151.007812 267.734375 L 149.8125 264.0625 L 149.308594 262.535156 L 148.820312 261.355469 L 147.8125 257.816406 L 147.453125 256.738281 L 146.933594 255.195312 L 146.082031 251.425781 L 145.875 251.425781 L 145.847656 251.289062 L 145.207031 248.636719 L 144.480469 245.347656 L 143.773438 241.847656 L 143.398438 239.667969 L 143.074219 238.660156 L 142.515625 234.679688 L 142.007812 230.574219 L 141.769531 228.6875 L 141.496094 226.691406 L 141.304688 222.988281 L 141.082031 222.5625 L 140.882812 217.875 L 140.707031 213.363281 L 140.730469 208.570312 L 140.570312 208.28125 L 140.683594 204.265625 L 140.878906 199.65625 L 141.121094 196.328125 L 141.125 195.246094 L 141.242188 193.765625 L 141.550781 191.390625 L 141.527344 190.816406 L 141.554688 190.132812 L 141.816406 188.441406 L 142.34375 187.765625 L 143.183594 187.160156 L 144.011719 186.617188 L 145.71875 185.246094 L 146.546875 184.699219 L 147.691406 183.941406 L 149.859375 182.429688 L 153.152344 180.15625 L 153.335938 180.285156 L 156.832031 178.054688 L 160.363281 175.964844 L 160.757812 175.96875 L 163.726562 174.253906 L 165.191406 173.613281 L 167.164062 172.625 L 169.996094 171.230469 L 170.679688 171.0625 L 174.617188 169.246094 L 178.609375 167.507812 L 179.847656 167.15625 L 182.304688 166.140625 L 185.519531 164.871094 L 186.019531 164.839844 L 190.472656 163.070312 L 190.617188 163.246094 L 194.066406 161.960938 L 196.847656 161.078125 L 197.546875 160.964844 L 201.726562 159.589844 L 202.414062 159.558594 L 204.878906 158.824219 L 208.363281 157.941406 L 211.578125 157.183594 L 214.679688 156.5625 L 217.660156 155.980469 L 220.433594 155.453125 L 220.476562 155.589844 L 221.023438 155.523438 L 223.730469 155.03125 L 226.980469 154.585938 L 228.273438 154.503906 L 229.558594 154.351562 L 232.984375 153.992188 L 235.695312 153.789062 L 235.703125 153.839844 L 239.570312 153.539062 L 243.132812 153.386719 L 243.136719 153.441406 L 246.609375 153.28125 L 250.554688 153.234375 L 251.894531 153.277344 L 251.980469 153.277344 L 253.847656 153.242188 L 257.679688 153.320312 L 261.261719 153.394531 L 265.050781 153.605469 L 265.894531 153.667969 L 267.964844 153.753906 L 271.492188 154.050781 L 273.902344 154.339844 L 274.121094 154.257812 L 277.53125 154.664062 L 280.472656 155.078125 L 283.976562 155.667969 L 284.019531 155.539062 L 287.039062 156.199219 L 287.082031 156.082031 L 289.550781 156.570312 L 293.082031 157.421875 L 293.171875 157.320312 L 295.878906 157.960938 L 299.332031 158.875 L 302.953125 159.867188 L 305.839844 160.804688 L 306.257812 160.742188 L 310.582031 162.273438 L 311.222656 162.367188 L 314.191406 163.394531 L 317.246094 164.578125 L 317.867188 164.613281 L 322.019531 166.261719 L 326.042969 167.898438 L 327.707031 168.550781 L 329.675781 169.328125 L 332.910156 170.898438 L 333.28125 170.84375 L 337.132812 172.753906 L 340.808594 174.65625 L 341.769531 175.046875 L 344.144531 176.363281 L 345.925781 177.371094 L 347.449219 178.191406 L 349.632812 179.578125 L 350.949219 180.445312 L 351.113281 180.328125 L 352.808594 181.550781 L 354.445312 182.625 L 355.496094 183.296875 L 357.765625 184.925781 L 359.511719 186.214844 L 361.175781 187.472656 L 361.921875 187.964844 L 362.21875 188.769531 L 362.359375 189.710938 L 362.5 191.203125 L 362.632812 192.945312 L 362.882812 195.617188 L 363.125 198.851562 L 363.132812 200.054688 L 363.242188 202.5 L 363.324219 204.675781 L 363.316406 206.699219 L 363.367188 209.257812 L 363.308594 211.375 L 363.28125 213.773438 L 363.183594 216.445312 L 363.070312 218.1875 L 362.933594 221.84375 L 362.75 222.457031 L 362.429688 226.992188 L 362.019531 231.324219 L 361.730469 232.460938 L 361.429688 234.96875 L 360.984375 238.363281 L 360.777344 238.390625 L 360.195312 242.527344 L 359.839844 243.628906 L 359.457031 245.5 L 358.703125 248.859375 L 358.09375 251.710938 L 357.851562 251.714844 L 356.976562 255.300781 Z M 356.082031 258.410156 "/>
<path style="fill:none;stroke-width:2.25;stroke-linecap:round;stroke-linejoin:round;stroke:rgb(93.333333%,92.54902%,11.764706%);stroke-opacity:1;stroke-dasharray:9,9;stroke-miterlimit:10;" d="M 393.574219 252 L 393.503906 247.726562 L 393.285156 243.40625 L 392.914062 239.011719 L 392.382812 234.523438 L 391.683594 229.941406 L 390.816406 225.269531 L 389.769531 220.53125 L 388.554688 215.75 L 387.171875 210.957031 L 385.632812 206.195312 L 383.949219 201.5 L 382.132812 196.902344 L 380.199219 192.441406 L 378.167969 188.136719 L 376.046875 184.003906 L 373.847656 180.042969 L 371.570312 176.253906 L 369.214844 172.621094 L 366.769531 169.109375 L 366.535156 168.785156 L 363.964844 165.367188 L 361.25 162 L 358.367188 158.664062 L 355.300781 155.347656 L 352.042969 152.050781 L 348.59375 148.78125 L 344.960938 145.5625 L 341.167969 142.40625 L 337.234375 139.34375 L 333.1875 136.394531 L 329.0625 133.585938 L 324.894531 130.9375 L 320.710938 128.460938 L 316.535156 126.171875 L 312.390625 124.074219 L 308.28125 122.164062 L 304.214844 120.4375 L 300.171875 118.882812 L 296.128906 117.480469 L 295.75 117.355469 L 291.660156 116.101562 L 287.484375 114.972656 L 283.191406 113.96875 L 278.761719 113.085938 L 274.1875 112.335938 L 269.476562 111.71875 L 264.644531 111.25 L 259.722656 110.925781 L 254.738281 110.761719 L 249.730469 110.753906 L 244.746094 110.90625 L 239.8125 111.210938 L 234.972656 111.667969 L 230.25 112.269531 L 225.664062 113.011719 L 221.21875 113.878906 L 216.910156 114.875 L 212.726562 115.992188 L 208.632812 117.230469 L 208.25 117.355469 L 204.207031 118.742188 L 200.167969 120.285156 L 196.101562 121.996094 L 191.996094 123.886719 L 187.855469 125.96875 L 183.683594 128.238281 L 179.5 130.695312 L 175.324219 133.332031 L 171.195312 136.125 L 167.144531 139.0625 L 163.195312 142.117188 L 159.386719 145.261719 L 155.742188 148.476562 L 152.273438 151.742188 L 148.996094 155.035156 L 145.914062 158.351562 L 143.011719 161.6875 L 140.28125 165.050781 L 137.699219 168.460938 L 137.464844 168.785156 L 135.007812 172.285156 L 132.644531 175.90625 L 130.363281 179.679688 L 128.15625 183.625 L 126.027344 187.742188 L 123.984375 192.03125 L 122.042969 196.480469 L 120.21875 201.0625 L 118.519531 205.75 L 116.964844 210.507812 L 115.570312 215.300781 L 114.335938 220.085938 L 113.277344 224.828125 L 112.390625 229.507812 L 111.675781 234.097656 L 111.128906 238.59375 L 110.742188 242.996094 L 110.511719 247.320312 L 110.425781 251.601562 L 110.425781 252 L 110.496094 256.273438 L 110.714844 260.59375 L 111.085938 264.988281 L 111.617188 269.476562 L 112.316406 274.058594 L 113.183594 278.730469 L 114.230469 283.46875 L 115.445312 288.25 L 116.828125 293.042969 L 118.367188 297.804688 L 120.050781 302.5 L 121.867188 307.097656 L 123.800781 311.558594 L 125.832031 315.863281 L 127.953125 319.996094 L 130.152344 323.957031 L 132.429688 327.746094 L 134.785156 331.378906 L 137.230469 334.890625 L 137.464844 335.214844 L 140.035156 338.632812 L 142.75 342 L 145.632812 345.335938 L 148.699219 348.652344 L 151.957031 351.949219 L 155.40625 355.21875 L 159.039062 358.4375 L 162.832031 361.59375 L 166.765625 364.65625 L 170.8125 367.605469 L 174.9375 370.414062 L 179.105469 373.0625 L 183.289062 375.539062 L 187.464844 377.828125 L 191.609375 379.925781 L 195.71875 381.835938 L 199.785156 383.5625 L 203.828125 385.117188 L 207.871094 386.519531 L 208.25 386.644531 L 212.339844 387.898438 L 216.515625 389.027344 L 220.808594 390.03125 L 225.238281 390.914062 L 229.8125 391.664062 L 234.523438 392.28125 L 239.355469 392.75 L 244.277344 393.074219 L 249.261719 393.238281 L 254.269531 393.246094 L 259.253906 393.09375 L 264.1875 392.789062 L 269.027344 392.332031 L 273.75 391.730469 L 278.335938 390.988281 L 282.78125 390.121094 L 287.089844 389.125 L 291.273438 388.007812 L 295.367188 386.769531 L 295.75 386.644531 L 299.792969 385.257812 L 303.832031 383.714844 L 307.898438 382.003906 L 312.003906 380.113281 L 316.144531 378.03125 L 320.316406 375.761719 L 324.5 373.304688 L 328.675781 370.667969 L 332.804688 367.875 L 336.855469 364.9375 L 340.804688 361.882812 L 344.613281 358.738281 L 348.257812 355.523438 L 351.726562 352.257812 L 355.003906 348.964844 L 358.085938 345.648438 L 360.988281 342.3125 L 363.71875 338.949219 L 366.300781 335.539062 L 366.535156 335.214844 L 368.992188 331.714844 L 371.355469 328.09375 L 373.636719 324.320312 L 375.84375 320.375 L 377.972656 316.257812 L 380.015625 311.96875 L 381.957031 307.519531 L 383.78125 302.9375 L 385.480469 298.25 L 387.035156 293.492188 L 388.429688 288.699219 L 389.664062 283.914062 L 390.722656 279.171875 L 391.609375 274.492188 L 392.324219 269.902344 L 392.871094 265.40625 L 393.257812 261.003906 L 393.488281 256.679688 L 393.574219 252.398438 L 393.574219 252 "/>
</g>
</svg>
