<?xml version="1.0" encoding="UTF-8"?>
<svg xmlns="http://www.w3.org/2000/svg" xmlns:xlink="http://www.w3.org/1999/xlink" width="504pt" height="504pt" viewBox="0 0 504 504" version="1.1">
<g id="surface303">
<path style="fill-rule:nonzero;fill:rgb(0%,0%,0%);fill-opacity:1;stroke-width:0.75;stroke-linecap:round;stroke-linejoin:round;stroke:rgb(0%,0%,0%);stroke-opacity:1;stroke-miterlimit:10;" d="M 50.398438 302.398438 L 50.480469 302.410156 L 51.007812 302.476562 L 52.347656 302.636719 L 54.773438 302.914062 L 58.453125 303.324219 L 63.421875 303.847656 L 69.605469 304.464844 L 76.824219 305.132812 L 84.832031 305.8125 L 93.347656 306.457031 L 102.101562 307.019531 L 110.855469 307.464844 L 119.421875 307.761719 L 127.667969 307.894531 L 135.519531 307.839844 L 142.941406 307.582031 L 149.933594 307.117188 L 156.527344 306.429688 L 162.761719 305.511719 L 168.699219 304.351562 L 174.398438 302.933594 L 179.925781 301.253906 L 185.34375 299.296875 L 190.703125 297.058594 L 192.585938 296.207031 L 197.464844 293.847656 L 202.375 291.257812 L 207.335938 288.4375 L 212.367188 285.390625 L 217.480469 282.117188 L 222.679688 278.625 L 227.96875 274.921875 L 233.339844 271.027344 L 238.789062 266.949219 L 244.300781 262.722656 L 249.863281 258.359375 L 255.457031 253.902344 L 261.066406 249.371094 L 266.660156 244.800781 L 272.226562 240.226562 L 277.742188 235.679688 L 283.183594 231.191406 L 288.542969 226.789062 L 293.800781 222.5 L 298.949219 218.351562 L 303.984375 214.355469 L 308.898438 210.527344 L 313.703125 206.882812 L 318.402344 203.421875 L 323.007812 200.152344 L 327.542969 197.066406 L 330.753906 194.976562 L 335.917969 191.785156 L 341.082031 188.832031 L 346.296875 186.101562 L 351.628906 183.570312 L 357.136719 181.210938 L 362.894531 179 L 368.957031 176.90625 L 375.371094 174.914062 L 382.164062 173.003906 L 389.335938 171.164062 L 396.847656 169.398438 L 404.613281 167.707031 L 412.492188 166.105469 L 420.277344 164.613281 L 427.722656 163.261719 L 434.554688 162.082031 L 440.511719 161.09375 L 445.382812 160.316406 L 449.050781 159.75 L 451.519531 159.378906 L 452.921875 159.175781 L 453.5 159.09375 L 453.601562 159.082031 L 453.601562 244.121094 L 453.5 244.109375 L 452.898438 244.066406 L 451.449219 243.964844 L 448.914062 243.808594 L 445.214844 243.617188 L 440.429688 243.421875 L 434.753906 243.261719 L 428.464844 243.1875 L 421.847656 243.230469 L 415.152344 243.429688 L 408.570312 243.808594 L 402.21875 244.386719 L 396.144531 245.1875 L 390.347656 246.222656 L 384.789062 247.511719 L 379.40625 249.078125 L 374.125 250.953125 L 368.851562 253.152344 L 363.515625 255.707031 L 358.046875 258.625 L 355.628906 259.996094 L 351.316406 262.550781 L 346.863281 265.308594 L 342.261719 268.261719 L 337.488281 271.410156 L 332.542969 274.738281 L 327.414062 278.234375 L 322.113281 281.878906 L 316.640625 285.652344 L 311.007812 289.53125 L 305.234375 293.484375 L 299.332031 297.480469 L 293.332031 301.488281 L 287.257812 305.46875 L 281.132812 309.394531 L 274.980469 313.226562 L 268.832031 316.933594 L 262.707031 320.484375 L 256.625 323.855469 L 250.609375 327.023438 L 244.667969 329.964844 L 238.808594 332.664062 L 233.03125 335.109375 L 227.339844 337.289062 L 221.71875 339.199219 L 216.148438 340.835938 L 210.613281 342.191406 L 209.34375 342.464844 L 203.730469 343.476562 L 198.078125 344.171875 L 192.332031 344.539062 L 186.445312 344.570312 L 180.355469 344.257812 L 174.003906 343.597656 L 167.339844 342.585938 L 160.308594 341.21875 L 152.882812 339.492188 L 145.035156 337.417969 L 136.777344 335.003906 L 128.132812 332.277344 L 119.183594 329.269531 L 110.039062 326.046875 L 100.867188 322.683594 L 91.871094 319.273438 L 83.292969 315.9375 L 75.382812 312.789062 L 68.382812 309.949219 L 62.488281 307.519531 L 57.820312 305.566406 L 54.40625 304.125 L 52.175781 303.167969 L 50.949219 302.640625 L 50.472656 302.429688 Z M 50.398438 302.398438 "/>
<path style="fill:none;stroke-width:2.25;stroke-linecap:round;stroke-linejoin:round;stroke:rgb(100%,100%,100%);stroke-opacity:1;stroke-dasharray:9,9;stroke-miterlimit:10;" d="M 50.398438 302.398438 L 50.476562 302.421875 L 50.984375 302.570312 L 52.28125 302.9375 L 54.640625 303.601562 L 58.222656 304.589844 L 63.097656 305.910156 L 69.203125 307.527344 L 76.386719 309.382812 L 84.425781 311.394531 L 93.050781 313.472656 L 102 315.53125 L 111.027344 317.492188 L 119.933594 319.292969 L 128.574219 320.878906 L 136.851562 322.222656 L 144.710938 323.292969 L 152.140625 324.078125 L 159.152344 324.570312 L 165.78125 324.765625 L 172.078125 324.65625 L 178.097656 324.242188 L 183.902344 323.523438 L 189.554688 322.496094 L 195.113281 321.160156 L 200.625 319.519531 L 201.601562 319.199219 L 206.8125 317.339844 L 212.054688 315.222656 L 217.347656 312.855469 L 222.714844 310.234375 L 228.164062 307.371094 L 233.695312 304.273438 L 239.316406 300.945312 L 245.015625 297.410156 L 250.785156 293.679688 L 256.605469 289.785156 L 262.46875 285.746094 L 268.347656 281.59375 L 274.21875 277.363281 L 280.058594 273.082031 L 285.84375 268.789062 L 291.554688 264.511719 L 297.167969 260.289062 L 302.667969 256.148438 L 308.039062 252.113281 L 313.265625 248.214844 L 318.347656 244.46875 L 323.285156 240.890625 L 328.074219 237.492188 L 332.730469 234.285156 L 337.261719 231.273438 L 341.691406 228.453125 L 344.398438 226.800781 L 349.703125 223.738281 L 354.945312 220.96875 L 360.191406 218.480469 L 365.507812 216.242188 L 370.96875 214.238281 L 376.644531 212.433594 L 382.601562 210.804688 L 388.882812 209.335938 L 395.507812 208.007812 L 402.449219 206.8125 L 409.644531 205.742188 L 416.957031 204.796875 L 424.191406 203.976562 L 431.101562 203.289062 L 437.402344 202.730469 L 442.820312 202.296875 L 447.152344 201.988281 L 450.292969 201.785156 L 452.273438 201.667969 L 453.269531 201.617188 L 453.582031 201.601562 L 453.601562 201.601562 "/>
</g>
</svg>
