<?xml version="1.0" encoding="UTF-8"?>
<svg xmlns="http://www.w3.org/2000/svg" xmlns:xlink="http://www.w3.org/1999/xlink" width="504px" height="504px" viewBox="0 0 504 504" version="1.1">
  <metadata xmlns:gridsvg="http://www.stat.auckland.ac.nz/~paul/R/gridSVG/">
    <gridsvg:generator name="gridSVG" version="1.5-1" time="2017-03-08 14:56:01"/>
    <gridsvg:argument name="name" value="gallery-leaf-gridSVG.svg"/>
    <gridsvg:argument name="exportCoords" value="none"/>
    <gridsvg:argument name="exportMappings" value="none"/>
    <gridsvg:argument name="exportJS" value="none"/>
    <gridsvg:argument name="res" value="72"/>
    <gridsvg:argument name="prefix" value=""/>
    <gridsvg:argument name="addClasses" value="FALSE"/>
    <gridsvg:argument name="indent" value="TRUE"/>
    <gridsvg:argument name="htmlWrapper" value="FALSE"/>
    <gridsvg:argument name="usePaths" value="vpPaths"/>
    <gridsvg:argument name="uniqueNames" value="TRUE"/>
    <gridsvg:separator name="id.sep" value="."/>
    <gridsvg:separator name="gPath.sep" value="::"/>
    <gridsvg:separator name="vpPath.sep" value="::"/>
  </metadata>
  <g transform="translate(0, 504) scale(1, -1)">
    <g id="gridSVG" fill="none" stroke="rgb(0,0,0)" stroke-dasharray="none" stroke-width="0.75" font-size="12" font-family="Helvetica, Arial, FreeSans, Liberation Sans, Nimbus Sans L, sans-serif" opacity="1" stroke-linecap="round" stroke-linejoin="round" stroke-miterlimit="10" stroke-opacity="1" fill-opacity="0" font-weight="normal" font-style="normal">
      <defs>
        <linearGradient id="gridSVG.gradientFill.1.1" x1="0" x2="1" y1="1" y2="0" gradientUnits="objectBoundingBox" spreadMethod="pad">
          <stop offset="0.25" stop-color="rgb(229,229,229)" stop-opacity="1"/>
          <stop offset="0.5" stop-color="rgb(102,102,102)" stop-opacity="1"/>
          <stop offset="0.75" stop-color="rgb(229,229,229)" stop-opacity="1"/>
        </linearGradient>
      </defs>
      <g id="leaf.1" stroke="none" stroke-opacity="0">
        <g id="outline.1">
          <path id="outline.1.1" d="M 100.8 100.8 L 100.82 100.87 L 100.93 101.31 L 101.22 102.45 L 101.76 104.55 L 102.61 107.8 L 103.79 112.29 L 105.34 118.05 L 107.25 125.02 L 109.49 133.06 L 112.03 141.99 L 114.82 151.56 L 117.81 161.55 L 120.96 171.73 L 124.2 181.9 L 127.52 191.88 L 130.87 201.54 L 134.25 210.8 L 137.64 219.6 L 141.05 227.9 L 144.48 235.7 L 147.94 243.02 L 151.45 249.88 L 155.04 256.32 L 158.74 262.38 L 162.56 268.11 L 166.53 273.54 L 170.69 278.74 L 175.05 283.73 L 179.63 288.57 L 180.72 289.68 L 185.12 293.93 L 189.72 298.09 L 194.58 302.17 L 199.72 306.21 L 205.18 310.21 L 211 314.2 L 217.23 318.21 L 223.89 322.27 L 231.03 326.39 L 238.67 330.59 L 246.83 334.89 L 255.54 339.3 L 264.78 343.83 L 274.54 348.48 L 284.79 353.23 L 295.44 358.06 L 306.41 362.93 L 317.58 367.8 L 328.77 372.62 L 339.8 377.3 L 350.46 381.77 L 360.53 385.95 L 369.8 389.76 L 378.07 393.13 L 385.19 396.02 L 391.07 398.38 L 395.67 400.22 L 399.03 401.55 L 401.25 402.43 L 402.53 402.94 L 403.08 403.15 L 403.2 403.2 L 403.2 403.2 L 403.2 403.2 L 403.2 403.19 L 403.17 403.01 L 403.05 402.31 L 402.78 400.78 L 402.32 398.19 L 401.64 394.35 L 400.69 389.14 L 399.48 382.53 L 397.99 374.54 L 396.23 365.27 L 394.22 354.89 L 391.98 343.58 L 389.55 331.59 L 386.97 319.15 L 384.25 306.48 L 381.45 293.79 L 378.58 281.28 L 375.67 269.08 L 372.73 257.33 L 369.78 246.09 L 366.81 235.44 L 363.84 225.4 L 360.85 215.99 L 357.84 207.19 L 354.79 199.01 L 351.7 191.4 L 348.55 184.34 L 345.32 177.79 L 341.98 171.72 L 338.54 166.08 L 334.96 160.84 L 331.23 155.96 L 327.34 151.4 L 323.28 147.12 L 319.74 143.74 L 314.95 139.62 L 309.89 135.79 L 304.53 132.26 L 298.81 129.01 L 292.69 126.01 L 286.13 123.25 L 279.09 120.71 L 271.52 118.38 L 263.39 116.23 L 254.68 114.27 L 245.38 112.46 L 235.48 110.81 L 225.03 109.31 L 214.08 107.94 L 202.73 106.71 L 191.1 105.62 L 179.36 104.65 L 167.71 103.81 L 156.4 103.09 L 145.66 102.49 L 135.76 102 L 126.92 101.62 L 119.33 101.33 L 113.09 101.12 L 108.26 100.97 L 104.79 100.88 L 102.56 100.83 L 101.34 100.81 L 100.87 100.8 L 100.8 100.8 Z" fill-rule="nonzero" stroke="none" stroke-opacity="0" fill="url(#gridSVG.gradientFill.1.1)" fill-opacity="1"/>
        </g>
      </g>
    </g>
  </g>
</svg>